<?xml version="1.0" encoding="UTF-8" standalone="no"?>
<!-- Generator: Adobe Illustrator 16.0.4, SVG Export Plug-In . SVG Version: 6.00 Build 0)  -->

<svg
   xmlns:dc="http://purl.org/dc/elements/1.1/"
   xmlns:cc="http://creativecommons.org/ns#"
   xmlns:rdf="http://www.w3.org/1999/02/22-rdf-syntax-ns#"
   xmlns:svg="http://www.w3.org/2000/svg"
   xmlns="http://www.w3.org/2000/svg"
   xmlns:sodipodi="http://sodipodi.sourceforge.net/DTD/sodipodi-0.dtd"
   xmlns:inkscape="http://www.inkscape.org/namespaces/inkscape"
   version="1.1"
   id="レイヤー_1"
   x="0px"
   y="0px"
   width="87"
   height="23"
   viewBox="0 0 87 23"
   enable-background="new 0 0 46 23"
   xml:space="preserve"
   inkscape:version="0.48.5 r10040"
   sodipodi:docname="OB_funengomi.svg"><metadata
   id="metadata3103"><rdf:RDF><cc:Work
       rdf:about=""><dc:format>image/svg+xml</dc:format><dc:type
         rdf:resource="http://purl.org/dc/dcmitype/StillImage" /><dc:title></dc:title></cc:Work></rdf:RDF></metadata><defs
   id="defs3101" /><sodipodi:namedview
   pagecolor="#ffffff"
   bordercolor="#666666"
   borderopacity="1"
   objecttolerance="10"
   gridtolerance="10"
   guidetolerance="10"
   inkscape:pageopacity="0"
   inkscape:pageshadow="2"
   inkscape:window-width="1247"
   inkscape:window-height="654"
   id="namedview3099"
   showgrid="false"
   inkscape:zoom="5.1304348"
   inkscape:cx="60.274684"
   inkscape:cy="6.3869974"
   inkscape:window-x="0"
   inkscape:window-y="0"
   inkscape:window-maximized="0"
   inkscape:current-layer="レイヤー_1" />


<g
   style="font-size:22.03779411px;font-style:normal;font-variant:normal;font-weight:200;font-stretch:normal;line-height:125%;letter-spacing:0px;word-spacing:0px;fill:#f2f2f2;fill-opacity:1;stroke:none;font-family:'M+ 2c light';-inkscape-font-specification:'M+ 2c light, Ultra-Light'"
   id="text3003"><path
     d="m 12.508646,9.7331268 c 2.659207,1.9835542 5.208356,4.2314052 7.647453,6.7435592 l -0.6833,0.749883 C 17.07809,14.758353 14.551135,12.510502 11.891926,10.483009 z M 1.2032466,5.3481653 l 0,-0.947609 18.2917454,0 0,0.947609 -6.964152,0 C 11.987415,6.3031868 11.436381,7.162468 10.877736,7.9260116 l 0,14.2148074 -1.057233,0 0,-12.8703998 C 7.6459483,12.032774 4.7515628,14.691995 1.1373377,17.24809 L 0.56433352,16.388584 C 5.4568325,12.936219 9.0562635,9.2560832 11.362637,5.3481653 z"
     style=""
     id="path2984" /><path
     d="m 22.448116,13.524235 c 0.514267,-2.027475 0.771402,-4.4223875 0.771403,-7.1847456 l 0.991325,0.044388 c -3e-6,2.8206448 -0.271709,5.2814669 -0.815119,7.3824729 z m 14.809333,-9.917276 1.035712,0 0,3.1071353 0,0.4627076 3.790436,0 0,0.9260877 -3.702333,0 c 0.352393,2.9233174 1.711371,5.4722414 4.076938,7.6467814 l -0.661107,0.815791 c -1.99836,-1.880865 -3.342766,-4.033215 -4.033223,-6.457058 -0.807961,2.600048 -2.299205,4.752399 -4.473737,6.457058 L 32.585313,15.81558 c 2.688353,-2.10056 4.223536,-4.671454 4.605555,-7.7126904 l -2.004842,0 c -0.676141,1.7481669 -1.601891,3.3935344 -2.777255,4.9361084 -1.175386,1.542589 -2.490312,2.842944 -3.944784,3.901069 l -0.528616,-0.837985 c 1.175144,-0.851879 2.269589,-1.894988 3.28334,-3.12933 -1.028098,-0.940202 -1.792103,-1.61588 -2.292016,-2.027035 l 0.617392,-0.683301 c 0.954997,0.807954 1.704206,1.469061 2.247629,1.983321 0.529054,-0.720057 0.977189,-1.417929 1.344407,-2.093618 C 32.430842,9.5203912 31.637469,8.851887 30.756004,8.1466047 l 0.617392,-0.7270158 c 0.719607,0.5878128 1.461418,1.2195515 2.225435,1.895218 0.470317,-0.9401987 0.859717,-1.9687356 1.168202,-3.085614 l -3.393637,0 c -0.70528,1.4105539 -1.572183,2.7181947 -2.600713,3.9229261 L 28.155964,9.5791151 c -0.323274,1.0724879 -0.74944,2.1303919 -1.278499,3.1737169 l -0.793597,-0.353084 c -0.02915,0.426399 -0.08788,0.977433 -0.176206,1.653104 0.955002,1.645486 1.814507,3.401263 2.578519,5.267334 l -0.771404,0.506423 c -0.616949,-1.513213 -1.300025,-2.945722 -2.049229,-4.297532 -0.529069,2.806289 -1.395972,4.966037 -2.600713,6.479252 l -0.704822,-0.727016 c 1.924359,-2.526955 2.886538,-6.530583 2.886542,-12.0108938 l 0,-5.7737568 0.969803,0 0,5.7737568 c -5e-6,0.8962828 -0.03677,1.8438908 -0.110296,2.8428268 0.866674,-1.821676 1.520382,-3.944659 1.961127,-6.3689545 l 0.947609,0.1983993 c -0.249744,1.3957583 -0.514052,2.5343676 -0.792925,3.4158312 1.54235,-1.9391439 2.65899,-3.9811978 3.349922,-6.1261678 l 0.925415,0.1983993 c -0.234951,0.7492263 -0.470116,1.3883629 -0.705494,1.9174118 l 3.988835,0 0,0.8810276 c -0.01436,0.029606 -0.05101,0.1655713 -0.10996,0.4078955 -0.05897,0.2423526 -0.110423,0.4222569 -0.154348,0.5397135 l 1.741206,0 0,-0.3961261 z m 1.762728,0.2421144 0.749209,-0.5286165 c 0.705252,0.8814925 1.388552,1.8291006 2.049903,2.842827 L 41.047885,6.6919005 C 40.416127,5.7373569 39.740225,4.7897489 39.020177,3.8490734 z M 27.759165,21.809929 c 0.822734,-1.395744 1.60131,-3.026428 2.335732,-4.892056 l 0.947609,0.396798 c -0.719627,1.89522 -1.505601,3.562669 -2.357926,5.002354 z m 5.354764,0.507096 c -0.132277,-1.61589 -0.33785,-3.290737 -0.616719,-5.024547 l 0.969803,-0.1984 c 0.278868,1.645484 0.491838,3.327729 0.638913,5.046741 z m 4.076939,-0.06591 c -0.367223,-1.586746 -0.8519,-3.25442 -1.454032,-5.003026 l 0.969803,-0.308023 c 0.587335,1.762953 1.07941,3.444975 1.476225,5.046068 z m 4.099131,-0.06658 c -0.675697,-1.762951 -1.454274,-3.45237 -2.335731,-5.068262 l 0.925415,-0.396799 c 0.925844,1.77775 1.704645,3.459996 2.336404,5.046741 z"
     style=""
     id="path2986" /><path
     d="M 58.567555,3.9371762 59.40554,3.4529473 c 0.543396,0.8519006 1.248441,2.0712146 2.115138,3.6579456 L 60.683366,7.5298854 C 59.978079,6.2076862 59.272809,5.0101176 58.567555,3.9371762 z m 2.909408,-0.8588337 0.859506,-0.4633801 c 0.837069,1.2930873 1.571706,2.5345951 2.203914,3.724527 L 63.680877,6.7806758 C 62.843321,5.2818236 62.108684,4.0477137 61.476963,3.0783425 z M 47.703342,6.4719798 47.813638,5.4799832 c 2.232827,0.3528743 4.510046,0.5293038 6.831663,0.5292891 1.439671,1.47e-5 2.725118,-0.051547 3.856345,-0.1546843 l 0.06591,0.9698029 c -1.337024,0.1174842 -2.64444,0.1762193 -3.922254,0.1762055 -2.424292,1.38e-5 -4.738276,-0.1761916 -6.941959,-0.5286166 z m -1.7634,10.8426912 c -3e-6,-1.410535 1.285668,-3.195679 3.857017,-5.355436 l 0.704822,0.705494 c -2.306369,1.968755 -3.45955,3.503939 -3.459546,4.605555 -4e-6,0.940213 0.635434,1.682136 1.906315,2.225771 1.27087,0.543638 3.044917,0.815456 5.322146,0.815455 1.733347,1e-6 3.8783,-0.308471 6.434864,-0.925415 l 0.198399,0.991324 c -2.585707,0.617392 -4.796793,0.926087 -6.633263,0.926088 -2.82109,-1e-6 -4.914817,-0.374717 -6.281188,-1.124151 -1.366381,-0.749433 -2.049569,-1.704326 -2.049566,-2.864685 z"
     style=""
     id="path2988" /><path
     d="m 68.859434,5.1053784 c 2.409481,-0.073515 4.892497,-0.2203531 7.449054,-0.4405138 l 0.0881,0.9254152 C 75.867516,8.5727832 75.470717,10.68097 75.206195,11.914847 l 0.33089,0 c 1.968737,9e-6 3.89332,0.279337 5.773757,0.837985 0.190985,-1.616329 0.286485,-3.6879741 0.286502,-6.2149432 l 1.035711,0 c -1.7e-5,2.5857042 -0.110089,4.7600242 -0.330217,6.5229662 1.322196,0.485133 2.607643,1.1023 3.856345,1.851503 l -0.484901,0.859506 c -1.160824,-0.705264 -2.336198,-1.278268 -3.526128,-1.719012 -0.367223,2.130163 -0.958498,3.749862 -1.773825,4.859102 -0.815356,1.109244 -1.99443,2.060663 -3.537224,2.85426 L 76.33001,20.950423 c 0.954995,-0.499473 1.726397,-1.021027 2.31421,-1.564664 0.587786,-0.543635 1.102055,-1.27816 1.542807,-2.203578 0.440723,-0.925411 0.771164,-2.078816 0.991324,-3.460219 -1.821701,-0.572548 -3.702121,-0.858826 -5.641266,-0.858834 l -0.550811,0 c -0.49993,2.232839 -0.992229,3.933243 -1.476898,5.101217 -0.484684,1.16798 -0.943805,1.921 -1.377362,2.259062 -0.43357,0.338064 -0.980793,0.507096 -1.64167,0.507096 -0.749214,0 -1.472755,-0.455534 -2.170623,-1.366602 -0.697875,-0.911065 -1.046811,-1.917408 -1.046809,-3.019032 -2e-6,-1.057676 0.609655,-2.012682 1.828973,-2.865021 1.21931,-0.852325 2.886872,-1.359195 5.002689,-1.520613 0.352402,-1.61588 0.756374,-3.7094949 1.211918,-6.2808525 -2.5857,0.2058122 -4.738051,0.3380783 -6.457058,0.3967987 z m 5.024547,7.8458526 c -1.719019,0.176213 -3.081696,0.587471 -4.088035,1.233775 -1.006347,0.646317 -1.509519,1.36627 -1.509516,2.159863 -3e-6,0.851887 0.253432,1.626765 0.760306,2.324634 0.506867,0.697874 0.995467,1.04681 1.465802,1.046809 0.41114,1e-6 0.767362,-0.135852 1.068666,-0.407559 0.301291,-0.271705 0.650227,-0.921826 1.046809,-1.950366 0.396566,-1.028534 0.815222,-2.497584 1.255968,-4.407156 z"
     style=""
     id="path2990" /></g>
</svg>