<?xml version="1.0" encoding="UTF-8" standalone="no"?>
<!-- Generator: Adobe Illustrator 16.0.4, SVG Export Plug-In . SVG Version: 6.00 Build 0)  -->

<svg
   xmlns:dc="http://purl.org/dc/elements/1.1/"
   xmlns:cc="http://creativecommons.org/ns#"
   xmlns:rdf="http://www.w3.org/1999/02/22-rdf-syntax-ns#"
   xmlns:svg="http://www.w3.org/2000/svg"
   xmlns="http://www.w3.org/2000/svg"
   xmlns:sodipodi="http://sodipodi.sourceforge.net/DTD/sodipodi-0.dtd"
   xmlns:inkscape="http://www.inkscape.org/namespaces/inkscape"
   version="1.1"
   id="レイヤー_1"
   x="0px"
   y="0px"
   width="87"
   height="23"
   viewBox="0 0 87 23"
   enable-background="new 0 0 46 23"
   xml:space="preserve"
   inkscape:version="0.48.5 r10040"
   sodipodi:docname="OB_kanengomi.svg"><metadata
   id="metadata3103"><rdf:RDF><cc:Work
       rdf:about=""><dc:format>image/svg+xml</dc:format><dc:type
         rdf:resource="http://purl.org/dc/dcmitype/StillImage" /><dc:title /></cc:Work></rdf:RDF></metadata><defs
   id="defs3101" /><sodipodi:namedview
   pagecolor="#ffffff"
   bordercolor="#666666"
   borderopacity="1"
   objecttolerance="10"
   gridtolerance="10"
   guidetolerance="10"
   inkscape:pageopacity="0"
   inkscape:pageshadow="2"
   inkscape:window-width="1247"
   inkscape:window-height="654"
   id="namedview3099"
   showgrid="false"
   inkscape:zoom="5.1304348"
   inkscape:cx="60.274684"
   inkscape:cy="6.3869974"
   inkscape:window-x="0"
   inkscape:window-y="0"
   inkscape:window-maximized="0"
   inkscape:current-layer="text3003" />


<g
   style="font-size:24px;font-style:normal;font-variant:normal;font-weight:200;font-stretch:normal;line-height:125%;letter-spacing:0px;word-spacing:0px;fill:#f2f2f2;fill-opacity:1;stroke:none;font-family:'M+ 2c light';-inkscape-font-specification:'M+ 2c light, Ultra-Light'"
   id="text3003"><g
   transform="scale(0.99731511,1.0026921)"
   style="font-size:22px;line-height:125%;fill:#f2f2f2;font-family:'M+ 2c light';-inkscape-font-specification:'M+ 2c light, Ultra-Light'"
   id="text3003-9"><path
     d="m 4.3881733,15.955343 0,1.716065 -1.0560913,0 0,-9.8116458 9.173828,0 0,8.0955808 z m 0,-0.879516 7.0838017,0 0,-6.3365482 -7.0838017,0 z m 12.1440427,3.959839 0,-14.4099736 -15.64196752,0 0,-0.9681397 18.91967752,0 0,0.9681397 -2.221618,0 0,14.3656616 c -1.9e-5,1.041545 -0.124673,1.690663 -0.373963,1.947357 -0.249326,0.256693 -0.894752,0.385039 -1.936279,0.38504 -0.293188,-1e-6 -1.407913,-0.0367 -3.344177,-0.110107 L 11.912404,20.3113 c 1.906276,0.07341 2.984075,0.110108 3.233399,0.110108 0.674951,0 1.074761,-0.06233 1.199432,-0.186982 0.124637,-0.124653 0.186964,-0.52424 0.186981,-1.19876 z"
     style=""
     id="path2985" /><path
     d="m 22.428334,12.9858 c 0.513386,-2.023998 0.770079,-4.4148038 0.770081,-7.1724245 l 0.989624,0.044312 c -3e-6,2.8158075 -0.271243,5.272409 -0.813721,7.369812 z m 14.783936,-9.9002688 1.033936,0 0,3.1018067 0,0.461914 3.783935,0 0,0.9244995 -3.695984,0 c 0.351789,2.9183036 1.708437,5.4628576 4.069946,7.6336666 L 41.74413,16.021811 C 39.749198,14.144172 38.407097,11.995513 37.717824,9.5758266 36.911249,12.171416 35.422563,14.320075 33.25176,16.021811 l -0.703614,-0.748597 c 2.683743,-2.096957 4.216294,-4.663442 4.597657,-7.6994626 l -2.001404,0 c -0.674981,1.7451689 -1.599144,3.3877146 -2.772492,4.9276426 -1.17337,1.539944 -2.486041,2.838069 -3.938018,3.894379 l -0.52771,-0.836548 c 1.173128,-0.850418 2.265697,-1.891737 3.27771,-3.123962 -1.026336,-0.93859 -1.78903,-1.613109 -2.288086,-2.02356 l 0.616333,-0.6821288 c 0.95336,0.8065688 1.701284,1.4665418 2.243774,1.9799198 0.528147,-0.718822 0.975514,-1.415497 1.342102,-2.0900272 C 32.39394,8.9888221 31.601928,8.3214644 30.721975,7.6173916 l 0.616333,-0.7257691 c 0.718373,0.5868048 1.458911,1.2174601 2.221618,1.8919678 0.469511,-0.9385862 0.858243,-1.9653593 1.166199,-3.0803222 l -3.387817,0 C 30.634237,7.1114029 29.768821,8.4168012 28.742055,9.6194668 L 28.126393,9.0474453 c -0.322719,1.0706477 -0.748154,2.1267387 -1.276306,3.1682737 l -0.792236,-0.352478 c -0.0291,0.425667 -0.08773,0.975756 -0.175903,1.650269 0.953363,1.642664 1.811395,3.39543 2.574096,5.258301 l -0.77008,0.505554 c -0.615891,-1.510618 -1.297796,-2.94067 -2.045716,-4.290161 -0.528161,2.801475 -1.393577,4.957519 -2.596252,6.468139 l -0.703613,-0.725769 c 1.921058,-2.522621 2.881588,-6.519383 2.881592,-11.9902952 l 0,-5.763855 0.968139,0 0,5.763855 c -5e-6,0.8947453 -0.03671,1.8407282 -0.110107,2.8379512 0.865188,-1.8185519 1.517775,-3.9378938 1.957763,-6.3580318 l 0.945984,0.1980591 c -0.249315,1.3933647 -0.51317,2.5300213 -0.791565,3.4099732 1.539706,-1.9358184 2.65443,-3.9743702 3.344178,-6.1156617 l 0.923828,0.1980591 c -0.234549,0.7479414 -0.46931,1.3859819 -0.704285,1.9141235 l 3.981995,0 0,0.8795167 c -0.01434,0.029555 -0.05093,0.1652874 -0.109772,0.407196 C 35.569261,6.352401 35.5179,6.5319968 35.47405,6.6492519 l 1.73822,0 0,-0.3954467 z m 1.759705,0.2416993 0.747924,-0.52771 c 0.704042,0.8799808 1.38617,1.8259637 2.046387,2.8379517 l -0.77008,0.5277099 C 40.365531,5.2122756 39.690788,4.2662927 38.971975,3.3272305 z m -11.2417,17.9300535 c 0.821323,-1.393351 1.598564,-3.021238 2.331726,-4.883667 l 0.945984,0.396118 c -0.718392,1.89197 -1.503019,3.55656 -2.353882,4.993775 z m 5.345581,0.506226 c -0.132051,-1.613119 -0.337271,-3.285094 -0.615661,-5.01593 l 0.968139,-0.19806 c 0.27839,1.642662 0.490995,3.322022 0.637818,5.038086 z m 4.069947,-0.0658 C 36.77921,20.113689 36.295365,18.448875 35.694265,16.703268 l 0.968139,-0.307495 c 0.586329,1.75993 1.07756,3.439067 1.473694,5.037414 z m 4.092102,-0.06647 c -0.674539,-1.759928 -1.451781,-3.44645 -2.331726,-5.059571 l 0.923828,-0.396118 c 0.924256,1.774701 1.701721,3.454062 2.332397,5.038086 z"
     style=""
     id="path2987" /><path
     d="m 58.48583,3.4151821 0.836547,-0.4833984 c 0.542464,0.8504396 1.246301,2.0676625 2.111512,3.6516723 L 60.598012,7.00173 C 59.893935,5.6817982 59.189875,4.4862835 58.48583,3.4151821 z m 2.904418,-0.8573608 0.858033,-0.4625855 c 0.835633,1.2908697 1.56901,2.5302484 2.200134,3.7181397 L 63.590383,6.2538052 C 62.754263,4.7575234 62.020886,3.5255301 61.390248,2.5578213 z m -13.75,3.3878174 0.110108,-0.9902955 c 2.228997,0.3522692 4.50231,0.5283962 6.819946,0.5283814 1.437203,1.48e-5 2.720445,-0.051458 3.849732,-0.154419 l 0.0658,0.9681397 C 57.151099,6.414728 55.845924,6.4733624 54.570302,6.4733486 52.150168,6.4733624 49.840152,6.2974592 47.640248,5.9456387 z M 45.879873,16.769735 c -3e-6,-1.408117 1.283463,-3.190199 3.850402,-5.346252 l 0.703614,0.704285 c -2.302414,1.965378 -3.453617,3.497929 -3.453614,4.597656 -3e-6,0.938601 0.634345,1.679252 1.903046,2.221954 1.26869,0.542705 3.039695,0.814057 5.313019,0.814057 1.730375,0 3.871648,-0.307942 6.423828,-0.923829 l 0.198059,0.989624 c -2.581273,0.616333 -4.788567,0.924499 -6.621887,0.9245 -2.816252,-10e-7 -4.906388,-0.374074 -6.270416,-1.122223 -1.364038,-0.748147 -2.046054,-1.701403 -2.046051,-2.859772 z"
     style=""
     id="path2989" /><path
     d="m 68.76006,4.5813808 c 2.405349,-0.073389 4.884107,-0.2199751 7.43628,-0.4397583 l 0.08795,0.9238282 c -0.528168,2.9773885 -0.924285,5.0819603 -1.188354,6.3137203 l 0.330322,0 c 1.965361,9e-6 3.886644,0.278858 5.763855,0.836548 0.190658,-1.613556 0.285995,-3.681649 0.286011,-6.2042844 l 1.033935,0 c -1.7e-5,2.5812697 -0.1099,4.7518604 -0.32965,6.5117794 1.319928,0.484301 2.60317,1.10041 3.849731,1.848328 l -0.48407,0.858032 c -1.158832,-0.704055 -2.332191,-1.276076 -3.52008,-1.716064 -0.366594,2.12651 -0.956854,3.743431 -1.770783,4.850769 -0.813958,1.107341 -1.99101,2.057129 -3.531158,2.849365 l -0.506226,-0.814392 c 0.953357,-0.498616 1.723437,-1.019276 2.310242,-1.561981 0.586778,-0.542703 1.100165,-1.275968 1.540161,-2.199799 0.439967,-0.923823 0.769841,-2.075251 0.989624,-3.454285 -1.818577,-0.571566 -3.695772,-0.857352 -5.631592,-0.85736 l -0.549866,0 c -0.499073,2.229009 -0.990527,3.926497 -1.474365,5.092468 -0.483853,1.165977 -0.942186,1.917705 -1.375,2.255188 -0.432827,0.337484 -0.979111,0.506226 -1.638855,0.506225 -0.747929,10e-7 -1.470228,-0.454752 -2.1669,-1.364257 -0.696678,-0.909503 -1.045016,-1.914121 -1.045014,-3.013855 -2e-6,-1.055862 0.60861,-2.009231 1.825836,-2.860108 1.21722,-0.850862 2.881921,-1.356864 4.994111,-1.518005 0.351797,-1.6131082 0.755076,-3.7031329 1.209838,-6.2700807 -2.581265,0.2054593 -4.729924,0.3374985 -6.445984,0.3961182 z m 5.015931,7.8323972 c -1.716071,0.175911 -3.076412,0.586464 -4.081025,1.231659 -1.004621,0.645209 -1.50693,1.363928 -1.506927,2.156159 -3e-6,0.850426 0.252998,1.623975 0.759003,2.320648 0.505997,0.696677 0.993759,1.045014 1.463287,1.045013 0.410436,1e-6 0.766046,-0.135619 1.066834,-0.40686 0.300774,-0.271239 0.649112,-0.920245 1.045013,-1.947022 0.395887,-1.026769 0.813825,-2.4933 1.253815,-4.399597 z"
     style=""
     id="path2991" /></g>
</g></svg>