<?xml version="1.0" encoding="utf-8"?>
<!-- Generator: Adobe Illustrator 15.1.0, SVG Export Plug-In . SVG Version: 6.00 Build 0)  -->
<!DOCTYPE svg PUBLIC "-//W3C//DTD SVG 1.1//EN" "http://www.w3.org/Graphics/SVG/1.1/DTD/svg11.dtd">
<svg version="1.1" id="レイヤー_1" xmlns="http://www.w3.org/2000/svg" xmlns:xlink="http://www.w3.org/1999/xlink" x="0px"
	 y="0px" width="200px" height="27px" viewBox="0 0 200 27" enable-background="new 0 0 200 27" xml:space="preserve">
<g>
	<path d="M7.933,5.739c0.305,0,0.497,0.144,0.574,0.427c0.382,1.494,0.612,3.131,0.689,4.908c0,0.997-0.04,1.814-0.115,2.455
		c-0.077,0.57-0.384,0.854-0.919,0.854c-0.459-0.07-0.689-0.39-0.689-0.96c0.075-0.782,0.115-1.564,0.115-2.348
		C7.511,9.297,7.434,7.697,7.358,6.273C7.358,5.99,7.548,5.811,7.933,5.739z M11.608,1.364c0.535,0,0.804,0.285,0.804,0.854v6.189
		c0.765-0.71,1.378-1.529,1.838-2.455c0.23-0.64,0.612-0.923,1.149-0.854c0.535,0.144,0.727,0.534,0.574,1.174
		c-0.614,1.494-1.8,2.668-3.561,3.521c0,1.565-0.115,3.771-0.345,6.616c1.224,1.211,2.527,2.774,3.906,4.695
		c0.152-0.283,0.268-0.675,0.345-1.174c0-0.497,0.19-0.747,0.574-0.747c0.459,0,0.689,0.285,0.689,0.854
		c0,1.852-0.767,3.557-2.298,5.122c-0.614,0.427-1.111,0.427-1.493,0c-0.307-0.356-0.229-0.783,0.23-1.28
		c0.382-0.356,0.689-0.712,0.919-1.067c-0.996-1.849-2.03-3.414-3.102-4.694c-0.537,2.348-1.303,4.305-2.297,5.868
		c-0.384,0.711-0.881,0.924-1.494,0.641c-0.384-0.356-0.345-0.891,0.115-1.601C8.852,21.89,9.463,20.358,10,18.438
		c0.535-2.275,0.804-4.588,0.804-6.936V2.218C10.804,1.649,11.072,1.364,11.608,1.364z M18.042,0.938
		c0.535,0,0.804,0.25,0.804,0.747c0,0.213,0,0.499,0,0.854h2.987c0.459,0,0.879,0.179,1.264,0.534
		c0.382,0.357,0.574,0.747,0.574,1.174L23.44,5.953h3.331V2.004c0-0.568,0.268-0.854,0.804-0.854c0.535,0,0.804,0.285,0.804,0.854
		v3.948h4.48c0.535,0,0.804,0.214,0.804,0.641s-0.27,0.64-0.804,0.64h-4.365c0.612,3.486,2.22,6.509,4.825,9.07
		c0.842,0.783,0.957,1.424,0.345,1.921c-0.537,0.427-1.149,0.285-1.838-0.427c-1.686-1.991-3.026-4.445-4.021-7.363
		c-1.074,3.201-2.757,5.869-5.055,8.003c-0.537,0.57-1.034,0.641-1.493,0.214c-0.384-0.355-0.307-0.782,0.229-1.28
		c3.14-3.201,4.862-6.58,5.169-10.138H23.21c-0.384,2.134-1.111,4.126-2.183,5.976c-1.073,1.851-2.489,3.521-4.25,5.016
		c-0.459,0.285-0.844,0.285-1.149,0c-0.229-0.283-0.154-0.604,0.23-0.961c1.378-1.28,2.565-2.667,3.561-4.161l-2.527-2.241
		c-0.307,0.712-0.614,1.317-0.919,1.814c-0.307,0.57-0.689,0.747-1.149,0.533c-0.384-0.213-0.384-0.64,0-1.28
		c1.684-3.698,2.488-7.043,2.413-10.031C17.237,1.258,17.505,0.938,18.042,0.938z M17.352,9.688l2.757,2.134
		c0.305-0.64,0.612-1.422,0.919-2.348l-2.986-1.92L17.352,9.688z M18.386,6.06l3.102,1.921c0.305-1.281,0.498-2.418,0.575-3.415
		c0-0.497-0.192-0.747-0.575-0.747H18.73L18.386,6.06z M20.798,19.398c0.459-0.07,0.765,0.213,0.919,0.854
		c0.229,1.28,0.268,2.598,0.115,3.948c-0.077,0.71-0.422,1.03-1.034,0.96c-0.537,0-0.767-0.356-0.689-1.066
		c0.153-1.209,0.19-2.489,0.115-3.842C20.224,19.755,20.414,19.47,20.798,19.398z M24.589,19.292
		c0.382-0.143,0.727,0.036,1.034,0.533c0.689,1.424,1.186,2.668,1.493,3.734c0.23,0.924-0.04,1.423-0.804,1.494
		c-0.614,0-0.958-0.285-1.034-0.854c-0.154-1.139-0.459-2.418-0.919-3.842C24.129,19.79,24.205,19.435,24.589,19.292z
		 M29.299,19.611c0.305-0.283,0.727-0.213,1.264,0.214c1.378,1.21,2.297,2.526,2.757,3.948c0.305,0.854,0.152,1.351-0.459,1.494
		c-0.614,0.142-1.073-0.144-1.378-0.854c-0.537-1.423-1.226-2.632-2.068-3.629C29.03,20.217,28.992,19.825,29.299,19.611z
		 M29.758,1.898c0.305-0.213,0.65-0.177,1.034,0.106c0.689,0.641,1.187,1.353,1.494,2.134c0.229,0.64,0.075,1.032-0.459,1.174
		c-0.459,0.072-0.767-0.07-0.919-0.427c-0.307-0.71-0.689-1.422-1.149-2.134C29.528,2.396,29.528,2.111,29.758,1.898z"/>
	<path d="M66.862,6.807c0.612-0.07,1.072,0.178,1.378,0.747c0.305,0.64,0.19,1.139-0.344,1.494l-4.021,3.308l-4.365,3.521
		c-0.384,0.356-0.27,0.392,0.345,0.106c1.301-0.427,2.297-0.64,2.986-0.64c0.765,0,1.378,0.25,1.838,0.746
		c0.459,0.57,0.612,1.353,0.459,2.348c-0.229,1.281-0.344,2.278-0.344,2.988c0,0.854,0.612,1.28,1.838,1.28h1.148
		c1.224,0,2.335-0.177,3.332-0.533c0.612-0.07,1.034,0.179,1.264,0.747c0.152,0.71-0.154,1.174-0.919,1.387
		c-1.149,0.283-2.413,0.427-3.791,0.427c-1.838,0-3.102-0.25-3.791-0.747c-0.689-0.427-1.074-1.066-1.149-1.92
		c0-0.355,0.038-0.889,0.115-1.601c0.076-0.996,0.115-1.671,0.115-2.028c-0.078-0.781-0.499-1.208-1.264-1.28
		c-1.303-0.07-2.757,0.32-4.365,1.174c-1.456,0.784-4.021,2.774-7.696,5.976c-0.689,0.427-1.303,0.391-1.838-0.106
		c-0.384-0.57-0.344-1.104,0.115-1.601c3.369-2.489,7.657-5.869,12.866-10.138l4.135-3.415c0.305-0.283,0.229-0.427-0.23-0.427
		c-5.054,0.427-10.033,0.712-14.933,0.854c-0.689,0-1.034-0.32-1.034-0.96c0-0.64,0.344-0.96,1.034-0.96l8.156-0.107l5.629-0.32
		L66.862,6.807z M59.51,2.325c1.071,0.072,2.909,0.107,5.514,0.107c0.689,0,1.034,0.32,1.034,0.96c0,0.641-0.345,0.96-1.034,0.96
		c-1.303,0-3.141-0.07-5.514-0.213c-2.452-0.142-4.29-0.355-5.514-0.64c-0.537-0.142-0.804-0.462-0.804-0.96
		c0.075-0.497,0.459-0.747,1.148-0.747C55.949,2.004,57.672,2.183,59.51,2.325z"/>
	<path d="M107.412,2.965c0.152,0.57,0,1.104-0.46,1.601c-0.536,0.499-1.341,1.067-2.412,1.708c-1.456,0.854-2.834,1.708-4.135,2.561
		l-4.021,2.561c2.45-0.64,4.48-0.96,6.088-0.96c3.139,0,5.589,0.784,7.352,2.348c1.224,1.139,1.838,2.704,1.838,4.695
		c0,2.206-1.148,4.02-3.446,5.442c-2.297,1.351-5.017,2.027-8.156,2.027c-3.753,0-6.472-0.747-8.156-2.241
		c-0.844-0.924-1.264-1.813-1.264-2.668c0-0.781,0.267-1.457,0.804-2.027c0.919-0.924,2.258-1.387,4.021-1.387
		c1.761,0,3.484,0.605,5.169,1.813c1.301,0.997,2.413,2.385,3.332,4.162c1.378-0.214,2.68-0.817,3.905-1.814
		c1.071-0.924,1.608-2.063,1.608-3.414c0-1.494-0.499-2.703-1.493-3.628c-1.379-1.209-3.294-1.814-5.744-1.814
		c-2.374,0-4.479,0.32-6.317,0.96c-2.375,0.854-4.902,2.17-7.582,3.948c-0.614,0.285-1.149,0.179-1.608-0.319
		c-0.23-0.569-0.115-1.031,0.345-1.388c5.514-3.058,11.525-6.899,18.035-11.524l-3.331,0.213l-4.595,0.32l-3.561,0.213l-3.216,0.213
		c-0.766,0.072-1.148-0.248-1.148-0.96c0-0.641,0.344-0.96,1.034-0.96c5.437-0.213,10.568-0.462,15.393-0.747
		C106.53,1.97,107.104,2.325,107.412,2.965z M92.479,19.825c0,0.997,0.65,1.851,1.953,2.561c1.224,0.641,2.872,0.961,4.939,0.961
		c0.689,0,1.224-0.037,1.608-0.106c0.382-0.072,0.65-0.144,0.804-0.214c-0.46-1.067-1.188-2.098-2.183-3.095
		c-1.456-1.209-2.911-1.813-4.365-1.813C93.473,18.118,92.554,18.688,92.479,19.825z"/>
	<path d="M130.96,12.249c0.46,0.357,0.535,0.747,0.229,1.174c-1.303,1.851-1.952,3.308-1.952,4.375c0,1.494,0.727,2.633,2.183,3.414
		c1.53,0.712,4.058,1.067,7.581,1.067c3.14,0,6.355-0.355,9.649-1.067c0.765-0.142,1.264,0.107,1.493,0.747
		c0.152,0.712-0.229,1.174-1.148,1.388c-2.757,0.497-6.088,0.747-9.994,0.747c-4.749,0-7.926-0.605-9.534-1.814
		c-1.533-1.209-2.298-2.631-2.298-4.269c0-1.636,0.765-3.484,2.298-5.549C129.849,12.035,130.347,11.965,130.96,12.249z
		 M145.778,3.712c0.689,0.144,0.995,0.534,0.919,1.174c-0.154,0.57-0.574,0.819-1.264,0.747c-1.532-0.284-3.408-0.427-5.628-0.427
		c-3.754,0-7.276,0.285-10.568,0.854c-0.614,0.072-0.996-0.177-1.149-0.747c0-0.497,0.268-0.817,0.805-0.96
		c3.828-0.71,7.504-1.067,11.027-1.067C142.293,3.285,144.246,3.429,145.778,3.712z M146.238,1.151
		c0.382-0.142,0.727-0.07,1.033,0.213c0.842,0.925,1.608,1.958,2.298,3.095c0.229,0.499,0.115,0.854-0.345,1.067
		c-0.459,0.144-0.804,0.037-1.033-0.32c-0.537-0.924-1.264-1.956-2.183-3.095C145.778,1.756,145.854,1.436,146.238,1.151z
		 M148.995,0.19c0.382-0.142,0.727-0.07,1.034,0.213c0.842,0.925,1.607,1.958,2.297,3.095c0.152,0.499,0.038,0.854-0.345,1.067
		c-0.459,0.144-0.804,0.037-1.033-0.32c-0.537-0.924-1.264-1.956-2.183-3.095C148.535,0.724,148.611,0.404,148.995,0.19z"/>
	<path d="M174.496,2.004c0.612-0.07,1.109-0.07,1.493,0c0.689,0.214,1.149,0.605,1.379,1.174c0.152,0.285,0.229,0.712,0.229,1.281
		c-0.077,0.997-0.422,2.633-1.034,4.909l-0.574,1.707c2.603,0.357,5.359,1.104,8.271,2.241c0.229-2.631,0.344-4.73,0.344-6.296
		c0-0.71,0.345-1.067,1.034-1.067s1.034,0.357,1.034,1.067c0,2.064-0.154,4.412-0.46,7.042c1.991,0.854,3.292,1.494,3.906,1.921
		c0.459,0.427,0.574,0.926,0.345,1.494c-0.46,0.498-1.074,0.533-1.839,0.106c-0.843-0.497-1.723-0.995-2.642-1.494
		c-0.384,2.988-1.303,5.122-2.757,6.403c-1.379,1.208-3.523,2.24-6.433,3.094c-0.537,0.07-0.882-0.106-1.034-0.533
		c-0.154-0.427,0.038-0.747,0.574-0.96c2.45-0.712,4.288-1.636,5.514-2.774c1.225-1.209,1.953-3.201,2.183-5.976
		c-2.604-1.281-5.438-2.205-8.5-2.775c-0.767,2.134-1.533,3.949-2.298,5.442c-0.919,1.779-1.877,3.167-2.872,4.162
		c-0.843,0.712-1.762,1.067-2.757,1.067c-1.148,0-2.029-0.391-2.642-1.174c-0.614-0.782-0.919-1.777-0.919-2.988
		c0-1.707,0.727-3.378,2.183-5.016c1.761-1.777,4.402-2.809,7.926-3.094c0.919-3.201,1.379-5.264,1.379-6.189
		c0-0.497-0.115-0.817-0.345-0.96c-0.229-0.142-0.651-0.142-1.264,0c-1.148,0.213-3.371,0.463-6.663,0.747
		c-0.613,0-0.996-0.283-1.148-0.854c0-0.64,0.345-0.995,1.034-1.067l2.183-0.107l2.527-0.213L174.496,2.004z M167.834,14.703
		c-1.379,1.494-2.068,2.953-2.068,4.375c0.075,1.707,0.65,2.561,1.724,2.561c0.994,0.072,2.028-0.71,3.102-2.347
		c0.611-1.067,1.148-2.063,1.607-2.988c0.535-1.209,0.995-2.489,1.379-3.842C171.05,12.676,169.135,13.422,167.834,14.703z"/>
</g>
<g>
</g>
</svg>
