<?xml version="1.0" encoding="utf-8"?>
<!-- Generator: Adobe Illustrator 15.1.0, SVG Export Plug-In . SVG Version: 6.00 Build 0)  -->
<!DOCTYPE svg PUBLIC "-//W3C//DTD SVG 1.1//EN" "http://www.w3.org/Graphics/SVG/1.1/DTD/svg11.dtd">
<svg version="1.1" id="レイヤー_1" xmlns="http://www.w3.org/2000/svg" xmlns:xlink="http://www.w3.org/1999/xlink" x="0px"
	 y="0px" width="200px" height="20px" viewBox="0 0 200 20" enable-background="new 0 0 200 20" xml:space="preserve">
<g enable-background="new    ">
	<path fill="#FFFFFF" d="M51.614,4.455c0.216,0,0.352,0.109,0.407,0.325c0.271,1.138,0.433,2.386,0.488,3.739
		c0,0.76-0.028,1.383-0.082,1.87c-0.055,0.435-0.271,0.65-0.65,0.65c-0.325-0.054-0.488-0.297-0.488-0.731
		c0.054-0.596,0.082-1.191,0.082-1.789c-0.055-1.354-0.109-2.573-0.163-3.658C51.208,4.646,51.342,4.51,51.614,4.455z M54.215,1.122
		c0.378,0,0.569,0.217,0.569,0.65v4.715c0.542-0.542,0.976-1.165,1.301-1.87c0.163-0.488,0.433-0.704,0.813-0.65
		c0.378,0.109,0.515,0.407,0.407,0.895C56.87,6,56.03,6.894,54.784,7.544c0,1.193-0.081,2.874-0.244,5.041
		c0.866,0.922,1.789,2.113,2.764,3.577c0.108-0.217,0.189-0.515,0.244-0.895c0-0.379,0.135-0.569,0.407-0.569
		c0.325,0,0.488,0.218,0.488,0.65c0,1.41-0.542,2.71-1.626,3.902c-0.435,0.325-0.787,0.325-1.057,0
		c-0.217-0.271-0.163-0.597,0.163-0.976c0.271-0.271,0.488-0.542,0.65-0.813c-0.705-1.409-1.437-2.602-2.195-3.577
		c-0.38,1.788-0.922,3.279-1.626,4.471c-0.271,0.541-0.624,0.704-1.057,0.488c-0.272-0.272-0.244-0.679,0.081-1.22
		c0.488-0.866,0.921-2.032,1.301-3.496c0.378-1.733,0.569-3.495,0.569-5.284V1.772C53.646,1.339,53.835,1.122,54.215,1.122z
		 M58.768,0.797c0.378,0,0.569,0.191,0.569,0.569c0,0.163,0,0.38,0,0.65h2.114c0.325,0,0.622,0.136,0.894,0.406
		c0.271,0.272,0.407,0.569,0.407,0.895l-0.163,1.3h2.357V1.61c0-0.433,0.189-0.65,0.569-0.65c0.379,0,0.569,0.217,0.569,0.65v3.008
		h3.17c0.378,0,0.569,0.163,0.569,0.488s-0.19,0.488-0.569,0.488h-3.089c0.433,2.656,1.571,4.959,3.415,6.911
		c0.596,0.597,0.677,1.084,0.244,1.463c-0.379,0.325-0.813,0.217-1.3-0.325c-1.193-1.517-2.142-3.387-2.846-5.609
		c-0.759,2.438-1.951,4.472-3.577,6.097c-0.38,0.435-0.732,0.488-1.057,0.163c-0.271-0.271-0.217-0.596,0.163-0.976
		c2.222-2.438,3.441-5.013,3.658-7.723h-2.438c-0.272,1.626-0.787,3.144-1.545,4.552c-0.759,1.41-1.762,2.684-3.008,3.821
		c-0.325,0.217-0.597,0.217-0.813,0c-0.163-0.216-0.109-0.46,0.163-0.731c0.976-0.976,1.815-2.032,2.52-3.171l-1.788-1.707
		c-0.217,0.542-0.435,1.004-0.65,1.382c-0.217,0.435-0.488,0.569-0.813,0.406c-0.272-0.162-0.272-0.487,0-0.976
		c1.191-2.817,1.76-5.365,1.707-7.641C58.199,1.041,58.388,0.797,58.768,0.797z M58.28,7.463l1.951,1.625
		c0.216-0.487,0.433-1.083,0.65-1.788l-2.113-1.463L58.28,7.463z M59.012,4.699l2.195,1.463c0.216-0.976,0.352-1.842,0.407-2.602
		c0-0.378-0.136-0.569-0.407-0.569h-1.951L59.012,4.699z M60.719,14.861c0.325-0.054,0.542,0.162,0.65,0.65
		c0.163,0.976,0.189,1.979,0.082,3.008c-0.055,0.541-0.299,0.785-0.732,0.731c-0.379,0-0.542-0.271-0.488-0.813
		c0.108-0.921,0.135-1.896,0.082-2.926C60.313,15.133,60.447,14.916,60.719,14.861z M63.402,14.779
		c0.271-0.107,0.514,0.028,0.731,0.407c0.488,1.084,0.84,2.032,1.057,2.845c0.163,0.704-0.028,1.084-0.569,1.139
		c-0.435,0-0.678-0.218-0.731-0.65c-0.109-0.868-0.325-1.842-0.65-2.927C63.077,15.159,63.13,14.889,63.402,14.779z M66.735,15.023
		c0.216-0.216,0.514-0.162,0.894,0.163c0.976,0.922,1.626,1.924,1.951,3.008c0.216,0.65,0.108,1.028-0.325,1.138
		c-0.435,0.108-0.76-0.109-0.976-0.65c-0.38-1.083-0.868-2.004-1.463-2.764C66.544,15.484,66.518,15.187,66.735,15.023z
		 M67.06,1.529c0.216-0.163,0.459-0.135,0.731,0.081c0.488,0.488,0.84,1.03,1.057,1.626c0.163,0.488,0.054,0.786-0.325,0.894
		c-0.325,0.055-0.542-0.053-0.65-0.325c-0.217-0.541-0.488-1.083-0.813-1.625C66.897,1.909,66.897,1.691,67.06,1.529z"/>
	<path fill="#FFFFFF" d="M86.408,5.268c0.433-0.053,0.758,0.136,0.976,0.569c0.216,0.488,0.134,0.868-0.244,1.138l-2.845,2.52
		l-3.089,2.684c-0.271,0.271-0.19,0.298,0.244,0.081c0.921-0.325,1.626-0.488,2.114-0.488c0.541,0,0.976,0.19,1.3,0.569
		c0.325,0.435,0.434,1.03,0.325,1.788c-0.163,0.976-0.244,1.735-0.244,2.276c0,0.65,0.433,0.976,1.301,0.976h0.813
		c0.866,0,1.652-0.135,2.357-0.406c0.433-0.054,0.731,0.136,0.894,0.569c0.108,0.541-0.109,0.894-0.65,1.057
		c-0.813,0.216-1.707,0.325-2.683,0.325c-1.301,0-2.195-0.19-2.683-0.569c-0.488-0.325-0.76-0.813-0.813-1.463
		c0-0.271,0.027-0.677,0.082-1.22c0.053-0.758,0.081-1.272,0.081-1.545c-0.055-0.596-0.353-0.921-0.894-0.976
		c-0.922-0.053-1.951,0.244-3.089,0.895c-1.03,0.598-2.845,2.114-5.447,4.553c-0.488,0.325-0.922,0.297-1.301-0.081
		c-0.271-0.435-0.244-0.841,0.082-1.22c2.384-1.896,5.418-4.471,9.105-7.723l2.926-2.602c0.216-0.216,0.163-0.325-0.163-0.325
		c-3.577,0.325-7.1,0.542-10.568,0.65c-0.488,0-0.732-0.244-0.732-0.732s0.244-0.731,0.732-0.731l5.772-0.082l3.983-0.244
		L86.408,5.268z M81.205,1.854c0.758,0.055,2.059,0.081,3.902,0.081c0.488,0,0.731,0.244,0.731,0.732s-0.244,0.731-0.731,0.731
		c-0.922,0-2.223-0.053-3.902-0.163c-1.735-0.108-3.036-0.271-3.902-0.488c-0.38-0.108-0.569-0.352-0.569-0.731
		c0.054-0.379,0.325-0.569,0.813-0.569C78.685,1.61,79.905,1.746,81.205,1.854z"/>
	<path fill="#FFFFFF" d="M108.195,2.342c0.107,0.434,0,0.841-0.325,1.219c-0.38,0.38-0.949,0.813-1.708,1.301
		c-1.029,0.65-2.005,1.301-2.926,1.951l-2.845,1.951c1.734-0.487,3.17-0.731,4.308-0.731c2.222,0,3.955,0.597,5.203,1.788
		c0.866,0.868,1.301,2.061,1.301,3.577c0,1.681-0.813,3.063-2.439,4.146c-1.625,1.028-3.55,1.544-5.771,1.544
		c-2.656,0-4.58-0.568-5.772-1.707c-0.597-0.703-0.894-1.382-0.894-2.032c0-0.596,0.189-1.11,0.569-1.545
		c0.65-0.703,1.598-1.057,2.846-1.057c1.246,0,2.465,0.461,3.658,1.382c0.922,0.76,1.707,1.816,2.357,3.171
		c0.977-0.162,1.896-0.622,2.765-1.382c0.759-0.704,1.138-1.571,1.138-2.602c0-1.138-0.354-2.059-1.057-2.764
		c-0.976-0.921-2.33-1.383-4.064-1.383c-1.681,0-3.171,0.244-4.471,0.732c-1.681,0.65-3.469,1.653-5.366,3.008
		c-0.435,0.217-0.813,0.136-1.138-0.244c-0.163-0.434-0.081-0.785,0.244-1.057c3.902-2.33,8.157-5.256,12.763-8.78l-2.357,0.163
		l-3.252,0.244l-2.52,0.163l-2.276,0.163c-0.542,0.055-0.813-0.189-0.813-0.731c0-0.488,0.244-0.732,0.732-0.732
		c3.847-0.163,7.479-0.352,10.893-0.569C107.571,1.583,107.979,1.854,108.195,2.342z M97.627,15.187c0,0.759,0.46,1.409,1.382,1.951
		c0.866,0.487,2.032,0.731,3.495,0.731c0.488,0,0.867-0.028,1.139-0.082c0.271-0.054,0.46-0.108,0.569-0.162
		c-0.325-0.813-0.841-1.598-1.545-2.357c-1.03-0.921-2.06-1.382-3.089-1.382C98.331,13.886,97.68,14.32,97.627,15.187z"/>
	<path fill="#FFFFFF" d="M117.95,9.414c0.325,0.272,0.378,0.569,0.163,0.895c-0.923,1.41-1.383,2.521-1.383,3.333
		c0,1.138,0.515,2.006,1.545,2.602c1.084,0.542,2.872,0.813,5.365,0.813c2.222,0,4.498-0.271,6.829-0.813
		c0.541-0.108,0.894,0.081,1.057,0.569c0.108,0.542-0.163,0.894-0.813,1.057c-1.951,0.378-4.309,0.568-7.072,0.568
		c-3.361,0-5.609-0.461-6.747-1.382c-1.085-0.921-1.626-2.004-1.626-3.252c0-1.246,0.541-2.654,1.626-4.227
		C117.164,9.252,117.516,9.198,117.95,9.414z M128.438,2.911c0.487,0.109,0.703,0.407,0.65,0.894
		c-0.109,0.435-0.406,0.624-0.895,0.569c-1.085-0.216-2.412-0.325-3.983-0.325c-2.656,0-5.149,0.217-7.479,0.65
		c-0.434,0.055-0.705-0.135-0.813-0.569c0-0.378,0.189-0.622,0.568-0.731c2.71-0.541,5.312-0.813,7.805-0.813
		C125.971,2.585,127.353,2.695,128.438,2.911z M128.762,0.959c0.271-0.108,0.516-0.053,0.732,0.163
		c0.596,0.705,1.139,1.491,1.625,2.358c0.163,0.379,0.082,0.65-0.243,0.813c-0.325,0.109-0.569,0.028-0.731-0.244
		c-0.38-0.704-0.895-1.49-1.545-2.357C128.438,1.421,128.49,1.177,128.762,0.959z M130.713,0.228
		c0.271-0.108,0.516-0.053,0.732,0.163c0.596,0.705,1.138,1.491,1.625,2.357c0.108,0.38,0.027,0.65-0.243,0.813
		c-0.325,0.109-0.569,0.028-0.731-0.244c-0.38-0.704-0.895-1.49-1.545-2.358C130.389,0.634,130.441,0.391,130.713,0.228z"/>
	<path fill="#FFFFFF" d="M141.852,1.61c0.433-0.053,0.784-0.053,1.057,0c0.487,0.163,0.813,0.461,0.975,0.895
		c0.108,0.217,0.163,0.542,0.163,0.976c-0.055,0.759-0.298,2.005-0.731,3.739l-0.406,1.3c1.842,0.272,3.793,0.842,5.853,1.708
		c0.163-2.005,0.244-3.604,0.244-4.797c0-0.541,0.243-0.813,0.731-0.813s0.731,0.272,0.731,0.813c0,1.573-0.109,3.361-0.325,5.365
		c1.409,0.65,2.33,1.139,2.765,1.464c0.325,0.325,0.406,0.705,0.243,1.138c-0.325,0.38-0.759,0.406-1.301,0.081
		c-0.597-0.378-1.219-0.758-1.869-1.138c-0.271,2.276-0.922,3.902-1.951,4.878c-0.976,0.921-2.494,1.707-4.553,2.357
		c-0.379,0.054-0.623-0.081-0.731-0.406c-0.109-0.325,0.026-0.569,0.406-0.732c1.733-0.542,3.034-1.246,3.902-2.113
		c0.866-0.921,1.382-2.438,1.544-4.553c-1.842-0.976-3.848-1.679-6.016-2.113c-0.542,1.626-1.084,3.008-1.625,4.146
		c-0.65,1.355-1.329,2.413-2.033,3.171c-0.597,0.542-1.247,0.813-1.951,0.813c-0.813,0-1.436-0.297-1.869-0.894
		c-0.435-0.596-0.65-1.354-0.65-2.276c0-1.301,0.514-2.573,1.545-3.821c1.246-1.354,3.115-2.14,5.609-2.357
		c0.65-2.438,0.975-4.01,0.975-4.715c0-0.378-0.08-0.623-0.243-0.731c-0.163-0.108-0.462-0.108-0.895,0
		c-0.813,0.163-2.386,0.353-4.715,0.569c-0.435,0-0.705-0.216-0.813-0.65c0-0.488,0.244-0.758,0.732-0.813l1.544-0.081l1.788-0.163
		L141.852,1.61z M137.136,11.284c-0.976,1.138-1.464,2.249-1.464,3.333c0.055,1.301,0.461,1.951,1.221,1.951
		c0.703,0.055,1.435-0.541,2.194-1.789c0.433-0.813,0.813-1.571,1.138-2.275c0.379-0.921,0.704-1.896,0.977-2.927
		C139.412,9.739,138.057,10.309,137.136,11.284z"/>
</g>
</svg>
