<?xml version="1.0" encoding="utf-8"?>
<!-- Generator: Adobe Illustrator 15.1.0, SVG Export Plug-In . SVG Version: 6.00 Build 0)  -->
<!DOCTYPE svg PUBLIC "-//W3C//DTD SVG 1.1//EN" "http://www.w3.org/Graphics/SVG/1.1/DTD/svg11.dtd">
<svg version="1.1" id="レイヤー_1" xmlns="http://www.w3.org/2000/svg" xmlns:xlink="http://www.w3.org/1999/xlink" x="0px"
	 y="0px" width="200px" height="27px" viewBox="0 0 200 27" enable-background="new 0 0 200 27" xml:space="preserve">
<g>
	<path fill="#FFFFFF" d="M7.138,6.328c0.316,0,0.515,0.143,0.595,0.425c0.396,1.488,0.635,3.12,0.715,4.891
		c0,0.993-0.041,1.808-0.119,2.446c-0.08,0.567-0.398,0.851-0.953,0.851c-0.477-0.07-0.715-0.389-0.715-0.958
		c0.078-0.779,0.119-1.558,0.119-2.339C6.7,9.873,6.62,8.278,6.542,6.859C6.542,6.577,6.739,6.399,7.138,6.328z M10.948,1.968
		c0.555,0,0.834,0.284,0.834,0.851v6.167c0.792-0.708,1.429-1.523,1.905-2.446c0.238-0.638,0.634-0.92,1.191-0.851
		c0.554,0.143,0.753,0.532,0.595,1.169c-0.636,1.489-1.866,2.658-3.691,3.509c0,1.56-0.119,3.758-0.357,6.592
		c1.269,1.207,2.62,2.765,4.049,4.679c0.158-0.282,0.277-0.673,0.357-1.17c0-0.495,0.197-0.744,0.595-0.744
		c0.477,0,0.715,0.284,0.715,0.851c0,1.845-0.795,3.544-2.382,5.104c-0.636,0.425-1.152,0.425-1.548,0
		c-0.318-0.355-0.238-0.781,0.238-1.276c0.396-0.355,0.714-0.709,0.953-1.063c-1.033-1.842-2.104-3.402-3.215-4.679
		c-0.556,2.34-1.351,4.29-2.382,5.849c-0.398,0.708-0.914,0.92-1.548,0.638c-0.398-0.355-0.357-0.887,0.119-1.595
		c0.714-1.133,1.349-2.658,1.905-4.572c0.555-2.268,0.833-4.572,0.833-6.911V2.818C10.115,2.252,10.392,1.968,10.948,1.968z
		 M17.617,1.542c0.555,0,0.833,0.25,0.833,0.745c0,0.212,0,0.497,0,0.851h3.096c0.477,0,0.912,0.178,1.31,0.532
		c0.396,0.355,0.596,0.744,0.596,1.169L23.214,6.54h3.454V2.606c0-0.566,0.277-0.851,0.833-0.851c0.555,0,0.833,0.284,0.833,0.851
		V6.54h4.645c0.554,0,0.833,0.213,0.833,0.638s-0.279,0.638-0.833,0.638h-4.525c0.634,3.474,2.302,6.486,5.001,9.039
		c0.873,0.78,0.992,1.418,0.357,1.913c-0.556,0.426-1.191,0.284-1.905-0.425c-1.748-1.983-3.137-4.429-4.168-7.337
		c-1.113,3.189-2.858,5.849-5.24,7.975c-0.557,0.568-1.072,0.638-1.548,0.213c-0.398-0.354-0.318-0.779,0.238-1.276
		c3.254-3.189,5.041-6.556,5.359-10.101h-3.573c-0.398,2.126-1.152,4.112-2.263,5.955c-1.113,1.844-2.581,3.509-4.406,4.997
		c-0.476,0.284-0.875,0.284-1.191,0c-0.238-0.282-0.16-0.601,0.238-0.957c1.429-1.275,2.659-2.658,3.692-4.146l-2.62-2.233
		c-0.318,0.709-0.636,1.313-0.953,1.808c-0.318,0.568-0.714,0.744-1.191,0.532c-0.398-0.213-0.398-0.638,0-1.276
		c1.746-3.685,2.579-7.018,2.501-9.995C16.784,1.862,17.061,1.542,17.617,1.542z M16.903,10.262l2.858,2.126
		c0.316-0.638,0.635-1.417,0.953-2.339l-3.096-1.914L16.903,10.262z M17.975,6.646l3.215,1.914c0.316-1.276,0.515-2.409,0.595-3.403
		c0-0.495-0.199-0.744-0.595-0.744h-2.858L17.975,6.646z M20.475,19.938c0.477-0.069,0.793,0.213,0.953,0.851
		c0.238,1.276,0.277,2.589,0.119,3.935c-0.08,0.707-0.437,1.026-1.072,0.957c-0.556,0-0.794-0.355-0.714-1.063
		c0.158-1.205,0.197-2.48,0.119-3.828C19.88,20.293,20.077,20.009,20.475,19.938z M24.405,19.831
		c0.396-0.141,0.753,0.037,1.072,0.532c0.714,1.418,1.23,2.658,1.548,3.721c0.238,0.921-0.041,1.418-0.833,1.489
		c-0.636,0-0.994-0.284-1.072-0.851c-0.16-1.135-0.476-2.409-0.953-3.828C23.929,20.328,24.007,19.974,24.405,19.831z M29.288,20.15
		c0.316-0.282,0.754-0.213,1.31,0.213c1.429,1.206,2.382,2.517,2.858,3.934c0.316,0.851,0.158,1.346-0.476,1.488
		c-0.636,0.142-1.113-0.143-1.429-0.851c-0.556-1.417-1.271-2.621-2.144-3.614C29.009,20.753,28.97,20.363,29.288,20.15z
		 M29.764,2.5c0.316-0.212,0.673-0.176,1.072,0.106c0.714,0.638,1.23,1.347,1.548,2.126c0.238,0.638,0.078,1.028-0.476,1.17
		c-0.477,0.071-0.794-0.07-0.953-0.425C30.637,4.769,30.24,4.06,29.764,3.35C29.526,2.997,29.526,2.712,29.764,2.5z"/>
	<path fill="#FFFFFF" d="M68.229,7.391c0.634-0.07,1.111,0.178,1.429,0.745c0.316,0.638,0.197,1.134-0.357,1.488l-4.168,3.296
		l-4.525,3.509c-0.398,0.355-0.279,0.391,0.357,0.106c1.349-0.426,2.381-0.638,3.096-0.638c0.792,0,1.429,0.249,1.905,0.744
		c0.476,0.568,0.634,1.347,0.476,2.339c-0.238,1.276-0.357,2.27-0.357,2.978c0,0.851,0.634,1.275,1.905,1.275h1.191
		c1.269,0,2.421-0.176,3.454-0.531c0.634-0.069,1.072,0.178,1.31,0.744c0.158,0.708-0.16,1.17-0.953,1.383
		c-1.191,0.282-2.5,0.425-3.93,0.425c-1.905,0-3.215-0.249-3.93-0.744c-0.715-0.426-1.113-1.063-1.191-1.914
		c0-0.354,0.039-0.886,0.119-1.595c0.078-0.992,0.119-1.665,0.119-2.021c-0.08-0.779-0.518-1.204-1.31-1.275
		c-1.351-0.07-2.858,0.318-4.525,1.169c-1.509,0.781-4.168,2.765-7.979,5.955c-0.714,0.425-1.351,0.389-1.905-0.106
		c-0.398-0.568-0.357-1.101,0.119-1.596c3.493-2.48,7.938-5.848,13.338-10.101l4.287-3.403c0.316-0.282,0.238-0.425-0.238-0.425
		c-5.24,0.425-10.401,0.709-15.481,0.851c-0.714,0-1.072-0.319-1.072-0.957c0-0.638,0.357-0.957,1.072-0.957l8.455-0.106
		l5.835-0.319L68.229,7.391z M60.608,2.925c1.111,0.072,3.016,0.106,5.716,0.106c0.714,0,1.072,0.319,1.072,0.957
		c0,0.638-0.357,0.957-1.072,0.957c-1.351,0-3.256-0.07-5.716-0.213c-2.542-0.141-4.447-0.354-5.716-0.638
		c-0.556-0.142-0.833-0.46-0.833-0.957c0.078-0.495,0.477-0.745,1.191-0.745C56.916,2.606,58.703,2.784,60.608,2.925z"/>
	<path fill="#FFFFFF" d="M110.268,3.563c0.158,0.568,0,1.1-0.477,1.595c-0.557,0.497-1.39,1.063-2.501,1.701
		c-1.509,0.851-2.938,1.702-4.287,2.552l-4.168,2.552c2.54-0.638,4.645-0.957,6.312-0.957c3.255,0,5.794,0.781,7.622,2.339
		c1.269,1.134,1.905,2.695,1.905,4.678c0,2.198-1.191,4.006-3.573,5.423c-2.382,1.346-5.2,2.021-8.455,2.021
		c-3.891,0-6.709-0.744-8.455-2.233c-0.875-0.92-1.31-1.808-1.31-2.658c0-0.779,0.277-1.452,0.833-2.02
		c0.953-0.921,2.341-1.383,4.168-1.383c1.825,0,3.612,0.604,5.359,1.808c1.349,0.993,2.501,2.376,3.453,4.146
		c1.43-0.212,2.778-0.813,4.05-1.807c1.11-0.921,1.667-2.056,1.667-3.403c0-1.488-0.518-2.692-1.549-3.615
		c-1.429-1.204-3.414-1.807-5.954-1.807c-2.462,0-4.644,0.319-6.549,0.957c-2.462,0.85-5.082,2.163-7.86,3.934
		c-0.636,0.284-1.191,0.178-1.667-0.319c-0.238-0.566-0.119-1.026,0.357-1.382c5.716-3.047,11.948-6.875,18.697-11.484l-3.454,0.213
		l-4.763,0.319l-3.691,0.213l-3.334,0.212c-0.794,0.072-1.191-0.248-1.191-0.957c0-0.638,0.357-0.957,1.072-0.957
		c5.636-0.213,10.956-0.46,15.958-0.745C109.354,2.571,109.949,2.925,110.268,3.563z M94.786,20.363
		c0,0.993,0.673,1.844,2.024,2.552c1.269,0.638,2.977,0.957,5.121,0.957c0.714,0,1.269-0.037,1.667-0.106
		c0.396-0.071,0.674-0.144,0.833-0.213c-0.476-1.063-1.231-2.09-2.262-3.084c-1.51-1.204-3.019-1.808-4.526-1.808
		C95.817,18.661,94.864,19.229,94.786,20.363z"/>
	<path fill="#FFFFFF" d="M134.68,12.813c0.477,0.355,0.555,0.744,0.238,1.169c-1.351,1.844-2.024,3.296-2.024,4.36
		c0,1.488,0.754,2.623,2.263,3.402c1.587,0.709,4.207,1.063,7.859,1.063c3.255,0,6.589-0.354,10.004-1.063
		c0.792-0.142,1.31,0.106,1.548,0.744c0.158,0.71-0.238,1.17-1.19,1.383c-2.858,0.495-6.312,0.744-10.361,0.744
		c-4.923,0-8.217-0.604-9.884-1.808c-1.589-1.205-2.382-2.622-2.382-4.253c0-1.63,0.793-3.473,2.382-5.529
		C133.528,12.601,134.044,12.531,134.68,12.813z M150.042,4.307c0.715,0.143,1.031,0.532,0.953,1.17
		c-0.16,0.568-0.596,0.815-1.311,0.744c-1.589-0.283-3.533-0.425-5.835-0.425c-3.891,0-7.543,0.284-10.956,0.851
		c-0.637,0.071-1.032-0.176-1.19-0.744c0-0.495,0.277-0.814,0.833-0.957c3.969-0.708,7.78-1.063,11.433-1.063
		C146.429,3.882,148.453,4.025,150.042,4.307z M150.519,1.755c0.396-0.141,0.754-0.07,1.071,0.212
		c0.873,0.922,1.668,1.951,2.382,3.083c0.238,0.497,0.119,0.851-0.357,1.063c-0.476,0.143-0.833,0.037-1.071-0.319
		c-0.557-0.92-1.31-1.949-2.263-3.083C150.042,2.358,150.12,2.04,150.519,1.755z M153.377,0.798c0.396-0.141,0.753-0.07,1.071,0.213
		c0.873,0.922,1.667,1.95,2.382,3.083c0.158,0.497,0.039,0.851-0.357,1.063c-0.477,0.143-0.833,0.037-1.071-0.319
		c-0.557-0.92-1.311-1.949-2.263-3.083C152.9,1.33,152.979,1.011,153.377,0.798z"/>
	<path fill="#FFFFFF" d="M179.813,2.606c0.635-0.07,1.15-0.07,1.548,0c0.715,0.212,1.191,0.603,1.43,1.169
		c0.158,0.284,0.238,0.709,0.238,1.276c-0.08,0.994-0.438,2.624-1.072,4.891l-0.596,1.702c2.698,0.355,5.557,1.1,8.574,2.233
		c0.238-2.622,0.357-4.713,0.357-6.273c0-0.708,0.357-1.063,1.072-1.063c0.714,0,1.071,0.355,1.071,1.063
		c0,2.057-0.16,4.396-0.476,7.018c2.063,0.851,3.412,1.488,4.049,1.914c0.476,0.425,0.595,0.922,0.356,1.488
		c-0.476,0.497-1.112,0.532-1.905,0.106c-0.874-0.495-1.786-0.992-2.738-1.488c-0.398,2.977-1.352,5.104-2.858,6.38
		c-1.429,1.204-3.652,2.232-6.669,3.083c-0.557,0.07-0.913-0.106-1.071-0.531c-0.16-0.426,0.039-0.744,0.595-0.957
		c2.54-0.71,4.445-1.63,5.717-2.765c1.269-1.205,2.024-3.19,2.263-5.954c-2.7-1.276-5.639-2.197-8.813-2.765
		c-0.795,2.126-1.59,3.934-2.382,5.423c-0.953,1.772-1.946,3.154-2.978,4.146c-0.874,0.709-1.827,1.063-2.857,1.063
		c-1.191,0-2.104-0.389-2.739-1.17c-0.637-0.779-0.953-1.771-0.953-2.978c0-1.701,0.754-3.365,2.263-4.997
		c1.825-1.771,4.564-2.799,8.217-3.083c0.953-3.19,1.43-5.245,1.43-6.167c0-0.495-0.119-0.814-0.357-0.957
		c-0.238-0.141-0.676-0.141-1.311,0c-1.19,0.212-3.494,0.462-6.906,0.744c-0.637,0-1.033-0.282-1.191-0.851
		c0-0.638,0.357-0.992,1.072-1.063l2.263-0.106l2.619-0.213L179.813,2.606z M172.906,15.259c-1.429,1.489-2.144,2.942-2.144,4.359
		c0.078,1.702,0.674,2.553,1.787,2.553c1.03,0.071,2.103-0.708,3.215-2.34c0.635-1.063,1.191-2.055,1.667-2.977
		c0.555-1.205,1.031-2.48,1.43-3.828C176.241,13.239,174.256,13.983,172.906,15.259z"/>
</g>
</svg>
