<?xml version="1.0" encoding="utf-8"?>
<!-- Generator: Adobe Illustrator 15.1.0, SVG Export Plug-In . SVG Version: 6.00 Build 0)  -->
<!DOCTYPE svg PUBLIC "-//W3C//DTD SVG 1.1//EN" "http://www.w3.org/Graphics/SVG/1.1/DTD/svg11.dtd">
<svg version="1.1" id="レイヤー_1" xmlns="http://www.w3.org/2000/svg" xmlns:xlink="http://www.w3.org/1999/xlink" x="0px"
	 y="0px" width="200px" height="20px" viewBox="0 0 200 20" enable-background="new 0 0 200 20" xml:space="preserve">
<g>
	<path fill="#FFFFFF" d="M16.31,5.336c0.073-0.121,0.182-0.2,0.327-0.236c0.157-0.024,0.296,0,0.418,0.072
		c0.133,0.097,0.206,0.225,0.218,0.382c0.073,0.472,0.169,1.326,0.291,2.561c0.121,1.187,0.188,2.252,0.2,3.196
		c-0.012,0.182-0.061,0.327-0.145,0.436c-0.097,0.098-0.224,0.146-0.381,0.146c-0.158-0.012-0.279-0.061-0.363-0.146
		c-0.109-0.097-0.164-0.235-0.164-0.417c0-0.944-0.061-2.004-0.182-3.179c-0.121-1.223-0.218-2.016-0.291-2.379
		C16.213,5.603,16.238,5.457,16.31,5.336z M18.617,2.866c0.097-0.097,0.224-0.146,0.381-0.146c0.157,0.012,0.278,0.061,0.363,0.146
		c0.121,0.097,0.182,0.242,0.182,0.436v3.814c0.521-0.799,0.914-1.562,1.181-2.289c0.073-0.182,0.169-0.297,0.291-0.345
		c0.133-0.048,0.272-0.048,0.418,0c0.157,0.073,0.26,0.169,0.309,0.291c0.037,0.146,0.03,0.297-0.018,0.454
		c-0.412,1.09-1.054,2.24-1.925,3.451c-0.085,0.109-0.17,0.188-0.254,0.236V9.55c-0.012,0.69-0.036,1.308-0.073,1.852
		c-0.024,0.363-0.061,0.751-0.109,1.162c0.787,1.369,1.423,2.543,1.907,3.524c0.073,0.133,0.084,0.261,0.036,0.381
		c-0.036,0.158-0.127,0.261-0.272,0.31c-0.169,0.072-0.309,0.084-0.417,0.036c-0.121-0.036-0.224-0.151-0.309-0.346
		c-0.315-0.714-0.696-1.514-1.144-2.397c-0.073,0.303-0.133,0.605-0.182,0.908c-0.133,0.558-0.261,1.042-0.381,1.453
		c-0.146,0.448-0.297,0.842-0.454,1.181c-0.182,0.375-0.352,0.679-0.509,0.908c-0.182,0.242-0.315,0.437-0.399,0.581
		c-0.146,0.146-0.279,0.225-0.4,0.236c-0.133,0.012-0.26-0.024-0.381-0.108c-0.133-0.109-0.206-0.225-0.218-0.346
		c-0.024-0.182,0.024-0.333,0.145-0.454c0.109-0.146,0.236-0.314,0.381-0.509c0.157-0.242,0.309-0.532,0.454-0.871
		c0.133-0.327,0.272-0.696,0.418-1.108c0.133-0.424,0.26-0.933,0.381-1.525c0.133-0.545,0.224-1.078,0.272-1.599
		c0.073-0.521,0.115-1.078,0.127-1.671c0.036-0.472,0.054-1.005,0.054-1.598V3.302C18.484,3.12,18.532,2.975,18.617,2.866z
		 M32.876,6.171c0.121,0.097,0.182,0.225,0.182,0.382c-0.012,0.182-0.061,0.315-0.146,0.399c-0.121,0.109-0.254,0.164-0.399,0.164
		h-2.652c0.193,1.126,0.496,2.113,0.908,2.96c0.484,1.005,1.168,1.986,2.052,2.942c0.121,0.134,0.182,0.279,0.182,0.437
		c-0.024,0.133-0.079,0.254-0.163,0.363c-0.134,0.108-0.261,0.157-0.382,0.146c-0.157-0.013-0.297-0.079-0.417-0.2
		c-0.933-1.018-1.641-2.04-2.125-3.069c-0.254-0.521-0.472-1.072-0.654-1.653c-0.109,0.363-0.236,0.733-0.381,1.108
		c-0.206,0.509-0.418,0.95-0.636,1.325c-0.218,0.4-0.46,0.751-0.727,1.054c-0.279,0.327-0.551,0.6-0.817,0.817
		c-0.291,0.218-0.515,0.388-0.672,0.509c-0.157,0.134-0.297,0.193-0.417,0.182c-0.133,0-0.254-0.061-0.363-0.182
		c-0.097-0.109-0.152-0.236-0.164-0.382c0-0.182,0.079-0.314,0.236-0.399c0.182-0.121,0.387-0.278,0.617-0.472
		c0.267-0.206,0.515-0.461,0.745-0.764c0.218-0.266,0.436-0.587,0.654-0.962c0.242-0.375,0.46-0.823,0.654-1.344
		c0.206-0.484,0.351-0.95,0.436-1.398c0.061-0.339,0.115-0.678,0.164-1.017h-1.816c-0.049,0-0.079,0-0.091,0
		c-0.073,0.303-0.146,0.605-0.218,0.908c-0.194,0.654-0.442,1.253-0.745,1.798c-0.352,0.654-0.751,1.216-1.199,1.689
		c-0.448,0.46-0.872,0.842-1.271,1.144c-0.424,0.327-0.945,0.636-1.562,0.927c-0.158,0.072-0.309,0.085-0.454,0.036
		c-0.146-0.061-0.243-0.151-0.291-0.272c-0.072-0.157-0.084-0.297-0.036-0.418c0.061-0.133,0.169-0.235,0.327-0.309
		c0.496-0.229,0.95-0.496,1.362-0.799c0.436-0.327,0.823-0.66,1.162-0.999c0.157-0.169,0.309-0.351,0.454-0.545
		c-0.363-0.291-0.787-0.582-1.271-0.872c-0.497-0.315-0.842-0.527-1.035-0.636c-0.17,0.218-0.333,0.424-0.49,0.618
		c-0.122,0.133-0.254,0.206-0.4,0.218c-0.145-0.012-0.272-0.061-0.381-0.145c-0.121-0.109-0.182-0.236-0.182-0.382
		c0-0.145,0.061-0.278,0.182-0.399c0.484-0.509,0.86-1.042,1.126-1.599c0.279-0.617,0.515-1.525,0.708-2.725
		c0.121-0.508,0.297-0.872,0.527-1.09c0.193-0.182,0.49-0.272,0.89-0.272h1.925c0.424-0.012,0.75,0.134,0.981,0.436
		C26.997,3.731,27.1,4.053,27.1,4.392s-0.061,0.86-0.182,1.562C26.906,5.978,26.9,6.008,26.9,6.044h1.78
		c0.024-0.254,0.036-0.515,0.036-0.781V3.229c0.012-0.182,0.061-0.327,0.146-0.436c0.097-0.097,0.224-0.145,0.381-0.145
		c0.157,0.012,0.278,0.061,0.363,0.145c0.121,0.097,0.182,0.243,0.182,0.436v2.034c-0.012,0.267-0.024,0.527-0.037,0.781h2.761
		C32.634,6.044,32.755,6.087,32.876,6.171z M22.395,14.854c0.121-0.061,0.26-0.085,0.418-0.072c0.146,0.024,0.26,0.091,0.345,0.199
		c0.073,0.134,0.091,0.291,0.054,0.473c-0.169,0.848-0.381,1.544-0.636,2.089c-0.254,0.605-0.533,1.096-0.835,1.471
		c-0.109,0.146-0.242,0.236-0.399,0.272c-0.133,0-0.261-0.042-0.381-0.127c-0.122-0.108-0.188-0.224-0.2-0.345
		c-0.024-0.17,0.019-0.315,0.127-0.437c0.339-0.484,0.605-0.95,0.799-1.398c0.242-0.521,0.405-1.096,0.49-1.726
		C22.201,15.071,22.274,14.938,22.395,14.854z M25.429,7.861V7.843c-0.037-0.037-0.073-0.061-0.109-0.073
		c-0.4-0.303-0.872-0.618-1.417-0.944c-0.375-0.218-0.66-0.382-0.854-0.491c-0.109,0.375-0.225,0.727-0.345,1.054
		c-0.085,0.182-0.17,0.351-0.254,0.508c0.242,0.122,0.605,0.333,1.09,0.636c0.472,0.303,0.89,0.588,1.253,0.854
		C25.035,8.915,25.247,8.406,25.429,7.861z M26.01,4.882c-0.012-0.254-0.061-0.454-0.145-0.599
		c-0.085-0.146-0.272-0.218-0.563-0.218h-0.944c-0.303,0-0.533,0.055-0.69,0.164c-0.157,0.121-0.26,0.315-0.309,0.581
		c-0.036,0.146-0.061,0.297-0.073,0.454c0.242,0.134,0.636,0.363,1.181,0.69c0.46,0.279,0.872,0.545,1.235,0.799
		c0.036-0.194,0.079-0.381,0.127-0.563C25.949,5.657,26.01,5.221,26.01,4.882z M25.247,15.126c0.097-0.109,0.218-0.163,0.363-0.163
		c0.157,0.012,0.291,0.061,0.399,0.145c0.109,0.121,0.157,0.261,0.146,0.418c-0.024,0.279-0.061,0.751-0.109,1.417
		c-0.061,0.654-0.134,1.235-0.218,1.744c-0.036,0.169-0.115,0.296-0.236,0.381c-0.109,0.085-0.243,0.109-0.4,0.073
		c-0.145-0.024-0.254-0.091-0.327-0.2c-0.085-0.146-0.109-0.297-0.073-0.454c0.097-0.484,0.169-1.042,0.218-1.671
		c0.061-0.654,0.091-1.078,0.091-1.271C25.114,15.374,25.162,15.235,25.247,15.126z M27.99,15.09c0.073-0.121,0.182-0.2,0.327-0.236
		c0.157-0.048,0.296-0.03,0.417,0.055s0.2,0.206,0.236,0.363c0.048,0.278,0.127,0.769,0.236,1.471
		c0.109,0.666,0.169,1.271,0.182,1.816c-0.012,0.182-0.061,0.327-0.145,0.437c-0.085,0.097-0.206,0.151-0.363,0.163
		c-0.146,0-0.272-0.042-0.381-0.127c-0.109-0.097-0.164-0.236-0.164-0.418c-0.037-0.521-0.097-1.114-0.182-1.78
		c-0.097-0.678-0.164-1.113-0.2-1.308C27.929,15.356,27.941,15.211,27.99,15.09z M30.769,15.471
		c-0.085-0.157-0.109-0.309-0.073-0.454c0.061-0.133,0.151-0.235,0.272-0.309c0.157-0.084,0.296-0.103,0.417-0.055
		c0.146,0.062,0.261,0.164,0.345,0.31c0.521,0.956,0.951,2.125,1.29,3.505c0.048,0.182,0.036,0.333-0.037,0.454
		c-0.073,0.134-0.182,0.225-0.327,0.272c-0.158,0.037-0.297,0.019-0.418-0.054c-0.121-0.073-0.206-0.206-0.254-0.4
		C31.683,17.469,31.277,16.379,30.769,15.471z M30.714,3.356c-0.012-0.121,0.036-0.242,0.146-0.363
		c0.109-0.097,0.224-0.145,0.345-0.145c0.146,0,0.279,0.054,0.4,0.164c0.412,0.375,0.805,0.86,1.181,1.453
		c0.073,0.145,0.103,0.278,0.091,0.399c-0.024,0.146-0.097,0.261-0.218,0.345c-0.134,0.061-0.261,0.085-0.382,0.073
		c-0.145-0.037-0.26-0.127-0.345-0.272c-0.339-0.521-0.678-0.945-1.017-1.271C30.781,3.628,30.714,3.501,30.714,3.356z"/>
	<path fill="#FFFFFF" d="M66.352,8.406c0.049-0.024,0.066-0.061,0.055-0.109c0-0.037-0.024-0.055-0.072-0.055
		c-3.657,0.267-7.163,0.436-10.518,0.509c-0.157,0.012-0.296-0.037-0.417-0.146c-0.121-0.097-0.182-0.242-0.182-0.436
		c0-0.169,0.055-0.296,0.164-0.381c0.109-0.097,0.254-0.139,0.436-0.127c3.415-0.109,6.921-0.278,10.518-0.509
		c0.642-0.048,1.035,0.188,1.181,0.708c0.169,0.593,0.012,1.06-0.473,1.398l-5.304,3.959c0.617-0.206,1.132-0.309,1.544-0.309
		c1.162,0.012,1.744,0.696,1.744,2.053v1.38c0.012,0.823,0.46,1.235,1.344,1.235c0.727,0,1.58-0.072,2.562-0.218
		c0.169-0.024,0.309,0.006,0.417,0.091c0.098,0.084,0.151,0.224,0.164,0.418c-0.013,0.205-0.073,0.351-0.182,0.436
		c-0.121,0.085-0.255,0.133-0.399,0.146c-0.872,0.146-1.726,0.218-2.562,0.218c-1.623-0.012-2.434-0.787-2.434-2.325v-1.38
		c0-0.643-0.219-0.963-0.654-0.963c-1.574,0-3.603,0.872-6.085,2.615l-0.072,0.055l-0.037,0.019l-0.145,0.108l-0.109,0.073
		l-0.019,0.018l-0.054,0.036l-0.019,0.019l-1.58,1.181l-0.019,0.019l-0.236,0.163c-0.073,0.061-0.115,0.097-0.127,0.109
		c-0.145,0.097-0.278,0.145-0.399,0.145c-0.133,0-0.254-0.061-0.363-0.182s-0.164-0.254-0.164-0.399
		c0.012-0.157,0.073-0.278,0.182-0.363l0.037-0.036l0.036-0.019l0.018-0.018L66.352,8.406z M65.499,4.028
		c0.182,0.024,0.315,0.079,0.399,0.164c0.085,0.109,0.128,0.254,0.128,0.436c-0.024,0.17-0.098,0.297-0.219,0.382
		c-0.108,0.084-0.26,0.109-0.454,0.072c-2.664-0.254-5.11-0.581-7.338-0.98c-0.157-0.012-0.291-0.073-0.399-0.182
		c-0.098-0.097-0.14-0.236-0.127-0.418c0.012-0.182,0.078-0.315,0.199-0.399c0.134-0.085,0.291-0.103,0.473-0.055
		C60.498,3.471,62.944,3.798,65.499,4.028z"/>
	<path fill="#FFFFFF" d="M102.371,3.992c0.072,0.388-0.098,0.745-0.509,1.072l-5.594,4.414c0.812-0.182,1.841-0.272,3.088-0.272
		c1.937,0.012,3.432,0.442,4.486,1.29c1.029,0.835,1.55,1.859,1.563,3.069c0,0.013,0,0.037,0,0.073
		c0.012,0.012,0.018,0.024,0.018,0.036h-0.018c-0.036,1.756-0.806,3.106-2.307,4.051c-1.393,0.848-3.076,1.277-5.049,1.289
		c-4.057-0.024-6.085-0.962-6.085-2.815c0.012-0.581,0.242-1.053,0.69-1.416c0.496-0.4,1.187-0.6,2.07-0.6
		c1.368,0,2.513,0.418,3.433,1.253c0.908,0.787,1.478,1.568,1.708,2.344c0.98-0.194,1.852-0.527,2.615-0.999
		c1.211-0.775,1.822-1.841,1.835-3.197c-0.024-0.836-0.424-1.568-1.199-2.198c-0.872-0.726-2.125-1.089-3.759-1.089
		c-2.155,0.012-3.724,0.315-4.704,0.907c-0.376,0.182-1.515,0.933-3.415,2.253c0.048-0.049,0.048-0.049,0,0
		c0.012-0.036,0.012-0.036,0,0c-0.157,0.108-0.315,0.157-0.473,0.146c-0.157-0.024-0.278-0.109-0.363-0.255
		c-0.072-0.133-0.103-0.272-0.091-0.418c0.024-0.145,0.134-0.278,0.327-0.399c0.012-0.012,0.024-0.018,0.036-0.018l0.019-0.019
		l0.018-0.019l9.555-7.537c0.146-0.084,0.212-0.169,0.2-0.254c0-0.073-0.055-0.115-0.164-0.127h-8.373
		c-0.146-0.012-0.272-0.061-0.382-0.146c-0.121-0.097-0.182-0.242-0.182-0.436c0.024-0.157,0.079-0.278,0.163-0.363
		c0.109-0.097,0.242-0.145,0.4-0.145h9.953C102.122,3.478,102.286,3.653,102.371,3.992z M98.048,17.923
		c0.242-0.012,0.479-0.018,0.708-0.018c-0.254-0.545-0.715-1.108-1.38-1.689c-0.751-0.63-1.635-0.944-2.652-0.944
		c-0.63,0-1.078,0.091-1.344,0.272c-0.219,0.17-0.327,0.388-0.327,0.653C93.065,17.336,94.73,17.911,98.048,17.923z"/>
	<path fill="#FFFFFF" d="M129.308,11.33c0.133-0.037,0.261-0.013,0.382,0.072c0.12,0.072,0.205,0.182,0.254,0.327
		c0.048,0.146,0.019,0.29-0.091,0.436c-1.478,1.235-2.216,2.289-2.216,3.161c0,1.501,1.635,2.252,4.904,2.252
		c2.301-0.012,5.231-0.261,8.791-0.745c0.134-0.024,0.261-0.012,0.382,0.037c0.133,0.084,0.218,0.205,0.254,0.363
		c0.036,0.169,0.019,0.309-0.055,0.417c-0.084,0.121-0.206,0.206-0.363,0.255c-3.572,0.509-6.575,0.763-9.009,0.763
		c-3.996,0-5.994-1.114-5.994-3.342c0-1.139,0.805-2.386,2.416-3.742C129.083,11.463,129.198,11.378,129.308,11.33z M139.643,4.646
		c0.206,0.024,0.37,0.079,0.491,0.163c0.133,0.109,0.193,0.261,0.182,0.454c-0.037,0.194-0.115,0.327-0.236,0.4
		c-0.109,0.073-0.242,0.091-0.399,0.054c-3.876-0.46-7.6-0.327-11.171,0.4c-0.146,0.036-0.272,0.03-0.382-0.018
		c-0.146-0.073-0.225-0.206-0.236-0.4c-0.012-0.193,0.024-0.345,0.109-0.454c0.097-0.121,0.254-0.188,0.472-0.2
		C132.093,4.295,135.816,4.162,139.643,4.646z M142.149,5.463c0.024,0.133,0.012,0.26-0.036,0.381
		c-0.072,0.097-0.17,0.182-0.291,0.254c-0.133,0.048-0.26,0.048-0.381,0c-0.098-0.037-0.17-0.109-0.218-0.218
		c-0.303-1.029-0.733-1.998-1.29-2.906c-0.024-0.084-0.012-0.188,0.036-0.309c0.061-0.121,0.151-0.206,0.272-0.254
		c0.134-0.073,0.255-0.091,0.363-0.055c0.097,0.049,0.182,0.115,0.255,0.2C141.417,3.429,141.847,4.398,142.149,5.463z
		 M142.677,2.121c0.557,0.86,0.986,1.804,1.289,2.833c0.036,0.133,0.019,0.261-0.055,0.381c-0.048,0.097-0.145,0.182-0.29,0.254
		c-0.134,0.048-0.261,0.048-0.382,0c-0.085-0.036-0.151-0.109-0.199-0.218c-0.303-1.005-0.733-1.95-1.29-2.834
		c-0.036-0.084-0.03-0.182,0.019-0.291c0.072-0.109,0.169-0.2,0.29-0.272c0.134-0.073,0.255-0.084,0.363-0.036
		C142.519,1.976,142.604,2.037,142.677,2.121z"/>
	<path fill="#FFFFFF" d="M173.737,5.082c-0.013,1.49-0.279,3.04-0.8,4.65c1.453,0.266,2.949,0.727,4.486,1.379v-4.25
		c-0.012-0.327,0.17-0.49,0.545-0.49c0.363,0,0.545,0.163,0.545,0.49v4.722c0.739,0.327,1.478,0.696,2.217,1.108
		c0.302,0.133,0.375,0.381,0.218,0.744c-0.17,0.327-0.406,0.399-0.709,0.218c-0.605-0.326-1.187-0.617-1.743-0.871
		c-0.17,3.947-2.295,6.212-6.376,6.793c-0.363,0.048-0.569-0.097-0.617-0.436c-0.036-0.376,0.108-0.588,0.436-0.636
		c3.633-0.533,5.455-2.604,5.468-6.213c-1.695-0.75-3.313-1.259-4.85-1.525c-0.352,0.835-0.751,1.689-1.199,2.561
		c-1.514,2.809-3.069,4.214-4.668,4.214c-1.708-0.013-2.562-0.896-2.562-2.652c0.012-1.599,0.569-2.948,1.671-4.05
		c0.957-0.957,2.24-1.435,3.852-1.435c0.012-0.012,0.042-0.012,0.091,0c0-0.012,0.006-0.018,0.018-0.018v0.018
		c0.702-0.012,1.405,0.036,2.107,0.146c0.521-1.526,0.781-3.016,0.781-4.469c0-0.533-0.261-0.781-0.781-0.745l-5.031,0.272
		c-0.352,0-0.533-0.169-0.545-0.508c-0.013-0.375,0.169-0.569,0.545-0.582l5.031-0.272C173.113,3.187,173.737,3.798,173.737,5.082z
		 M166.689,16.452c1.223-0.012,2.477-1.241,3.76-3.688c0.388-0.738,0.732-1.459,1.035-2.161c-0.593-0.073-1.198-0.109-1.816-0.109
		c-1.308,0-2.295,0.333-2.961,0.999c-0.992,0.944-1.489,2.077-1.489,3.396C165.218,15.932,165.708,16.452,166.689,16.452z"/>
</g>
</svg>
