<?xml version="1.0" encoding="utf-8"?>
<!-- Generator: Adobe Illustrator 15.1.0, SVG Export Plug-In . SVG Version: 6.00 Build 0)  -->
<!DOCTYPE svg PUBLIC "-//W3C//DTD SVG 1.1//EN" "http://www.w3.org/Graphics/SVG/1.1/DTD/svg11.dtd">
<svg version="1.1" id="レイヤー_1" xmlns="http://www.w3.org/2000/svg" xmlns:xlink="http://www.w3.org/1999/xlink" x="0px"
	 y="0px" width="200px" height="27px" viewBox="0 0 200 27" enable-background="new 0 0 200 27" xml:space="preserve">
<g>
	<path fill="#FFFFFF" d="M31.299,3.071c0.559,0,0.839,0.246,0.839,0.734c0,0.49-0.28,0.734-0.839,0.734h-8.288
		c-0.561,1.33-1.154,2.554-1.783,3.672v16.576c0,0.698-0.315,1.049-0.944,1.049s-0.944-0.351-0.944-1.049V10.729
		c-3.078,3.567-6.26,6.016-9.546,7.343c-0.771,0.28-1.259,0.105-1.469-0.524c-0.071-0.42,0.139-0.734,0.629-0.944
		c5.455-2.657,9.442-6.678,11.959-12.064H9.059c-0.561,0-0.839-0.244-0.839-0.734c0-0.488,0.279-0.734,0.839-0.734H31.299z
		 M22.697,9.68c0.419-0.488,0.944-0.488,1.573,0c2.518,1.959,5.07,4.232,7.659,6.819c0.488,0.561,0.524,1.085,0.105,1.573
		c-0.49,0.49-1.085,0.42-1.784-0.21c-2.659-2.728-5.072-4.999-7.239-6.819C22.521,10.624,22.417,10.17,22.697,9.68z"/>
	<path fill="#FFFFFF" d="M62.457,6.428c0.279,0,0.454,0.141,0.524,0.419c0.35,1.469,0.559,3.079,0.63,4.826
		c0,0.98-0.036,1.784-0.105,2.413c-0.071,0.561-0.351,0.839-0.839,0.839c-0.419-0.068-0.629-0.383-0.629-0.944
		c0.069-0.769,0.105-1.538,0.105-2.308c-0.071-1.747-0.141-3.321-0.21-4.721C61.932,6.673,62.106,6.498,62.457,6.428z M65.814,2.126
		c0.488,0,0.734,0.28,0.734,0.839V9.05c0.699-0.698,1.259-1.503,1.679-2.413c0.21-0.63,0.559-0.908,1.049-0.839
		c0.488,0.141,0.664,0.524,0.524,1.154c-0.561,1.469-1.644,2.623-3.252,3.462c0,1.54-0.104,3.708-0.314,6.505
		c1.118,1.189,2.308,2.728,3.567,4.615c0.139-0.278,0.244-0.663,0.314-1.153c0-0.489,0.174-0.734,0.525-0.734
		c0.419,0,0.629,0.28,0.629,0.839c0,1.819-0.7,3.496-2.098,5.036c-0.561,0.419-1.015,0.419-1.364,0
		c-0.28-0.352-0.21-0.771,0.209-1.26c0.349-0.351,0.63-0.699,0.839-1.049c-0.91-1.817-1.854-3.357-2.833-4.616
		c-0.49,2.309-1.19,4.232-2.098,5.771c-0.351,0.698-0.805,0.908-1.364,0.629c-0.351-0.351-0.314-0.875,0.105-1.573
		c0.629-1.118,1.188-2.623,1.679-4.511c0.488-2.238,0.734-4.512,0.734-6.819V2.966C65.08,2.407,65.324,2.126,65.814,2.126z
		 M71.688,1.707c0.489,0,0.734,0.246,0.734,0.734c0,0.21,0,0.49,0,0.839h2.728c0.42,0,0.803,0.175,1.154,0.524
		c0.349,0.351,0.524,0.734,0.524,1.154l-0.21,1.679h3.042V2.756c0-0.559,0.244-0.839,0.734-0.839c0.488,0,0.734,0.28,0.734,0.839
		v3.882h4.091c0.489,0,0.734,0.209,0.734,0.629c0,0.419-0.246,0.629-0.734,0.629h-3.986c0.559,3.427,2.028,6.399,4.406,8.917
		c0.769,0.771,0.874,1.4,0.314,1.889c-0.49,0.42-1.049,0.28-1.678-0.42c-1.54-1.957-2.764-4.37-3.672-7.239
		c-0.98,3.147-2.518,5.77-4.616,7.869c-0.49,0.561-0.944,0.629-1.364,0.21c-0.351-0.35-0.28-0.77,0.21-1.26
		c2.867-3.146,4.44-6.468,4.721-9.966H76.41c-0.351,2.098-1.015,4.057-1.994,5.875c-0.98,1.819-2.273,3.462-3.881,4.931
		c-0.42,0.28-0.771,0.28-1.049,0c-0.209-0.279-0.141-0.594,0.21-0.944c1.259-1.259,2.342-2.623,3.252-4.091l-2.308-2.203
		c-0.28,0.7-0.561,1.295-0.839,1.783c-0.28,0.561-0.629,0.734-1.049,0.525c-0.351-0.21-0.351-0.63,0-1.259
		c1.538-3.636,2.272-6.924,2.203-9.861C70.954,2.021,71.198,1.707,71.688,1.707z M71.059,10.309l2.518,2.098
		c0.278-0.629,0.559-1.398,0.839-2.308l-2.728-1.889L71.059,10.309z M72.003,6.742l2.833,1.889c0.279-1.259,0.454-2.377,0.524-3.357
		c0-0.488-0.175-0.734-0.524-0.734h-2.518L72.003,6.742z M74.207,19.855c0.419-0.068,0.698,0.21,0.839,0.84
		c0.209,1.259,0.244,2.554,0.104,3.882c-0.07,0.698-0.385,1.013-0.944,0.944c-0.49,0-0.7-0.352-0.629-1.05
		c0.139-1.188,0.173-2.447,0.104-3.776C73.682,20.207,73.855,19.927,74.207,19.855z M77.668,19.751
		c0.349-0.14,0.664,0.036,0.944,0.524c0.629,1.4,1.083,2.623,1.364,3.672c0.209,0.908-0.036,1.398-0.734,1.469
		c-0.561,0-0.875-0.28-0.944-0.839c-0.141-1.12-0.419-2.377-0.839-3.777C77.249,20.241,77.317,19.892,77.668,19.751z M81.97,20.065
		c0.279-0.278,0.664-0.21,1.154,0.21c1.259,1.19,2.098,2.483,2.518,3.882c0.278,0.839,0.139,1.328-0.42,1.469
		c-0.561,0.14-0.98-0.141-1.259-0.839c-0.49-1.398-1.12-2.587-1.888-3.567C81.724,20.661,81.689,20.275,81.97,20.065z M82.389,2.651
		c0.279-0.21,0.594-0.174,0.944,0.105c0.629,0.629,1.083,1.33,1.364,2.098c0.21,0.629,0.069,1.015-0.419,1.154
		c-0.42,0.071-0.7-0.069-0.839-0.419c-0.28-0.698-0.629-1.398-1.049-2.098C82.18,3.141,82.18,2.861,82.389,2.651z"/>
	<path fill="#FFFFFF" d="M121.206,12.827c0.419,0.351,0.488,0.734,0.209,1.154c-1.189,1.82-1.783,3.252-1.783,4.301
		c0,1.469,0.664,2.589,1.993,3.357c1.398,0.699,3.706,1.049,6.924,1.049c2.867,0,5.805-0.35,8.813-1.049
		c0.698-0.14,1.154,0.104,1.364,0.734c0.139,0.699-0.21,1.153-1.049,1.363c-2.519,0.488-5.561,0.734-9.128,0.734
		c-4.337,0-7.238-0.595-8.707-1.783c-1.399-1.188-2.098-2.587-2.098-4.196c0-1.608,0.698-3.426,2.098-5.455
		C120.191,12.617,120.646,12.548,121.206,12.827z M134.739,4.435c0.629,0.141,0.907,0.524,0.839,1.154
		c-0.141,0.561-0.524,0.805-1.154,0.734c-1.399-0.279-3.112-0.419-5.141-0.419c-3.427,0-6.645,0.28-9.651,0.839
		c-0.561,0.071-0.909-0.173-1.049-0.734c0-0.488,0.244-0.803,0.734-0.944c3.496-0.698,6.854-1.049,10.071-1.049
		C131.556,4.015,133.339,4.156,134.739,4.435z M135.158,1.917c0.35-0.139,0.664-0.069,0.944,0.21
		c0.769,0.91,1.469,1.924,2.099,3.042c0.21,0.49,0.104,0.839-0.315,1.049c-0.419,0.141-0.734,0.036-0.943-0.314
		c-0.49-0.908-1.154-1.923-1.994-3.042C134.739,2.512,134.808,2.197,135.158,1.917z M137.677,0.972
		c0.349-0.139,0.663-0.069,0.943,0.21c0.77,0.91,1.469,1.924,2.099,3.042c0.14,0.49,0.034,0.839-0.314,1.049
		c-0.42,0.141-0.734,0.036-0.944-0.314c-0.49-0.908-1.154-1.923-1.993-3.042C137.257,1.497,137.325,1.182,137.677,0.972z"/>
	<path fill="#FFFFFF" d="M178.905,2.756c0.559-0.069,1.013-0.069,1.363,0c0.63,0.21,1.05,0.595,1.259,1.154
		c0.14,0.28,0.21,0.7,0.21,1.259c-0.07,0.98-0.385,2.588-0.944,4.826l-0.524,1.678c2.377,0.351,4.895,1.085,7.554,2.203
		c0.21-2.586,0.314-4.65,0.314-6.189c0-0.698,0.315-1.049,0.944-1.049c0.63,0,0.944,0.351,0.944,1.049
		c0,2.029-0.141,4.337-0.42,6.924c1.818,0.84,3.007,1.469,3.567,1.889c0.419,0.42,0.524,0.909,0.314,1.469
		c-0.42,0.49-0.98,0.524-1.679,0.104c-0.771-0.488-1.573-0.979-2.413-1.469c-0.351,2.938-1.189,5.036-2.518,6.295
		c-1.259,1.188-3.218,2.203-5.875,3.042c-0.49,0.069-0.805-0.104-0.944-0.524c-0.141-0.42,0.035-0.734,0.525-0.944
		c2.237-0.699,3.916-1.607,5.035-2.728c1.118-1.188,1.783-3.147,1.993-5.875c-2.378-1.259-4.967-2.167-7.763-2.728
		c-0.7,2.099-1.4,3.882-2.099,5.351c-0.839,1.749-1.715,3.113-2.623,4.092c-0.77,0.699-1.609,1.049-2.518,1.049
		c-1.049,0-1.854-0.384-2.413-1.154c-0.561-0.769-0.839-1.747-0.839-2.938c0-1.679,0.664-3.32,1.993-4.931
		c1.608-1.747,4.021-2.762,7.239-3.042c0.839-3.147,1.259-5.175,1.259-6.085c0-0.488-0.105-0.803-0.315-0.944
		c-0.21-0.139-0.595-0.139-1.153,0c-1.05,0.21-3.079,0.456-6.085,0.734c-0.561,0-0.91-0.278-1.049-0.839
		c0-0.63,0.314-0.979,0.943-1.049l1.994-0.105l2.308-0.209L178.905,2.756z M172.82,15.24c-1.259,1.469-1.889,2.902-1.889,4.301
		c0.069,1.679,0.594,2.518,1.574,2.518c0.908,0.071,1.853-0.698,2.832-2.308c0.56-1.049,1.05-2.027,1.469-2.938
		c0.488-1.188,0.908-2.447,1.259-3.776C175.758,13.247,174.009,13.981,172.82,15.24z"/>
</g>
</svg>
