<?xml version="1.0" encoding="utf-8"?>
<!-- Generator: Adobe Illustrator 15.1.0, SVG Export Plug-In . SVG Version: 6.00 Build 0)  -->
<!DOCTYPE svg PUBLIC "-//W3C//DTD SVG 1.1//EN" "http://www.w3.org/Graphics/SVG/1.1/DTD/svg11.dtd">
<svg version="1.1" id="レイヤー_1" xmlns="http://www.w3.org/2000/svg" xmlns:xlink="http://www.w3.org/1999/xlink" x="0px"
	 y="0px" width="200px" height="20px" viewBox="0 0 200 20" enable-background="new 0 0 200 20" xml:space="preserve">
<g enable-background="new    ">
	<path fill="#FFFFFF" d="M72.425,1.854c0.433,0,0.65,0.19,0.65,0.569c0,0.38-0.217,0.569-0.65,0.569h-6.422
		c-0.435,1.03-0.894,1.979-1.382,2.845v12.844c0,0.541-0.244,0.813-0.732,0.813s-0.731-0.272-0.731-0.813V7.788
		c-2.386,2.765-4.851,4.662-7.398,5.69c-0.597,0.218-0.976,0.082-1.138-0.406c-0.054-0.325,0.108-0.568,0.488-0.731
		c4.228-2.059,7.317-5.175,9.268-9.349h-9.186c-0.435,0-0.65-0.189-0.65-0.569c0-0.378,0.216-0.569,0.65-0.569H72.425z
		 M65.759,6.976c0.325-0.379,0.731-0.379,1.219,0c1.951,1.518,3.929,3.279,5.935,5.284c0.378,0.435,0.406,0.841,0.081,1.219
		c-0.379,0.38-0.841,0.325-1.382-0.162c-2.06-2.113-3.93-3.874-5.609-5.284C65.623,7.707,65.542,7.355,65.759,6.976z"/>
	<path fill="#FFFFFF" d="M75.758,4.455c0.216,0,0.352,0.109,0.407,0.325c0.271,1.138,0.433,2.386,0.488,3.739
		c0,0.76-0.028,1.383-0.082,1.87c-0.055,0.435-0.271,0.65-0.65,0.65c-0.325-0.054-0.488-0.297-0.488-0.731
		c0.054-0.596,0.082-1.191,0.082-1.789c-0.055-1.354-0.109-2.573-0.163-3.658C75.352,4.646,75.487,4.51,75.758,4.455z M78.36,1.122
		c0.378,0,0.569,0.217,0.569,0.65v4.715c0.542-0.542,0.976-1.165,1.301-1.87c0.163-0.488,0.433-0.704,0.813-0.65
		c0.378,0.109,0.515,0.407,0.407,0.895C81.015,6,80.175,6.894,78.929,7.544c0,1.193-0.081,2.874-0.244,5.041
		c0.866,0.922,1.789,2.113,2.764,3.577c0.108-0.217,0.189-0.515,0.244-0.895c0-0.379,0.135-0.569,0.407-0.569
		c0.325,0,0.488,0.218,0.488,0.65c0,1.41-0.542,2.71-1.626,3.902c-0.435,0.325-0.787,0.325-1.057,0
		c-0.217-0.271-0.163-0.597,0.163-0.976c0.271-0.271,0.488-0.542,0.65-0.813c-0.705-1.409-1.437-2.602-2.195-3.577
		c-0.38,1.788-0.922,3.279-1.626,4.471c-0.271,0.541-0.624,0.704-1.057,0.488c-0.272-0.272-0.244-0.679,0.081-1.22
		c0.488-0.866,0.921-2.032,1.301-3.496c0.378-1.733,0.569-3.495,0.569-5.284V1.772C77.791,1.339,77.98,1.122,78.36,1.122z
		 M82.913,0.797c0.378,0,0.569,0.191,0.569,0.569c0,0.163,0,0.38,0,0.65h2.114c0.325,0,0.622,0.136,0.894,0.406
		c0.271,0.272,0.407,0.569,0.407,0.895l-0.163,1.3h2.357V1.61c0-0.433,0.189-0.65,0.569-0.65c0.379,0,0.569,0.217,0.569,0.65v3.008
		h3.17c0.378,0,0.569,0.163,0.569,0.488s-0.19,0.488-0.569,0.488H90.31c0.433,2.656,1.571,4.959,3.415,6.911
		c0.596,0.597,0.677,1.084,0.244,1.463c-0.379,0.325-0.813,0.217-1.3-0.325c-1.193-1.517-2.142-3.387-2.846-5.609
		c-0.759,2.438-1.951,4.472-3.577,6.097c-0.38,0.435-0.732,0.488-1.057,0.163c-0.271-0.271-0.217-0.596,0.163-0.976
		c2.222-2.438,3.441-5.013,3.658-7.723h-2.438c-0.272,1.626-0.787,3.144-1.545,4.552c-0.759,1.41-1.762,2.684-3.008,3.821
		c-0.325,0.217-0.597,0.217-0.813,0c-0.163-0.216-0.109-0.46,0.163-0.731c0.976-0.976,1.815-2.032,2.52-3.171L82.1,8.357
		c-0.217,0.542-0.435,1.004-0.65,1.382c-0.217,0.435-0.488,0.569-0.813,0.406c-0.272-0.162-0.272-0.487,0-0.976
		c1.191-2.817,1.76-5.365,1.707-7.641C82.343,1.041,82.533,0.797,82.913,0.797z M82.425,7.463l1.951,1.625
		c0.216-0.487,0.433-1.083,0.65-1.788l-2.113-1.463L82.425,7.463z M83.156,4.699l2.195,1.463c0.216-0.976,0.352-1.842,0.407-2.602
		c0-0.378-0.136-0.569-0.407-0.569H83.4L83.156,4.699z M84.863,14.861c0.325-0.054,0.542,0.162,0.65,0.65
		c0.163,0.976,0.189,1.979,0.082,3.008c-0.055,0.541-0.299,0.785-0.732,0.731c-0.379,0-0.542-0.271-0.488-0.813
		c0.108-0.921,0.135-1.896,0.082-2.926C84.457,15.133,84.592,14.916,84.863,14.861z M87.546,14.779
		c0.271-0.107,0.514,0.028,0.731,0.407c0.488,1.084,0.84,2.032,1.057,2.845c0.163,0.704-0.028,1.084-0.569,1.139
		c-0.435,0-0.678-0.218-0.731-0.65c-0.109-0.868-0.325-1.842-0.65-2.927C87.221,15.159,87.274,14.889,87.546,14.779z M90.879,15.023
		c0.216-0.216,0.514-0.162,0.894,0.163c0.976,0.922,1.626,1.924,1.951,3.008c0.216,0.65,0.108,1.028-0.325,1.138
		c-0.435,0.108-0.76-0.109-0.976-0.65c-0.38-1.083-0.868-2.004-1.463-2.764C90.688,15.484,90.662,15.187,90.879,15.023z
		 M91.205,1.529c0.216-0.163,0.459-0.135,0.731,0.081c0.488,0.488,0.84,1.03,1.057,1.626c0.163,0.488,0.054,0.786-0.325,0.894
		c-0.325,0.055-0.542-0.053-0.65-0.325C91.8,3.264,91.53,2.721,91.205,2.179C91.042,1.909,91.042,1.691,91.205,1.529z"/>
	<path fill="#FFFFFF" d="M100.472,9.414c0.325,0.272,0.378,0.569,0.163,0.895c-0.922,1.41-1.382,2.521-1.382,3.333
		c0,1.138,0.514,2.006,1.544,2.602c1.084,0.542,2.873,0.813,5.365,0.813c2.223,0,4.498-0.271,6.83-0.813
		c0.541-0.108,0.894,0.081,1.057,0.569c0.107,0.542-0.163,0.894-0.813,1.057c-1.951,0.378-4.309,0.568-7.073,0.568
		c-3.36,0-5.609-0.461-6.747-1.382c-1.085-0.921-1.626-2.004-1.626-3.252c0-1.246,0.541-2.654,1.626-4.227
		C99.686,9.252,100.038,9.198,100.472,9.414z M110.959,2.911c0.488,0.109,0.703,0.407,0.65,0.894
		c-0.109,0.435-0.406,0.624-0.895,0.569c-1.084-0.216-2.412-0.325-3.982-0.325c-2.656,0-5.15,0.217-7.479,0.65
		c-0.435,0.055-0.705-0.135-0.813-0.569c0-0.378,0.189-0.622,0.569-0.731c2.71-0.541,5.312-0.813,7.804-0.813
		C108.492,2.585,109.875,2.695,110.959,2.911z M111.284,0.959c0.271-0.108,0.515-0.053,0.731,0.163
		c0.596,0.705,1.139,1.491,1.626,2.358c0.163,0.379,0.081,0.65-0.243,0.813c-0.326,0.109-0.569,0.028-0.732-0.244
		c-0.379-0.704-0.895-1.49-1.545-2.357C110.959,1.421,111.013,1.177,111.284,0.959z M113.235,0.228
		c0.271-0.108,0.515-0.053,0.731,0.163c0.596,0.705,1.139,1.491,1.626,2.357c0.108,0.38,0.026,0.65-0.243,0.813
		c-0.326,0.109-0.57,0.028-0.732-0.244c-0.379-0.704-0.895-1.49-1.545-2.358C112.91,0.634,112.963,0.391,113.235,0.228z"/>
	<path fill="#FFFFFF" d="M124.373,1.61c0.433-0.053,0.784-0.053,1.057,0c0.487,0.163,0.813,0.461,0.975,0.895
		c0.108,0.217,0.163,0.542,0.163,0.976c-0.055,0.759-0.298,2.005-0.731,3.739l-0.406,1.3c1.842,0.272,3.793,0.842,5.853,1.708
		c0.163-2.005,0.244-3.604,0.244-4.797c0-0.541,0.243-0.813,0.731-0.813s0.732,0.272,0.732,0.813c0,1.573-0.109,3.361-0.326,5.365
		c1.409,0.65,2.33,1.139,2.764,1.464c0.326,0.325,0.407,0.705,0.244,1.138c-0.324,0.38-0.76,0.406-1.301,0.081
		c-0.597-0.378-1.219-0.758-1.869-1.138c-0.271,2.276-0.922,3.902-1.951,4.878c-0.976,0.921-2.494,1.707-4.553,2.357
		c-0.379,0.054-0.623-0.081-0.731-0.406c-0.109-0.325,0.026-0.569,0.406-0.732c1.733-0.542,3.034-1.246,3.902-2.113
		c0.866-0.921,1.382-2.438,1.544-4.553c-1.842-0.976-3.848-1.679-6.016-2.113c-0.542,1.626-1.084,3.008-1.625,4.146
		c-0.65,1.355-1.329,2.413-2.033,3.171c-0.597,0.542-1.247,0.813-1.951,0.813c-0.813,0-1.436-0.297-1.869-0.894
		c-0.435-0.596-0.65-1.354-0.65-2.276c0-1.301,0.514-2.573,1.545-3.821c1.246-1.354,3.115-2.14,5.609-2.357
		c0.65-2.438,0.975-4.01,0.975-4.715c0-0.378-0.08-0.623-0.243-0.731c-0.163-0.108-0.462-0.108-0.895,0
		c-0.813,0.163-2.386,0.353-4.715,0.569c-0.435,0-0.705-0.216-0.813-0.65c0-0.488,0.244-0.758,0.732-0.813l1.544-0.081l1.788-0.163
		L124.373,1.61z M119.657,11.284c-0.976,1.138-1.464,2.249-1.464,3.333c0.055,1.301,0.461,1.951,1.221,1.951
		c0.703,0.055,1.435-0.541,2.194-1.789c0.433-0.813,0.813-1.571,1.138-2.275c0.379-0.921,0.704-1.896,0.977-2.927
		C121.934,9.739,120.578,10.309,119.657,11.284z"/>
</g>
</svg>
