<?xml version="1.0" encoding="utf-8"?>
<!-- Generator: Adobe Illustrator 15.1.0, SVG Export Plug-In . SVG Version: 6.00 Build 0)  -->
<!DOCTYPE svg PUBLIC "-//W3C//DTD SVG 1.1//EN" "http://www.w3.org/Graphics/SVG/1.1/DTD/svg11.dtd">
<svg version="1.1" id="レイヤー_1" xmlns="http://www.w3.org/2000/svg" xmlns:xlink="http://www.w3.org/1999/xlink" x="0px"
	 y="0px" width="200px" height="27px" viewBox="0 0 200 27" enable-background="new 0 0 200 27" xml:space="preserve">
<g>
	<path fill="#FFFFFF" d="M35.403,2.925c0.695,0,1.043,0.25,1.043,0.745c0,0.497-0.348,0.744-1.043,0.744H25.096
		c-0.697,1.347-1.435,2.588-2.218,3.722v16.799c0,0.708-0.392,1.063-1.174,1.063s-1.174-0.355-1.174-1.063V10.687
		c-3.829,3.615-7.786,6.097-11.873,7.443c-0.958,0.284-1.566,0.106-1.827-0.531c-0.088-0.426,0.173-0.744,0.783-0.957
		c6.784-2.693,11.742-6.769,14.873-12.228H7.744c-0.697,0-1.043-0.248-1.043-0.744c0-0.495,0.346-0.745,1.043-0.745H35.403z
		 M24.705,9.624c0.522-0.495,1.174-0.495,1.957,0c3.131,1.985,6.305,4.29,9.524,6.912c0.607,0.568,0.652,1.1,0.13,1.595
		c-0.609,0.497-1.35,0.426-2.218-0.213c-3.307-2.765-6.307-5.067-9.002-6.911C24.487,10.581,24.356,10.121,24.705,9.624z"/>
	<path fill="#FFFFFF" d="M51.842,6.328c0.346,0,0.564,0.143,0.652,0.425c0.434,1.488,0.695,3.12,0.783,4.891
		c0,0.993-0.045,1.808-0.13,2.446c-0.088,0.567-0.437,0.851-1.044,0.851c-0.522-0.07-0.783-0.389-0.783-0.958
		c0.085-0.779,0.13-1.558,0.13-2.339c-0.087-1.771-0.175-3.366-0.261-4.785C51.19,6.577,51.406,6.399,51.842,6.328z M56.017,1.968
		c0.607,0,0.913,0.284,0.913,0.851v6.167c0.869-0.708,1.566-1.523,2.087-2.446c0.261-0.638,0.695-0.92,1.305-0.851
		c0.608,0.143,0.826,0.532,0.652,1.169c-0.697,1.489-2.044,2.658-4.044,3.509c0,1.56-0.13,3.758-0.391,6.592
		c1.39,1.207,2.87,2.765,4.436,4.679c0.173-0.282,0.304-0.673,0.392-1.17c0-0.495,0.216-0.744,0.652-0.744
		c0.522,0,0.783,0.284,0.783,0.851c0,1.845-0.871,3.544-2.609,5.104c-0.697,0.425-1.262,0.425-1.696,0
		c-0.349-0.355-0.261-0.781,0.261-1.276c0.434-0.355,0.783-0.709,1.044-1.063c-1.131-1.842-2.306-3.402-3.523-4.679
		c-0.609,2.34-1.48,4.29-2.609,5.849c-0.436,0.708-1,0.92-1.696,0.638c-0.437-0.355-0.392-0.887,0.13-1.595
		c0.783-1.133,1.478-2.658,2.087-4.572c0.607-2.268,0.914-4.572,0.914-6.911V2.818C55.104,2.252,55.408,1.968,56.017,1.968z
		 M63.323,1.542c0.607,0,0.913,0.25,0.913,0.745c0,0.212,0,0.497,0,0.851h3.392c0.522,0,0.999,0.178,1.436,0.532
		c0.434,0.355,0.652,0.744,0.652,1.169L69.455,6.54h3.784V2.606c0-0.566,0.304-0.851,0.913-0.851c0.607,0,0.914,0.284,0.914,0.851
		V6.54h5.088c0.607,0,0.914,0.213,0.914,0.638s-0.306,0.638-0.914,0.638h-4.958c0.695,3.474,2.521,6.486,5.479,9.039
		c0.956,0.78,1.086,1.418,0.392,1.913c-0.61,0.426-1.305,0.284-2.088-0.425c-1.914-1.983-3.437-4.429-4.566-7.337
		c-1.219,3.189-3.131,5.849-5.741,7.975c-0.609,0.568-1.174,0.638-1.696,0.213c-0.436-0.354-0.348-0.779,0.261-1.276
		c3.565-3.189,5.522-6.556,5.871-10.101h-3.914c-0.437,2.126-1.262,4.112-2.479,5.955c-1.219,1.844-2.828,3.509-4.827,4.997
		c-0.522,0.284-0.958,0.284-1.305,0c-0.261-0.282-0.175-0.601,0.261-0.957c1.566-1.275,2.913-2.658,4.044-4.146l-2.87-2.233
		c-0.349,0.709-0.697,1.313-1.044,1.808c-0.348,0.568-0.783,0.744-1.305,0.532c-0.436-0.213-0.436-0.638,0-1.276
		c1.913-3.685,2.826-7.018,2.74-9.995C62.41,1.862,62.714,1.542,63.323,1.542z M62.541,10.262l3.131,2.126
		c0.347-0.638,0.695-1.417,1.044-2.339l-3.392-1.914L62.541,10.262z M63.715,6.646l3.522,1.914c0.347-1.276,0.564-2.409,0.652-3.403
		c0-0.495-0.218-0.744-0.652-0.744h-3.131L63.715,6.646z M66.455,19.938c0.521-0.069,0.868,0.213,1.043,0.851
		c0.261,1.276,0.304,2.589,0.13,3.935c-0.087,0.707-0.479,1.026-1.174,0.957c-0.61,0-0.871-0.355-0.783-1.063
		c0.173-1.205,0.216-2.48,0.131-3.828C65.802,20.293,66.018,20.009,66.455,19.938z M70.76,19.831
		c0.434-0.141,0.826,0.037,1.174,0.532c0.783,1.418,1.348,2.658,1.696,3.721c0.261,0.921-0.044,1.418-0.913,1.489
		c-0.697,0-1.088-0.284-1.174-0.851c-0.175-1.135-0.521-2.409-1.043-3.828C70.238,20.328,70.324,19.974,70.76,19.831z M76.109,20.15
		c0.347-0.282,0.826-0.213,1.435,0.213c1.566,1.206,2.609,2.517,3.131,3.934c0.347,0.851,0.173,1.346-0.522,1.488
		c-0.697,0.142-1.219-0.143-1.565-0.851c-0.609-1.417-1.393-2.621-2.349-3.614C75.803,20.753,75.76,20.363,76.109,20.15z
		 M76.631,2.5c0.347-0.212,0.738-0.176,1.174,0.106c0.783,0.638,1.347,1.347,1.696,2.126c0.261,0.638,0.086,1.028-0.522,1.17
		c-0.521,0.071-0.87-0.07-1.043-0.425c-0.349-0.708-0.783-1.417-1.305-2.127C76.37,2.997,76.37,2.712,76.631,2.5z"/>
	<path fill="#FFFFFF" d="M124.903,12.813c0.521,0.355,0.607,0.744,0.261,1.169c-1.479,1.844-2.218,3.296-2.218,4.36
		c0,1.488,0.826,2.623,2.479,3.402c1.739,0.709,4.609,1.063,8.611,1.063c3.565,0,7.219-0.354,10.959-1.063
		c0.868-0.142,1.436,0.106,1.696,0.744c0.173,0.71-0.261,1.17-1.305,1.383c-3.131,0.495-6.915,0.744-11.351,0.744
		c-5.395,0-9.002-0.604-10.829-1.808c-1.74-1.205-2.609-2.622-2.609-4.253c0-1.63,0.869-3.473,2.609-5.529
		C123.642,12.601,124.206,12.531,124.903,12.813z M141.733,4.307c0.783,0.143,1.13,0.532,1.044,1.17
		c-0.176,0.568-0.652,0.815-1.436,0.744c-1.74-0.283-3.871-0.425-6.393-0.425c-4.263,0-8.264,0.284-12.003,0.851
		c-0.697,0.071-1.131-0.176-1.305-0.744c0-0.495,0.304-0.814,0.913-0.957c4.349-0.708,8.523-1.063,12.525-1.063
		C137.774,3.882,139.993,4.025,141.733,4.307z M142.256,1.755c0.434-0.141,0.825-0.07,1.174,0.212
		c0.956,0.922,1.826,1.951,2.609,3.083c0.261,0.497,0.131,0.851-0.392,1.063c-0.521,0.143-0.913,0.037-1.174-0.319
		c-0.609-0.92-1.436-1.949-2.479-3.083C141.733,2.358,141.819,2.04,142.256,1.755z M145.387,0.798
		c0.435-0.141,0.825-0.07,1.174,0.213c0.956,0.922,1.827,1.95,2.609,3.083c0.174,0.497,0.043,0.851-0.392,1.063
		c-0.521,0.143-0.913,0.037-1.174-0.319c-0.609-0.92-1.435-1.949-2.479-3.083C144.865,1.33,144.95,1.011,145.387,0.798z"/>
	<path fill="#FFFFFF" d="M174.351,2.606c0.695-0.07,1.26-0.07,1.696,0c0.782,0.212,1.305,0.603,1.565,1.169
		c0.173,0.284,0.261,0.709,0.261,1.276c-0.088,0.994-0.479,2.624-1.174,4.891l-0.652,1.702c2.955,0.355,6.087,1.1,9.394,2.233
		c0.261-2.622,0.391-4.713,0.391-6.273c0-0.708,0.392-1.063,1.175-1.063c0.782,0,1.174,0.355,1.174,1.063
		c0,2.057-0.175,4.396-0.521,7.018c2.261,0.851,3.738,1.488,4.436,1.914c0.522,0.425,0.652,0.922,0.392,1.488
		c-0.521,0.497-1.219,0.532-2.088,0.106c-0.958-0.495-1.957-0.992-3-1.488c-0.437,2.977-1.48,5.104-3.132,6.38
		c-1.565,1.204-4.001,2.232-7.306,3.083c-0.609,0.07-1.001-0.106-1.175-0.531c-0.175-0.426,0.043-0.744,0.652-0.957
		c2.783-0.71,4.87-1.63,6.263-2.765c1.391-1.205,2.218-3.19,2.479-5.954c-2.957-1.276-6.177-2.197-9.654-2.765
		c-0.87,2.126-1.741,3.934-2.609,5.423c-1.044,1.772-2.132,3.154-3.262,4.146c-0.958,0.709-2.002,1.063-3.131,1.063
		c-1.305,0-2.306-0.389-3.001-1.17c-0.697-0.779-1.044-1.771-1.044-2.978c0-1.701,0.826-3.365,2.479-4.997
		c2-1.771,5-2.799,9.002-3.083c1.044-3.19,1.565-5.245,1.565-6.167c0-0.495-0.13-0.814-0.392-0.957
		c-0.261-0.141-0.739-0.141-1.435,0c-1.305,0.212-3.828,0.462-7.567,0.744c-0.697,0-1.131-0.282-1.305-0.851
		c0-0.638,0.392-0.992,1.175-1.063l2.479-0.106l2.87-0.213L174.351,2.606z M166.783,15.259c-1.565,1.489-2.349,2.942-2.349,4.359
		c0.086,1.702,0.738,2.553,1.957,2.553c1.13,0.071,2.304-0.708,3.522-2.34c0.695-1.063,1.305-2.055,1.827-2.977
		c0.607-1.205,1.129-2.48,1.565-3.828C170.437,13.239,168.262,13.983,166.783,15.259z"/>
</g>
</svg>
