<?xml version="1.0" encoding="utf-8"?>
<!-- Generator: Adobe Illustrator 15.1.0, SVG Export Plug-In . SVG Version: 6.00 Build 0)  -->
<!DOCTYPE svg PUBLIC "-//W3C//DTD SVG 1.1//EN" "http://www.w3.org/Graphics/SVG/1.1/DTD/svg11.dtd">
<svg version="1.1" id="レイヤー_1" xmlns="http://www.w3.org/2000/svg" xmlns:xlink="http://www.w3.org/1999/xlink" x="0px"
	 y="0px" width="200px" height="27px" viewBox="0 0 200 27" enable-background="new 0 0 200 27" xml:space="preserve">
<g>
	<path d="M35.617,2.325c0.646,0,0.97,0.25,0.97,0.747c0,0.499-0.324,0.747-0.97,0.747h-9.577c-0.648,1.352-1.333,2.598-2.061,3.735
		v16.86c0,0.71-0.364,1.066-1.091,1.066c-0.728,0-1.091-0.356-1.091-1.066V10.115c-3.557,3.628-7.234,6.119-11.032,7.469
		c-0.89,0.285-1.455,0.106-1.697-0.533c-0.082-0.427,0.161-0.747,0.728-0.961c6.304-2.702,10.911-6.792,13.82-12.271H9.917
		c-0.648,0-0.97-0.249-0.97-0.747c0-0.497,0.322-0.747,0.97-0.747H35.617z M25.677,9.047c0.485-0.497,1.091-0.497,1.818,0
		c2.91,1.993,5.859,4.305,8.85,6.936c0.564,0.57,0.606,1.104,0.121,1.601c-0.566,0.499-1.254,0.427-2.061-0.213
		c-3.073-2.774-5.861-5.086-8.365-6.937C25.474,10.008,25.353,9.546,25.677,9.047z"/>
	<path d="M61.196,5.739c0.322,0,0.525,0.144,0.606,0.427c0.403,1.494,0.646,3.131,0.727,4.908c0,0.997-0.042,1.814-0.121,2.455
		c-0.082,0.57-0.405,0.854-0.97,0.854c-0.485-0.07-0.728-0.39-0.728-0.96c0.08-0.782,0.121-1.564,0.121-2.348
		c-0.081-1.777-0.163-3.378-0.242-4.802C60.59,5.99,60.791,5.811,61.196,5.739z M65.075,1.364c0.564,0,0.849,0.285,0.849,0.854
		v6.189c0.807-0.71,1.455-1.529,1.939-2.455c0.243-0.64,0.646-0.923,1.212-0.854c0.564,0.144,0.767,0.534,0.606,1.174
		c-0.648,1.494-1.9,2.668-3.758,3.521c0,1.565-0.121,3.771-0.364,6.616c1.292,1.211,2.667,2.774,4.122,4.695
		c0.161-0.283,0.282-0.675,0.363-1.174c0-0.497,0.201-0.747,0.606-0.747c0.485,0,0.727,0.285,0.727,0.854
		c0,1.852-0.809,3.557-2.424,5.122c-0.648,0.427-1.172,0.427-1.576,0c-0.324-0.356-0.242-0.783,0.243-1.28
		c0.403-0.356,0.727-0.712,0.97-1.067c-1.051-1.849-2.142-3.414-3.273-4.694c-0.566,2.348-1.375,4.305-2.425,5.868
		c-0.405,0.711-0.93,0.924-1.576,0.641c-0.406-0.356-0.364-0.891,0.121-1.601c0.727-1.137,1.373-2.668,1.939-4.589
		c0.564-2.275,0.849-4.588,0.849-6.936V2.218C64.227,1.649,64.509,1.364,65.075,1.364z M71.864,0.938
		c0.564,0,0.849,0.25,0.849,0.747c0,0.213,0,0.499,0,0.854h3.152c0.485,0,0.928,0.179,1.333,0.534
		c0.403,0.357,0.606,0.747,0.606,1.174l-0.243,1.707h3.516V2.004c0-0.568,0.282-0.854,0.849-0.854c0.564,0,0.849,0.285,0.849,0.854
		v3.948h4.728c0.564,0,0.849,0.214,0.849,0.641s-0.284,0.64-0.849,0.64h-4.606c0.646,3.486,2.343,6.509,5.091,9.07
		c0.888,0.783,1.01,1.424,0.364,1.921c-0.566,0.427-1.212,0.285-1.939-0.427c-1.779-1.991-3.194-4.445-4.243-7.363
		c-1.133,3.201-2.91,5.869-5.334,8.003c-0.566,0.57-1.091,0.641-1.576,0.214c-0.405-0.355-0.324-0.782,0.243-1.28
		c3.313-3.201,5.131-6.58,5.455-10.138h-3.637c-0.405,2.134-1.172,4.126-2.303,5.976c-1.133,1.851-2.627,3.521-4.486,5.016
		c-0.485,0.285-0.89,0.285-1.212,0c-0.243-0.283-0.163-0.604,0.242-0.961c1.455-1.28,2.707-2.667,3.758-4.161l-2.667-2.241
		c-0.324,0.712-0.648,1.317-0.97,1.814c-0.324,0.57-0.728,0.747-1.212,0.533c-0.405-0.213-0.405-0.64,0-1.28
		c1.777-3.698,2.625-7.043,2.546-10.031C71.016,1.258,71.298,0.938,71.864,0.938z M71.137,9.688l2.909,2.134
		c0.322-0.64,0.646-1.422,0.97-2.348l-3.152-1.92L71.137,9.688z M72.228,6.06l3.273,1.921c0.322-1.281,0.524-2.418,0.606-3.415
		c0-0.497-0.203-0.747-0.606-0.747h-2.91L72.228,6.06z M74.773,19.398c0.485-0.07,0.807,0.213,0.97,0.854
		c0.243,1.28,0.282,2.598,0.122,3.948c-0.082,0.71-0.445,1.03-1.091,0.96c-0.566,0-0.809-0.356-0.728-1.066
		c0.161-1.209,0.201-2.489,0.122-3.842C74.167,19.755,74.368,19.47,74.773,19.398z M78.774,19.292
		c0.403-0.143,0.767,0.036,1.091,0.533c0.727,1.424,1.252,2.668,1.576,3.734c0.243,0.924-0.042,1.423-0.849,1.494
		c-0.647,0-1.011-0.285-1.091-0.854c-0.163-1.139-0.485-2.418-0.97-3.842C78.289,19.79,78.369,19.435,78.774,19.292z M83.744,19.611
		c0.322-0.283,0.768-0.213,1.333,0.214c1.455,1.21,2.425,2.526,2.91,3.948c0.322,0.854,0.161,1.351-0.485,1.494
		c-0.648,0.142-1.133-0.144-1.455-0.854c-0.566-1.423-1.294-2.632-2.182-3.629C83.46,20.217,83.42,19.825,83.744,19.611z
		 M84.229,1.898c0.322-0.213,0.686-0.177,1.091,0.106c0.728,0.641,1.252,1.353,1.576,2.134c0.242,0.64,0.08,1.032-0.485,1.174
		c-0.485,0.072-0.809-0.07-0.97-0.427c-0.324-0.71-0.727-1.422-1.212-2.134C83.987,2.396,83.987,2.111,84.229,1.898z"/>
	<path d="M118.657,12.249c0.485,0.357,0.564,0.747,0.242,1.174c-1.375,1.851-2.061,3.308-2.061,4.375
		c0,1.494,0.768,2.633,2.304,3.414c1.615,0.712,4.282,1.067,8.001,1.067c3.313,0,6.707-0.355,10.183-1.067
		c0.808-0.142,1.334,0.107,1.576,0.747c0.161,0.712-0.242,1.174-1.212,1.388c-2.909,0.497-6.425,0.747-10.547,0.747
		c-5.012,0-8.365-0.605-10.063-1.814c-1.617-1.209-2.424-2.631-2.424-4.269c0-1.636,0.807-3.484,2.424-5.549
		C117.485,12.035,118.01,11.965,118.657,12.249z M134.296,3.712c0.728,0.144,1.05,0.534,0.97,1.174
		c-0.163,0.57-0.606,0.819-1.333,0.747c-1.618-0.284-3.598-0.427-5.94-0.427c-3.961,0-7.68,0.285-11.153,0.854
		c-0.647,0.072-1.051-0.177-1.212-0.747c0-0.497,0.282-0.817,0.849-0.96c4.04-0.71,7.919-1.067,11.638-1.067
		C130.617,3.285,132.679,3.429,134.296,3.712z M134.781,1.151c0.403-0.142,0.767-0.07,1.091,0.213
		c0.888,0.925,1.697,1.958,2.425,3.095c0.242,0.499,0.121,0.854-0.364,1.067c-0.484,0.144-0.849,0.037-1.091-0.32
		c-0.566-0.924-1.334-1.956-2.304-3.095C134.296,1.756,134.375,1.436,134.781,1.151z M137.69,0.19
		c0.403-0.142,0.767-0.07,1.091,0.213c0.889,0.925,1.697,1.958,2.425,3.095c0.161,0.499,0.04,0.854-0.364,1.067
		c-0.484,0.144-0.849,0.037-1.091-0.32c-0.566-0.924-1.333-1.956-2.303-3.095C137.205,0.724,137.285,0.404,137.69,0.19z"/>
	<path d="M174.907,2.004c0.646-0.07,1.171-0.07,1.576,0c0.728,0.214,1.213,0.605,1.455,1.174c0.161,0.285,0.242,0.712,0.242,1.281
		c-0.081,0.997-0.445,2.633-1.091,4.909l-0.606,1.707c2.747,0.357,5.656,1.104,8.729,2.241c0.242-2.631,0.364-4.73,0.364-6.296
		c0-0.71,0.363-1.067,1.091-1.067s1.091,0.357,1.091,1.067c0,2.064-0.163,4.412-0.485,7.042c2.102,0.854,3.475,1.494,4.122,1.921
		c0.485,0.427,0.606,0.926,0.364,1.494c-0.485,0.498-1.133,0.533-1.94,0.106c-0.89-0.497-1.818-0.995-2.788-1.494
		c-0.405,2.988-1.375,5.122-2.909,6.403c-1.455,1.208-3.719,2.24-6.789,3.094c-0.566,0.07-0.93-0.106-1.091-0.533
		c-0.163-0.427,0.04-0.747,0.606-0.96c2.585-0.712,4.524-1.636,5.818-2.774c1.292-1.209,2.062-3.201,2.304-5.976
		c-2.749-1.281-5.739-2.205-8.971-2.775c-0.81,2.134-1.618,3.949-2.425,5.442c-0.97,1.779-1.981,3.167-3.031,4.162
		c-0.89,0.712-1.859,1.067-2.909,1.067c-1.212,0-2.143-0.391-2.788-1.174c-0.647-0.782-0.97-1.777-0.97-2.988
		c0-1.707,0.767-3.378,2.304-5.016c1.857-1.777,4.646-2.809,8.364-3.094c0.97-3.201,1.455-5.264,1.455-6.189
		c0-0.497-0.121-0.817-0.364-0.96c-0.242-0.142-0.688-0.142-1.333,0c-1.213,0.213-3.558,0.463-7.031,0.747
		c-0.648,0-1.052-0.283-1.213-0.854c0-0.64,0.364-0.995,1.092-1.067l2.303-0.107l2.667-0.213L174.907,2.004z M167.876,14.703
		c-1.454,1.494-2.182,2.953-2.182,4.375c0.079,1.707,0.686,2.561,1.818,2.561c1.05,0.072,2.141-0.71,3.273-2.347
		c0.646-1.067,1.212-2.063,1.697-2.988c0.564-1.209,1.049-2.489,1.454-3.842C171.271,12.676,169.25,13.422,167.876,14.703z"/>
</g>
<g>
</g>
</svg>
