<?xml version="1.0" encoding="utf-8"?>
<!-- Generator: Adobe Illustrator 15.1.0, SVG Export Plug-In . SVG Version: 6.00 Build 0)  -->
<!DOCTYPE svg PUBLIC "-//W3C//DTD SVG 1.1//EN" "http://www.w3.org/Graphics/SVG/1.1/DTD/svg11.dtd">
<svg version="1.1" id="レイヤー_1" xmlns="http://www.w3.org/2000/svg" xmlns:xlink="http://www.w3.org/1999/xlink" x="0px"
	 y="0px" width="200px" height="27px" viewBox="0 0 200 27" enable-background="new 0 0 200 27" xml:space="preserve">
<g>
	<path fill="#FFFFFF" d="M12.105,7.497c0.282,0.425,0.248,0.816-0.106,1.169c-1.56,1.276-3.014,2.127-4.359,2.552
		c-0.568,0.143-0.957,0-1.17-0.425c-0.143-0.495,0.035-0.886,0.532-1.17c1.133-0.425,2.446-1.133,3.934-2.126
		C11.431,7.214,11.821,7.214,12.105,7.497z M14.657,23.021c0.141,0.566-0.037,0.991-0.532,1.275
		c-2.482,0.992-4.644,1.595-6.486,1.808c-0.638,0.07-0.994-0.143-1.063-0.638c0-0.426,0.283-0.675,0.851-0.744
		c2.552-0.568,4.501-1.239,5.848-2.021C13.913,22.42,14.373,22.526,14.657,23.021z M7.321,2.605c0.212-0.354,0.566-0.46,1.063-0.319
		c1.133,0.355,2.233,0.887,3.296,1.595c0.638,0.425,0.779,0.922,0.425,1.489c-0.355,0.355-0.781,0.39-1.276,0.106
		c-0.851-0.638-1.844-1.24-2.978-1.808C7.355,3.386,7.178,3.031,7.321,2.605z M26.566,12.388c0.425,0,0.814,0.178,1.17,0.531
		c0.354,0.355,0.532,0.744,0.532,1.17v6.379c0,0.426-0.178,0.816-0.532,1.17c-0.355,0.355-0.745,0.532-1.17,0.532H10.298
		c-0.425,0-0.816-0.177-1.17-0.532c-0.355-0.354-0.531-0.744-0.531-1.17V14.09c0-0.426,0.176-0.815,0.531-1.17
		c0.354-0.354,0.745-0.531,1.17-0.531H26.566z M10.085,14.515v0.638h16.694v-0.638c0-0.567-0.284-0.851-0.851-0.851H10.936
		C10.368,13.664,10.085,13.948,10.085,14.515z M10.085,17.917h16.694v-1.488H10.085V17.917z M10.085,20.044
		c0,0.568,0.283,0.851,0.851,0.851h14.993c0.566,0,0.851-0.282,0.851-0.851v-0.851H10.085V20.044z M16.89,1.436
		c0.425,0.143,0.566,0.497,0.425,1.063L16.89,3.35h11.803c0.495,0,0.851,0.143,1.063,0.425c0.213,0.355,0.248,0.781,0.106,1.276
		c-0.781,1.419-1.879,2.552-3.296,3.403c-0.638,0.284-1.063,0.249-1.276-0.106c-0.212-0.354-0.106-0.673,0.319-0.957
		c1.346-0.92,2.233-1.842,2.658-2.765h-7.443v1.808c0.992,1.135,2.162,2.021,3.509,2.658c1.702,0.709,3.544,1.17,5.529,1.382
		c0.638,0.072,0.957,0.355,0.957,0.851c-0.071,0.497-0.425,0.745-1.063,0.745c-1.206,0-2.836-0.389-4.891-1.17
		c-1.772-0.708-3.261-1.701-4.466-2.977c-1.135,1.985-3.793,3.155-7.975,3.509c-0.568,0-0.851-0.176-0.851-0.532
		c0-0.354,0.213-0.566,0.638-0.638c4.748-0.495,7.124-1.984,7.124-4.466v-1.17h-3.083c-0.851,1.135-1.632,1.951-2.339,2.446
		c-0.425,0.284-0.781,0.284-1.063,0c-0.212-0.282-0.178-0.602,0.106-0.957c1.276-1.205,2.233-2.587,2.871-4.147
		C16.04,1.472,16.394,1.294,16.89,1.436z M21.569,23.021c0.069-0.426,0.354-0.602,0.851-0.532c2.622,0.355,4.926,0.922,6.911,1.701
		c0.566,0.282,0.779,0.673,0.638,1.17c-0.213,0.495-0.638,0.638-1.276,0.425c-2.198-0.922-4.36-1.631-6.486-2.126
		C21.781,23.588,21.569,23.377,21.569,23.021z"/>
	<path fill="#FFFFFF" d="M34.115,8.985c0.283-0.142,0.567-0.142,0.851,0c1.558,1.276,2.552,2.375,2.977,3.296
		c0.282,0.496,0.212,0.887-0.213,1.169c-0.425,0.284-0.815,0.25-1.169-0.106c-0.994-1.346-1.879-2.445-2.658-3.296
		C33.69,9.623,33.76,9.269,34.115,8.985z M37.305,16.535c0.495,0.071,0.708,0.425,0.638,1.063c-0.425,2.41-1.241,4.644-2.446,6.698
		c-0.355,0.566-0.781,0.744-1.276,0.532c-0.355-0.284-0.462-0.639-0.319-1.063c0.92-1.559,1.771-3.757,2.552-6.593
		C36.596,16.678,36.88,16.465,37.305,16.535z M34.435,2.605c0.282-0.282,0.601-0.319,0.957-0.106
		c1.204,0.851,2.196,1.951,2.977,3.296c0.354,0.497,0.319,0.922-0.106,1.276c-0.425,0.284-0.851,0.212-1.276-0.213
		c-0.922-1.204-1.808-2.302-2.658-3.296C34.115,3.137,34.15,2.818,34.435,2.605z M57.189,2.499c0.566,0,0.851,0.25,0.851,0.745
		c0,0.497-0.284,0.744-0.851,0.744h-6.167c-0.143,1.135-0.497,2.163-1.063,3.083h5.316c0.92,0,1.382,0.462,1.382,1.382v7.337
		c0,0.922-0.462,1.382-1.382,1.382h-3.934v7.018c0,1.134-0.816,1.701-2.446,1.701c-0.922,0-1.844-0.178-2.764-0.531
		c-0.356-0.213-0.497-0.497-0.426-0.851c0.142-0.355,0.426-0.497,0.851-0.426c0.851,0.283,1.488,0.426,1.914,0.426
		c0.92,0,1.382-0.391,1.382-1.17v-6.167h-4.466c-0.922,0-1.382-0.46-1.382-1.382V8.454c0-0.92,0.46-1.382,1.382-1.382h3.083
		c0.495-1.133,0.779-2.162,0.851-3.083h-6.911c-0.355,0-0.532,0.178-0.532,0.532v9.676c0,3.972-0.922,7.337-2.765,10.102
		c-0.284,0.354-0.603,0.46-0.957,0.319c-0.355-0.213-0.425-0.532-0.212-0.957c1.63-2.906,2.445-6.061,2.445-9.464V4.2
		c0-0.425,0.176-0.814,0.532-1.169c0.354-0.354,0.745-0.532,1.17-0.532H57.189z M46.131,18.874c0.495,0.213,0.638,0.568,0.425,1.063
		c-0.922,2.339-2.163,3.897-3.722,4.679c-0.568,0.282-0.957,0.247-1.169-0.106c-0.213-0.355-0.143-0.675,0.212-0.957
		c1.133-0.92,2.162-2.339,3.083-4.253C45.244,18.805,45.634,18.661,46.131,18.874z M45.493,9.091v2.233h9.676V9.091
		c0-0.354-0.178-0.531-0.532-0.531h-8.612C45.669,8.56,45.493,8.738,45.493,9.091z M45.493,15.152c0,0.355,0.176,0.532,0.532,0.532
		h8.612c0.354,0,0.532-0.177,0.532-0.532v-2.339h-9.676V15.152z M53.786,18.98c0.354-0.354,0.708-0.354,1.063,0
		c1.063,1.135,2.02,2.518,2.871,4.146c0.282,0.567,0.212,0.992-0.213,1.276c-0.568,0.354-1.028,0.213-1.382-0.425
		c-0.781-1.489-1.595-2.871-2.445-4.147C53.537,19.478,53.574,19.193,53.786,18.98z"/>
	<path fill="#FFFFFF" d="M65.057,2.393c0-0.566,0.248-0.851,0.745-0.851c0.495,0,0.744,0.284,0.744,0.851V6.54h2.232
		c0.567,0,0.851,0.25,0.851,0.744c0,0.497-0.283,0.745-0.851,0.745h-2.232v8.188c0.708-0.282,1.523-0.638,2.445-1.063
		c0.495-0.282,0.886-0.282,1.17,0c0.354,0.497,0.141,0.957-0.638,1.383c-0.851,0.497-1.845,0.957-2.978,1.382v7.23
		c0,0.566-0.249,0.851-0.744,0.851c-0.497,0-0.745-0.284-0.745-0.851v-6.698c-0.851,0.355-1.772,0.674-2.765,0.957
		c-0.922,0.284-1.454,0.106-1.595-0.532c-0.143-0.638,0.248-1.026,1.169-1.169c0.992-0.213,2.055-0.532,3.19-0.957v-8.72h-2.02
		c-0.213,1.56-0.497,2.907-0.851,4.041c-0.213,0.638-0.568,0.922-1.063,0.851c-0.425-0.07-0.532-0.531-0.319-1.383
		c0.425-1.914,0.708-4.146,0.851-6.698c0-0.851,0.282-1.276,0.851-1.276c0.638,0,0.92,0.462,0.851,1.382L63.143,6.54h1.914V2.393z
		 M73.032,1.648c0.566,0.071,0.813,0.497,0.744,1.276c-0.144,0.922-0.355,1.879-0.638,2.871h9.782c0.425,0,0.813,0.178,1.169,0.532
		c0.354,0.355,0.532,0.744,0.532,1.169v12.972c0,3.403-1.241,5.104-3.722,5.104c-1.276,0-2.376-0.106-3.296-0.319
		c-0.568-0.143-0.852-0.391-0.852-0.744c0-0.638,0.426-0.888,1.276-0.744c0.921,0.213,1.736,0.318,2.445,0.318
		c1.771,0,2.658-1.275,2.658-3.827V8.135c0-0.567-0.284-0.851-0.851-0.851h-1.595c-0.497,6.451-2.27,11.91-5.316,16.375
		c-0.426,0.638-0.851,0.813-1.276,0.531c-0.355-0.284-0.318-0.707,0.106-1.275c2.978-5.032,4.607-10.244,4.892-15.631h-2.871
		c-0.568,5.46-2.376,10.421-5.423,14.887c-0.425,0.567-0.851,0.709-1.275,0.425c-0.356-0.282-0.356-0.673,0-1.17
		c2.834-4.606,4.535-9.321,5.104-14.142h-1.914c-0.497,1.489-1.241,2.871-2.233,4.147c-0.355,0.425-0.709,0.568-1.063,0.425
		c-0.426-0.213-0.426-0.638,0-1.276c1.275-2.055,2.126-4.678,2.552-7.868C72.109,1.933,72.464,1.579,73.032,1.648z"/>
	<path fill="#FFFFFF" d="M125.559,1.542c0.141,0.355,0.034,0.638-0.319,0.851c-1.206,0.568-2.482,1.525-3.828,2.871
		c-2.339,2.339-3.509,5.175-3.509,8.506c0,3.333,1.17,6.167,3.509,8.506c1.346,1.346,2.622,2.303,3.828,2.871
		c0.354,0.213,0.46,0.495,0.319,0.851c-0.213,0.282-0.532,0.319-0.957,0.106c-1.632-0.709-3.19-1.808-4.679-3.296
		c-2.411-2.409-3.615-5.423-3.615-9.039c0-3.615,1.204-6.627,3.615-9.038c1.488-1.488,3.047-2.587,4.679-3.296
		C125.026,1.223,125.346,1.26,125.559,1.542z"/>
	<path fill="#FFFFFF" d="M134.49,1.648c0.495,0.284,0.602,0.709,0.319,1.276c-0.781,1.419-1.808,2.978-3.084,4.679l2.233,2.02
		c1.133-1.417,2.126-2.871,2.977-4.359c0.282-0.495,0.673-0.673,1.17-0.532c0.495,0.284,0.566,0.745,0.213,1.382
		c-1.489,2.411-3.402,4.856-5.742,7.336c2.056-0.069,3.722-0.212,4.998-0.425c-0.144-0.495-0.391-1.133-0.745-1.914
		c-0.143-0.425-0.036-0.744,0.319-0.957c0.426-0.141,0.779,0.037,1.063,0.532c0.92,1.702,1.488,3.12,1.701,4.254
		c0.069,0.638-0.143,0.993-0.638,1.063c-0.497,0.072-0.816-0.141-0.957-0.638l-0.319-1.063l-3.402,0.426v10.42
		c0,0.566-0.249,0.851-0.744,0.851c-0.497,0-0.744-0.284-0.744-0.851v-10.42l-3.722,0.213c-0.497,0.071-0.744-0.177-0.744-0.745
		c0-0.495,0.247-0.745,0.744-0.745h1.488l2.021-2.445c-0.851-1.063-2.092-2.162-3.722-3.296c-0.426-0.283-0.568-0.638-0.426-1.063
		c0.283-0.425,0.708-0.495,1.276-0.213l0.531,0.319c0.851-1.063,1.736-2.587,2.658-4.572C133.568,1.614,133.993,1.436,134.49,1.648z
		 M130.662,16.748c0.426,0,0.639,0.249,0.639,0.744c0,2.907-0.284,5.104-0.851,6.592c-0.213,0.495-0.532,0.708-0.957,0.639
		c-0.426-0.144-0.568-0.462-0.426-0.957c0.566-1.914,0.851-4.004,0.851-6.273C129.918,16.997,130.166,16.748,130.662,16.748z
		 M136.829,16.642c0.426-0.07,0.745,0.143,0.957,0.638c0.779,2.552,1.134,4.396,1.063,5.529c0,0.638-0.284,0.957-0.851,0.957
		c-0.497-0.071-0.744-0.354-0.744-0.851c-0.071-1.771-0.355-3.579-0.851-5.423C136.333,17.066,136.474,16.784,136.829,16.642z
		 M152.247,2.605c0.07,0.568-0.284,0.922-1.063,1.063l-2.977,0.638l0.212,6.592h3.935c0.566,0,0.851,0.25,0.851,0.744
		c0,0.497-0.284,0.745-0.851,0.745h-3.722c0.142,2.057,0.46,4.147,0.957,6.273c0.282,1.276,0.638,2.482,1.063,3.615
		c0.213,0.781,0.389,0.923,0.531,0.426c0.07-0.426,0.213-1.523,0.426-3.296c0.069-0.495,0.318-0.745,0.744-0.745
		c0.495,0.072,0.708,0.426,0.638,1.063c-0.212,2.27-0.462,3.828-0.744,4.679c-0.284,0.779-0.675,1.17-1.17,1.17
		c-0.567,0-1.1-0.532-1.595-1.595c-1.206-2.693-2.057-6.557-2.552-11.59h-4.253v10.739c1.133-0.425,2.303-0.92,3.509-1.488
		c0.495-0.213,0.851-0.176,1.063,0.106c0.141,0.284,0.069,0.568-0.213,0.851c-1.701,1.133-3.793,2.161-6.273,3.084
		c-0.709,0.141-1.135-0.072-1.276-0.639c-0.071-0.425,0.106-0.744,0.532-0.957l1.17-0.425V5.051c0-0.851,0.389-1.382,1.169-1.595
		c3.402-0.212,6.309-0.708,8.719-1.489C151.716,1.826,152.104,2.039,152.247,2.605z M143.209,4.732
		c-0.355,0-0.531,0.213-0.531,0.638v5.529h4.04l-0.212-6.379L143.209,4.732z"/>
	<path fill="#FFFFFF" d="M161.392,2.818c0-0.566,0.248-0.851,0.745-0.851c0.495,0,0.744,0.284,0.744,0.851v4.36h4.253
		c0.566,0,0.851,0.249,0.851,0.744c0,0.497-0.284,0.744-0.851,0.744h-4.253v0.319c1.914,1.135,3.438,2.126,4.572,2.977
		c0.566,0.497,0.673,0.993,0.318,1.488c-0.425,0.284-0.851,0.213-1.275-0.212c-1.063-1.063-2.27-2.056-3.615-2.978v2.445
		c0,0.568-0.249,0.851-0.744,0.851c-0.497,0-0.745-0.282-0.745-0.851v-2.02c-1.063,1.207-2.375,2.269-3.934,3.19
		c-0.639,0.356-1.1,0.356-1.383,0c-0.284-0.426-0.212-0.779,0.213-1.063c2.339-1.346,4.041-2.728,5.104-4.147h-4.359
		c-0.568,0-0.851-0.248-0.851-0.744c0-0.495,0.282-0.744,0.851-0.744h4.359V2.818z M161.392,15.472c0-0.566,0.248-0.851,0.745-0.851
		c0.495,0,0.744,0.284,0.744,0.851v1.488h4.466c0.566,0,0.851,0.25,0.851,0.745c0,0.496-0.284,0.744-0.851,0.744h-4.466
		l-0.106,0.851c1.559,0.922,2.94,1.95,4.146,3.083c0.638,0.639,0.744,1.205,0.319,1.701c-0.426,0.354-0.922,0.248-1.489-0.318
		c-1.206-1.346-2.339-2.374-3.402-3.084c-0.709,1.772-2.376,3.297-4.997,4.572c-0.638,0.282-1.063,0.213-1.276-0.213
		c-0.212-0.425,0-0.78,0.639-1.063c2.905-1.418,4.394-3.26,4.466-5.529h-4.254c-0.567,0-0.851-0.248-0.851-0.744
		c0-0.495,0.283-0.745,0.851-0.745h4.466V15.472z M157.352,2.818c0.354-0.212,0.708-0.106,1.063,0.319
		c0.495,0.568,0.92,1.276,1.275,2.126c0.213,0.638,0.142,1.028-0.212,1.169c-0.497,0.284-0.888,0.106-1.17-0.531
		c-0.284-0.708-0.638-1.382-1.063-2.021C156.961,3.386,156.996,3.031,157.352,2.818z M165.857,3.35
		c0.283-0.566,0.639-0.779,1.063-0.638c0.495,0.284,0.532,0.851,0.106,1.701c-0.355,0.709-0.781,1.382-1.276,2.02
		c-0.425,0.425-0.78,0.532-1.063,0.319c-0.355-0.213-0.355-0.638,0-1.276C165.113,4.769,165.502,4.059,165.857,3.35z
		 M172.663,22.489c0.354,0.497,0.247,0.994-0.319,1.489c-1.275,0.92-2.658,1.595-4.146,2.02c-0.71,0.142-1.1-0.036-1.17-0.531
		c-0.071-0.355,0.142-0.638,0.638-0.851c1.418-0.497,2.658-1.205,3.722-2.127C171.953,22.136,172.379,22.136,172.663,22.489z
		 M179.574,2.499c0.566,0,0.851,0.25,0.851,0.745c0,0.497-0.284,0.744-0.851,0.744h-3.722c-0.284,1.063-0.675,2.02-1.17,2.871h3.19
		c0.425,0,0.814,0.178,1.17,0.532c0.354,0.355,0.531,0.745,0.531,1.17V19.3c0,0.425-0.178,0.815-0.531,1.169
		c-0.355,0.356-0.745,0.532-1.17,0.532h-6.38c-0.425,0-0.815-0.176-1.17-0.532c-0.355-0.354-0.531-0.744-0.531-1.169V8.56
		c0-0.425,0.176-0.814,0.531-1.17c0.354-0.354,0.745-0.532,1.17-0.532h1.595c0.566-1.133,0.851-2.09,0.851-2.871h-3.934
		c-0.568,0-0.851-0.248-0.851-0.744c0-0.495,0.282-0.745,0.851-0.745H179.574z M171.28,9.198v1.808h6.806V9.198
		c0-0.566-0.284-0.851-0.851-0.851h-5.104C171.563,8.347,171.28,8.631,171.28,9.198z M171.28,15.152h6.806v-2.659h-6.806V15.152z
		 M171.28,18.661c0,0.568,0.283,0.852,0.851,0.852h5.104c0.566,0,0.851-0.283,0.851-0.852v-2.02h-6.806V18.661z M175.746,22.276
		c0.213-0.354,0.639-0.389,1.276-0.105c1.204,0.567,2.232,1.275,3.083,2.126c0.567,0.638,0.602,1.17,0.106,1.595
		c-0.425,0.283-0.887,0.177-1.382-0.318c-0.851-0.781-1.738-1.489-2.658-2.127C175.604,23.093,175.462,22.702,175.746,22.276z"/>
	<path fill="#FFFFFF" d="M183.509,25.998c-0.143-0.355-0.036-0.638,0.319-0.851c1.204-0.568,2.48-1.525,3.827-2.871
		c2.34-2.339,3.51-5.173,3.51-8.506c0-3.331-1.17-6.167-3.51-8.506c-1.347-1.346-2.623-2.303-3.827-2.871
		c-0.355-0.212-0.462-0.495-0.319-0.851c0.213-0.282,0.531-0.319,0.957-0.106c1.63,0.709,3.189,1.808,4.679,3.296
		c2.409,2.411,3.615,5.423,3.615,9.038c0,3.616-1.206,6.629-3.615,9.039c-1.489,1.488-3.049,2.587-4.679,3.296
		C184.04,26.317,183.722,26.28,183.509,25.998z"/>
</g>
</svg>
