<?xml version="1.0" encoding="utf-8"?>
<!-- Generator: Adobe Illustrator 15.1.0, SVG Export Plug-In . SVG Version: 6.00 Build 0)  -->
<!DOCTYPE svg PUBLIC "-//W3C//DTD SVG 1.1//EN" "http://www.w3.org/Graphics/SVG/1.1/DTD/svg11.dtd">
<svg version="1.1" id="レイヤー_1" xmlns="http://www.w3.org/2000/svg" xmlns:xlink="http://www.w3.org/1999/xlink" x="0px"
	 y="0px" width="200px" height="27px" viewBox="0 0 200 27" enable-background="new 0 0 200 27" xml:space="preserve">
<g>
	<path d="M9.078,6.913C9.374,7.34,9.337,7.732,8.967,8.087c-1.635,1.281-3.159,2.134-4.569,2.561c-0.595,0.144-1.003,0-1.226-0.427
		c-0.15-0.497,0.036-0.889,0.557-1.174C4.917,8.621,6.292,7.91,7.852,6.913C8.371,6.63,8.78,6.63,9.078,6.913z M11.753,22.493
		c0.148,0.568-0.039,0.995-0.557,1.28c-2.602,0.995-4.867,1.601-6.798,1.813c-0.668,0.07-1.041-0.143-1.114-0.64
		c0-0.427,0.296-0.677,0.892-0.747c2.674-0.57,4.717-1.244,6.129-2.027C10.973,21.89,11.455,21.996,11.753,22.493z M4.063,2.004
		c0.223-0.355,0.594-0.461,1.115-0.32c1.188,0.357,2.34,0.89,3.455,1.601C9.301,3.712,9.449,4.21,9.078,4.779
		C8.706,5.136,8.26,5.171,7.741,4.886c-0.892-0.64-1.933-1.244-3.12-1.814C4.1,2.788,3.914,2.432,4.063,2.004z M24.234,11.822
		c0.446,0,0.854,0.179,1.226,0.534c0.371,0.357,0.557,0.747,0.557,1.174v6.402c0,0.427-0.187,0.818-0.557,1.174
		c-0.373,0.357-0.78,0.533-1.226,0.533H7.184c-0.446,0-0.855-0.176-1.226-0.533C5.585,20.75,5.4,20.358,5.4,19.932v-6.402
		c0-0.427,0.185-0.817,0.557-1.174c0.371-0.355,0.78-0.534,1.226-0.534H24.234z M6.961,13.956v0.641h17.497v-0.641
		c0-0.568-0.298-0.854-0.892-0.854H7.852C7.257,13.103,6.961,13.388,6.961,13.956z M6.961,17.371h17.497v-1.494H6.961V17.371z
		 M6.961,19.505c0,0.57,0.296,0.854,0.891,0.854h15.714c0.594,0,0.892-0.283,0.892-0.854v-0.854H6.961V19.505z M14.093,0.831
		c0.446,0.144,0.594,0.499,0.446,1.067l-0.446,0.854h12.37c0.519,0,0.892,0.144,1.114,0.427c0.223,0.357,0.26,0.784,0.112,1.281
		c-0.819,1.424-1.97,2.561-3.455,3.415c-0.668,0.285-1.114,0.25-1.337-0.106c-0.223-0.355-0.111-0.675,0.334-0.96
		c1.411-0.924,2.34-1.849,2.786-2.774h-7.801v1.814c1.04,1.139,2.266,2.027,3.678,2.667c1.783,0.712,3.714,1.174,5.795,1.387
		c0.668,0.072,1.003,0.357,1.003,0.854c-0.075,0.499-0.446,0.747-1.115,0.747c-1.264,0-2.972-0.39-5.126-1.174
		c-1.858-0.71-3.418-1.708-4.681-2.988c-1.189,1.993-3.975,3.167-8.358,3.521c-0.596,0-0.892-0.177-0.892-0.533
		c0-0.355,0.223-0.569,0.668-0.641c4.977-0.497,7.467-1.991,7.467-4.481V4.032h-3.232c-0.892,1.139-1.71,1.958-2.452,2.454
		c-0.446,0.285-0.818,0.285-1.114,0C9.635,6.203,9.672,5.883,9.97,5.526c1.337-1.208,2.34-2.596,3.009-4.162
		C13.202,0.868,13.572,0.689,14.093,0.831z M18.997,22.493c0.073-0.427,0.371-0.604,0.892-0.534
		c2.748,0.357,5.163,0.926,7.244,1.708c0.594,0.283,0.817,0.675,0.669,1.174c-0.223,0.496-0.669,0.64-1.337,0.427
		c-2.304-0.926-4.569-1.638-6.798-2.135C19.22,23.062,18.997,22.85,18.997,22.493z"/>
	<path d="M32.146,8.407c0.296-0.142,0.594-0.142,0.892,0c1.633,1.28,2.675,2.384,3.121,3.308c0.296,0.499,0.223,0.89-0.223,1.174
		c-0.446,0.285-0.855,0.25-1.226-0.107c-1.042-1.351-1.969-2.454-2.786-3.308C31.701,9.047,31.774,8.692,32.146,8.407z
		 M35.49,15.983c0.519,0.072,0.742,0.427,0.668,1.067c-0.446,2.419-1.301,4.66-2.563,6.723c-0.373,0.568-0.819,0.747-1.337,0.533
		c-0.373-0.285-0.484-0.64-0.334-1.066c0.965-1.564,1.856-3.771,2.675-6.616C34.747,16.127,35.044,15.913,35.49,15.983z
		 M32.481,2.004c0.296-0.283,0.63-0.32,1.003-0.106c1.263,0.854,2.302,1.958,3.121,3.308c0.371,0.499,0.334,0.925-0.111,1.28
		c-0.446,0.285-0.892,0.213-1.337-0.213c-0.966-1.209-1.895-2.311-2.786-3.308C32.146,2.538,32.183,2.218,32.481,2.004z
		 M56.33,1.898c0.594,0,0.892,0.25,0.892,0.747c0,0.499-0.298,0.747-0.892,0.747h-6.464c-0.15,1.139-0.521,2.171-1.114,3.095h5.572
		c0.964,0,1.449,0.463,1.449,1.387v7.363c0,0.926-0.484,1.388-1.449,1.388h-4.124v7.043c0,1.137-0.855,1.707-2.563,1.707
		c-0.966,0-1.933-0.179-2.897-0.533c-0.373-0.214-0.521-0.499-0.446-0.854c0.148-0.356,0.446-0.498,0.892-0.427
		c0.892,0.284,1.56,0.427,2.006,0.427c0.965,0,1.449-0.392,1.449-1.174v-6.188h-4.68c-0.967,0-1.449-0.462-1.449-1.388V7.874
		c0-0.924,0.482-1.387,1.449-1.387h3.231c0.519-1.137,0.817-2.169,0.892-3.095h-7.244c-0.373,0-0.557,0.179-0.557,0.534v9.71
		c0,3.985-0.966,7.363-2.897,10.138c-0.298,0.355-0.632,0.462-1.003,0.32c-0.373-0.214-0.445-0.534-0.223-0.961
		c1.708-2.916,2.563-6.082,2.563-9.497V3.605c0-0.427,0.185-0.817,0.558-1.174c0.371-0.355,0.78-0.534,1.226-0.534H56.33z
		 M44.74,18.331c0.519,0.214,0.669,0.57,0.446,1.067c-0.966,2.348-2.267,3.911-3.9,4.695c-0.596,0.283-1.003,0.248-1.226-0.107
		c-0.223-0.356-0.149-0.677,0.223-0.96c1.188-0.924,2.265-2.348,3.232-4.269C43.81,18.261,44.219,18.118,44.74,18.331z
		 M44.071,8.514v2.241h10.141V8.514c0-0.355-0.186-0.533-0.557-0.533h-9.027C44.256,7.98,44.071,8.159,44.071,8.514z M44.071,14.597
		c0,0.356,0.185,0.533,0.557,0.533h9.027c0.371,0,0.557-0.177,0.557-0.533v-2.348H44.071V14.597z M52.764,18.438
		c0.371-0.354,0.742-0.354,1.115,0c1.114,1.139,2.117,2.526,3.009,4.162c0.296,0.568,0.223,0.995-0.223,1.28
		c-0.595,0.355-1.078,0.214-1.449-0.427c-0.818-1.494-1.671-2.881-2.563-4.161C52.502,18.937,52.541,18.651,52.764,18.438z"/>
	<path d="M64.577,1.791c0-0.568,0.259-0.854,0.78-0.854c0.519,0,0.78,0.285,0.78,0.854v4.162h2.34c0.594,0,0.892,0.25,0.892,0.747
		c0,0.499-0.298,0.747-0.892,0.747h-2.34v8.216c0.742-0.283,1.597-0.64,2.563-1.066c0.519-0.284,0.928-0.284,1.226,0
		c0.371,0.498,0.148,0.96-0.668,1.387c-0.892,0.499-1.933,0.961-3.121,1.388v7.256c0,0.568-0.261,0.854-0.78,0.854
		c-0.521,0-0.78-0.285-0.78-0.854v-6.723c-0.892,0.356-1.858,0.677-2.897,0.96c-0.967,0.285-1.524,0.107-1.672-0.533
		c-0.15-0.641,0.259-1.03,1.226-1.174c1.04-0.213,2.154-0.533,3.343-0.96v-8.75h-2.118c-0.223,1.565-0.521,2.918-0.892,4.055
		c-0.223,0.64-0.595,0.925-1.114,0.854c-0.446-0.07-0.557-0.534-0.334-1.387c0.446-1.921,0.742-4.162,0.892-6.723
		c0-0.854,0.296-1.281,0.892-1.281c0.669,0,0.965,0.464,0.892,1.387l-0.223,1.601h2.006V1.791z M72.935,1.044
		c0.594,0.071,0.854,0.499,0.78,1.28c-0.15,0.925-0.373,1.886-0.668,2.881h10.252c0.446,0,0.854,0.178,1.226,0.533
		c0.371,0.357,0.557,0.747,0.557,1.174v13.019c0,3.415-1.301,5.122-3.9,5.122c-1.337,0-2.49-0.106-3.455-0.32
		c-0.596-0.144-0.892-0.392-0.892-0.747c0-0.64,0.446-0.89,1.337-0.746c0.964,0.213,1.819,0.319,2.563,0.319
		c1.856,0,2.786-1.28,2.786-3.841V7.554c0-0.569-0.298-0.854-0.892-0.854h-1.672c-0.521,6.475-2.378,11.952-5.572,16.433
		c-0.446,0.641-0.892,0.817-1.337,0.534c-0.373-0.285-0.334-0.711,0.111-1.281c3.121-5.05,4.829-10.279,5.126-15.686h-3.009
		c-0.596,5.479-2.49,10.458-5.684,14.939c-0.446,0.57-0.892,0.713-1.337,0.428c-0.373-0.284-0.373-0.676,0-1.174
		c2.971-4.624,4.753-9.354,5.349-14.193h-2.006c-0.521,1.494-1.301,2.881-2.34,4.162c-0.373,0.427-0.744,0.57-1.115,0.427
		c-0.445-0.213-0.445-0.64,0-1.28c1.337-2.063,2.229-4.695,2.675-7.896C71.968,1.329,72.339,0.974,72.935,1.044z"/>
	<path d="M127.987,0.938c0.148,0.357,0.037,0.64-0.334,0.854c-1.265,0.57-2.602,1.531-4.012,2.881
		c-2.452,2.348-3.678,5.194-3.678,8.537c0,3.345,1.226,6.189,3.678,8.537c1.41,1.351,2.747,2.311,4.012,2.881
		c0.371,0.214,0.482,0.497,0.334,0.854c-0.223,0.283-0.557,0.32-1.003,0.106c-1.71-0.712-3.343-1.813-4.903-3.308
		c-2.526-2.418-3.789-5.442-3.789-9.07s1.263-6.651,3.789-9.07c1.561-1.494,3.193-2.596,4.903-3.308
		C127.431,0.617,127.765,0.654,127.987,0.938z"/>
	<path d="M137.349,1.044c0.519,0.285,0.63,0.712,0.334,1.28c-0.818,1.424-1.895,2.988-3.231,4.695l2.34,2.027
		c1.188-1.422,2.229-2.881,3.121-4.375c0.296-0.497,0.705-0.675,1.226-0.534c0.519,0.285,0.594,0.747,0.223,1.387
		c-1.56,2.419-3.566,4.874-6.018,7.363c2.153-0.07,3.9-0.213,5.237-0.427c-0.149-0.497-0.409-1.137-0.779-1.92
		c-0.15-0.427-0.039-0.747,0.334-0.96c0.445-0.142,0.816,0.037,1.114,0.534c0.965,1.707,1.561,3.131,1.783,4.268
		c0.073,0.641-0.149,0.997-0.669,1.067c-0.521,0.071-0.854-0.142-1.003-0.641l-0.334-1.067l-3.566,0.427v10.457
		c0,0.568-0.261,0.854-0.78,0.854c-0.521,0-0.78-0.285-0.78-0.854V14.17l-3.9,0.213c-0.521,0.072-0.78-0.177-0.78-0.747
		c0-0.497,0.26-0.747,0.78-0.747h1.561l2.117-2.455c-0.892-1.067-2.192-2.169-3.9-3.308c-0.445-0.283-0.596-0.64-0.445-1.067
		c0.296-0.427,0.741-0.497,1.337-0.213l0.558,0.32c0.891-1.067,1.819-2.596,2.785-4.589C136.382,1.009,136.828,0.831,137.349,1.044z
		 M133.337,16.197c0.445,0,0.668,0.25,0.668,0.747c0,2.917-0.298,5.122-0.892,6.615c-0.223,0.497-0.557,0.711-1.003,0.641
		c-0.445-0.144-0.595-0.464-0.445-0.96c0.594-1.921,0.892-4.019,0.892-6.296C132.557,16.447,132.816,16.197,133.337,16.197z
		 M139.801,16.09c0.445-0.069,0.779,0.144,1.003,0.641c0.816,2.562,1.188,4.412,1.114,5.549c0,0.641-0.298,0.961-0.892,0.961
		c-0.521-0.072-0.78-0.355-0.78-0.854c-0.075-1.777-0.373-3.591-0.892-5.441C139.279,16.518,139.428,16.233,139.801,16.09z
		 M155.96,2.004c0.073,0.57-0.298,0.926-1.115,1.067l-3.12,0.64l0.223,6.616h4.124c0.594,0,0.892,0.25,0.892,0.747
		c0,0.499-0.298,0.747-0.892,0.747h-3.9c0.147,2.064,0.482,4.162,1.003,6.296c0.296,1.28,0.668,2.49,1.114,3.628
		c0.223,0.783,0.407,0.925,0.557,0.427c0.073-0.427,0.224-1.529,0.446-3.309c0.073-0.496,0.334-0.746,0.78-0.746
		c0.519,0.071,0.741,0.427,0.668,1.066c-0.223,2.278-0.483,3.842-0.779,4.695c-0.298,0.782-0.707,1.174-1.227,1.174
		c-0.595,0-1.152-0.533-1.671-1.601c-1.265-2.703-2.156-6.579-2.675-11.631h-4.458V22.6c1.188-0.427,2.413-0.924,3.678-1.494
		c0.519-0.213,0.892-0.177,1.114,0.106c0.148,0.285,0.073,0.57-0.223,0.854c-1.783,1.137-3.976,2.169-6.575,3.094
		c-0.743,0.143-1.189-0.071-1.338-0.64c-0.074-0.427,0.112-0.747,0.558-0.961l1.226-0.427V4.459c0-0.854,0.408-1.387,1.227-1.601
		c3.565-0.213,6.611-0.71,9.138-1.494C155.402,1.223,155.81,1.436,155.96,2.004z M146.487,4.139c-0.373,0-0.558,0.213-0.558,0.64
		v5.549h4.235l-0.224-6.403L146.487,4.139z"/>
	<path d="M165.544,2.218c0-0.569,0.259-0.854,0.779-0.854c0.52,0,0.78,0.285,0.78,0.854v4.375h4.458c0.594,0,0.892,0.25,0.892,0.747
		c0,0.499-0.298,0.747-0.892,0.747h-4.458v0.32c2.006,1.139,3.603,2.134,4.792,2.988c0.594,0.499,0.705,0.997,0.335,1.494
		c-0.446,0.285-0.892,0.213-1.338-0.213c-1.114-1.067-2.378-2.063-3.789-2.988v2.455c0,0.57-0.261,0.854-0.78,0.854
		c-0.521,0-0.779-0.283-0.779-0.854v-2.027c-1.115,1.21-2.49,2.277-4.124,3.201c-0.669,0.357-1.152,0.357-1.448,0
		c-0.298-0.427-0.224-0.782,0.223-1.067c2.451-1.351,4.234-2.738,5.35-4.162h-4.569c-0.596,0-0.892-0.249-0.892-0.747
		c0-0.497,0.296-0.747,0.892-0.747h4.569V2.218z M165.544,14.916c0-0.568,0.259-0.854,0.779-0.854c0.52,0,0.78,0.285,0.78,0.854
		v1.494h4.681c0.594,0,0.892,0.25,0.892,0.747c0,0.499-0.298,0.747-0.892,0.747h-4.681l-0.111,0.854
		c1.634,0.926,3.082,1.958,4.347,3.095c0.668,0.641,0.78,1.209,0.334,1.707c-0.445,0.355-0.967,0.249-1.561-0.319
		c-1.264-1.351-2.451-2.383-3.565-3.095c-0.744,1.778-2.49,3.308-5.238,4.588c-0.669,0.284-1.114,0.214-1.337-0.213
		c-0.224-0.427,0-0.784,0.668-1.067c3.046-1.422,4.606-3.271,4.681-5.549h-4.457c-0.596,0-0.892-0.248-0.892-0.747
		c0-0.497,0.296-0.747,0.892-0.747h4.681V14.916z M161.309,2.218c0.371-0.214,0.742-0.107,1.114,0.32
		c0.52,0.57,0.965,1.281,1.338,2.134c0.223,0.64,0.147,1.032-0.224,1.174c-0.521,0.285-0.93,0.106-1.226-0.534
		c-0.298-0.71-0.669-1.387-1.114-2.027C160.899,2.788,160.936,2.432,161.309,2.218z M170.225,2.751
		c0.296-0.568,0.668-0.782,1.114-0.64c0.519,0.285,0.557,0.854,0.111,1.708c-0.373,0.712-0.818,1.387-1.338,2.027
		c-0.445,0.427-0.818,0.534-1.114,0.32c-0.372-0.214-0.372-0.641,0-1.281C169.444,4.175,169.852,3.463,170.225,2.751z
		 M177.356,21.959c0.371,0.499,0.26,0.997-0.334,1.494c-1.338,0.924-2.786,1.601-4.347,2.027c-0.743,0.142-1.152-0.036-1.226-0.533
		c-0.075-0.357,0.147-0.641,0.669-0.854c1.485-0.499,2.785-1.209,3.9-2.135C176.613,21.604,177.059,21.604,177.356,21.959z
		 M184.601,1.898c0.594,0,0.892,0.25,0.892,0.747c0,0.499-0.298,0.747-0.892,0.747h-3.9c-0.298,1.067-0.707,2.028-1.227,2.881h3.344
		c0.445,0,0.854,0.178,1.226,0.534c0.371,0.357,0.558,0.747,0.558,1.174v10.777c0,0.427-0.187,0.818-0.558,1.174
		c-0.372,0.357-0.78,0.534-1.226,0.534h-6.687c-0.446,0-0.855-0.177-1.227-0.534c-0.372-0.355-0.557-0.747-0.557-1.174V7.98
		c0-0.427,0.185-0.817,0.557-1.174c0.371-0.355,0.78-0.534,1.227-0.534h1.672c0.594-1.137,0.892-2.098,0.892-2.881h-4.124
		c-0.596,0-0.892-0.248-0.892-0.747c0-0.497,0.296-0.747,0.892-0.747H184.601z M175.908,8.621v1.814h7.132V8.621
		c0-0.568-0.298-0.854-0.892-0.854h-5.35C176.204,7.767,175.908,8.052,175.908,8.621z M175.908,14.597h7.132v-2.668h-7.132V14.597z
		 M175.908,18.118c0,0.569,0.296,0.854,0.891,0.854h5.35c0.594,0,0.892-0.284,0.892-0.854V16.09h-7.132V18.118z M180.589,21.746
		c0.223-0.355,0.668-0.391,1.337-0.107c1.263,0.57,2.34,1.281,3.231,2.135c0.594,0.641,0.631,1.174,0.111,1.601
		c-0.445,0.283-0.93,0.177-1.448-0.32c-0.892-0.783-1.821-1.494-2.786-2.134C180.438,22.564,180.291,22.173,180.589,21.746z"/>
	<path d="M188.724,25.48c-0.149-0.356-0.038-0.64,0.334-0.854c1.263-0.57,2.6-1.53,4.012-2.881c2.452-2.348,3.678-5.192,3.678-8.537
		c0-3.343-1.226-6.189-3.678-8.537c-1.412-1.351-2.749-2.311-4.012-2.881c-0.372-0.213-0.483-0.497-0.334-0.854
		c0.223-0.283,0.557-0.32,1.003-0.107c1.708,0.712,3.343,1.814,4.903,3.308c2.525,2.419,3.789,5.442,3.789,9.07
		s-1.264,6.652-3.789,9.07c-1.561,1.494-3.195,2.596-4.903,3.308C189.28,25.801,188.946,25.764,188.724,25.48z"/>
</g>
<g>
</g>
</svg>
