<?xml version="1.0" encoding="utf-8"?>
<!-- Generator: Adobe Illustrator 15.1.0, SVG Export Plug-In . SVG Version: 6.00 Build 0)  -->
<!DOCTYPE svg PUBLIC "-//W3C//DTD SVG 1.1//EN" "http://www.w3.org/Graphics/SVG/1.1/DTD/svg11.dtd">
<svg version="1.1" id="レイヤー_1" xmlns="http://www.w3.org/2000/svg" xmlns:xlink="http://www.w3.org/1999/xlink" x="0px"
	 y="0px" width="200px" height="20px" viewBox="0 0 200 20" enable-background="new 0 0 200 20" xml:space="preserve">
<g enable-background="new    ">
	<path fill="#FFFFFF" d="M56.068,3.973c0.159,0.336,0.14,0.644-0.06,0.923c-0.881,1.007-1.703,1.679-2.462,2.015
		c-0.321,0.113-0.541,0-0.661-0.336c-0.081-0.391,0.02-0.699,0.3-0.923c0.64-0.335,1.381-0.895,2.222-1.679
		C55.687,3.75,55.908,3.75,56.068,3.973z M57.509,16.229c0.08,0.447-0.021,0.783-0.3,1.008c-1.402,0.783-2.623,1.259-3.663,1.427
		c-0.36,0.056-0.561-0.112-0.601-0.503c0-0.336,0.16-0.533,0.48-0.588c1.441-0.449,2.542-0.979,3.303-1.596
		C57.089,15.754,57.349,15.838,57.509,16.229z M53.366,0.111c0.12-0.279,0.32-0.363,0.601-0.251c0.64,0.281,1.261,0.7,1.862,1.259
		c0.36,0.335,0.44,0.728,0.24,1.175c-0.201,0.281-0.441,0.309-0.721,0.084c-0.48-0.503-1.042-0.979-1.682-1.427
		C53.385,0.728,53.285,0.447,53.366,0.111z M64.236,7.834c0.24,0,0.459,0.141,0.66,0.42c0.2,0.281,0.3,0.587,0.3,0.923v5.037
		c0,0.336-0.1,0.644-0.3,0.923c-0.201,0.281-0.42,0.42-0.66,0.42h-9.188c-0.24,0-0.461-0.139-0.661-0.42
		c-0.201-0.279-0.3-0.587-0.3-0.923V9.177c0-0.336,0.099-0.643,0.3-0.923c0.2-0.279,0.42-0.42,0.661-0.42H64.236z M54.927,9.513
		v0.503h9.428V9.513c0-0.447-0.16-0.672-0.48-0.672h-8.468C55.086,8.841,54.927,9.066,54.927,9.513z M54.927,12.199h9.428v-1.176
		h-9.428V12.199z M54.927,13.879c0,0.447,0.159,0.671,0.48,0.671h8.468c0.32,0,0.48-0.224,0.48-0.671v-0.672h-9.428V13.879z
		 M58.771-0.813c0.24,0.113,0.32,0.393,0.24,0.84l-0.24,0.671h6.666c0.28,0,0.48,0.113,0.601,0.336c0.12,0.28,0.14,0.616,0.06,1.007
		c-0.441,1.12-1.061,2.015-1.861,2.686c-0.36,0.224-0.601,0.197-0.721-0.084c-0.12-0.279-0.06-0.531,0.18-0.755
		c0.76-0.727,1.261-1.455,1.501-2.183h-4.204v1.427c0.56,0.896,1.221,1.595,1.982,2.099c0.961,0.56,2.001,0.923,3.123,1.091
		c0.36,0.056,0.541,0.281,0.541,0.671c-0.04,0.392-0.24,0.587-0.601,0.587c-0.681,0-1.602-0.307-2.762-0.923
		c-1.001-0.559-1.842-1.343-2.522-2.35c-0.641,1.567-2.142,2.491-4.504,2.77c-0.321,0-0.48-0.139-0.48-0.42
		c0-0.279,0.12-0.447,0.36-0.503c2.682-0.391,4.024-1.566,4.024-3.526V1.706H58.41c-0.48,0.896-0.921,1.54-1.321,1.931
		c-0.24,0.225-0.441,0.225-0.601,0c-0.12-0.223-0.1-0.475,0.06-0.755c0.721-0.951,1.261-2.042,1.622-3.274
		C58.29-0.784,58.49-0.924,58.771-0.813z M61.413,16.229c0.04-0.336,0.2-0.475,0.48-0.42c1.48,0.281,2.782,0.729,3.903,1.344
		c0.32,0.223,0.44,0.531,0.36,0.924c-0.12,0.391-0.36,0.503-0.721,0.335c-1.241-0.728-2.462-1.288-3.663-1.679
		C61.533,16.676,61.413,16.51,61.413,16.229z"/>
	<path fill="#FFFFFF" d="M68.5,5.148c0.16-0.112,0.32-0.112,0.48,0c0.88,1.007,1.441,1.875,1.682,2.602
		c0.159,0.393,0.12,0.701-0.12,0.923c-0.24,0.225-0.461,0.197-0.661-0.083c-0.562-1.063-1.062-1.931-1.501-2.603
		C68.259,5.651,68.299,5.372,68.5,5.148z M70.301,11.107c0.279,0.057,0.399,0.336,0.36,0.84c-0.24,1.903-0.701,3.666-1.381,5.289
		c-0.201,0.447-0.441,0.588-0.721,0.42c-0.201-0.225-0.261-0.504-0.18-0.84c0.52-1.23,1-2.966,1.441-5.205
		C69.9,11.221,70.061,11.053,70.301,11.107z M68.68,0.111c0.16-0.223,0.34-0.251,0.541-0.083c0.68,0.671,1.24,1.54,1.682,2.602
		c0.2,0.392,0.18,0.728-0.06,1.007c-0.24,0.225-0.48,0.168-0.721-0.168C69.6,2.518,69.1,1.651,68.62,0.867
		C68.5,0.531,68.519,0.279,68.68,0.111z M81.531,0.027c0.32,0,0.48,0.196,0.48,0.587c0,0.392-0.16,0.587-0.48,0.587h-3.483
		c-0.081,0.896-0.281,1.708-0.601,2.435h3.002c0.52,0,0.781,0.365,0.781,1.091v5.792c0,0.728-0.261,1.091-0.781,1.091h-2.222v5.541
		c0,0.895-0.461,1.343-1.381,1.343c-0.521,0-1.042-0.14-1.562-0.419c-0.201-0.168-0.281-0.393-0.24-0.672
		c0.08-0.281,0.24-0.393,0.48-0.336c0.48,0.223,0.841,0.336,1.081,0.336c0.52,0,0.781-0.309,0.781-0.924v-4.869h-2.522
		c-0.521,0-0.781-0.363-0.781-1.091V4.728c0-0.727,0.26-1.091,0.781-1.091h1.742c0.28-0.895,0.44-1.707,0.48-2.435h-3.904
		c-0.201,0-0.3,0.141-0.3,0.42v7.639c0,3.135-0.521,5.792-1.561,7.975c-0.161,0.279-0.341,0.363-0.541,0.252
		c-0.201-0.168-0.24-0.42-0.12-0.756c0.92-2.294,1.381-4.785,1.381-7.471V1.37c0-0.335,0.1-0.643,0.3-0.923
		c0.2-0.279,0.42-0.419,0.661-0.419H81.531z M75.286,12.955c0.28,0.168,0.36,0.448,0.24,0.84c-0.521,1.846-1.222,3.076-2.102,3.693
		c-0.321,0.223-0.541,0.195-0.661-0.084c-0.12-0.281-0.081-0.533,0.12-0.756c0.64-0.727,1.221-1.847,1.742-3.357
		C74.785,12.9,75.005,12.787,75.286,12.955z M74.925,5.232v1.763h5.465V5.232c0-0.28-0.1-0.42-0.3-0.42h-4.864
		C75.025,4.812,74.925,4.952,74.925,5.232z M74.925,10.017c0,0.281,0.1,0.42,0.3,0.42h4.864c0.2,0,0.3-0.139,0.3-0.42V8.17h-5.465
		V10.017z M79.61,13.039c0.2-0.279,0.399-0.279,0.6,0c0.601,0.896,1.141,1.986,1.622,3.273c0.16,0.447,0.12,0.783-0.12,1.008
		c-0.321,0.279-0.581,0.168-0.781-0.336c-0.441-1.176-0.901-2.267-1.381-3.273C79.469,13.432,79.49,13.207,79.61,13.039z"/>
	<path fill="#FFFFFF" d="M85.976-0.057c0-0.447,0.14-0.672,0.42-0.672c0.279,0,0.42,0.225,0.42,0.672v3.274h1.261
		c0.32,0,0.48,0.196,0.48,0.587c0,0.392-0.16,0.587-0.48,0.587h-1.261v6.463c0.399-0.223,0.86-0.503,1.381-0.839
		c0.28-0.223,0.5-0.223,0.661,0c0.2,0.392,0.08,0.755-0.36,1.091c-0.48,0.393-1.042,0.756-1.681,1.092v5.709
		c0,0.447-0.141,0.671-0.42,0.671c-0.281,0-0.42-0.224-0.42-0.671v-5.289c-0.48,0.281-1.001,0.532-1.562,0.756
		c-0.521,0.224-0.821,0.084-0.901-0.42c-0.081-0.504,0.14-0.811,0.661-0.924c0.56-0.168,1.161-0.42,1.802-0.756V4.392h-1.141
		c-0.12,1.232-0.281,2.295-0.48,3.19c-0.12,0.504-0.321,0.728-0.601,0.672c-0.24-0.055-0.3-0.42-0.18-1.091
		c0.24-1.511,0.4-3.274,0.48-5.289c0-0.672,0.16-1.007,0.48-1.007c0.36,0,0.52,0.365,0.48,1.091l-0.12,1.259h1.081V-0.057z
		 M90.479-0.645c0.32,0.057,0.46,0.392,0.42,1.007c-0.081,0.728-0.201,1.483-0.36,2.267h5.525c0.24,0,0.46,0.141,0.661,0.42
		c0.2,0.281,0.3,0.587,0.3,0.923v10.241c0,2.687-0.701,4.03-2.102,4.03c-0.721,0-1.342-0.084-1.862-0.252
		c-0.321-0.113-0.48-0.309-0.48-0.588c0-0.504,0.24-0.701,0.721-0.588c0.52,0.168,0.98,0.252,1.381,0.252
		c1,0,1.501-1.008,1.501-3.022v-9.57c0-0.447-0.16-0.671-0.48-0.671h-0.9c-0.281,5.093-1.282,9.402-3.003,12.928
		c-0.24,0.504-0.48,0.643-0.721,0.42c-0.201-0.225-0.18-0.559,0.06-1.008c1.682-3.973,2.602-8.086,2.763-12.34h-1.622
		c-0.321,4.31-1.342,8.227-3.063,11.752c-0.24,0.449-0.48,0.561-0.721,0.336c-0.201-0.223-0.201-0.531,0-0.923
		c1.601-3.638,2.562-7.358,2.883-11.165h-1.081c-0.281,1.175-0.701,2.267-1.261,3.274c-0.201,0.336-0.4,0.449-0.601,0.336
		c-0.24-0.168-0.24-0.504,0-1.007c0.721-1.623,1.201-3.694,1.441-6.212C89.958-0.42,90.159-0.7,90.479-0.645z"/>
	<path fill="#FFFFFF" d="M112.459-0.729c0.08,0.281,0.021,0.504-0.18,0.672c-0.682,0.448-1.402,1.204-2.162,2.266
		c-1.321,1.847-1.981,4.086-1.981,6.716c0,2.631,0.66,4.87,1.981,6.715c0.76,1.063,1.48,1.818,2.162,2.268
		c0.2,0.168,0.26,0.391,0.18,0.671c-0.12,0.224-0.3,0.252-0.54,0.084c-0.922-0.56-1.802-1.427-2.643-2.603
		c-1.361-1.902-2.042-4.281-2.042-7.135s0.681-5.232,2.042-7.135c0.841-1.175,1.721-2.042,2.643-2.603
		C112.159-0.98,112.339-0.951,112.459-0.729z"/>
	<path fill="#FFFFFF" d="M117.504-0.645c0.279,0.225,0.34,0.56,0.18,1.007c-0.44,1.12-1.021,2.351-1.741,3.694l1.262,1.595
		c0.64-1.119,1.2-2.267,1.681-3.442c0.16-0.391,0.381-0.531,0.661-0.419c0.279,0.224,0.32,0.587,0.12,1.091
		c-0.841,1.903-1.922,3.834-3.243,5.792c1.161-0.055,2.102-0.167,2.822-0.335c-0.08-0.391-0.22-0.895-0.42-1.511
		c-0.081-0.336-0.021-0.587,0.18-0.755c0.24-0.111,0.44,0.029,0.601,0.419c0.521,1.343,0.841,2.463,0.961,3.358
		c0.04,0.504-0.08,0.784-0.36,0.84s-0.46-0.112-0.54-0.504l-0.181-0.839l-1.921,0.336v8.227c0,0.447-0.142,0.671-0.421,0.671
		c-0.28,0-0.42-0.224-0.42-0.671V9.681l-2.103,0.167c-0.28,0.057-0.42-0.139-0.42-0.587c0-0.391,0.14-0.588,0.42-0.588h0.841
		l1.142-1.931c-0.48-0.839-1.182-1.707-2.103-2.602c-0.24-0.223-0.32-0.504-0.24-0.84c0.16-0.335,0.4-0.391,0.721-0.167l0.301,0.251
		c0.48-0.839,0.98-2.042,1.501-3.609C116.983-0.672,117.224-0.813,117.504-0.645z M115.342,11.275c0.24,0,0.36,0.197,0.36,0.588
		c0,2.295-0.16,4.029-0.48,5.205c-0.12,0.391-0.3,0.559-0.54,0.504c-0.24-0.113-0.321-0.365-0.24-0.756
		c0.319-1.512,0.48-3.161,0.48-4.953C114.922,11.473,115.062,11.275,115.342,11.275z M118.825,11.191
		c0.24-0.055,0.42,0.113,0.54,0.504c0.44,2.016,0.641,3.471,0.601,4.365c0,0.504-0.16,0.756-0.48,0.756
		c-0.28-0.057-0.42-0.279-0.42-0.672c-0.04-1.398-0.201-2.825-0.48-4.281C118.545,11.527,118.624,11.305,118.825,11.191z
		 M127.533,0.111c0.039,0.449-0.16,0.728-0.601,0.84l-1.682,0.503l0.12,5.205h2.222c0.32,0,0.48,0.197,0.48,0.588
		c0,0.392-0.16,0.587-0.48,0.587h-2.102c0.08,1.624,0.26,3.273,0.54,4.953c0.16,1.008,0.36,1.959,0.601,2.854
		c0.12,0.617,0.22,0.729,0.301,0.336c0.039-0.336,0.12-1.203,0.24-2.602c0.039-0.391,0.18-0.588,0.42-0.588
		c0.28,0.057,0.4,0.336,0.36,0.84c-0.12,1.791-0.261,3.021-0.42,3.693c-0.16,0.615-0.381,0.924-0.661,0.924
		c-0.32,0-0.621-0.42-0.9-1.26c-0.682-2.127-1.162-5.176-1.441-9.15h-2.402v8.479c0.641-0.336,1.301-0.727,1.982-1.176
		c0.279-0.167,0.48-0.139,0.601,0.084c0.079,0.225,0.039,0.449-0.12,0.672c-0.961,0.895-2.143,1.707-3.544,2.435
		c-0.4,0.112-0.641-0.056-0.721-0.503c-0.04-0.336,0.061-0.588,0.301-0.756l0.66-0.336V2.042c0-0.672,0.22-1.091,0.661-1.259
		c1.922-0.168,3.563-0.559,4.924-1.175C127.232-0.504,127.452-0.336,127.533,0.111z M122.429,1.79c-0.201,0-0.301,0.168-0.301,0.503
		v4.365h2.282l-0.12-5.037L122.429,1.79z"/>
	<path fill="#FFFFFF" d="M132.698,0.279c0-0.447,0.14-0.671,0.42-0.671s0.421,0.224,0.421,0.671v3.442h2.402
		c0.319,0,0.48,0.197,0.48,0.588c0,0.392-0.161,0.587-0.48,0.587h-2.402v0.252c1.081,0.896,1.941,1.679,2.582,2.351
		c0.32,0.392,0.38,0.784,0.181,1.175c-0.24,0.225-0.48,0.168-0.721-0.167c-0.601-0.84-1.282-1.623-2.042-2.351v1.931
		c0,0.449-0.141,0.671-0.421,0.671s-0.42-0.223-0.42-0.671V6.491c-0.601,0.953-1.342,1.792-2.222,2.519
		c-0.36,0.281-0.621,0.281-0.781,0c-0.16-0.336-0.12-0.615,0.12-0.839c1.321-1.063,2.282-2.154,2.883-3.274h-2.462
		c-0.321,0-0.48-0.195-0.48-0.587c0-0.391,0.159-0.588,0.48-0.588h2.462V0.279z M132.698,10.269c0-0.447,0.14-0.671,0.42-0.671
		s0.421,0.224,0.421,0.671v1.175h2.522c0.319,0,0.48,0.197,0.48,0.588c0,0.393-0.161,0.588-0.48,0.588h-2.522l-0.061,0.672
		c0.881,0.728,1.661,1.539,2.343,2.434c0.36,0.504,0.42,0.951,0.18,1.344c-0.24,0.279-0.521,0.195-0.841-0.252
		c-0.681-1.063-1.321-1.875-1.922-2.435c-0.4,1.399-1.342,2.603-2.822,3.61c-0.36,0.223-0.601,0.168-0.721-0.168s0-0.617,0.36-0.84
		c1.642-1.119,2.482-2.574,2.522-4.365h-2.402c-0.32,0-0.48-0.195-0.48-0.588c0-0.391,0.16-0.588,0.48-0.588h2.522V10.269z
		 M130.416,0.279c0.2-0.168,0.399-0.084,0.601,0.252c0.279,0.449,0.52,1.007,0.721,1.679c0.12,0.504,0.08,0.812-0.12,0.924
		c-0.28,0.224-0.501,0.084-0.66-0.42c-0.161-0.559-0.36-1.091-0.601-1.595C130.195,0.728,130.216,0.447,130.416,0.279z
		 M135.221,0.699c0.159-0.447,0.36-0.615,0.601-0.504c0.279,0.225,0.3,0.672,0.06,1.343c-0.2,0.56-0.44,1.091-0.721,1.595
		c-0.24,0.335-0.44,0.419-0.601,0.251c-0.2-0.167-0.2-0.503,0-1.007C134.8,1.819,135.02,1.259,135.221,0.699z M139.064,15.809
		c0.199,0.393,0.14,0.785-0.181,1.176c-0.721,0.727-1.501,1.26-2.342,1.595c-0.401,0.112-0.621-0.028-0.661-0.419
		c-0.04-0.281,0.08-0.504,0.36-0.672c0.801-0.393,1.502-0.951,2.103-1.68C138.663,15.529,138.903,15.529,139.064,15.809z
		 M142.968,0.027c0.32,0,0.48,0.196,0.48,0.587c0,0.392-0.16,0.587-0.48,0.587h-2.102c-0.161,0.84-0.382,1.595-0.661,2.267h1.802
		c0.24,0,0.46,0.141,0.66,0.42c0.2,0.281,0.301,0.587,0.301,0.923v8.479c0,0.336-0.101,0.644-0.301,0.923
		c-0.2,0.28-0.42,0.42-0.66,0.42h-3.604c-0.24,0-0.461-0.14-0.66-0.42c-0.201-0.279-0.301-0.587-0.301-0.923V4.812
		c0-0.336,0.1-0.643,0.301-0.923c0.199-0.279,0.42-0.42,0.66-0.42h0.901c0.319-0.895,0.48-1.65,0.48-2.267h-2.223
		c-0.32,0-0.48-0.195-0.48-0.587c0-0.391,0.16-0.587,0.48-0.587H142.968z M138.283,5.316v1.427h3.844V5.316
		c0-0.447-0.16-0.672-0.48-0.672h-2.883C138.443,4.644,138.283,4.869,138.283,5.316z M138.283,10.017h3.844V7.918h-3.844V10.017z
		 M138.283,12.787c0,0.448,0.16,0.672,0.48,0.672h2.883c0.32,0,0.48-0.224,0.48-0.672v-1.596h-3.844V12.787z M140.806,15.641
		c0.12-0.279,0.36-0.307,0.721-0.084c0.681,0.449,1.261,1.008,1.741,1.68c0.32,0.504,0.34,0.924,0.061,1.259
		c-0.24,0.224-0.501,0.14-0.781-0.251c-0.48-0.617-0.981-1.176-1.501-1.68C140.725,16.285,140.646,15.977,140.806,15.641z"/>
</g>
<g enable-background="new    ">
	<path fill="#FFFFFF" d="M145.19,18.579c-0.081-0.28-0.021-0.503,0.181-0.671c0.68-0.449,1.4-1.205,2.162-2.268
		c1.32-1.846,1.98-4.084,1.98-6.715c0-2.63-0.66-4.869-1.98-6.716c-0.762-1.062-1.482-1.818-2.162-2.266
		c-0.201-0.168-0.262-0.391-0.181-0.672c0.12-0.223,0.3-0.252,0.54-0.084c0.921,0.56,1.803,1.427,2.643,2.603
		c1.361,1.903,2.042,4.281,2.042,7.135s-0.681,5.233-2.042,7.135c-0.84,1.176-1.722,2.043-2.643,2.603
		C145.49,18.831,145.311,18.803,145.19,18.579z"/>
</g>
</svg>
