<?xml version="1.0" encoding="utf-8"?>
<!-- Generator: Adobe Illustrator 15.1.0, SVG Export Plug-In . SVG Version: 6.00 Build 0)  -->
<!DOCTYPE svg PUBLIC "-//W3C//DTD SVG 1.1//EN" "http://www.w3.org/Graphics/SVG/1.1/DTD/svg11.dtd">
<svg version="1.1" xmlns="http://www.w3.org/2000/svg" xmlns:xlink="http://www.w3.org/1999/xlink" x="0px" y="0px" width="200px"
	 height="20px" viewBox="0 0 200 20" enable-background="new 0 0 200 20" xml:space="preserve">
<g id="レイヤー_1" display="none">
	<g display="inline">
		<path fill="#FFFFFF" d="M16.31,5.336c0.073-0.121,0.182-0.2,0.327-0.236c0.157-0.024,0.296,0,0.418,0.072
			c0.133,0.097,0.206,0.225,0.218,0.382c0.073,0.472,0.169,1.326,0.291,2.561c0.121,1.187,0.188,2.252,0.2,3.196
			c-0.012,0.182-0.061,0.327-0.145,0.436c-0.097,0.098-0.224,0.146-0.381,0.146c-0.158-0.012-0.279-0.061-0.363-0.146
			c-0.109-0.097-0.164-0.235-0.164-0.417c0-0.944-0.061-2.004-0.182-3.179c-0.121-1.223-0.218-2.016-0.291-2.379
			C16.213,5.603,16.238,5.457,16.31,5.336z M18.617,2.866c0.097-0.097,0.224-0.146,0.381-0.146c0.157,0.012,0.278,0.061,0.363,0.146
			c0.121,0.097,0.182,0.242,0.182,0.436v3.814c0.521-0.799,0.914-1.562,1.181-2.289c0.073-0.182,0.169-0.297,0.291-0.345
			c0.133-0.048,0.272-0.048,0.418,0c0.157,0.073,0.26,0.169,0.309,0.291c0.037,0.146,0.03,0.297-0.018,0.454
			c-0.412,1.09-1.054,2.24-1.925,3.451c-0.085,0.109-0.17,0.188-0.254,0.236V9.55c-0.012,0.69-0.036,1.308-0.073,1.852
			c-0.024,0.363-0.061,0.751-0.109,1.162c0.787,1.369,1.423,2.543,1.907,3.524c0.073,0.133,0.084,0.261,0.036,0.381
			c-0.036,0.158-0.127,0.261-0.272,0.31c-0.169,0.072-0.309,0.084-0.417,0.036c-0.121-0.036-0.224-0.151-0.309-0.346
			c-0.315-0.714-0.696-1.514-1.144-2.397c-0.073,0.303-0.133,0.605-0.182,0.908c-0.133,0.558-0.261,1.042-0.381,1.453
			c-0.146,0.448-0.297,0.842-0.454,1.181c-0.182,0.375-0.352,0.679-0.509,0.908c-0.182,0.242-0.315,0.437-0.399,0.581
			c-0.146,0.146-0.279,0.225-0.4,0.236c-0.133,0.012-0.26-0.024-0.381-0.108c-0.133-0.109-0.206-0.225-0.218-0.346
			c-0.024-0.182,0.024-0.333,0.145-0.454c0.109-0.146,0.236-0.314,0.381-0.509c0.157-0.242,0.309-0.532,0.454-0.871
			c0.133-0.327,0.272-0.696,0.418-1.108c0.133-0.424,0.26-0.933,0.381-1.525c0.133-0.545,0.224-1.078,0.272-1.599
			c0.073-0.521,0.115-1.078,0.127-1.671c0.036-0.472,0.054-1.005,0.054-1.598V3.302C18.484,3.12,18.532,2.975,18.617,2.866z
			 M32.876,6.171c0.121,0.097,0.182,0.225,0.182,0.382c-0.012,0.182-0.061,0.315-0.146,0.399c-0.121,0.109-0.254,0.164-0.399,0.164
			h-2.652c0.193,1.126,0.496,2.113,0.908,2.96c0.484,1.005,1.168,1.986,2.052,2.942c0.121,0.134,0.182,0.279,0.182,0.437
			c-0.024,0.133-0.079,0.254-0.163,0.363c-0.134,0.108-0.261,0.157-0.382,0.146c-0.157-0.013-0.297-0.079-0.417-0.2
			c-0.933-1.018-1.641-2.04-2.125-3.069c-0.254-0.521-0.472-1.072-0.654-1.653c-0.109,0.363-0.236,0.733-0.381,1.108
			c-0.206,0.509-0.418,0.95-0.636,1.325c-0.218,0.4-0.46,0.751-0.727,1.054c-0.279,0.327-0.551,0.6-0.817,0.817
			c-0.291,0.218-0.515,0.388-0.672,0.509c-0.157,0.134-0.297,0.193-0.417,0.182c-0.133,0-0.254-0.061-0.363-0.182
			c-0.097-0.109-0.152-0.236-0.164-0.382c0-0.182,0.079-0.314,0.236-0.399c0.182-0.121,0.387-0.278,0.617-0.472
			c0.267-0.206,0.515-0.461,0.745-0.764c0.218-0.266,0.436-0.587,0.654-0.962c0.242-0.375,0.46-0.823,0.654-1.344
			c0.206-0.484,0.351-0.95,0.436-1.398c0.061-0.339,0.115-0.678,0.164-1.017h-1.816c-0.049,0-0.079,0-0.091,0
			c-0.073,0.303-0.146,0.605-0.218,0.908c-0.194,0.654-0.442,1.253-0.745,1.798c-0.352,0.654-0.751,1.216-1.199,1.689
			c-0.448,0.46-0.872,0.842-1.271,1.144c-0.424,0.327-0.945,0.636-1.562,0.927c-0.158,0.072-0.309,0.085-0.454,0.036
			c-0.146-0.061-0.243-0.151-0.291-0.272c-0.072-0.157-0.084-0.297-0.036-0.418c0.061-0.133,0.169-0.235,0.327-0.309
			c0.496-0.229,0.95-0.496,1.362-0.799c0.436-0.327,0.823-0.66,1.162-0.999c0.157-0.169,0.309-0.351,0.454-0.545
			c-0.363-0.291-0.787-0.582-1.271-0.872c-0.497-0.315-0.842-0.527-1.035-0.636c-0.17,0.218-0.333,0.424-0.49,0.618
			c-0.122,0.133-0.254,0.206-0.4,0.218c-0.145-0.012-0.272-0.061-0.381-0.145c-0.121-0.109-0.182-0.236-0.182-0.382
			c0-0.145,0.061-0.278,0.182-0.399c0.484-0.509,0.86-1.042,1.126-1.599c0.279-0.617,0.515-1.525,0.708-2.725
			c0.121-0.508,0.297-0.872,0.527-1.09c0.193-0.182,0.49-0.272,0.89-0.272h1.925c0.424-0.012,0.75,0.134,0.981,0.436
			C26.997,3.731,27.1,4.053,27.1,4.392s-0.061,0.86-0.182,1.562C26.906,5.978,26.9,6.008,26.9,6.044h1.78
			c0.024-0.254,0.036-0.515,0.036-0.781V3.229c0.012-0.182,0.061-0.327,0.146-0.436c0.097-0.097,0.224-0.145,0.381-0.145
			c0.157,0.012,0.278,0.061,0.363,0.145c0.121,0.097,0.182,0.243,0.182,0.436v2.034c-0.012,0.267-0.024,0.527-0.037,0.781h2.761
			C32.634,6.044,32.755,6.087,32.876,6.171z M22.395,14.854c0.121-0.061,0.26-0.085,0.418-0.072c0.146,0.024,0.26,0.091,0.345,0.199
			c0.073,0.134,0.091,0.291,0.054,0.473c-0.169,0.848-0.381,1.544-0.636,2.089c-0.254,0.605-0.533,1.096-0.835,1.471
			c-0.109,0.146-0.242,0.236-0.399,0.272c-0.133,0-0.261-0.042-0.381-0.127c-0.122-0.108-0.188-0.224-0.2-0.345
			c-0.024-0.17,0.019-0.315,0.127-0.437c0.339-0.484,0.605-0.95,0.799-1.398c0.242-0.521,0.405-1.096,0.49-1.726
			C22.201,15.071,22.274,14.938,22.395,14.854z M25.429,7.861V7.843c-0.037-0.037-0.073-0.061-0.109-0.073
			c-0.4-0.303-0.872-0.618-1.417-0.944c-0.375-0.218-0.66-0.382-0.854-0.491c-0.109,0.375-0.225,0.727-0.345,1.054
			c-0.085,0.182-0.17,0.351-0.254,0.508c0.242,0.122,0.605,0.333,1.09,0.636c0.472,0.303,0.89,0.588,1.253,0.854
			C25.035,8.915,25.247,8.406,25.429,7.861z M26.01,4.882c-0.012-0.254-0.061-0.454-0.145-0.599
			c-0.085-0.146-0.272-0.218-0.563-0.218h-0.944c-0.303,0-0.533,0.055-0.69,0.164c-0.157,0.121-0.26,0.315-0.309,0.581
			c-0.036,0.146-0.061,0.297-0.073,0.454c0.242,0.134,0.636,0.363,1.181,0.69c0.46,0.279,0.872,0.545,1.235,0.799
			c0.036-0.194,0.079-0.381,0.127-0.563C25.949,5.657,26.01,5.221,26.01,4.882z M25.247,15.126c0.097-0.109,0.218-0.163,0.363-0.163
			c0.157,0.012,0.291,0.061,0.399,0.145c0.109,0.121,0.157,0.261,0.146,0.418c-0.024,0.279-0.061,0.751-0.109,1.417
			c-0.061,0.654-0.134,1.235-0.218,1.744c-0.036,0.169-0.115,0.296-0.236,0.381c-0.109,0.085-0.243,0.109-0.4,0.073
			c-0.145-0.024-0.254-0.091-0.327-0.2c-0.085-0.146-0.109-0.297-0.073-0.454c0.097-0.484,0.169-1.042,0.218-1.671
			c0.061-0.654,0.091-1.078,0.091-1.271C25.114,15.374,25.162,15.235,25.247,15.126z M27.99,15.09
			c0.073-0.121,0.182-0.2,0.327-0.236c0.157-0.048,0.296-0.03,0.417,0.055s0.2,0.206,0.236,0.363
			c0.048,0.278,0.127,0.769,0.236,1.471c0.109,0.666,0.169,1.271,0.182,1.816c-0.012,0.182-0.061,0.327-0.145,0.437
			c-0.085,0.097-0.206,0.151-0.363,0.163c-0.146,0-0.272-0.042-0.381-0.127c-0.109-0.097-0.164-0.236-0.164-0.418
			c-0.037-0.521-0.097-1.114-0.182-1.78c-0.097-0.678-0.164-1.113-0.2-1.308C27.929,15.356,27.941,15.211,27.99,15.09z
			 M30.769,15.471c-0.085-0.157-0.109-0.309-0.073-0.454c0.061-0.133,0.151-0.235,0.272-0.309c0.157-0.084,0.296-0.103,0.417-0.055
			c0.146,0.062,0.261,0.164,0.345,0.31c0.521,0.956,0.951,2.125,1.29,3.505c0.048,0.182,0.036,0.333-0.037,0.454
			c-0.073,0.134-0.182,0.225-0.327,0.272c-0.158,0.037-0.297,0.019-0.418-0.054c-0.121-0.073-0.206-0.206-0.254-0.4
			C31.683,17.469,31.277,16.379,30.769,15.471z M30.714,3.356c-0.012-0.121,0.036-0.242,0.146-0.363
			c0.109-0.097,0.224-0.145,0.345-0.145c0.146,0,0.279,0.054,0.4,0.164c0.412,0.375,0.805,0.86,1.181,1.453
			c0.073,0.145,0.103,0.278,0.091,0.399c-0.024,0.146-0.097,0.261-0.218,0.345c-0.134,0.061-0.261,0.085-0.382,0.073
			c-0.145-0.037-0.26-0.127-0.345-0.272c-0.339-0.521-0.678-0.945-1.017-1.271C30.781,3.628,30.714,3.501,30.714,3.356z"/>
		<path fill="#FFFFFF" d="M66.352,8.406c0.049-0.024,0.066-0.061,0.055-0.109c0-0.037-0.024-0.055-0.072-0.055
			c-3.657,0.267-7.163,0.436-10.518,0.509c-0.157,0.012-0.296-0.037-0.417-0.146c-0.121-0.097-0.182-0.242-0.182-0.436
			c0-0.169,0.055-0.296,0.164-0.381c0.109-0.097,0.254-0.139,0.436-0.127c3.415-0.109,6.921-0.278,10.518-0.509
			c0.642-0.048,1.035,0.188,1.181,0.708c0.169,0.593,0.012,1.06-0.473,1.398l-5.304,3.959c0.617-0.206,1.132-0.309,1.544-0.309
			c1.162,0.012,1.744,0.696,1.744,2.053v1.38c0.012,0.823,0.46,1.235,1.344,1.235c0.727,0,1.58-0.072,2.562-0.218
			c0.169-0.024,0.309,0.006,0.417,0.091c0.098,0.084,0.151,0.224,0.164,0.418c-0.013,0.205-0.073,0.351-0.182,0.436
			c-0.121,0.085-0.255,0.133-0.399,0.146c-0.872,0.146-1.726,0.218-2.562,0.218c-1.623-0.012-2.434-0.787-2.434-2.325v-1.38
			c0-0.643-0.219-0.963-0.654-0.963c-1.574,0-3.603,0.872-6.085,2.615l-0.072,0.055l-0.037,0.019l-0.145,0.108l-0.109,0.073
			l-0.019,0.018l-0.054,0.036l-0.019,0.019l-1.58,1.181l-0.019,0.019l-0.236,0.163c-0.073,0.061-0.115,0.097-0.127,0.109
			c-0.145,0.097-0.278,0.145-0.399,0.145c-0.133,0-0.254-0.061-0.363-0.182s-0.164-0.254-0.164-0.399
			c0.012-0.157,0.073-0.278,0.182-0.363l0.037-0.036l0.036-0.019l0.018-0.018L66.352,8.406z M65.499,4.028
			c0.182,0.024,0.315,0.079,0.399,0.164c0.085,0.109,0.128,0.254,0.128,0.436c-0.024,0.17-0.098,0.297-0.219,0.382
			c-0.108,0.084-0.26,0.109-0.454,0.072c-2.664-0.254-5.11-0.581-7.338-0.98c-0.157-0.012-0.291-0.073-0.399-0.182
			c-0.098-0.097-0.14-0.236-0.127-0.418c0.012-0.182,0.078-0.315,0.199-0.399c0.134-0.085,0.291-0.103,0.473-0.055
			C60.498,3.471,62.944,3.798,65.499,4.028z"/>
		<path fill="#FFFFFF" d="M102.371,3.992c0.072,0.388-0.098,0.745-0.509,1.072l-5.594,4.414c0.812-0.182,1.841-0.272,3.088-0.272
			c1.937,0.012,3.432,0.442,4.486,1.29c1.029,0.835,1.55,1.859,1.563,3.069c0,0.013,0,0.037,0,0.073
			c0.012,0.012,0.018,0.024,0.018,0.036h-0.018c-0.036,1.756-0.806,3.106-2.307,4.051c-1.393,0.848-3.076,1.277-5.049,1.289
			c-4.057-0.024-6.085-0.962-6.085-2.815c0.012-0.581,0.242-1.053,0.69-1.416c0.496-0.4,1.187-0.6,2.07-0.6
			c1.368,0,2.513,0.418,3.433,1.253c0.908,0.787,1.478,1.568,1.708,2.344c0.98-0.194,1.852-0.527,2.615-0.999
			c1.211-0.775,1.822-1.841,1.835-3.197c-0.024-0.836-0.424-1.568-1.199-2.198c-0.872-0.726-2.125-1.089-3.759-1.089
			c-2.155,0.012-3.724,0.315-4.704,0.907c-0.376,0.182-1.515,0.933-3.415,2.253c0.048-0.049,0.048-0.049,0,0
			c0.012-0.036,0.012-0.036,0,0c-0.157,0.108-0.315,0.157-0.473,0.146c-0.157-0.024-0.278-0.109-0.363-0.255
			c-0.072-0.133-0.103-0.272-0.091-0.418c0.024-0.145,0.134-0.278,0.327-0.399c0.012-0.012,0.024-0.018,0.036-0.018l0.019-0.019
			l0.018-0.019l9.555-7.537c0.146-0.084,0.212-0.169,0.2-0.254c0-0.073-0.055-0.115-0.164-0.127h-8.373
			c-0.146-0.012-0.272-0.061-0.382-0.146c-0.121-0.097-0.182-0.242-0.182-0.436c0.024-0.157,0.079-0.278,0.163-0.363
			c0.109-0.097,0.242-0.145,0.4-0.145h9.953C102.122,3.478,102.286,3.653,102.371,3.992z M98.048,17.923
			c0.242-0.012,0.479-0.018,0.708-0.018c-0.254-0.545-0.715-1.108-1.38-1.689c-0.751-0.63-1.635-0.944-2.652-0.944
			c-0.63,0-1.078,0.091-1.344,0.272c-0.219,0.17-0.327,0.388-0.327,0.653C93.065,17.336,94.73,17.911,98.048,17.923z"/>
		<path fill="#FFFFFF" d="M129.308,11.33c0.133-0.037,0.261-0.013,0.382,0.072c0.12,0.072,0.205,0.182,0.254,0.327
			c0.048,0.146,0.019,0.29-0.091,0.436c-1.478,1.235-2.216,2.289-2.216,3.161c0,1.501,1.635,2.252,4.904,2.252
			c2.301-0.012,5.231-0.261,8.791-0.745c0.134-0.024,0.261-0.012,0.382,0.037c0.133,0.084,0.218,0.205,0.254,0.363
			c0.036,0.169,0.019,0.309-0.055,0.417c-0.084,0.121-0.206,0.206-0.363,0.255c-3.572,0.509-6.575,0.763-9.009,0.763
			c-3.996,0-5.994-1.114-5.994-3.342c0-1.139,0.805-2.386,2.416-3.742C129.083,11.463,129.198,11.378,129.308,11.33z M139.643,4.646
			c0.206,0.024,0.37,0.079,0.491,0.163c0.133,0.109,0.193,0.261,0.182,0.454c-0.037,0.194-0.115,0.327-0.236,0.4
			c-0.109,0.073-0.242,0.091-0.399,0.054c-3.876-0.46-7.6-0.327-11.171,0.4c-0.146,0.036-0.272,0.03-0.382-0.018
			c-0.146-0.073-0.225-0.206-0.236-0.4c-0.012-0.193,0.024-0.345,0.109-0.454c0.097-0.121,0.254-0.188,0.472-0.2
			C132.093,4.295,135.816,4.162,139.643,4.646z M142.149,5.463c0.024,0.133,0.012,0.26-0.036,0.381
			c-0.072,0.097-0.17,0.182-0.291,0.254c-0.133,0.048-0.26,0.048-0.381,0c-0.098-0.037-0.17-0.109-0.218-0.218
			c-0.303-1.029-0.733-1.998-1.29-2.906c-0.024-0.084-0.012-0.188,0.036-0.309c0.061-0.121,0.151-0.206,0.272-0.254
			c0.134-0.073,0.255-0.091,0.363-0.055c0.097,0.049,0.182,0.115,0.255,0.2C141.417,3.429,141.847,4.398,142.149,5.463z
			 M142.677,2.121c0.557,0.86,0.986,1.804,1.289,2.833c0.036,0.133,0.019,0.261-0.055,0.381c-0.048,0.097-0.145,0.182-0.29,0.254
			c-0.134,0.048-0.261,0.048-0.382,0c-0.085-0.036-0.151-0.109-0.199-0.218c-0.303-1.005-0.733-1.95-1.29-2.834
			c-0.036-0.084-0.03-0.182,0.019-0.291c0.072-0.109,0.169-0.2,0.29-0.272c0.134-0.073,0.255-0.084,0.363-0.036
			C142.519,1.976,142.604,2.037,142.677,2.121z"/>
		<path fill="#FFFFFF" d="M173.737,5.082c-0.013,1.49-0.279,3.04-0.8,4.65c1.453,0.266,2.949,0.727,4.486,1.379v-4.25
			c-0.012-0.327,0.17-0.49,0.545-0.49c0.363,0,0.545,0.163,0.545,0.49v4.722c0.739,0.327,1.478,0.696,2.217,1.108
			c0.302,0.133,0.375,0.381,0.218,0.744c-0.17,0.327-0.406,0.399-0.709,0.218c-0.605-0.326-1.187-0.617-1.743-0.871
			c-0.17,3.947-2.295,6.212-6.376,6.793c-0.363,0.048-0.569-0.097-0.617-0.436c-0.036-0.376,0.108-0.588,0.436-0.636
			c3.633-0.533,5.455-2.604,5.468-6.213c-1.695-0.75-3.313-1.259-4.85-1.525c-0.352,0.835-0.751,1.689-1.199,2.561
			c-1.514,2.809-3.069,4.214-4.668,4.214c-1.708-0.013-2.562-0.896-2.562-2.652c0.012-1.599,0.569-2.948,1.671-4.05
			c0.957-0.957,2.24-1.435,3.852-1.435c0.012-0.012,0.042-0.012,0.091,0c0-0.012,0.006-0.018,0.018-0.018v0.018
			c0.702-0.012,1.405,0.036,2.107,0.146c0.521-1.526,0.781-3.016,0.781-4.469c0-0.533-0.261-0.781-0.781-0.745l-5.031,0.272
			c-0.352,0-0.533-0.169-0.545-0.508c-0.013-0.375,0.169-0.569,0.545-0.582l5.031-0.272C173.113,3.187,173.737,3.798,173.737,5.082z
			 M166.689,16.452c1.223-0.012,2.477-1.241,3.76-3.688c0.388-0.738,0.732-1.459,1.035-2.161c-0.593-0.073-1.198-0.109-1.816-0.109
			c-1.308,0-2.295,0.333-2.961,0.999c-0.992,0.944-1.489,2.077-1.489,3.396C165.218,15.932,165.708,16.452,166.689,16.452z"/>
	</g>
	<g display="inline">
	</g>
</g>
<g id="レイヤー_2" display="none">
	<g display="inline">
		<path fill="#FFFFFF" d="M41.055,19.371c-0.098,0.098-0.227,0.152-0.386,0.166c-0.147-0.014-0.275-0.063-0.386-0.148
			c-0.098-0.109-0.147-0.256-0.147-0.439v-6.871c-0.135,0.257-0.245,0.484-0.331,0.68c-0.539,1.029-1.072,1.898-1.598,2.607
			c-0.11,0.148-0.239,0.229-0.386,0.24c-0.147,0.023-0.282-0.006-0.404-0.092c-0.135-0.111-0.208-0.227-0.221-0.35
			c-0.024-0.158,0.019-0.313,0.129-0.459c0.796-1.004,1.384-1.861,1.763-2.572c0.282-0.526,0.588-1.231,0.919-2.113H37.73
			c-0.135-0.012-0.263-0.061-0.386-0.147c-0.123-0.098-0.184-0.226-0.184-0.386c0.012-0.184,0.061-0.318,0.147-0.404
			c0.122-0.098,0.263-0.147,0.422-0.147h2.407V3.002c0-0.184,0.043-0.318,0.128-0.404c0.11-0.098,0.245-0.147,0.404-0.147
			c0.147,0.012,0.275,0.061,0.386,0.147c0.11,0.11,0.166,0.245,0.166,0.404v5.934h2.167c0.123,0,0.245,0.043,0.368,0.128
			c0.122,0.098,0.184,0.227,0.184,0.386c-0.012,0.184-0.062,0.319-0.147,0.404c-0.123,0.11-0.257,0.165-0.404,0.165h-2.167v0.055
			c1.016,1.323,1.861,2.468,2.535,3.435c0.085,0.111,0.11,0.24,0.073,0.387c-0.012,0.146-0.092,0.264-0.239,0.35
			c-0.147,0.109-0.282,0.141-0.404,0.092c-0.11-0.025-0.227-0.129-0.349-0.313c-0.441-0.711-0.98-1.513-1.617-2.406v7.33
			C41.221,19.119,41.166,19.26,41.055,19.371z M37.399,3.939c0.049-0.122,0.147-0.208,0.294-0.257
			c0.159-0.061,0.3-0.055,0.422,0.019c0.135,0.074,0.227,0.19,0.276,0.349c0.085,0.27,0.208,0.759,0.367,1.47
			c0.159,0.686,0.276,1.304,0.349,1.855c0.024,0.171-0.006,0.318-0.092,0.441c-0.074,0.123-0.19,0.19-0.349,0.202
			S38.373,8,38.263,7.926c-0.123-0.098-0.19-0.239-0.202-0.422c-0.074-0.526-0.19-1.121-0.349-1.782
			C37.54,5.023,37.43,4.577,37.381,4.38C37.344,4.233,37.351,4.086,37.399,3.939z M43.094,3.811c0.11-0.085,0.239-0.123,0.386-0.11
			c0.171,0.025,0.3,0.092,0.386,0.202c0.086,0.135,0.11,0.282,0.074,0.441C43.89,4.638,43.774,5.14,43.59,5.85
			c-0.159,0.698-0.331,1.311-0.514,1.837c-0.074,0.184-0.172,0.3-0.294,0.349c-0.123,0.062-0.257,0.067-0.404,0.019
			c-0.159-0.049-0.264-0.135-0.313-0.257c-0.049-0.147-0.049-0.3,0-0.459c0.184-0.514,0.355-1.108,0.515-1.782
			c0.171-0.71,0.275-1.164,0.312-1.359C42.917,4.025,42.984,3.897,43.094,3.811z M45.317,3.535c0.257-0.269,0.63-0.404,1.121-0.404
			h5.217c0.502,0,0.882,0.135,1.139,0.404c0.27,0.245,0.404,0.625,0.404,1.139v13.154h0.478c0.123,0,0.245,0.043,0.368,0.129
			c0.122,0.098,0.184,0.227,0.184,0.385c-0.012,0.184-0.062,0.318-0.147,0.404c-0.123,0.111-0.257,0.166-0.404,0.166h-9.773
			c-0.135-0.014-0.264-0.063-0.386-0.146c-0.123-0.1-0.184-0.229-0.184-0.387c0.012-0.184,0.062-0.318,0.147-0.404
			c0.123-0.098,0.263-0.146,0.423-0.146h1.01V4.656C44.913,4.203,45.048,3.829,45.317,3.535z M46.842,4.215
			c-0.27,0-0.478,0.08-0.625,0.239c-0.147,0.147-0.22,0.349-0.22,0.606v2.774h6.117V5.17c0-0.306-0.073-0.539-0.22-0.698
			c-0.184-0.171-0.429-0.257-0.735-0.257H46.842z M45.997,8.918v3.986h6.117V8.918H45.997z M45.997,13.988v3.84h6.117v-3.84H45.997z
			"/>
		<path fill="#FFFFFF" d="M82.793,6.438c0.024-0.368,0.037-0.753,0.037-1.157V3.076c0.012-0.184,0.061-0.331,0.147-0.441
			c0.098-0.098,0.227-0.147,0.386-0.147C83.522,2.5,83.645,2.55,83.73,2.635c0.122,0.098,0.184,0.245,0.184,0.441v2.205
			c-0.025,0.392-0.043,0.778-0.055,1.157h7.146c0.123,0,0.245,0.043,0.368,0.128c0.122,0.098,0.184,0.227,0.184,0.386
			c-0.012,0.184-0.062,0.319-0.147,0.404c-0.123,0.11-0.257,0.166-0.404,0.166h-6.981c0.024,0.147,0.043,0.282,0.055,0.404
			c0.233,1.899,0.809,3.57,1.727,5.016c0.723,1.115,1.567,2.156,2.535,3.123c0.882,0.857,1.929,1.658,3.141,2.406
			c0.171,0.109,0.264,0.244,0.276,0.404c0.012,0.158-0.025,0.301-0.11,0.422c-0.098,0.148-0.22,0.227-0.367,0.24
			c-0.16,0.023-0.319-0.02-0.478-0.129c-1.274-0.82-2.357-1.678-3.251-2.572c-1.053-1.09-1.954-2.229-2.7-3.418
			c-0.71-1.113-1.219-2.338-1.525-3.673c-0.062,0.233-0.129,0.478-0.202,0.735c-0.282,0.919-0.667,1.819-1.157,2.7
			c-0.441,0.797-0.888,1.506-1.341,2.131c-0.478,0.637-0.998,1.201-1.562,1.691c-0.588,0.537-1.176,0.979-1.764,1.322
			c-0.6,0.367-1.072,0.648-1.415,0.844c-0.184,0.086-0.337,0.123-0.459,0.111c-0.135-0.025-0.245-0.098-0.331-0.221
			c-0.098-0.123-0.141-0.258-0.129-0.404c0.024-0.172,0.116-0.301,0.276-0.385c0.404-0.197,0.869-0.447,1.396-0.754
			c0.551-0.33,1.108-0.754,1.672-1.268c0.49-0.453,0.979-0.992,1.47-1.617c0.514-0.625,0.998-1.365,1.451-2.223
			c0.441-0.796,0.759-1.58,0.955-2.351c0.208-0.735,0.374-1.549,0.496-2.443c0-0.049,0-0.08,0-0.092h-7.109
			C75.439,7.51,75.31,7.46,75.188,7.375c-0.123-0.098-0.184-0.227-0.184-0.386c0.012-0.184,0.061-0.318,0.147-0.404
			c0.122-0.098,0.263-0.147,0.422-0.147H82.793z"/>
		<path fill="#FFFFFF" d="M115.714,11.27c0.134-0.037,0.263-0.012,0.386,0.073c0.122,0.073,0.208,0.185,0.257,0.331
			s0.019,0.293-0.092,0.44c-1.494,1.249-2.241,2.315-2.241,3.196c0,1.52,1.653,2.279,4.96,2.279
			c2.327-0.014,5.291-0.264,8.892-0.754c0.135-0.025,0.263-0.012,0.386,0.037c0.135,0.086,0.221,0.207,0.257,0.367
			c0.037,0.172,0.019,0.313-0.055,0.422c-0.086,0.123-0.209,0.209-0.367,0.258c-3.613,0.514-6.65,0.771-9.112,0.771
			c-4.041,0-6.063-1.127-6.063-3.381c0-1.15,0.814-2.412,2.443-3.783C115.486,11.404,115.604,11.318,115.714,11.27z M126.166,4.509
			c0.208,0.025,0.374,0.08,0.496,0.166c0.135,0.11,0.196,0.264,0.184,0.459c-0.036,0.196-0.116,0.331-0.238,0.404
			c-0.11,0.074-0.245,0.092-0.404,0.055c-3.919-0.465-7.686-0.331-11.298,0.404c-0.147,0.037-0.275,0.031-0.386-0.019
			c-0.147-0.073-0.227-0.208-0.239-0.404c-0.012-0.196,0.024-0.349,0.11-0.459c0.098-0.122,0.258-0.19,0.478-0.202
			C118.53,4.154,122.296,4.02,126.166,4.509z M128.701,5.336c0.024,0.135,0.013,0.263-0.036,0.386
			c-0.073,0.098-0.172,0.184-0.294,0.257c-0.135,0.049-0.264,0.049-0.386,0c-0.099-0.037-0.172-0.11-0.221-0.22
			c-0.307-1.041-0.741-2.021-1.305-2.939c-0.024-0.085-0.012-0.189,0.037-0.312c0.062-0.123,0.153-0.208,0.275-0.257
			c0.135-0.074,0.258-0.092,0.367-0.055c0.099,0.049,0.185,0.117,0.258,0.202C127.96,3.278,128.396,4.258,128.701,5.336z
			 M129.234,1.956c0.563,0.87,0.998,1.825,1.305,2.866c0.036,0.135,0.018,0.264-0.056,0.386c-0.049,0.098-0.146,0.184-0.294,0.257
			c-0.135,0.049-0.264,0.049-0.386,0c-0.086-0.037-0.153-0.11-0.202-0.221c-0.306-1.016-0.741-1.972-1.304-2.866
			c-0.037-0.085-0.031-0.184,0.018-0.294c0.074-0.11,0.172-0.202,0.294-0.275c0.135-0.074,0.258-0.085,0.368-0.037
			C129.075,1.809,129.161,1.87,129.234,1.956z"/>
		<path fill="#FFFFFF" d="M160.648,4.95c-0.013,1.507-0.282,3.074-0.809,4.703c1.47,0.27,2.982,0.735,4.537,1.396V6.75
			c-0.012-0.331,0.172-0.496,0.552-0.496c0.367,0,0.551,0.165,0.551,0.496v4.777c0.747,0.33,1.494,0.703,2.241,1.119
			c0.306,0.135,0.38,0.387,0.221,0.754c-0.172,0.33-0.41,0.404-0.717,0.221c-0.612-0.33-1.2-0.625-1.764-0.883
			c-0.172,3.994-2.32,6.283-6.448,6.871c-0.367,0.049-0.575-0.098-0.624-0.441c-0.037-0.379,0.11-0.594,0.44-0.643
			c3.675-0.539,5.518-2.633,5.53-6.282c-1.715-0.759-3.351-1.274-4.905-1.543c-0.355,0.845-0.76,1.708-1.213,2.591
			c-1.531,2.84-3.104,4.262-4.721,4.262c-1.728-0.014-2.591-0.906-2.591-2.684c0.013-1.615,0.576-2.98,1.69-4.096
			c0.968-0.967,2.266-1.451,3.895-1.451c0.012-0.012,0.043-0.012,0.092,0c0-0.012,0.006-0.019,0.019-0.019v0.019
			c0.71-0.012,1.421,0.037,2.131,0.147c0.526-1.543,0.79-3.05,0.79-4.52c0-0.539-0.264-0.79-0.79-0.753l-5.089,0.275
			c-0.355,0-0.539-0.171-0.551-0.514c-0.013-0.379,0.171-0.576,0.551-0.588l5.089-0.276C160.018,3.033,160.648,3.652,160.648,4.95z
			 M153.521,16.449c1.236-0.012,2.504-1.254,3.803-3.729c0.392-0.747,0.74-1.476,1.047-2.186c-0.601-0.074-1.213-0.11-1.837-0.11
			c-1.323,0-2.321,0.337-2.994,1.01c-1.005,0.956-1.507,2.101-1.507,3.435C152.032,15.924,152.528,16.449,153.521,16.449z"/>
	</g>
</g>
<g id="レイヤー_3">
	<g>
		<path fill="#FFFFFF" d="M5.676,6.267c0.111,0,0.222,0.056,0.333,0.167c0.089,0.111,0.139,0.233,0.15,0.366
			c0,0.111-0.056,0.222-0.167,0.333C5.681,7.42,5.304,7.714,4.86,8.013C4.217,8.468,3.563,8.862,2.897,9.194
			c-0.144,0.078-0.271,0.1-0.382,0.066c-0.133-0.055-0.233-0.138-0.299-0.25C2.149,8.867,2.132,8.74,2.166,8.629
			c0.034-0.122,0.117-0.216,0.25-0.283c0.599-0.311,1.187-0.654,1.764-1.032C4.688,6.96,5.065,6.66,5.31,6.417
			C5.42,6.316,5.542,6.267,5.676,6.267z M15.224,9.693c0.222,0.255,0.327,0.582,0.316,0.981v4.758
			c-0.033,0.399-0.172,0.721-0.416,0.965c-0.233,0.21-0.532,0.315-0.898,0.315l0.017,0.017h-1.431
			c0.377,0.067,0.998,0.188,1.863,0.366c0.898,0.188,1.697,0.389,2.395,0.599c0.155,0.056,0.266,0.139,0.333,0.25
			c0.055,0.1,0.061,0.222,0.017,0.366c-0.033,0.144-0.105,0.238-0.216,0.282c-0.133,0.056-0.272,0.062-0.416,0.017
			c-0.699-0.222-1.486-0.421-2.362-0.599c-0.932-0.188-1.536-0.305-1.813-0.35c-0.144-0.011-0.266-0.066-0.366-0.166
			c-0.078-0.1-0.111-0.216-0.1-0.35c0.011-0.155,0.072-0.271,0.183-0.349c0.033-0.034,0.072-0.056,0.116-0.067H7.389
			c0.055,0.045,0.105,0.117,0.149,0.217c0.044,0.144,0.044,0.271,0,0.383c-0.066,0.11-0.172,0.199-0.316,0.266
			c-1.231,0.488-2.684,0.837-4.358,1.048c-0.166,0.022-0.299-0.006-0.399-0.083c-0.123-0.077-0.189-0.188-0.2-0.333
			c-0.022-0.144,0.005-0.266,0.083-0.365c0.078-0.122,0.205-0.188,0.383-0.2c1.53-0.177,2.867-0.488,4.009-0.932H5.676
			c-0.377,0-0.699-0.116-0.965-0.349c-0.266-0.233-0.399-0.549-0.399-0.948v-4.758C4.3,10.275,4.417,9.954,4.661,9.71
			c0.277-0.277,0.615-0.416,1.015-0.416h8.567C14.653,9.316,14.98,9.45,15.224,9.693z M2.615,3.854
			c-0.044-0.111-0.044-0.238,0-0.382c0.056-0.144,0.139-0.239,0.25-0.283c0.144-0.033,0.289-0.027,0.433,0.017
			c0.643,0.222,1.32,0.582,2.029,1.081c0.133,0.111,0.216,0.222,0.25,0.333C5.598,4.753,5.57,4.886,5.493,5.019
			c-0.078,0.122-0.183,0.188-0.316,0.2c-0.133,0.011-0.272-0.022-0.416-0.1c-0.643-0.455-1.253-0.787-1.83-0.998
			C2.765,4.054,2.659,3.965,2.615,3.854z M14.559,11.424v-0.516c-0.022-0.21-0.089-0.372-0.2-0.482
			c-0.122-0.111-0.266-0.161-0.432-0.15H5.925c-0.2,0-0.355,0.05-0.466,0.15c-0.111,0.122-0.167,0.283-0.167,0.482v0.516H14.559z
			 M14.559,13.553v-1.147H5.293v1.147H14.559z M5.293,14.534v0.582c0,0.2,0.056,0.355,0.167,0.466
			c0.111,0.122,0.266,0.178,0.466,0.166h7.901c0.233-0.011,0.399-0.055,0.499-0.133c0.144-0.122,0.222-0.288,0.233-0.499v-0.582
			H5.293z M16.721,4.586c0.1,0.388-0.006,0.782-0.316,1.181c-0.1,0.155-0.2,0.289-0.3,0.399c-0.122,0.133-0.238,0.255-0.349,0.366
			c-0.122,0.111-0.239,0.189-0.349,0.233c-0.145,0.033-0.272-0.005-0.383-0.116c-0.133-0.133-0.2-0.239-0.2-0.316
			c0.022-0.144,0.072-0.271,0.15-0.382l0.449-0.499c0.1-0.144,0.127-0.272,0.083-0.383c-0.056-0.122-0.155-0.183-0.299-0.183h-3.21
			c0.188,0.422,0.432,0.821,0.732,1.198c0.354,0.389,0.688,0.705,0.998,0.948c0.354,0.255,0.887,0.505,1.597,0.749
			c0.41,0.122,0.954,0.222,1.63,0.299c0.177,0.022,0.305,0.083,0.382,0.183c0.078,0.1,0.111,0.222,0.1,0.366
			c-0.022,0.144-0.083,0.255-0.183,0.333c-0.111,0.078-0.25,0.111-0.416,0.1c-0.787-0.088-1.53-0.266-2.229-0.532
			c-0.599-0.222-1.114-0.499-1.547-0.832C12.718,7.431,12.34,7.06,11.93,6.583c-0.155-0.188-0.289-0.371-0.399-0.549
			c-0.044,0.1-0.089,0.206-0.133,0.316c-0.255,0.533-0.604,0.971-1.048,1.314C9.962,7.986,9.463,8.219,8.853,8.363
			c-0.588,0.155-1.37,0.255-2.346,0.299C6.33,8.695,6.191,8.657,6.091,8.545C6.002,8.435,5.958,8.313,5.958,8.18
			c0.011-0.167,0.066-0.283,0.167-0.35C6.247,7.764,6.38,7.714,6.524,7.681c0.909-0.044,1.569-0.122,1.979-0.233
			c0.488-0.122,0.915-0.333,1.281-0.632c0.244-0.2,0.432-0.405,0.565-0.615c0.133-0.222,0.25-0.466,0.349-0.732
			c0.044-0.177,0.089-0.372,0.133-0.583H8.503C8.393,5.063,8.282,5.224,8.171,5.368C7.849,5.79,7.533,6.123,7.223,6.366
			C7.09,6.466,6.951,6.511,6.807,6.5C6.674,6.478,6.568,6.417,6.491,6.316c-0.078-0.133-0.111-0.255-0.1-0.366
			c0.033-0.133,0.105-0.255,0.216-0.366c0.354-0.288,0.648-0.587,0.881-0.898C7.766,4.32,8.004,3.904,8.204,3.438
			c0.066-0.155,0.167-0.255,0.299-0.299C8.614,3.106,8.736,3.112,8.87,3.156c0.133,0.067,0.222,0.156,0.266,0.266
			C9.18,3.566,9.163,3.71,9.086,3.854c-0.011,0.022-0.022,0.039-0.033,0.05h6.903C16.389,3.96,16.644,4.188,16.721,4.586z"/>
		<path fill="#FFFFFF" d="M27.667,8.13c-0.022-0.133,0.005-0.255,0.083-0.366c0.088-0.133,0.188-0.205,0.299-0.216
			c0.133-0.011,0.271,0.022,0.416,0.1c0.654,0.399,1.331,0.965,2.03,1.697c0.111,0.122,0.166,0.25,0.166,0.382
			c0,0.133-0.05,0.255-0.149,0.366c-0.122,0.1-0.239,0.144-0.35,0.133c-0.144-0.011-0.271-0.072-0.382-0.183
			c-0.621-0.676-1.237-1.203-1.847-1.58C27.789,8.385,27.7,8.274,27.667,8.13z M30.063,11.79c0.1-0.078,0.222-0.111,0.366-0.101
			c0.133,0.033,0.238,0.101,0.316,0.2c0.066,0.11,0.094,0.249,0.083,0.416c-0.244,1.386-0.555,2.528-0.932,3.426
			c-0.399,0.987-0.832,1.803-1.297,2.445c-0.089,0.145-0.206,0.222-0.349,0.233c-0.123,0.021-0.239-0.006-0.35-0.083
			c-0.122-0.101-0.188-0.206-0.2-0.316c-0.022-0.145,0.017-0.283,0.117-0.416c0.554-0.843,0.987-1.652,1.297-2.429
			c0.377-0.909,0.621-1.913,0.732-3.011C29.879,11.989,29.952,11.867,30.063,11.79z M28.133,4.087
			c-0.022-0.122,0.005-0.25,0.083-0.382c0.067-0.133,0.167-0.205,0.3-0.216c0.133-0.022,0.266,0.005,0.399,0.083
			c0.688,0.411,1.386,0.981,2.096,1.713c0.122,0.133,0.183,0.255,0.183,0.366c0,0.133-0.05,0.255-0.15,0.366
			s-0.216,0.161-0.349,0.15c-0.123-0.011-0.25-0.072-0.383-0.183c-0.643-0.676-1.281-1.198-1.913-1.564
			C28.255,4.332,28.166,4.221,28.133,4.087z M42.921,3.838c0.1,0.1,0.149,0.216,0.149,0.35c0,0.177-0.05,0.299-0.149,0.366
			c-0.123,0.089-0.255,0.133-0.399,0.133h-3.66c0,0.022,0,0.05,0,0.083c-0.056,0.444-0.172,0.932-0.349,1.464h2.545
			c0.41,0.022,0.737,0.155,0.981,0.399c0.222,0.255,0.327,0.582,0.316,0.981v3.56c-0.033,0.399-0.172,0.722-0.416,0.965
			c-0.233,0.211-0.533,0.316-0.898,0.316l0.017,0.017h-2.163v3.742c-0.011,0.399-0.033,0.704-0.066,0.915
			c-0.044,0.222-0.122,0.455-0.233,0.699c-0.133,0.21-0.305,0.354-0.516,0.433c-0.211,0.077-0.449,0.121-0.715,0.133
			c-0.366,0.021-0.882-0.033-1.547-0.167c-0.156-0.033-0.272-0.105-0.35-0.216c-0.056-0.111-0.078-0.232-0.066-0.366
			c0.033-0.144,0.105-0.255,0.216-0.332c0.1-0.067,0.238-0.078,0.416-0.033c0.521,0.077,0.871,0.116,1.048,0.116
			c0.166-0.012,0.321-0.05,0.466-0.116c0.133-0.056,0.222-0.184,0.266-0.383c0.055-0.188,0.088-0.433,0.1-0.732v-3.692h-2.029
			c-0.377,0-0.699-0.116-0.965-0.35c-0.266-0.232-0.399-0.549-0.399-0.948v-3.56c-0.011-0.399,0.105-0.721,0.35-0.965
			c0.277-0.277,0.615-0.416,1.015-0.416h1.58c0.222-0.565,0.355-1.082,0.399-1.547h-3.893c-0.488,0.011-0.732,0.255-0.732,0.732
			v5.339c0,1.498-0.116,2.795-0.349,3.893c-0.244,1.209-0.721,2.317-1.431,3.327c-0.1,0.144-0.222,0.222-0.366,0.232
			c-0.122,0.012-0.238-0.021-0.349-0.1c-0.122-0.1-0.189-0.205-0.2-0.315c-0.011-0.122,0.033-0.256,0.133-0.399
			c0.632-0.932,1.053-1.936,1.264-3.011c0.21-0.987,0.316-2.296,0.316-3.926V5.085c0.011-0.421,0.122-0.765,0.333-1.031
			c0.222-0.233,0.571-0.349,1.048-0.349h8.883C42.677,3.716,42.81,3.76,42.921,3.838z M35.369,13.47
			c0.11-0.066,0.222-0.083,0.333-0.05c0.122,0.033,0.216,0.1,0.283,0.199c0.067,0.122,0.078,0.255,0.033,0.399
			c-0.111,0.354-0.271,0.771-0.482,1.247c-0.21,0.455-0.438,0.871-0.682,1.248c-0.244,0.399-0.472,0.704-0.682,0.915
			c-0.111,0.122-0.222,0.183-0.333,0.183c-0.122,0-0.232-0.039-0.333-0.116c-0.089-0.1-0.139-0.205-0.15-0.316
			c0-0.122,0.05-0.238,0.15-0.349c0.366-0.433,0.688-0.904,0.965-1.414c0.277-0.555,0.504-1.104,0.682-1.647
			C35.186,13.613,35.258,13.514,35.369,13.47z M41.374,8.762V7.847c-0.022-0.211-0.089-0.372-0.2-0.482
			c-0.122-0.111-0.266-0.161-0.432-0.15h-4.608c-0.2,0-0.355,0.05-0.466,0.15c-0.111,0.122-0.167,0.283-0.167,0.482v0.915H41.374z
			 M35.502,9.743v1.115c0,0.2,0.056,0.355,0.167,0.466c0.111,0.122,0.266,0.177,0.466,0.166h4.508
			c0.233-0.011,0.399-0.056,0.499-0.133c0.144-0.122,0.222-0.288,0.233-0.5V9.743H35.502z M40.625,14.234
			c-0.1-0.133-0.133-0.266-0.1-0.398c0.033-0.134,0.105-0.239,0.216-0.316c0.133-0.077,0.255-0.1,0.366-0.066
			c0.144,0.033,0.255,0.116,0.333,0.249c0.587,0.865,1.098,1.936,1.53,3.211c0.055,0.166,0.061,0.305,0.017,0.416
			c-0.056,0.133-0.155,0.222-0.299,0.266c-0.133,0.033-0.255,0.027-0.366-0.017c-0.122-0.056-0.216-0.166-0.283-0.333
			C41.64,16.048,41.169,15.044,40.625,14.234z"/>
		<path fill="#FFFFFF" d="M57.177,18.477c-0.089,0.089-0.205,0.139-0.349,0.149c-0.133-0.011-0.25-0.056-0.349-0.133
			c-0.089-0.1-0.133-0.232-0.133-0.399v-4.94c-0.666,0.355-1.32,0.683-1.963,0.981c-0.144,0.066-0.272,0.078-0.383,0.033
			c-0.144-0.056-0.238-0.139-0.283-0.249c-0.066-0.155-0.083-0.288-0.05-0.399c0.044-0.111,0.133-0.2,0.266-0.267
			c0.81-0.377,1.614-0.787,2.412-1.23V7.082h-1.497c-0.066,0.477-0.15,0.938-0.25,1.381c-0.133,0.565-0.283,1.087-0.449,1.563
			c-0.078,0.156-0.172,0.255-0.283,0.3c-0.133,0.044-0.255,0.044-0.366,0c-0.133-0.056-0.222-0.133-0.266-0.233
			c-0.044-0.133-0.044-0.283,0-0.449c0.155-0.388,0.289-0.837,0.399-1.348c0.144-0.587,0.238-1.164,0.283-1.73
			c0.066-0.699,0.1-1.27,0.1-1.713V4.188c0.011-0.167,0.056-0.3,0.133-0.399c0.089-0.089,0.205-0.133,0.349-0.133
			c0.144,0.011,0.255,0.056,0.333,0.133c0.111,0.089,0.166,0.222,0.166,0.399v0.665c0,0.355-0.022,0.771-0.066,1.248h1.414V3.655
			c0-0.166,0.039-0.288,0.116-0.366c0.1-0.089,0.222-0.133,0.366-0.133c0.133,0.011,0.25,0.056,0.349,0.133
			c0.1,0.1,0.15,0.222,0.15,0.366V6.1h1.165c0.111,0,0.222,0.039,0.333,0.117c0.111,0.089,0.167,0.205,0.167,0.349
			c-0.011,0.167-0.056,0.289-0.133,0.366c-0.111,0.1-0.233,0.149-0.366,0.149h-1.165v4.309c0.421-0.3,0.765-0.566,1.031-0.799
			c0.111-0.1,0.233-0.144,0.366-0.133c0.122,0.011,0.233,0.072,0.333,0.183c0.089,0.111,0.133,0.233,0.133,0.366
			c-0.011,0.122-0.072,0.232-0.183,0.333c-0.477,0.388-1.037,0.787-1.68,1.197v5.556C57.327,18.249,57.277,18.377,57.177,18.477z
			 M67.923,12.771c-0.111,1.863-0.338,3.2-0.682,4.01c-0.322,0.775-0.771,1.27-1.348,1.48c-0.388,0.144-0.865,0.193-1.431,0.149
			c-0.532-0.066-1.137-0.172-1.813-0.316c-0.255-0.066-0.416-0.155-0.482-0.266c-0.044-0.111-0.061-0.233-0.05-0.366
			c0.022-0.155,0.088-0.271,0.199-0.35c0.089-0.066,0.216-0.083,0.383-0.05c0.61,0.166,1.148,0.283,1.614,0.35
			c0.455,0.066,0.832,0.05,1.131-0.05c0.443-0.167,0.788-0.549,1.031-1.148c0.267-0.599,0.438-1.896,0.516-3.892
			c0.066-1.52,0.122-3.444,0.166-5.773c0.011-0.433-0.066-0.732-0.233-0.898c-0.188-0.155-0.405-0.233-0.648-0.233h-0.499v0.482
			v0.017v1.264c-0.011,0.788-0.056,1.486-0.133,2.096c-0.078,0.577-0.205,1.22-0.383,1.93c-0.177,0.722-0.432,1.42-0.765,2.096
			c-0.299,0.622-0.588,1.171-0.865,1.647c-0.311,0.499-0.649,0.938-1.015,1.313c-0.399,0.399-0.788,0.738-1.165,1.016
			c-0.388,0.288-0.699,0.504-0.932,0.648c-0.155,0.11-0.289,0.16-0.399,0.149c-0.133-0.011-0.238-0.072-0.316-0.183
			c-0.089-0.122-0.133-0.239-0.133-0.35c0.011-0.166,0.088-0.288,0.233-0.366c0.255-0.155,0.554-0.354,0.898-0.599
			c0.355-0.244,0.715-0.565,1.082-0.965c0.31-0.354,0.621-0.765,0.931-1.23c0.333-0.488,0.649-1.065,0.948-1.73
			c0.277-0.621,0.482-1.22,0.616-1.796c0.133-0.577,0.238-1.203,0.316-1.88c0.066-0.532,0.1-1.131,0.1-1.796V5.418h-1.447
			c-0.078,1.098-0.206,2.118-0.383,3.061c-0.266,1.275-0.704,2.429-1.314,3.46c-0.622,1.098-1.42,2.118-2.396,3.061
			c-0.145,0.145-0.266,0.216-0.366,0.216c-0.122,0-0.238-0.038-0.349-0.116c-0.111-0.1-0.172-0.205-0.183-0.316
			c-0.011-0.166,0.039-0.299,0.15-0.398c0.987-0.987,1.796-2.029,2.429-3.128c0.521-0.931,0.898-1.968,1.131-3.11
			c0.155-0.81,0.255-1.719,0.3-2.728h-1.381c-0.111,0.632-0.25,1.197-0.416,1.697c-0.311,0.987-0.665,1.802-1.064,2.445
			c-0.089,0.144-0.2,0.232-0.333,0.266c-0.133,0.022-0.255,0-0.366-0.067c-0.122-0.088-0.2-0.188-0.233-0.299
			c-0.022-0.133,0.005-0.271,0.083-0.416c0.488-0.842,0.854-1.652,1.098-2.429c0.288-0.898,0.455-1.879,0.499-2.944
			c0.011-0.177,0.072-0.305,0.183-0.382c0.088-0.078,0.205-0.117,0.349-0.117c0.144,0.034,0.255,0.089,0.333,0.167
			c0.088,0.111,0.127,0.25,0.116,0.416c-0.044,0.244-0.072,0.471-0.083,0.682h5.14c0.377,0.011,0.704,0.072,0.981,0.183
			c0.288,0.122,0.504,0.338,0.648,0.649c0.144,0.289,0.211,0.688,0.2,1.198C68.09,8.862,68.023,10.963,67.923,12.771z"/>
		<path fill="#FFFFFF" d="M84.908,3.555c0.111-0.122,0.222-0.188,0.333-0.2c0.144-0.011,0.271,0.033,0.382,0.133
			c0.111,0.122,0.161,0.238,0.15,0.349c0,0.145-0.033,0.255-0.1,0.333c-2.018,2.251-3.027,4.498-3.027,6.737
			c0.011,2.241,1.02,4.481,3.027,6.72c0.1,0.111,0.144,0.238,0.133,0.383c0,0.155-0.05,0.271-0.15,0.35
			c-0.111,0.089-0.238,0.127-0.382,0.116c-0.133,0-0.255-0.072-0.366-0.216c-2.173-2.462-3.26-4.913-3.26-7.353
			C81.647,8.446,82.734,5.995,84.908,3.555z"/>
		<path fill="#FFFFFF" d="M97.135,17.694c-0.399-0.21-0.599-0.604-0.599-1.181V4.237c0-0.111,0.039-0.216,0.117-0.316
			c0.088-0.1,0.205-0.149,0.349-0.149c0.155,0,0.283,0.05,0.383,0.149c0.1,0.1,0.149,0.206,0.149,0.316V9.46
			c0.754-0.111,1.702-0.288,2.845-0.532c1.874-0.433,3.959-1.17,6.254-2.212c0.2-0.111,0.366-0.15,0.499-0.117
			c0.122,0.034,0.217,0.117,0.283,0.25c0.066,0.133,0.077,0.272,0.033,0.416c-0.033,0.111-0.155,0.216-0.366,0.316
			c-2.218,1.043-4.298,1.797-6.238,2.263c-1.331,0.311-2.435,0.516-3.311,0.615v6.055c0,0.178,0.133,0.305,0.399,0.383
			c0.299,0.089,0.804,0.133,1.514,0.133h8.284c0.178-0.011,0.322,0.022,0.433,0.1c0.134,0.078,0.205,0.184,0.217,0.316
			c0,0.166-0.039,0.3-0.116,0.399c-0.123,0.11-0.272,0.172-0.449,0.183h-8.368C98.338,18.017,97.567,17.905,97.135,17.694z
			 M108.679,5.834c0.022,0.111,0.012,0.222-0.033,0.333c-0.044,0.1-0.133,0.183-0.266,0.25c-0.122,0.056-0.239,0.061-0.35,0.017
			c-0.089-0.056-0.155-0.122-0.199-0.2c-0.311-0.987-0.749-1.902-1.314-2.745c-0.033-0.078-0.028-0.167,0.017-0.266
			c0.056-0.1,0.139-0.183,0.25-0.25c0.121-0.078,0.232-0.094,0.332-0.05c0.111,0.033,0.188,0.089,0.233,0.167
			C107.925,3.91,108.368,4.825,108.679,5.834z M109.411,2.724c0.499,0.787,0.87,1.652,1.114,2.595
			c0.011,0.111-0.006,0.222-0.05,0.333s-0.133,0.188-0.266,0.232c-0.123,0.044-0.239,0.044-0.35,0
			c-0.089-0.055-0.149-0.122-0.184-0.199c-0.255-0.92-0.632-1.786-1.131-2.595c-0.022-0.088-0.011-0.183,0.033-0.283
			c0.066-0.111,0.155-0.188,0.267-0.233c0.122-0.066,0.232-0.078,0.332-0.033C109.267,2.585,109.345,2.646,109.411,2.724z"/>
		<path fill="#FFFFFF" d="M125.596,7.281c0.155,0.089,0.256,0.189,0.3,0.299c0.066,0.123,0.061,0.25-0.017,0.383
			c-0.066,0.144-0.172,0.239-0.316,0.283c-0.133,0.056-0.249,0.033-0.349-0.066c-1.32-0.81-2.812-1.431-4.475-1.863
			c-0.134-0.022-0.233-0.088-0.3-0.2c-0.066-0.11-0.078-0.25-0.033-0.416c0.056-0.155,0.139-0.255,0.249-0.3
			c0.134-0.033,0.289-0.027,0.466,0.017C122.763,5.829,124.254,6.45,125.596,7.281z M133.115,5.934
			c-0.565,2.595-1.271,4.597-2.112,6.005c-0.877,1.497-2.18,2.767-3.909,3.809c-1.741,0.998-3.793,1.78-6.155,2.346
			c-0.188,0-0.322-0.039-0.399-0.116c-0.089-0.089-0.133-0.216-0.133-0.383c0.011-0.166,0.056-0.288,0.133-0.366
			c0.089-0.077,0.222-0.122,0.399-0.133c2.296-0.632,4.181-1.386,5.656-2.262c1.53-0.943,2.717-2.102,3.56-3.477
			c0.754-1.298,1.419-3.183,1.996-5.656c0.033-0.167,0.1-0.283,0.199-0.35c0.111-0.077,0.238-0.094,0.383-0.05
			c0.155,0.044,0.267,0.122,0.333,0.233C133.132,5.657,133.148,5.79,133.115,5.934z"/>
		<path fill="#FFFFFF" d="M148.801,16.181c-0.698,0.766-1.464,1.148-2.296,1.148c-0.82,0-1.497-0.383-2.029-1.148
			c-0.576-0.843-0.865-1.946-0.865-3.31c0.012-2.451,0.705-4.475,2.08-6.072c1.353-1.552,3.077-2.329,5.173-2.329
			c2.13,0,3.859,0.665,5.19,1.996c1.319,1.331,1.979,2.95,1.979,4.858c0,1.862-0.488,3.398-1.464,4.607
			c-0.865,1.054-1.969,1.746-3.311,2.079c-0.255,0.056-0.421,0.05-0.499-0.017c-0.1-0.066-0.155-0.188-0.166-0.366
			c-0.012-0.178,0.039-0.321,0.149-0.433c0.111-0.089,0.283-0.149,0.516-0.183c1.021-0.255,1.886-0.865,2.596-1.83
			c0.787-1.064,1.181-2.351,1.181-3.858c0-1.575-0.555-2.928-1.663-4.06c-0.943-0.965-2.063-1.536-3.36-1.713
			c-0.2,2.684-0.588,4.907-1.165,6.67C150.248,14.019,149.566,15.338,148.801,16.181z M150.016,11.49
			c0.487-1.597,0.82-3.599,0.998-6.005c-0.056-0.011-0.105-0.017-0.15-0.017c-1.719,0.011-3.166,0.638-4.342,1.879
			c-1.275,1.354-1.912,3.194-1.912,5.523c0,1.098,0.199,1.963,0.599,2.595c0.366,0.576,0.798,0.865,1.297,0.865
			c0.633,0,1.22-0.35,1.764-1.049C148.9,14.495,149.483,13.231,150.016,11.49z"/>
		<path fill="#FFFFFF" d="M169.993,4.32c0.321-0.321,0.704-0.482,1.147-0.482h10.081c0.466-0.011,0.854,0.133,1.164,0.433
			c0.288,0.277,0.433,0.654,0.433,1.131v10.93c-0.022,0.487-0.188,0.881-0.499,1.181c-0.288,0.267-0.688,0.404-1.197,0.416h-9.981
			c-0.443-0.012-0.82-0.166-1.131-0.466c-0.289-0.277-0.428-0.654-0.416-1.131V5.401C169.582,4.947,169.716,4.586,169.993,4.32z
			 M181.837,10.292V5.668c-0.033-0.267-0.133-0.482-0.3-0.649c-0.177-0.167-0.382-0.233-0.615-0.2h-9.515
			c-0.256,0-0.455,0.072-0.6,0.216c-0.155,0.178-0.232,0.388-0.232,0.632v4.625H181.837z M170.575,11.274v4.757
			c0,0.3,0.072,0.521,0.216,0.665c0.145,0.167,0.35,0.25,0.616,0.25h9.415c0.333-0.022,0.571-0.089,0.715-0.2
			c0.188-0.166,0.289-0.404,0.3-0.715v-4.757H170.575z"/>
		<path fill="#FFFFFF" d="M195.377,3.555c2.174,2.462,3.261,4.913,3.261,7.353c0,2.462-1.087,4.913-3.261,7.353
			c-0.144,0.154-0.288,0.238-0.432,0.249c-0.134,0.011-0.25-0.022-0.35-0.1c-0.1-0.111-0.15-0.238-0.15-0.383
			c0-0.155,0.051-0.288,0.15-0.399c2.029-2.239,3.044-4.479,3.044-6.72c0-2.251-1.015-4.497-3.044-6.737
			c-0.078-0.1-0.122-0.222-0.133-0.366c0-0.122,0.055-0.238,0.166-0.349c0.1-0.089,0.232-0.127,0.399-0.117
			C195.15,3.372,195.267,3.444,195.377,3.555z"/>
	</g>
</g>
<g id="レイヤー_4" display="none">
	<g display="inline">
		<path fill="#FFFFFF" d="M53.427,3.075c0.126,0.102,0.19,0.235,0.19,0.399c-0.013,0.19-0.063,0.33-0.152,0.419
			c-0.127,0.114-0.267,0.171-0.419,0.171h-5.841c-0.559,0.977-1.11,1.853-1.655,2.626v12.33c0,0.178-0.057,0.323-0.171,0.438
			c-0.102,0.102-0.235,0.158-0.4,0.172c-0.152-0.014-0.285-0.064-0.399-0.152c-0.102-0.114-0.152-0.267-0.152-0.457V8.175
			c-0.545,0.634-1.091,1.224-1.636,1.77c-0.774,0.787-1.598,1.522-2.474,2.207c-0.837,0.66-1.833,1.281-2.987,1.865
			c-0.152,0.089-0.305,0.114-0.457,0.076c-0.114-0.038-0.216-0.134-0.305-0.286c-0.089-0.164-0.114-0.311-0.076-0.438
			c0-0.14,0.095-0.247,0.286-0.323c1.116-0.533,2.112-1.129,2.987-1.789c0.812-0.634,1.624-1.351,2.436-2.15
			c0.697-0.697,1.395-1.509,2.093-2.436c0.545-0.773,1.091-1.643,1.636-2.607h-9.019c-0.14-0.012-0.273-0.063-0.4-0.152
			c-0.127-0.102-0.19-0.235-0.19-0.4c0.013-0.19,0.063-0.33,0.152-0.418c0.127-0.102,0.273-0.152,0.438-0.152h16.135
			C53.173,2.942,53.3,2.987,53.427,3.075z M47.205,8.327c-0.152-0.114-0.235-0.248-0.248-0.4s0.025-0.285,0.114-0.399
			c0.102-0.14,0.234-0.216,0.399-0.229c0.165-0.012,0.311,0.045,0.438,0.171c1.789,1.446,3.697,3.451,5.727,6.013
			c0.114,0.152,0.165,0.305,0.152,0.457c-0.013,0.14-0.083,0.266-0.209,0.38c-0.127,0.089-0.266,0.134-0.418,0.134
			c-0.152-0.013-0.292-0.102-0.418-0.267C50.763,11.663,48.917,9.709,47.205,8.327z"/>
		<path fill="#FFFFFF" d="M75.347,4.788c0.076-0.126,0.19-0.209,0.343-0.247c0.165-0.025,0.311,0,0.438,0.076
			c0.14,0.102,0.216,0.235,0.229,0.399c0.076,0.495,0.177,1.389,0.304,2.683c0.127,1.243,0.197,2.359,0.209,3.349
			c-0.013,0.19-0.063,0.343-0.152,0.457c-0.102,0.102-0.235,0.152-0.399,0.152c-0.165-0.013-0.292-0.063-0.381-0.152
			c-0.114-0.102-0.171-0.248-0.171-0.438c0-0.99-0.064-2.1-0.19-3.331c-0.127-1.281-0.229-2.112-0.304-2.492
			C75.245,5.067,75.271,4.915,75.347,4.788z M77.763,2.2c0.102-0.101,0.235-0.152,0.4-0.152c0.165,0.013,0.292,0.063,0.38,0.152
			c0.127,0.102,0.19,0.254,0.19,0.457v3.996c0.545-0.837,0.958-1.636,1.237-2.397c0.076-0.19,0.177-0.311,0.304-0.361
			c0.14-0.051,0.286-0.051,0.438,0c0.165,0.076,0.272,0.178,0.323,0.304c0.038,0.152,0.032,0.311-0.019,0.476
			C80.586,5.815,79.914,7.021,79,8.289c-0.089,0.114-0.178,0.197-0.266,0.247v0.666c-0.013,0.723-0.038,1.37-0.076,1.94
			c-0.025,0.381-0.063,0.787-0.114,1.218c0.825,1.435,1.491,2.664,1.998,3.691c0.076,0.141,0.088,0.273,0.038,0.4
			c-0.038,0.165-0.133,0.272-0.286,0.323c-0.178,0.076-0.323,0.089-0.438,0.038c-0.127-0.038-0.235-0.158-0.323-0.361
			c-0.33-0.749-0.73-1.586-1.199-2.512c-0.076,0.317-0.14,0.634-0.19,0.951c-0.14,0.584-0.273,1.091-0.399,1.522
			c-0.152,0.469-0.311,0.881-0.476,1.236c-0.19,0.394-0.368,0.711-0.533,0.951c-0.19,0.254-0.33,0.457-0.418,0.609
			c-0.152,0.152-0.292,0.234-0.419,0.247c-0.14,0.013-0.272-0.025-0.399-0.114c-0.14-0.114-0.216-0.234-0.228-0.361
			c-0.026-0.19,0.025-0.349,0.152-0.476c0.114-0.152,0.248-0.33,0.4-0.533c0.165-0.254,0.323-0.558,0.476-0.913
			c0.139-0.343,0.285-0.729,0.438-1.16c0.14-0.444,0.272-0.977,0.399-1.599c0.14-0.571,0.235-1.129,0.286-1.675
			c0.076-0.545,0.121-1.129,0.133-1.75c0.038-0.495,0.057-1.053,0.057-1.674V2.657C77.624,2.466,77.674,2.314,77.763,2.2z
			 M92.7,5.663c0.127,0.102,0.19,0.235,0.19,0.399c-0.013,0.19-0.063,0.33-0.152,0.419c-0.127,0.114-0.266,0.171-0.418,0.171h-2.778
			c0.203,1.18,0.52,2.214,0.952,3.102c0.507,1.053,1.224,2.081,2.15,3.083c0.127,0.14,0.19,0.292,0.19,0.456
			c-0.025,0.14-0.083,0.267-0.171,0.381c-0.14,0.114-0.273,0.165-0.399,0.152c-0.165-0.013-0.311-0.083-0.438-0.21
			c-0.977-1.065-1.719-2.137-2.227-3.215c-0.266-0.545-0.495-1.123-0.685-1.731C88.8,9.05,88.667,9.437,88.514,9.83
			c-0.216,0.533-0.438,0.996-0.666,1.389c-0.229,0.419-0.482,0.787-0.761,1.104c-0.292,0.342-0.577,0.628-0.856,0.855
			c-0.305,0.229-0.54,0.406-0.704,0.533c-0.165,0.14-0.311,0.203-0.438,0.19c-0.14,0-0.267-0.063-0.381-0.19
			c-0.102-0.114-0.159-0.247-0.171-0.399c0-0.19,0.083-0.33,0.248-0.419c0.19-0.127,0.406-0.292,0.647-0.495
			c0.279-0.215,0.539-0.481,0.78-0.799c0.228-0.278,0.457-0.615,0.685-1.008c0.253-0.393,0.482-0.863,0.685-1.408
			c0.215-0.507,0.368-0.996,0.457-1.465c0.063-0.355,0.12-0.71,0.171-1.066h-1.903c-0.051,0-0.083,0-0.095,0
			c-0.076,0.317-0.152,0.635-0.229,0.952c-0.203,0.685-0.463,1.313-0.78,1.884c-0.368,0.685-0.787,1.275-1.256,1.769
			c-0.469,0.482-0.913,0.882-1.332,1.199c-0.444,0.343-0.99,0.666-1.637,0.971c-0.165,0.076-0.323,0.089-0.476,0.038
			c-0.152-0.063-0.254-0.159-0.304-0.286c-0.076-0.164-0.089-0.311-0.038-0.438c0.063-0.14,0.177-0.247,0.342-0.323
			c0.52-0.241,0.996-0.521,1.427-0.837c0.457-0.343,0.862-0.691,1.218-1.047c0.165-0.178,0.323-0.368,0.476-0.571
			c-0.38-0.305-0.825-0.609-1.332-0.914c-0.52-0.33-0.882-0.552-1.084-0.666c-0.178,0.229-0.349,0.444-0.514,0.647
			c-0.127,0.14-0.267,0.216-0.419,0.229c-0.152-0.013-0.285-0.063-0.399-0.152c-0.127-0.114-0.19-0.247-0.19-0.399
			s0.063-0.292,0.19-0.418c0.507-0.533,0.9-1.091,1.18-1.675c0.292-0.647,0.539-1.598,0.742-2.854
			c0.126-0.533,0.311-0.914,0.552-1.142c0.203-0.19,0.514-0.286,0.933-0.286h2.017c0.444-0.012,0.787,0.14,1.028,0.457
			c0.215,0.317,0.323,0.653,0.323,1.008c0,0.355-0.063,0.901-0.19,1.636C86.446,5.46,86.44,5.492,86.44,5.53h1.865
			c0.025-0.266,0.038-0.539,0.038-0.818V2.581c0.013-0.19,0.063-0.343,0.152-0.457c0.102-0.102,0.234-0.152,0.399-0.152
			c0.165,0.013,0.292,0.063,0.381,0.152c0.126,0.102,0.19,0.254,0.19,0.457v2.131c-0.013,0.279-0.025,0.552-0.038,0.818h2.892
			C92.446,5.53,92.573,5.574,92.7,5.663z M81.721,14.759c0.126-0.063,0.272-0.089,0.438-0.076c0.152,0.025,0.273,0.095,0.362,0.209
			c0.076,0.14,0.095,0.305,0.057,0.495c-0.178,0.888-0.4,1.617-0.666,2.188c-0.267,0.635-0.559,1.148-0.875,1.542
			c-0.114,0.151-0.254,0.247-0.418,0.285c-0.14,0-0.273-0.045-0.4-0.134c-0.127-0.114-0.197-0.234-0.209-0.361
			c-0.026-0.178,0.019-0.33,0.133-0.456c0.355-0.508,0.634-0.996,0.837-1.466c0.254-0.545,0.425-1.147,0.514-1.808
			C81.518,14.986,81.594,14.848,81.721,14.759z M84.899,7.433V7.414c-0.038-0.038-0.076-0.063-0.114-0.076
			C84.366,7.021,83.872,6.69,83.3,6.348c-0.393-0.229-0.691-0.4-0.894-0.514c-0.114,0.393-0.235,0.761-0.361,1.104
			c-0.089,0.19-0.178,0.368-0.267,0.533c0.253,0.127,0.634,0.349,1.142,0.666c0.495,0.317,0.933,0.615,1.313,0.894
			C84.486,8.536,84.708,8.003,84.899,7.433z M85.508,4.312c-0.013-0.267-0.063-0.476-0.152-0.628s-0.285-0.229-0.59-0.229h-0.989
			c-0.317,0-0.559,0.057-0.723,0.171c-0.165,0.127-0.273,0.33-0.324,0.609c-0.038,0.152-0.063,0.311-0.076,0.476
			c0.253,0.14,0.666,0.381,1.237,0.723c0.482,0.292,0.913,0.571,1.293,0.837c0.038-0.203,0.083-0.399,0.133-0.59
			C85.444,5.124,85.508,4.667,85.508,4.312z M84.708,15.044c0.102-0.114,0.229-0.172,0.381-0.172
			c0.165,0.014,0.304,0.064,0.418,0.152c0.114,0.127,0.165,0.273,0.152,0.438c-0.026,0.292-0.064,0.787-0.114,1.484
			c-0.063,0.686-0.14,1.294-0.229,1.827c-0.038,0.178-0.121,0.311-0.247,0.399c-0.114,0.089-0.254,0.114-0.419,0.076
			c-0.152-0.025-0.266-0.096-0.342-0.209c-0.089-0.152-0.114-0.312-0.076-0.477c0.102-0.507,0.177-1.091,0.229-1.75
			c0.063-0.686,0.095-1.129,0.095-1.332C84.569,15.304,84.62,15.158,84.708,15.044z M87.582,15.006
			c0.076-0.127,0.19-0.209,0.342-0.247c0.165-0.051,0.311-0.032,0.438,0.057s0.209,0.216,0.248,0.381
			c0.05,0.292,0.133,0.806,0.247,1.541c0.114,0.697,0.178,1.332,0.19,1.902c-0.013,0.19-0.063,0.343-0.152,0.457
			c-0.089,0.102-0.216,0.158-0.38,0.171c-0.152,0-0.286-0.044-0.399-0.133c-0.114-0.102-0.171-0.247-0.171-0.438
			c-0.038-0.546-0.102-1.167-0.19-1.865c-0.102-0.71-0.171-1.167-0.209-1.37C87.518,15.285,87.531,15.133,87.582,15.006z
			 M90.493,15.405c-0.089-0.165-0.114-0.323-0.076-0.476c0.063-0.14,0.158-0.247,0.285-0.323c0.165-0.089,0.311-0.108,0.438-0.058
			c0.152,0.063,0.272,0.172,0.361,0.323c0.545,1.003,0.996,2.227,1.351,3.673c0.05,0.19,0.038,0.349-0.038,0.476
			c-0.076,0.14-0.19,0.234-0.342,0.285c-0.165,0.038-0.311,0.02-0.438-0.057s-0.216-0.216-0.266-0.419
			C91.451,17.498,91.026,16.356,90.493,15.405z M90.436,2.714c-0.013-0.127,0.038-0.254,0.152-0.381
			c0.114-0.101,0.234-0.152,0.361-0.152c0.152,0,0.292,0.057,0.418,0.171c0.431,0.394,0.844,0.901,1.237,1.522
			c0.076,0.152,0.108,0.292,0.095,0.418c-0.025,0.152-0.102,0.273-0.228,0.361c-0.14,0.064-0.273,0.089-0.4,0.076
			c-0.152-0.038-0.273-0.133-0.361-0.285C91.355,3.9,91,3.456,90.646,3.113C90.505,2.999,90.436,2.866,90.436,2.714z"/>
		<path fill="#FFFFFF" d="M117.607,11.067c0.14-0.038,0.272-0.013,0.399,0.075c0.127,0.076,0.216,0.19,0.267,0.343
			s0.019,0.305-0.095,0.457c-1.548,1.294-2.322,2.397-2.322,3.311c0,1.573,1.713,2.359,5.138,2.359c2.41-0.013,5.48-0.272,9.21-0.78
			c0.14-0.025,0.272-0.013,0.399,0.038c0.14,0.089,0.229,0.216,0.267,0.381c0.038,0.178,0.019,0.323-0.058,0.438
			c-0.089,0.127-0.216,0.216-0.38,0.267c-3.742,0.533-6.889,0.799-9.438,0.799c-4.186,0-6.279-1.167-6.279-3.501
			c0-1.192,0.844-2.499,2.531-3.92C117.373,11.207,117.493,11.118,117.607,11.067z M128.435,4.064
			c0.215,0.026,0.387,0.083,0.514,0.171c0.14,0.114,0.202,0.273,0.19,0.476c-0.038,0.203-0.121,0.343-0.248,0.419
			c-0.114,0.076-0.254,0.095-0.418,0.057c-4.06-0.482-7.961-0.343-11.702,0.418c-0.152,0.038-0.286,0.032-0.399-0.019
			c-0.152-0.076-0.235-0.215-0.248-0.418s0.025-0.362,0.114-0.476c0.102-0.126,0.267-0.196,0.495-0.209
			C120.525,3.697,124.426,3.558,128.435,4.064z M131.061,4.921c0.024,0.14,0.012,0.273-0.038,0.399
			c-0.076,0.102-0.178,0.19-0.305,0.267c-0.14,0.051-0.273,0.051-0.399,0c-0.102-0.038-0.178-0.114-0.229-0.229
			c-0.317-1.078-0.768-2.093-1.352-3.044c-0.025-0.088-0.013-0.196,0.038-0.323c0.063-0.127,0.159-0.216,0.286-0.267
			c0.14-0.076,0.267-0.095,0.38-0.057c0.102,0.051,0.19,0.121,0.267,0.209C130.293,2.79,130.743,3.805,131.061,4.921z M131.612,1.42
			c0.583,0.901,1.033,1.89,1.351,2.968c0.038,0.14,0.02,0.273-0.057,0.399c-0.051,0.102-0.152,0.19-0.305,0.267
			c-0.14,0.051-0.273,0.051-0.399,0c-0.089-0.038-0.159-0.114-0.21-0.229c-0.316-1.053-0.768-2.042-1.351-2.968
			c-0.038-0.088-0.032-0.19,0.019-0.304c0.076-0.114,0.178-0.209,0.305-0.286c0.14-0.076,0.267-0.088,0.381-0.038
			C131.447,1.268,131.536,1.331,131.612,1.42z"/>
		<path fill="#FFFFFF" d="M164.149,4.521c-0.013,1.56-0.292,3.184-0.837,4.871c1.522,0.279,3.089,0.761,4.7,1.446V6.386
			c-0.013-0.343,0.177-0.514,0.57-0.514c0.381,0,0.571,0.171,0.571,0.514v4.947c0.773,0.343,1.547,0.729,2.321,1.161
			c0.316,0.14,0.393,0.399,0.229,0.78c-0.178,0.342-0.426,0.418-0.742,0.229c-0.635-0.343-1.243-0.647-1.827-0.914
			c-0.178,4.136-2.403,6.508-6.679,7.117c-0.38,0.05-0.596-0.103-0.646-0.457c-0.038-0.394,0.114-0.615,0.456-0.666
			c3.806-0.559,5.715-2.728,5.728-6.508c-1.776-0.786-3.47-1.319-5.08-1.598c-0.368,0.875-0.787,1.77-1.256,2.683
			c-1.586,2.943-3.216,4.414-4.891,4.414c-1.788-0.013-2.683-0.938-2.683-2.777c0.013-1.675,0.596-3.089,1.751-4.244
			c1.002-1.002,2.347-1.503,4.033-1.503c0.013-0.012,0.045-0.012,0.096,0c0-0.012,0.006-0.019,0.019-0.019V9.05
			c0.735-0.012,1.472,0.038,2.207,0.152c0.546-1.598,0.818-3.159,0.818-4.681c0-0.558-0.272-0.818-0.818-0.78l-5.271,0.286
			c-0.368,0-0.559-0.178-0.57-0.533c-0.013-0.393,0.177-0.596,0.57-0.609l5.271-0.285C163.496,2.536,164.149,3.177,164.149,4.521z
			 M156.767,16.433c1.281-0.013,2.595-1.3,3.939-3.862c0.405-0.773,0.767-1.528,1.084-2.265c-0.621-0.076-1.256-0.114-1.902-0.114
			c-1.37,0-2.404,0.349-3.102,1.046c-1.04,0.989-1.561,2.176-1.561,3.559C155.226,15.888,155.739,16.433,156.767,16.433z"/>
	</g>
</g>
</svg>
