<?xml version="1.0" encoding="utf-8"?>
<!-- Generator: Adobe Illustrator 15.1.0, SVG Export Plug-In . SVG Version: 6.00 Build 0)  -->
<!DOCTYPE svg PUBLIC "-//W3C//DTD SVG 1.1//EN" "http://www.w3.org/Graphics/SVG/1.1/DTD/svg11.dtd">
<svg version="1.1" id="レイヤー_1" xmlns="http://www.w3.org/2000/svg" xmlns:xlink="http://www.w3.org/1999/xlink" x="0px"
	 y="0px" width="200px" height="20px" viewBox="0 0 200 20" enable-background="new 0 0 200 20" xml:space="preserve">
<g enable-background="new    ">
	<path fill="#FFFFFF" d="M37.818,3.973c0.159,0.336,0.14,0.644-0.06,0.923c-0.881,1.007-1.703,1.679-2.462,2.015
		c-0.321,0.113-0.541,0-0.661-0.336c-0.081-0.391,0.02-0.699,0.3-0.923c0.64-0.335,1.381-0.895,2.222-1.679
		C37.437,3.75,37.658,3.75,37.818,3.973z M39.259,16.229c0.08,0.447-0.021,0.783-0.3,1.008c-1.402,0.783-2.623,1.259-3.663,1.427
		c-0.36,0.056-0.561-0.112-0.601-0.503c0-0.336,0.16-0.533,0.48-0.588c1.441-0.449,2.542-0.979,3.303-1.596
		C38.839,15.754,39.099,15.838,39.259,16.229z M35.116,0.111c0.12-0.279,0.32-0.363,0.601-0.251c0.64,0.281,1.261,0.7,1.862,1.259
		c0.36,0.335,0.44,0.728,0.24,1.175c-0.201,0.281-0.441,0.309-0.721,0.084c-0.48-0.503-1.042-0.979-1.682-1.427
		C35.135,0.728,35.035,0.447,35.116,0.111z M45.986,7.834c0.24,0,0.459,0.141,0.66,0.42c0.2,0.281,0.3,0.587,0.3,0.923v5.037
		c0,0.336-0.1,0.644-0.3,0.923c-0.201,0.281-0.42,0.42-0.66,0.42h-9.188c-0.24,0-0.461-0.139-0.661-0.42
		c-0.201-0.279-0.3-0.587-0.3-0.923V9.177c0-0.336,0.099-0.643,0.3-0.923c0.2-0.279,0.42-0.42,0.661-0.42H45.986z M36.677,9.513
		v0.503h9.428V9.513c0-0.447-0.16-0.672-0.48-0.672h-8.468C36.836,8.841,36.677,9.066,36.677,9.513z M36.677,12.199h9.428v-1.176
		h-9.428V12.199z M36.677,13.879c0,0.447,0.159,0.671,0.48,0.671h8.468c0.32,0,0.48-0.224,0.48-0.671v-0.672h-9.428V13.879z
		 M40.521-0.813c0.24,0.113,0.32,0.393,0.24,0.84l-0.24,0.671h6.666c0.28,0,0.48,0.113,0.601,0.336c0.12,0.28,0.14,0.616,0.06,1.007
		c-0.441,1.12-1.061,2.015-1.861,2.686c-0.36,0.224-0.601,0.197-0.721-0.084c-0.12-0.279-0.06-0.531,0.18-0.755
		c0.76-0.727,1.261-1.455,1.501-2.183h-4.204v1.427c0.56,0.896,1.221,1.595,1.982,2.099c0.961,0.56,2.001,0.923,3.123,1.091
		c0.36,0.056,0.541,0.281,0.541,0.671c-0.04,0.392-0.24,0.587-0.601,0.587c-0.681,0-1.602-0.307-2.762-0.923
		c-1.001-0.559-1.842-1.343-2.522-2.35c-0.641,1.567-2.142,2.491-4.504,2.77c-0.321,0-0.48-0.139-0.48-0.42
		c0-0.279,0.12-0.447,0.36-0.503c2.682-0.391,4.024-1.566,4.024-3.526V1.706H40.16c-0.48,0.896-0.921,1.54-1.321,1.931
		c-0.24,0.225-0.441,0.225-0.601,0c-0.12-0.223-0.1-0.475,0.06-0.755c0.721-0.951,1.261-2.042,1.622-3.274
		C40.04-0.784,40.24-0.924,40.521-0.813z M43.163,16.229c0.04-0.336,0.2-0.475,0.48-0.42c1.48,0.281,2.782,0.729,3.903,1.344
		c0.32,0.223,0.44,0.531,0.36,0.924c-0.12,0.391-0.36,0.503-0.721,0.335c-1.241-0.728-2.462-1.288-3.663-1.679
		C43.283,16.676,43.163,16.51,43.163,16.229z"/>
	<path fill="#FFFFFF" d="M50.25,5.148c0.16-0.112,0.32-0.112,0.48,0c0.88,1.007,1.441,1.875,1.682,2.602
		c0.159,0.393,0.12,0.701-0.12,0.923c-0.24,0.225-0.461,0.197-0.661-0.083c-0.562-1.063-1.062-1.931-1.501-2.603
		C50.009,5.651,50.049,5.372,50.25,5.148z M52.051,11.107c0.279,0.057,0.399,0.336,0.36,0.84c-0.24,1.903-0.701,3.666-1.381,5.289
		c-0.201,0.447-0.441,0.588-0.721,0.42c-0.201-0.225-0.261-0.504-0.18-0.84c0.52-1.23,1-2.966,1.441-5.205
		C51.65,11.221,51.811,11.053,52.051,11.107z M50.43,0.111c0.16-0.223,0.34-0.251,0.541-0.083c0.68,0.671,1.24,1.54,1.682,2.602
		c0.2,0.392,0.18,0.728-0.06,1.007c-0.24,0.225-0.48,0.168-0.721-0.168C51.35,2.518,50.85,1.651,50.37,0.867
		C50.25,0.531,50.269,0.279,50.43,0.111z M63.281,0.027c0.32,0,0.48,0.196,0.48,0.587c0,0.392-0.16,0.587-0.48,0.587h-3.483
		c-0.081,0.896-0.281,1.708-0.601,2.435H62.2c0.52,0,0.781,0.365,0.781,1.091v5.792c0,0.728-0.261,1.091-0.781,1.091h-2.222v5.541
		c0,0.895-0.461,1.343-1.381,1.343c-0.521,0-1.042-0.14-1.562-0.419c-0.201-0.168-0.281-0.393-0.24-0.672
		c0.08-0.281,0.24-0.393,0.48-0.336c0.48,0.223,0.841,0.336,1.081,0.336c0.52,0,0.781-0.309,0.781-0.924v-4.869h-2.522
		c-0.521,0-0.781-0.363-0.781-1.091V4.728c0-0.727,0.26-1.091,0.781-1.091h1.742c0.28-0.895,0.44-1.707,0.48-2.435h-3.904
		c-0.201,0-0.3,0.141-0.3,0.42v7.639c0,3.135-0.521,5.792-1.561,7.975c-0.161,0.279-0.341,0.363-0.541,0.252
		c-0.201-0.168-0.24-0.42-0.12-0.756c0.92-2.294,1.381-4.785,1.381-7.471V1.37c0-0.335,0.1-0.643,0.3-0.923
		c0.2-0.279,0.42-0.419,0.661-0.419H63.281z M57.036,12.955c0.28,0.168,0.36,0.448,0.24,0.84c-0.521,1.846-1.222,3.076-2.102,3.693
		c-0.321,0.223-0.541,0.195-0.661-0.084c-0.12-0.281-0.081-0.533,0.12-0.756c0.64-0.727,1.221-1.847,1.742-3.357
		C56.535,12.9,56.755,12.787,57.036,12.955z M56.675,5.232v1.763h5.465V5.232c0-0.28-0.1-0.42-0.3-0.42h-4.864
		C56.775,4.812,56.675,4.952,56.675,5.232z M56.675,10.017c0,0.281,0.1,0.42,0.3,0.42h4.864c0.2,0,0.3-0.139,0.3-0.42V8.17h-5.465
		V10.017z M61.36,13.039c0.2-0.279,0.399-0.279,0.6,0c0.601,0.896,1.141,1.986,1.622,3.273c0.16,0.447,0.12,0.783-0.12,1.008
		c-0.321,0.279-0.581,0.168-0.781-0.336c-0.441-1.176-0.901-2.267-1.381-3.273C61.219,13.432,61.24,13.207,61.36,13.039z"/>
	<path fill="#FFFFFF" d="M67.726-0.057c0-0.447,0.14-0.672,0.42-0.672c0.279,0,0.42,0.225,0.42,0.672v3.274h1.261
		c0.32,0,0.48,0.196,0.48,0.587c0,0.392-0.16,0.587-0.48,0.587h-1.261v6.463c0.399-0.223,0.86-0.503,1.381-0.839
		c0.28-0.223,0.5-0.223,0.661,0c0.2,0.392,0.08,0.755-0.36,1.091c-0.48,0.393-1.042,0.756-1.681,1.092v5.709
		c0,0.447-0.141,0.671-0.42,0.671c-0.281,0-0.42-0.224-0.42-0.671v-5.289c-0.48,0.281-1.001,0.532-1.562,0.756
		c-0.521,0.224-0.821,0.084-0.901-0.42c-0.081-0.504,0.14-0.811,0.661-0.924c0.56-0.168,1.161-0.42,1.802-0.756V4.392h-1.141
		c-0.12,1.232-0.281,2.295-0.48,3.19c-0.12,0.504-0.321,0.728-0.601,0.672c-0.24-0.055-0.3-0.42-0.18-1.091
		c0.24-1.511,0.4-3.274,0.48-5.289c0-0.672,0.16-1.007,0.48-1.007c0.36,0,0.52,0.365,0.48,1.091l-0.12,1.259h1.081V-0.057z
		 M72.229-0.645c0.32,0.057,0.46,0.392,0.42,1.007c-0.081,0.728-0.201,1.483-0.36,2.267h5.525c0.24,0,0.46,0.141,0.661,0.42
		c0.2,0.281,0.3,0.587,0.3,0.923v10.241c0,2.687-0.701,4.03-2.102,4.03c-0.721,0-1.342-0.084-1.862-0.252
		c-0.321-0.113-0.48-0.309-0.48-0.588c0-0.504,0.24-0.701,0.721-0.588c0.52,0.168,0.98,0.252,1.381,0.252
		c1,0,1.501-1.008,1.501-3.022v-9.57c0-0.447-0.16-0.671-0.48-0.671h-0.9c-0.281,5.093-1.282,9.402-3.003,12.928
		c-0.24,0.504-0.48,0.643-0.721,0.42c-0.201-0.225-0.18-0.559,0.06-1.008c1.682-3.973,2.602-8.086,2.763-12.34h-1.622
		c-0.321,4.31-1.342,8.227-3.063,11.752c-0.24,0.449-0.48,0.561-0.721,0.336c-0.201-0.223-0.201-0.531,0-0.923
		c1.601-3.638,2.562-7.358,2.883-11.165h-1.081c-0.281,1.175-0.701,2.267-1.261,3.274c-0.201,0.336-0.4,0.449-0.601,0.336
		c-0.24-0.168-0.24-0.504,0-1.007c0.721-1.623,1.201-3.694,1.441-6.212C71.708-0.42,71.909-0.7,72.229-0.645z"/>
	<path fill="#FFFFFF" d="M94.209-0.729c0.08,0.281,0.02,0.504-0.18,0.672c-0.681,0.448-1.402,1.204-2.162,2.266
		c-1.321,1.847-1.982,4.086-1.982,6.716c0,2.631,0.661,4.87,1.982,6.715c0.76,1.063,1.48,1.818,2.162,2.268
		c0.2,0.168,0.26,0.391,0.18,0.671c-0.12,0.224-0.3,0.252-0.541,0.084c-0.921-0.56-1.801-1.427-2.642-2.603
		c-1.362-1.902-2.042-4.281-2.042-7.135s0.68-5.232,2.042-7.135c0.841-1.175,1.721-2.042,2.642-2.603
		C93.909-0.98,94.089-0.951,94.209-0.729z"/>
	<path fill="#FFFFFF" d="M106.941-0.225c0.199-0.112,0.36-0.055,0.48,0.168c0.399,0.616,0.76,1.483,1.08,2.602
		c0.04,0.336-0.04,0.56-0.24,0.672c-0.12,0.056-0.24,0.056-0.36,0c0.08,0.113,0.141,0.224,0.181,0.335
		c0.159,0.504,0.06,0.923-0.301,1.259c-1.001,0.671-2.281,1.315-3.843,1.931c-1.562,0.617-3.344,1.091-5.345,1.427v5.709
		c0,1.51,0.78,2.266,2.342,2.266h1.981c0.681,0,1.742-0.084,3.184-0.252c0.48-0.055,1.221-0.195,2.222-0.42
		c0.44-0.055,0.681,0.197,0.721,0.756c0.039,0.504-0.141,0.811-0.541,0.924c-1.44,0.336-3.083,0.504-4.924,0.504h-2.162
		c-2.603,0-3.903-1.26-3.903-3.777V1.035c0-0.559,0.18-0.84,0.541-0.84s0.541,0.281,0.541,0.84v5.792
		c1.321-0.223,2.782-0.671,4.384-1.343c1.521-0.671,2.942-1.455,4.264-2.35c0.2-0.112,0.399-0.112,0.601,0
		c-0.24-0.84-0.562-1.734-0.961-2.687C106.8,0.167,106.821-0.057,106.941-0.225z M108.382-0.813c0.2-0.111,0.36-0.084,0.48,0.084
		c0.521,0.728,0.921,1.595,1.201,2.603c0.08,0.281,0.021,0.503-0.18,0.671c-0.201,0.113-0.36,0.057-0.48-0.168
		c-0.321-0.895-0.682-1.763-1.081-2.602C108.202-0.448,108.222-0.645,108.382-0.813z"/>
	<path fill="#FFFFFF" d="M112.707,1.454c0.199-0.447,0.459-0.587,0.78-0.419c1.802,1.007,3.282,2.183,4.444,3.525
		c0.36,0.449,0.42,0.923,0.18,1.427c-0.32,0.503-0.681,0.533-1.081,0.084c-1.361-1.511-2.723-2.714-4.083-3.61
		C112.707,2.239,112.626,1.903,112.707,1.454z M124.417,2.881c0.36,0.113,0.501,0.419,0.421,0.923
		c-0.641,3.918-1.802,7.051-3.483,9.402c-1.762,2.463-4.324,3.973-7.687,4.533c-0.441,0-0.682-0.281-0.721-0.84
		c0-0.559,0.199-0.867,0.601-0.924c3.042-0.391,5.424-1.79,7.146-4.197c1.4-1.958,2.441-4.728,3.122-8.311
		C123.896,3.021,124.097,2.826,124.417,2.881z"/>
	<path fill="#FFFFFF" d="M139.07,3.721c1.001,1.567,1.502,3.526,1.502,5.876c0,2.35-0.48,4.226-1.441,5.624
		c-1.081,1.455-2.563,2.238-4.444,2.352c-0.32,0-0.48-0.225-0.48-0.672s0.16-0.672,0.48-0.672c1.48,0,2.723-0.672,3.724-2.015
		c0.681-1.175,1.021-2.687,1.021-4.533c0-2.126-0.42-3.833-1.261-5.121c-1.001-1.343-2.263-1.986-3.783-1.931
		c-0.281,2.799-0.601,5.121-0.961,6.968c-0.441,2.407-0.981,4.226-1.622,5.456c-0.521,1.008-1.161,1.512-1.921,1.512
		c-0.682,0-1.302-0.42-1.862-1.26C127.34,14.13,127,12.76,127,11.191c0-2.854,0.78-5.288,2.342-7.303
		c1.48-1.734,3.183-2.603,5.104-2.603S137.909,2.098,139.07,3.721z M129.643,5.316c-1.081,1.735-1.622,3.722-1.622,5.959
		c0,1.064,0.181,2.016,0.541,2.854c0.36,0.728,0.8,1.091,1.321,1.091c0.439,0,0.84-0.307,1.2-0.923
		c0.44-0.839,0.841-2.153,1.201-3.945c0.521-2.687,0.881-5.26,1.081-7.723C131.884,2.965,130.643,3.861,129.643,5.316z"/>
	<path fill="#FFFFFF" d="M153.484,0.615c0.239,0,0.459,0.14,0.66,0.42c0.2,0.28,0.3,0.587,0.3,0.923v14.187
		c0,0.336-0.1,0.643-0.3,0.924c-0.201,0.279-0.421,0.42-0.66,0.42h-8.948c-0.24,0-0.461-0.141-0.661-0.42
		c-0.201-0.281-0.3-0.588-0.3-0.924V1.958c0-0.336,0.099-0.643,0.3-0.923c0.2-0.28,0.421-0.42,0.661-0.42H153.484z M144.656,2.461
		v5.96h8.708v-5.96c0-0.447-0.161-0.671-0.48-0.671h-7.747C144.815,1.79,144.656,2.014,144.656,2.461z M144.656,15.641
		c0,0.449,0.159,0.672,0.48,0.672h7.747c0.319,0,0.48-0.223,0.48-0.672V9.597h-8.708V15.641z"/>
</g>
<g enable-background="new    ">
	<path fill="#FFFFFF" d="M157.688,18.579c-0.08-0.28-0.021-0.503,0.181-0.671c0.68-0.449,1.4-1.205,2.162-2.268
		c1.32-1.846,1.981-4.084,1.981-6.715c0-2.63-0.661-4.869-1.981-6.716c-0.762-1.062-1.482-1.818-2.162-2.266
		c-0.201-0.168-0.261-0.391-0.181-0.672c0.12-0.223,0.301-0.252,0.541-0.084c0.92,0.56,1.802,1.427,2.642,2.603
		c1.361,1.903,2.042,4.281,2.042,7.135s-0.681,5.233-2.042,7.135c-0.84,1.176-1.722,2.043-2.642,2.603
		C157.989,18.831,157.809,18.803,157.688,18.579z"/>
</g>
</svg>
