<?xml version="1.0" encoding="utf-8"?>
<!-- Generator: Adobe Illustrator 15.1.0, SVG Export Plug-In . SVG Version: 6.00 Build 0)  -->
<!DOCTYPE svg PUBLIC "-//W3C//DTD SVG 1.1//EN" "http://www.w3.org/Graphics/SVG/1.1/DTD/svg11.dtd">
<svg version="1.1" id="レイヤー_1" xmlns="http://www.w3.org/2000/svg" xmlns:xlink="http://www.w3.org/1999/xlink" x="0px"
	 y="0px" width="200px" height="27px" viewBox="0 0 200 27" enable-background="new 0 0 200 27" xml:space="preserve">
<g>
	<path fill="#FFFFFF" d="M12.105,7.497c0.282,0.425,0.248,0.816-0.106,1.169c-1.56,1.276-3.014,2.127-4.359,2.552
		c-0.568,0.143-0.957,0-1.17-0.425c-0.143-0.495,0.035-0.886,0.532-1.17c1.133-0.425,2.446-1.133,3.934-2.126
		C11.431,7.214,11.821,7.214,12.105,7.497z M14.657,23.021c0.141,0.566-0.037,0.991-0.532,1.275
		c-2.482,0.992-4.644,1.595-6.486,1.808c-0.638,0.07-0.994-0.143-1.063-0.638c0-0.426,0.283-0.675,0.851-0.744
		c2.552-0.568,4.501-1.239,5.848-2.021C13.913,22.42,14.373,22.526,14.657,23.021z M7.321,2.605c0.212-0.354,0.566-0.46,1.063-0.319
		c1.133,0.355,2.233,0.887,3.296,1.595c0.638,0.425,0.779,0.922,0.425,1.489c-0.355,0.355-0.781,0.39-1.276,0.106
		c-0.851-0.638-1.844-1.24-2.978-1.808C7.355,3.386,7.178,3.031,7.321,2.605z M26.566,12.388c0.425,0,0.814,0.178,1.17,0.531
		c0.354,0.355,0.532,0.744,0.532,1.17v6.379c0,0.426-0.178,0.816-0.532,1.17c-0.355,0.355-0.745,0.532-1.17,0.532H10.298
		c-0.425,0-0.816-0.177-1.17-0.532c-0.355-0.354-0.531-0.744-0.531-1.17V14.09c0-0.426,0.176-0.815,0.531-1.17
		c0.354-0.354,0.745-0.531,1.17-0.531H26.566z M10.085,14.515v0.638h16.694v-0.638c0-0.567-0.284-0.851-0.851-0.851H10.936
		C10.368,13.664,10.085,13.948,10.085,14.515z M10.085,17.917h16.694v-1.488H10.085V17.917z M10.085,20.044
		c0,0.568,0.283,0.851,0.851,0.851h14.993c0.566,0,0.851-0.282,0.851-0.851v-0.851H10.085V20.044z M16.89,1.436
		c0.425,0.143,0.566,0.497,0.425,1.063L16.89,3.35h11.803c0.495,0,0.851,0.143,1.063,0.425c0.213,0.355,0.248,0.781,0.106,1.276
		c-0.781,1.419-1.879,2.552-3.296,3.403c-0.638,0.284-1.063,0.249-1.276-0.106c-0.212-0.354-0.106-0.673,0.319-0.957
		c1.346-0.92,2.233-1.842,2.658-2.765h-7.443v1.808c0.992,1.135,2.162,2.021,3.509,2.658c1.702,0.709,3.544,1.17,5.529,1.382
		c0.638,0.072,0.957,0.355,0.957,0.851c-0.071,0.497-0.425,0.745-1.063,0.745c-1.206,0-2.836-0.389-4.891-1.17
		c-1.772-0.708-3.261-1.701-4.466-2.977c-1.135,1.985-3.793,3.155-7.975,3.509c-0.568,0-0.851-0.176-0.851-0.532
		c0-0.354,0.213-0.566,0.638-0.638c4.748-0.495,7.124-1.984,7.124-4.466v-1.17h-3.083c-0.851,1.135-1.632,1.951-2.339,2.446
		c-0.425,0.284-0.781,0.284-1.063,0c-0.212-0.282-0.178-0.602,0.106-0.957c1.276-1.205,2.233-2.587,2.871-4.147
		C16.04,1.472,16.394,1.294,16.89,1.436z M21.569,23.021c0.069-0.426,0.354-0.602,0.851-0.532c2.622,0.355,4.926,0.922,6.911,1.701
		c0.566,0.282,0.779,0.673,0.638,1.17c-0.213,0.495-0.638,0.638-1.276,0.425c-2.198-0.922-4.36-1.631-6.486-2.126
		C21.781,23.588,21.569,23.377,21.569,23.021z"/>
	<path fill="#FFFFFF" d="M34.115,8.985c0.283-0.142,0.567-0.142,0.851,0c1.558,1.276,2.552,2.375,2.977,3.296
		c0.282,0.496,0.212,0.887-0.213,1.169c-0.425,0.284-0.815,0.25-1.169-0.106c-0.994-1.346-1.879-2.445-2.658-3.296
		C33.69,9.623,33.76,9.269,34.115,8.985z M37.305,16.535c0.495,0.071,0.708,0.425,0.638,1.063c-0.425,2.41-1.241,4.644-2.446,6.698
		c-0.355,0.566-0.781,0.744-1.276,0.532c-0.355-0.284-0.462-0.639-0.319-1.063c0.92-1.559,1.771-3.757,2.552-6.593
		C36.596,16.678,36.88,16.465,37.305,16.535z M34.435,2.605c0.282-0.282,0.601-0.319,0.957-0.106
		c1.204,0.851,2.196,1.951,2.977,3.296c0.354,0.497,0.319,0.922-0.106,1.276c-0.425,0.284-0.851,0.212-1.276-0.213
		c-0.922-1.204-1.808-2.302-2.658-3.296C34.115,3.137,34.15,2.818,34.435,2.605z M57.189,2.499c0.566,0,0.851,0.25,0.851,0.745
		c0,0.497-0.284,0.744-0.851,0.744h-6.167c-0.143,1.135-0.497,2.163-1.063,3.083h5.316c0.92,0,1.382,0.462,1.382,1.382v7.337
		c0,0.922-0.462,1.382-1.382,1.382h-3.934v7.018c0,1.134-0.816,1.701-2.446,1.701c-0.922,0-1.844-0.178-2.764-0.531
		c-0.356-0.213-0.497-0.497-0.426-0.851c0.142-0.355,0.426-0.497,0.851-0.426c0.851,0.283,1.488,0.426,1.914,0.426
		c0.92,0,1.382-0.391,1.382-1.17v-6.167h-4.466c-0.922,0-1.382-0.46-1.382-1.382V8.454c0-0.92,0.46-1.382,1.382-1.382h3.083
		c0.495-1.133,0.779-2.162,0.851-3.083h-6.911c-0.355,0-0.532,0.178-0.532,0.532v9.676c0,3.972-0.922,7.337-2.765,10.102
		c-0.284,0.354-0.603,0.46-0.957,0.319c-0.355-0.213-0.425-0.532-0.212-0.957c1.63-2.906,2.445-6.061,2.445-9.464V4.2
		c0-0.425,0.176-0.814,0.532-1.169c0.354-0.354,0.745-0.532,1.17-0.532H57.189z M46.131,18.874c0.495,0.213,0.638,0.568,0.425,1.063
		c-0.922,2.339-2.163,3.897-3.722,4.679c-0.568,0.282-0.957,0.247-1.169-0.106c-0.213-0.355-0.143-0.675,0.212-0.957
		c1.133-0.92,2.162-2.339,3.083-4.253C45.244,18.805,45.634,18.661,46.131,18.874z M45.493,9.091v2.233h9.676V9.091
		c0-0.354-0.178-0.531-0.532-0.531h-8.612C45.669,8.56,45.493,8.738,45.493,9.091z M45.493,15.152c0,0.355,0.176,0.532,0.532,0.532
		h8.612c0.354,0,0.532-0.177,0.532-0.532v-2.339h-9.676V15.152z M53.786,18.98c0.354-0.354,0.708-0.354,1.063,0
		c1.063,1.135,2.02,2.518,2.871,4.146c0.282,0.567,0.212,0.992-0.213,1.276c-0.568,0.354-1.028,0.213-1.382-0.425
		c-0.781-1.489-1.595-2.871-2.445-4.147C53.537,19.478,53.574,19.193,53.786,18.98z"/>
	<path fill="#FFFFFF" d="M65.057,2.393c0-0.566,0.248-0.851,0.745-0.851c0.495,0,0.744,0.284,0.744,0.851V6.54h2.232
		c0.567,0,0.851,0.25,0.851,0.744c0,0.497-0.283,0.745-0.851,0.745h-2.232v8.188c0.708-0.282,1.523-0.638,2.445-1.063
		c0.495-0.282,0.886-0.282,1.17,0c0.354,0.497,0.141,0.957-0.638,1.383c-0.851,0.497-1.845,0.957-2.978,1.382v7.23
		c0,0.566-0.249,0.851-0.744,0.851c-0.497,0-0.745-0.284-0.745-0.851v-6.698c-0.851,0.355-1.772,0.674-2.765,0.957
		c-0.922,0.284-1.454,0.106-1.595-0.532c-0.143-0.638,0.248-1.026,1.169-1.169c0.992-0.213,2.055-0.532,3.19-0.957v-8.72h-2.02
		c-0.213,1.56-0.497,2.907-0.851,4.041c-0.213,0.638-0.568,0.922-1.063,0.851c-0.425-0.07-0.532-0.531-0.319-1.383
		c0.425-1.914,0.708-4.146,0.851-6.698c0-0.851,0.282-1.276,0.851-1.276c0.638,0,0.92,0.462,0.851,1.382L63.143,6.54h1.914V2.393z
		 M73.032,1.648c0.566,0.071,0.813,0.497,0.744,1.276c-0.144,0.922-0.355,1.879-0.638,2.871h9.782c0.425,0,0.813,0.178,1.169,0.532
		c0.354,0.355,0.532,0.744,0.532,1.169v12.972c0,3.403-1.241,5.104-3.722,5.104c-1.276,0-2.376-0.106-3.296-0.319
		c-0.568-0.143-0.852-0.391-0.852-0.744c0-0.638,0.426-0.888,1.276-0.744c0.921,0.213,1.736,0.318,2.445,0.318
		c1.771,0,2.658-1.275,2.658-3.827V8.135c0-0.567-0.284-0.851-0.851-0.851h-1.595c-0.497,6.451-2.27,11.91-5.316,16.375
		c-0.426,0.638-0.851,0.813-1.276,0.531c-0.355-0.284-0.318-0.707,0.106-1.275c2.978-5.032,4.607-10.244,4.892-15.631h-2.871
		c-0.568,5.46-2.376,10.421-5.423,14.887c-0.425,0.567-0.851,0.709-1.275,0.425c-0.356-0.282-0.356-0.673,0-1.17
		c2.834-4.606,4.535-9.321,5.104-14.142h-1.914c-0.497,1.489-1.241,2.871-2.233,4.147c-0.355,0.425-0.709,0.568-1.063,0.425
		c-0.426-0.213-0.426-0.638,0-1.276c1.275-2.055,2.126-4.678,2.552-7.868C72.109,1.933,72.464,1.579,73.032,1.648z"/>
	<path fill="#FFFFFF" d="M125.559,1.542c0.141,0.355,0.034,0.638-0.319,0.851c-1.206,0.568-2.482,1.525-3.828,2.871
		c-2.339,2.339-3.509,5.175-3.509,8.506c0,3.333,1.17,6.167,3.509,8.506c1.346,1.346,2.622,2.303,3.828,2.871
		c0.354,0.213,0.46,0.495,0.319,0.851c-0.213,0.282-0.532,0.319-0.957,0.106c-1.632-0.709-3.19-1.808-4.679-3.296
		c-2.411-2.409-3.615-5.423-3.615-9.039c0-3.615,1.204-6.627,3.615-9.038c1.488-1.488,3.047-2.587,4.679-3.296
		C125.026,1.223,125.346,1.26,125.559,1.542z"/>
	<path fill="#FFFFFF" d="M148.101,2.18c0.354-0.141,0.638-0.07,0.851,0.212c0.708,0.781,1.346,1.879,1.914,3.296
		c0.069,0.425-0.071,0.709-0.426,0.851c-0.213,0.071-0.425,0.071-0.638,0c0.141,0.143,0.247,0.284,0.319,0.425
		c0.282,0.638,0.105,1.17-0.532,1.595c-1.772,0.851-4.04,1.666-6.805,2.445c-2.765,0.781-5.92,1.383-9.464,1.808v7.231
		c0,1.914,1.383,2.871,4.147,2.871h3.509c1.204,0,3.083-0.106,5.635-0.319c0.851-0.069,2.162-0.247,3.935-0.531
		c0.779-0.07,1.204,0.249,1.276,0.957c0.069,0.638-0.25,1.026-0.957,1.169c-2.552,0.426-5.46,0.639-8.72,0.639h-3.827
		c-4.609,0-6.912-1.596-6.912-4.785V3.775c0-0.708,0.319-1.063,0.957-1.063c0.639,0,0.957,0.355,0.957,1.063v7.337
		c2.34-0.283,4.927-0.851,7.763-1.701c2.692-0.851,5.21-1.843,7.549-2.978c0.354-0.141,0.708-0.141,1.063,0
		c-0.426-1.063-0.993-2.196-1.701-3.402C147.852,2.677,147.888,2.393,148.101,2.18z M150.652,1.436
		c0.354-0.142,0.638-0.106,0.851,0.106c0.92,0.922,1.63,2.021,2.127,3.296c0.141,0.355,0.034,0.638-0.319,0.851
		c-0.355,0.143-0.638,0.071-0.851-0.212c-0.568-1.133-1.206-2.233-1.914-3.296C150.333,1.897,150.368,1.648,150.652,1.436z"/>
	<path fill="#FFFFFF" d="M158.309,4.307c0.354-0.566,0.813-0.744,1.382-0.532c3.19,1.276,5.812,2.765,7.868,4.466
		c0.639,0.568,0.745,1.17,0.319,1.808c-0.568,0.638-1.206,0.675-1.914,0.106c-2.41-1.914-4.821-3.438-7.23-4.572
		C158.309,5.3,158.166,4.875,158.309,4.307z M179.043,6.114c0.638,0.143,0.885,0.532,0.744,1.169
		c-1.135,4.963-3.19,8.932-6.167,11.91c-3.12,3.12-7.656,5.032-13.61,5.741c-0.781,0-1.206-0.355-1.276-1.063
		c0-0.708,0.354-1.099,1.063-1.17c5.387-0.495,9.604-2.268,12.653-5.316c2.48-2.48,4.323-5.99,5.529-10.527
		C178.12,6.292,178.475,6.044,179.043,6.114z"/>
	<path fill="#FFFFFF" d="M183.509,25.998c-0.143-0.355-0.036-0.638,0.319-0.851c1.204-0.568,2.48-1.525,3.827-2.871
		c2.34-2.339,3.51-5.173,3.51-8.506c0-3.331-1.17-6.167-3.51-8.506c-1.347-1.346-2.623-2.303-3.827-2.871
		c-0.355-0.212-0.462-0.495-0.319-0.851c0.213-0.282,0.531-0.319,0.957-0.106c1.63,0.709,3.189,1.808,4.679,3.296
		c2.409,2.411,3.615,5.423,3.615,9.038c0,3.616-1.206,6.629-3.615,9.039c-1.489,1.488-3.049,2.587-4.679,3.296
		C184.04,26.317,183.722,26.28,183.509,25.998z"/>
</g>
</svg>
