<?xml version="1.0" encoding="utf-8"?>
<!-- Generator: Adobe Illustrator 15.1.0, SVG Export Plug-In . SVG Version: 6.00 Build 0)  -->
<!DOCTYPE svg PUBLIC "-//W3C//DTD SVG 1.1//EN" "http://www.w3.org/Graphics/SVG/1.1/DTD/svg11.dtd">
<svg version="1.1" id="レイヤー_1" xmlns="http://www.w3.org/2000/svg" xmlns:xlink="http://www.w3.org/1999/xlink" x="0px"
	 y="0px" width="200px" height="27px" viewBox="0 0 200 27" enable-background="new 0 0 200 27" xml:space="preserve">
<g>
	<path d="M7.373,6.913C7.67,7.34,7.633,7.732,7.26,8.087c-1.645,1.281-3.177,2.134-4.596,2.561c-0.599,0.144-1.009,0-1.233-0.427
		c-0.151-0.497,0.037-0.889,0.56-1.174C3.187,8.621,4.57,7.91,6.139,6.913C6.661,6.63,7.073,6.63,7.373,6.913z M10.063,22.493
		c0.149,0.568-0.039,0.995-0.56,1.28c-2.617,0.995-4.896,1.601-6.838,1.813c-0.673,0.07-1.047-0.143-1.121-0.64
		c0-0.427,0.298-0.677,0.897-0.747c2.69-0.57,4.745-1.244,6.165-2.027C9.278,21.89,9.763,21.996,10.063,22.493z M2.328,2.004
		c0.224-0.355,0.597-0.461,1.121-0.32c1.194,0.357,2.354,0.89,3.475,1.601C7.597,3.712,7.746,4.21,7.373,4.779
		C6.998,5.136,6.549,5.171,6.027,4.886C5.13,4.246,4.083,3.642,2.889,3.072C2.365,2.788,2.178,2.432,2.328,2.004z M22.617,11.822
		c0.448,0,0.858,0.179,1.233,0.534c0.373,0.357,0.561,0.747,0.561,1.174v6.402c0,0.427-0.188,0.818-0.561,1.174
		c-0.375,0.357-0.785,0.533-1.233,0.533H5.467c-0.448,0-0.86-0.176-1.233-0.533c-0.375-0.355-0.561-0.747-0.561-1.174v-6.402
		c0-0.427,0.186-0.817,0.561-1.174C4.607,12,5.019,11.822,5.467,11.822H22.617z M5.243,13.956v0.641h17.599v-0.641
		c0-0.568-0.299-0.854-0.896-0.854H6.139C5.541,13.103,5.243,13.388,5.243,13.956z M5.243,17.371h17.599v-1.494H5.243V17.371z
		 M5.243,19.505c0,0.57,0.298,0.854,0.896,0.854h15.806c0.597,0,0.896-0.283,0.896-0.854v-0.854H5.243V19.505z M12.417,0.831
		c0.449,0.144,0.598,0.499,0.449,1.067l-0.449,0.854h12.443c0.521,0,0.896,0.144,1.121,0.427c0.224,0.357,0.261,0.784,0.112,1.281
		c-0.823,1.424-1.981,2.561-3.475,3.415c-0.672,0.285-1.121,0.25-1.345-0.106c-0.224-0.355-0.112-0.675,0.336-0.96
		c1.419-0.924,2.354-1.849,2.802-2.774h-7.847v1.814c1.046,1.139,2.279,2.027,3.699,2.667c1.793,0.712,3.736,1.174,5.829,1.387
		c0.672,0.072,1.009,0.357,1.009,0.854c-0.075,0.499-0.448,0.747-1.121,0.747c-1.271,0-2.99-0.39-5.156-1.174
		c-1.869-0.71-3.438-1.708-4.708-2.988c-1.196,1.993-3.999,3.167-8.407,3.521c-0.599,0-0.896-0.177-0.896-0.533
		c0-0.355,0.224-0.569,0.672-0.641c5.006-0.497,7.51-1.991,7.51-4.481V4.032h-3.25c-0.897,1.139-1.72,1.958-2.466,2.454
		c-0.448,0.285-0.823,0.285-1.121,0C7.933,6.203,7.97,5.883,8.269,5.526c1.345-1.208,2.354-2.596,3.027-4.162
		C11.52,0.868,11.893,0.689,12.417,0.831z M17.349,22.493c0.074-0.427,0.373-0.604,0.897-0.534c2.764,0.357,5.193,0.926,7.286,1.708
		c0.597,0.283,0.821,0.675,0.672,1.174c-0.224,0.496-0.672,0.64-1.345,0.427c-2.317-0.926-4.596-1.638-6.838-2.135
		C17.573,23.062,17.349,22.85,17.349,22.493z"/>
	<path d="M30.576,8.407c0.298-0.142,0.597-0.142,0.896,0c1.643,1.28,2.69,2.384,3.139,3.308c0.298,0.499,0.224,0.89-0.224,1.174
		c-0.448,0.285-0.86,0.25-1.233-0.107c-1.047-1.351-1.981-2.454-2.802-3.308C30.128,9.047,30.201,8.692,30.576,8.407z
		 M33.939,15.983c0.522,0.072,0.746,0.427,0.672,1.067c-0.448,2.419-1.308,4.66-2.578,6.723c-0.375,0.568-0.823,0.747-1.345,0.533
		c-0.375-0.285-0.487-0.64-0.336-1.066c0.97-1.564,1.867-3.771,2.69-6.616C33.191,16.127,33.491,15.913,33.939,15.983z
		 M30.913,2.004c0.297-0.283,0.634-0.32,1.009-0.106c1.27,0.854,2.315,1.958,3.139,3.308c0.373,0.499,0.336,0.925-0.112,1.28
		C34.5,6.771,34.051,6.7,33.603,6.273C32.63,5.064,31.697,3.962,30.8,2.965C30.576,2.538,30.613,2.218,30.913,2.004z M54.9,1.898
		c0.598,0,0.897,0.25,0.897,0.747c0,0.499-0.299,0.747-0.897,0.747h-6.501c-0.15,1.139-0.523,2.171-1.121,3.095h5.604
		c0.97,0,1.458,0.463,1.458,1.387v7.363c0,0.926-0.487,1.388-1.458,1.388h-4.147v7.043c0,1.137-0.86,1.707-2.578,1.707
		c-0.972,0-1.944-0.179-2.915-0.533c-0.375-0.214-0.523-0.499-0.448-0.854c0.149-0.356,0.448-0.498,0.896-0.427
		c0.897,0.284,1.569,0.427,2.018,0.427c0.97,0,1.457-0.392,1.457-1.174v-6.188h-4.708c-0.972,0-1.457-0.462-1.457-1.388V7.874
		c0-0.924,0.485-1.387,1.457-1.387h3.251c0.522-1.137,0.821-2.169,0.896-3.095h-7.286c-0.375,0-0.561,0.179-0.561,0.534v9.71
		c0,3.985-0.972,7.363-2.914,10.138c-0.3,0.355-0.636,0.462-1.009,0.32c-0.375-0.214-0.448-0.534-0.224-0.961
		c1.718-2.916,2.578-6.082,2.578-9.497V3.605c0-0.427,0.186-0.817,0.561-1.174c0.373-0.355,0.785-0.534,1.233-0.534H54.9z
		 M43.243,18.331c0.522,0.214,0.673,0.57,0.448,1.067c-0.972,2.348-2.28,3.911-3.923,4.695c-0.599,0.283-1.009,0.248-1.233-0.107
		c-0.224-0.356-0.15-0.677,0.224-0.96c1.195-0.924,2.279-2.348,3.251-4.269C42.308,18.261,42.719,18.118,43.243,18.331z
		 M42.57,8.514v2.241h10.201V8.514c0-0.355-0.188-0.533-0.561-0.533h-9.08C42.756,7.98,42.57,8.159,42.57,8.514z M42.57,14.597
		c0,0.356,0.186,0.533,0.561,0.533h9.08c0.373,0,0.561-0.177,0.561-0.533v-2.348H42.57V14.597z M51.313,18.438
		c0.373-0.354,0.746-0.354,1.121,0c1.121,1.139,2.13,2.526,3.026,4.162c0.298,0.568,0.224,0.995-0.224,1.28
		c-0.599,0.355-1.084,0.214-1.457-0.427c-0.823-1.494-1.682-2.881-2.578-4.161C51.051,18.937,51.089,18.651,51.313,18.438z"/>
	<path d="M63.196,1.791c0-0.568,0.261-0.854,0.785-0.854c0.522,0,0.785,0.285,0.785,0.854v4.162h2.354
		c0.597,0,0.896,0.25,0.896,0.747c0,0.499-0.299,0.747-0.896,0.747h-2.354v8.216c0.746-0.283,1.606-0.64,2.578-1.066
		c0.522-0.284,0.934-0.284,1.233,0c0.373,0.498,0.149,0.96-0.672,1.387c-0.897,0.499-1.944,0.961-3.139,1.388v7.256
		c0,0.568-0.263,0.854-0.785,0.854c-0.524,0-0.785-0.285-0.785-0.854v-6.723c-0.897,0.356-1.869,0.677-2.915,0.96
		c-0.972,0.285-1.533,0.107-1.682-0.533c-0.15-0.641,0.261-1.03,1.233-1.174c1.045-0.213,2.167-0.533,3.363-0.96v-8.75h-2.13
		c-0.224,1.565-0.524,2.918-0.897,4.055c-0.224,0.64-0.599,0.925-1.121,0.854c-0.449-0.07-0.561-0.534-0.336-1.387
		c0.448-1.921,0.746-4.162,0.897-6.723c0-0.854,0.297-1.281,0.896-1.281c0.672,0,0.97,0.464,0.897,1.387l-0.225,1.601h2.018V1.791z
		 M71.603,1.044c0.598,0.071,0.858,0.499,0.785,1.28c-0.15,0.925-0.375,1.886-0.672,2.881h10.313c0.449,0,0.858,0.178,1.233,0.533
		c0.373,0.357,0.561,0.747,0.561,1.174v13.019c0,3.415-1.309,5.122-3.923,5.122c-1.345,0-2.505-0.106-3.475-0.32
		c-0.599-0.144-0.897-0.392-0.897-0.747c0-0.64,0.449-0.89,1.345-0.746c0.97,0.213,1.831,0.319,2.578,0.319
		c1.867,0,2.803-1.28,2.803-3.841V7.554c0-0.569-0.3-0.854-0.897-0.854h-1.682c-0.523,6.475-2.392,11.952-5.604,16.433
		c-0.448,0.641-0.897,0.817-1.345,0.534c-0.375-0.285-0.336-0.711,0.112-1.281c3.139-5.05,4.857-10.279,5.156-15.686h-3.026
		c-0.599,5.479-2.505,10.458-5.717,14.939c-0.449,0.57-0.897,0.713-1.345,0.428c-0.375-0.284-0.375-0.676,0-1.174
		c2.988-4.624,4.781-9.354,5.38-14.193h-2.018c-0.524,1.494-1.309,2.881-2.354,4.162c-0.375,0.427-0.748,0.57-1.121,0.427
		c-0.448-0.213-0.448-0.64,0-1.28c1.345-2.063,2.242-4.695,2.69-7.896C70.631,1.329,71.004,0.974,71.603,1.044z"/>
	<path d="M126.978,0.938c0.148,0.357,0.037,0.64-0.336,0.854c-1.271,0.57-2.617,1.531-4.036,2.881
		c-2.466,2.348-3.698,5.194-3.698,8.537c0,3.345,1.232,6.189,3.698,8.537c1.419,1.351,2.765,2.311,4.036,2.881
		c0.373,0.214,0.484,0.497,0.336,0.854c-0.225,0.283-0.561,0.32-1.009,0.106c-1.72-0.712-3.363-1.813-4.933-3.308
		c-2.541-2.418-3.811-5.442-3.811-9.07s1.27-6.651,3.811-9.07c1.569-1.494,3.213-2.596,4.933-3.308
		C126.417,0.617,126.753,0.654,126.978,0.938z"/>
	<path d="M140.99,2.218c0.073-0.569,0.448-0.854,1.121-0.854c0.746,0.072,1.082,0.427,1.009,1.067l-0.337,2.774h8.855
		c0.971,0,1.794,0.32,2.467,0.96c0.521,0.499,0.784,1.139,0.784,1.92c0,4.269-0.487,8.502-1.457,12.698
		c-0.448,1.638-1.048,2.668-1.794,3.095c-0.448,0.355-1.121,0.534-2.018,0.534s-1.757-0.107-2.578-0.32
		c-1.569-0.357-2.989-0.819-4.26-1.388c-0.448-0.283-0.599-0.675-0.448-1.174c0.225-0.427,0.598-0.604,1.121-0.533
		c2.242,0.854,4.035,1.317,5.381,1.387c0.672,0,1.194-0.177,1.569-0.533c0.448-0.283,0.934-1.563,1.457-3.842
		c0.673-3.698,0.934-6.829,0.784-9.39c-0.075-0.996-0.599-1.494-1.569-1.494h-8.519c-0.748,5.692-2.878,10.209-6.39,13.552
		c-1.271,1.211-2.616,2.241-4.035,3.095c-0.6,0.213-1.048,0.142-1.346-0.214c-0.224-0.498-0.111-0.924,0.337-1.28
		c1.194-0.782,2.391-1.742,3.587-2.881c2.988-2.774,4.894-6.865,5.717-12.272h-7.734c-0.524,0-0.785-0.283-0.785-0.854
		c0-0.71,0.261-1.067,0.785-1.067h7.958L140.99,2.218z"/>
	<path d="M161.503,3.712c0.373-0.568,0.858-0.747,1.458-0.534c3.362,1.281,6.126,2.774,8.295,4.482
		c0.672,0.57,0.784,1.174,0.336,1.814c-0.599,0.641-1.271,0.677-2.018,0.107c-2.541-1.921-5.083-3.45-7.622-4.588
		C161.503,4.709,161.353,4.282,161.503,3.712z M183.361,5.526c0.673,0.144,0.934,0.534,0.785,1.174
		c-1.196,4.98-3.363,8.963-6.502,11.952c-3.289,3.131-8.07,5.05-14.348,5.763c-0.823,0-1.271-0.357-1.345-1.067
		c0-0.711,0.373-1.103,1.12-1.174c5.679-0.497,10.126-2.276,13.34-5.336c2.615-2.489,4.558-6.01,5.829-10.564
		C182.39,5.705,182.763,5.456,183.361,5.526z"/>
	<path d="M188.07,25.48c-0.151-0.356-0.039-0.64,0.336-0.854c1.27-0.57,2.615-1.53,4.035-2.881c2.466-2.348,3.699-5.192,3.699-8.537
		c0-3.343-1.233-6.189-3.699-8.537c-1.42-1.351-2.766-2.311-4.035-2.881c-0.375-0.213-0.487-0.497-0.336-0.854
		c0.224-0.283,0.56-0.32,1.009-0.107c1.718,0.712,3.362,1.814,4.932,3.308c2.54,2.419,3.812,5.442,3.812,9.07
		s-1.271,6.652-3.812,9.07c-1.569,1.494-3.214,2.596-4.932,3.308C188.63,25.801,188.294,25.764,188.07,25.48z"/>
</g>
<g>
</g>
</svg>
