<?xml version="1.0" encoding="utf-8"?>
<!-- Generator: Adobe Illustrator 15.1.0, SVG Export Plug-In . SVG Version: 6.00 Build 0)  -->
<!DOCTYPE svg PUBLIC "-//W3C//DTD SVG 1.1//EN" "http://www.w3.org/Graphics/SVG/1.1/DTD/svg11.dtd">
<svg version="1.1" id="レイヤー_1" xmlns="http://www.w3.org/2000/svg" xmlns:xlink="http://www.w3.org/1999/xlink" x="0px"
	 y="0px" width="200px" height="20px" viewBox="0 0 200 20" enable-background="new 0 0 200 20" xml:space="preserve">
<g enable-background="new    ">
	<path fill="#FFFFFF" d="M8.568,3.973c0.159,0.336,0.14,0.644-0.06,0.923C7.627,5.903,6.806,6.575,6.046,6.911
		c-0.321,0.113-0.541,0-0.661-0.336c-0.081-0.391,0.02-0.699,0.3-0.923c0.64-0.335,1.381-0.895,2.222-1.679
		C8.187,3.75,8.408,3.75,8.568,3.973z M10.009,16.229c0.08,0.447-0.021,0.783-0.3,1.008c-1.402,0.783-2.623,1.259-3.663,1.427
		c-0.36,0.056-0.561-0.112-0.601-0.503c0-0.336,0.16-0.533,0.48-0.588c1.441-0.449,2.542-0.979,3.303-1.596
		C9.589,15.754,9.849,15.838,10.009,16.229z M5.866,0.111c0.12-0.279,0.32-0.363,0.601-0.251c0.64,0.281,1.261,0.7,1.862,1.259
		c0.36,0.335,0.44,0.728,0.24,1.175C8.367,2.574,8.127,2.602,7.848,2.377c-0.48-0.503-1.042-0.979-1.682-1.427
		C5.885,0.728,5.785,0.447,5.866,0.111z M16.736,7.834c0.24,0,0.459,0.141,0.66,0.42c0.2,0.281,0.3,0.587,0.3,0.923v5.037
		c0,0.336-0.1,0.644-0.3,0.923c-0.201,0.281-0.42,0.42-0.66,0.42H7.547c-0.24,0-0.461-0.139-0.661-0.42
		c-0.201-0.279-0.3-0.587-0.3-0.923V9.177c0-0.336,0.099-0.643,0.3-0.923c0.2-0.279,0.42-0.42,0.661-0.42H16.736z M7.427,9.513
		v0.503h9.428V9.513c0-0.447-0.16-0.672-0.48-0.672H7.908C7.586,8.841,7.427,9.066,7.427,9.513z M7.427,12.199h9.428v-1.176H7.427
		V12.199z M7.427,13.879c0,0.447,0.159,0.671,0.48,0.671h8.468c0.32,0,0.48-0.224,0.48-0.671v-0.672H7.427V13.879z M11.271-0.813
		c0.24,0.113,0.32,0.393,0.24,0.84l-0.24,0.671h6.666c0.28,0,0.48,0.113,0.601,0.336c0.12,0.28,0.14,0.616,0.06,1.007
		c-0.441,1.12-1.061,2.015-1.861,2.686c-0.36,0.224-0.601,0.197-0.721-0.084c-0.12-0.279-0.06-0.531,0.18-0.755
		c0.76-0.727,1.261-1.455,1.501-2.183h-4.204v1.427c0.56,0.896,1.221,1.595,1.982,2.099c0.961,0.56,2.001,0.923,3.123,1.091
		c0.36,0.056,0.541,0.281,0.541,0.671c-0.04,0.392-0.24,0.587-0.601,0.587c-0.681,0-1.602-0.307-2.762-0.923
		c-1.001-0.559-1.842-1.343-2.522-2.35c-0.641,1.567-2.142,2.491-4.504,2.77c-0.321,0-0.48-0.139-0.48-0.42
		c0-0.279,0.12-0.447,0.36-0.503c2.682-0.391,4.024-1.566,4.024-3.526V1.706H10.91c-0.48,0.896-0.921,1.54-1.321,1.931
		c-0.24,0.225-0.441,0.225-0.601,0c-0.12-0.223-0.1-0.475,0.06-0.755C9.769,1.93,10.31,0.839,10.67-0.393
		C10.79-0.784,10.99-0.924,11.271-0.813z M13.913,16.229c0.04-0.336,0.2-0.475,0.48-0.42c1.48,0.281,2.782,0.729,3.903,1.344
		c0.32,0.223,0.44,0.531,0.36,0.924c-0.12,0.391-0.36,0.503-0.721,0.335c-1.241-0.728-2.462-1.288-3.663-1.679
		C14.033,16.676,13.913,16.51,13.913,16.229z"/>
	<path fill="#FFFFFF" d="M21,5.148c0.16-0.112,0.32-0.112,0.48,0c0.88,1.007,1.441,1.875,1.682,2.602
		c0.159,0.393,0.12,0.701-0.12,0.923c-0.24,0.225-0.461,0.197-0.661-0.083c-0.562-1.063-1.062-1.931-1.501-2.603
		C20.759,5.651,20.799,5.372,21,5.148z M22.801,11.107c0.279,0.057,0.399,0.336,0.36,0.84c-0.24,1.903-0.701,3.666-1.381,5.289
		c-0.201,0.447-0.441,0.588-0.721,0.42c-0.201-0.225-0.261-0.504-0.18-0.84c0.52-1.23,1-2.966,1.441-5.205
		C22.4,11.221,22.561,11.053,22.801,11.107z M21.18,0.111c0.16-0.223,0.34-0.251,0.541-0.083c0.68,0.671,1.24,1.54,1.682,2.602
		c0.2,0.392,0.18,0.728-0.06,1.007c-0.24,0.225-0.48,0.168-0.721-0.168C22.1,2.518,21.6,1.651,21.12,0.867
		C21,0.531,21.019,0.279,21.18,0.111z M34.031,0.027c0.32,0,0.48,0.196,0.48,0.587c0,0.392-0.16,0.587-0.48,0.587h-3.483
		c-0.081,0.896-0.281,1.708-0.601,2.435h3.002c0.52,0,0.781,0.365,0.781,1.091v5.792c0,0.728-0.261,1.091-0.781,1.091h-2.222v5.541
		c0,0.895-0.461,1.343-1.381,1.343c-0.521,0-1.042-0.14-1.562-0.419c-0.201-0.168-0.281-0.393-0.24-0.672
		c0.08-0.281,0.24-0.393,0.48-0.336c0.48,0.223,0.841,0.336,1.081,0.336c0.52,0,0.781-0.309,0.781-0.924v-4.869h-2.522
		c-0.521,0-0.781-0.363-0.781-1.091V4.728c0-0.727,0.26-1.091,0.781-1.091h1.742c0.28-0.895,0.44-1.707,0.48-2.435h-3.904
		c-0.201,0-0.3,0.141-0.3,0.42v7.639c0,3.135-0.521,5.792-1.561,7.975c-0.161,0.279-0.341,0.363-0.541,0.252
		c-0.201-0.168-0.24-0.42-0.12-0.756c0.92-2.294,1.381-4.785,1.381-7.471V1.37c0-0.335,0.1-0.643,0.3-0.923
		c0.2-0.279,0.42-0.419,0.661-0.419H34.031z M27.786,12.955c0.28,0.168,0.36,0.448,0.24,0.84c-0.521,1.846-1.222,3.076-2.102,3.693
		c-0.321,0.223-0.541,0.195-0.661-0.084c-0.12-0.281-0.081-0.533,0.12-0.756c0.64-0.727,1.221-1.847,1.742-3.357
		C27.285,12.9,27.505,12.787,27.786,12.955z M27.425,5.232v1.763h5.465V5.232c0-0.28-0.1-0.42-0.3-0.42h-4.864
		C27.525,4.812,27.425,4.952,27.425,5.232z M27.425,10.017c0,0.281,0.1,0.42,0.3,0.42h4.864c0.2,0,0.3-0.139,0.3-0.42V8.17h-5.465
		V10.017z M32.11,13.039c0.2-0.279,0.399-0.279,0.6,0c0.601,0.896,1.141,1.986,1.622,3.273c0.16,0.447,0.12,0.783-0.12,1.008
		c-0.321,0.279-0.581,0.168-0.781-0.336c-0.441-1.176-0.901-2.267-1.381-3.273C31.969,13.432,31.99,13.207,32.11,13.039z"/>
	<path fill="#FFFFFF" d="M38.476-0.057c0-0.447,0.14-0.672,0.42-0.672c0.279,0,0.42,0.225,0.42,0.672v3.274h1.261
		c0.32,0,0.48,0.196,0.48,0.587c0,0.392-0.16,0.587-0.48,0.587h-1.261v6.463c0.399-0.223,0.86-0.503,1.381-0.839
		c0.28-0.223,0.5-0.223,0.661,0c0.2,0.392,0.08,0.755-0.36,1.091c-0.48,0.393-1.042,0.756-1.681,1.092v5.709
		c0,0.447-0.141,0.671-0.42,0.671c-0.281,0-0.42-0.224-0.42-0.671v-5.289c-0.48,0.281-1.001,0.532-1.562,0.756
		c-0.521,0.224-0.821,0.084-0.901-0.42c-0.081-0.504,0.14-0.811,0.661-0.924c0.56-0.168,1.161-0.42,1.802-0.756V4.392h-1.141
		c-0.12,1.232-0.281,2.295-0.48,3.19c-0.12,0.504-0.321,0.728-0.601,0.672c-0.24-0.055-0.3-0.42-0.18-1.091
		c0.24-1.511,0.4-3.274,0.48-5.289c0-0.672,0.16-1.007,0.48-1.007c0.36,0,0.52,0.365,0.48,1.091l-0.12,1.259h1.081V-0.057z
		 M42.979-0.645c0.32,0.057,0.46,0.392,0.42,1.007c-0.081,0.728-0.201,1.483-0.36,2.267h5.525c0.24,0,0.46,0.141,0.661,0.42
		c0.2,0.281,0.3,0.587,0.3,0.923v10.241c0,2.687-0.701,4.03-2.102,4.03c-0.721,0-1.342-0.084-1.862-0.252
		c-0.321-0.113-0.48-0.309-0.48-0.588c0-0.504,0.24-0.701,0.721-0.588c0.52,0.168,0.98,0.252,1.381,0.252
		c1,0,1.501-1.008,1.501-3.022v-9.57c0-0.447-0.16-0.671-0.48-0.671h-0.9c-0.281,5.093-1.282,9.402-3.003,12.928
		c-0.24,0.504-0.48,0.643-0.721,0.42c-0.201-0.225-0.18-0.559,0.06-1.008c1.682-3.973,2.602-8.086,2.763-12.34h-1.622
		c-0.321,4.31-1.342,8.227-3.063,11.752c-0.24,0.449-0.48,0.561-0.721,0.336c-0.201-0.223-0.201-0.531,0-0.923
		c1.601-3.638,2.562-7.358,2.883-11.165h-1.081c-0.281,1.175-0.701,2.267-1.261,3.274c-0.201,0.336-0.4,0.449-0.601,0.336
		c-0.24-0.168-0.24-0.504,0-1.007c0.721-1.623,1.201-3.694,1.441-6.212C42.458-0.42,42.659-0.7,42.979-0.645z"/>
	<path fill="#FFFFFF" d="M64.959-0.729c0.08,0.281,0.02,0.504-0.18,0.672c-0.681,0.448-1.402,1.204-2.162,2.266
		c-1.321,1.847-1.982,4.086-1.982,6.716c0,2.631,0.661,4.87,1.982,6.715c0.76,1.063,1.48,1.818,2.162,2.268
		c0.2,0.168,0.26,0.391,0.18,0.671c-0.12,0.224-0.3,0.252-0.541,0.084c-0.921-0.56-1.801-1.427-2.642-2.603
		c-1.362-1.902-2.042-4.281-2.042-7.135s0.68-5.232,2.042-7.135c0.841-1.175,1.721-2.042,2.642-2.603
		C64.659-0.98,64.839-0.951,64.959-0.729z"/>
	<path fill="#FFFFFF" d="M72.166,1.79c0.52,0,1.041,0.56,1.562,1.679c1.081,2.127,2.242,4.197,3.483,6.212
		c1,1.624,1.981,3.135,2.942,4.533c0.24,0.504,0.24,0.923,0,1.259c-0.28,0.336-0.581,0.336-0.901,0
		c-0.681-1.063-1.582-2.545-2.702-4.449c-1.362-2.35-2.623-4.616-3.784-6.799c-0.16-0.28-0.321-0.42-0.48-0.42
		c-0.16,0-0.321,0.168-0.48,0.504c-0.681,1.959-1.261,3.47-1.741,4.533c-0.601,1.343-1.242,2.547-1.922,3.61
		c-0.321,0.393-0.621,0.42-0.901,0.084c-0.24-0.336-0.261-0.727-0.06-1.176c0.8-1.343,1.441-2.545,1.922-3.609
		c0.64-1.455,1.201-2.854,1.681-4.197C71.185,2.377,71.646,1.79,72.166,1.79z M79.553,4.56c-0.321,0.449-0.721,0.672-1.201,0.672
		c-0.48,0-0.881-0.223-1.201-0.672c-0.321-0.447-0.48-1.007-0.48-1.679c0-0.672,0.159-1.23,0.48-1.679
		c0.32-0.447,0.721-0.671,1.201-0.671c0.48,0,0.88,0.224,1.201,0.671c0.32,0.449,0.48,1.007,0.48,1.679
		C80.033,3.553,79.873,4.113,79.553,4.56z M79.252,1.622c-0.24-0.336-0.541-0.503-0.901-0.503c-0.36,0-0.66,0.167-0.9,0.503
		s-0.36,0.755-0.36,1.259c0,0.503,0.12,0.923,0.36,1.259c0.24,0.335,0.541,0.503,0.9,0.503c0.36,0,0.661-0.168,0.901-0.503
		c0.24-0.336,0.36-0.756,0.36-1.259C79.613,2.377,79.493,1.958,79.252,1.622z"/>
	<path fill="#FFFFFF" d="M84.478,5.903c0.279-0.111,0.5,0,0.661,0.336c0.48,1.12,0.88,2.434,1.201,3.945
		c0.08,0.504-0.021,0.839-0.3,1.007c-0.36,0.113-0.581-0.055-0.66-0.503c-0.24-1.119-0.601-2.406-1.081-3.862
		C84.178,6.436,84.238,6.127,84.478,5.903z M93.486,5.232c0.32,0.056,0.459,0.335,0.42,0.839c-0.36,4.142-1.162,7.08-2.402,8.814
		c-1.321,1.847-3.303,2.966-5.946,3.358c-0.321,0-0.501-0.168-0.54-0.504c-0.041-0.393,0.06-0.645,0.3-0.756
		c2.482-0.447,4.283-1.455,5.405-3.021c1.12-1.566,1.841-4.253,2.162-8.06C92.925,5.4,93.126,5.177,93.486,5.232z M87.901,5.064
		c0.24-0.112,0.44-0.028,0.601,0.252c0.721,1.343,1.221,2.715,1.501,4.113c0.08,0.503-0.021,0.839-0.3,1.007
		c-0.321,0.056-0.541-0.084-0.661-0.42c-0.36-1.511-0.801-2.882-1.321-4.113C87.601,5.513,87.661,5.232,87.901,5.064z"/>
	<path fill="#FFFFFF" d="M102.014-0.393c0.36,0,0.54,0.281,0.54,0.839v5.541c1.922,0.503,3.463,1.007,4.625,1.511
		c1,0.392,1.921,0.839,2.762,1.343c0.36,0.281,0.48,0.701,0.36,1.259c-0.16,0.448-0.44,0.588-0.841,0.42
		c-2.242-1.398-4.544-2.435-6.906-3.106v9.99c0,0.559-0.18,0.84-0.54,0.84s-0.541-0.281-0.541-0.84V0.447
		C101.473-0.112,101.653-0.393,102.014-0.393z"/>
	<path fill="#FFFFFF" d="M116.366,6.491c0.4,0.113,0.561,0.449,0.48,1.008c-0.561,3.078-1.401,5.849-2.521,8.31
		c-0.201,0.449-0.48,0.617-0.841,0.504c-0.24-0.223-0.301-0.559-0.181-1.008c1.081-2.629,1.862-5.343,2.343-8.142
		C115.767,6.659,116.007,6.436,116.366,6.491z M119.31,2.881V0.447c0-0.559,0.18-0.839,0.54-0.839s0.541,0.281,0.541,0.839v2.435
		h5.465c0.399,0,0.601,0.252,0.601,0.755c0,0.504-0.201,0.755-0.601,0.755h-5.465v12.844c0,0.559-0.181,0.84-0.541,0.84
		s-0.54-0.281-0.54-0.84V4.392h-5.405c-0.4,0-0.601-0.251-0.601-0.755c0-0.503,0.2-0.755,0.601-0.755H119.31z M122.913,6.491
		c0.24-0.167,0.48-0.055,0.721,0.336c1.16,2.239,2.102,4.953,2.822,8.143c0.08,0.616-0.081,1.007-0.48,1.175
		c-0.4,0.113-0.682-0.111-0.841-0.672c-0.682-3.189-1.481-5.903-2.402-8.142C122.612,6.939,122.673,6.659,122.913,6.491z
		 M123.213-0.393c-0.081-0.223-0.06-0.447,0.061-0.671c0.199-0.112,0.36-0.084,0.48,0.083c0.399,0.672,0.76,1.484,1.08,2.435
		c0.12,0.336,0.08,0.617-0.12,0.839c-0.24,0.113-0.42,0-0.54-0.335C123.934,1.231,123.612,0.447,123.213-0.393z M124.895-0.729
		c-0.081-0.279-0.061-0.475,0.06-0.587c0.2-0.168,0.381-0.139,0.541,0.084c0.44,0.839,0.78,1.624,1.021,2.351
		c0.12,0.335,0.08,0.616-0.12,0.839c-0.24,0.113-0.42,0-0.54-0.336C125.575,0.839,125.255,0.056,124.895-0.729z"/>
	<path fill="#FFFFFF" d="M132.762-0.393c0.36,0,0.54,0.281,0.54,0.839v5.541c1.922,0.503,3.463,1.007,4.625,1.511
		c1,0.392,1.921,0.839,2.762,1.343c0.36,0.281,0.48,0.701,0.36,1.259c-0.16,0.448-0.44,0.588-0.841,0.42
		c-2.242-1.398-4.544-2.435-6.906-3.106v9.99c0,0.559-0.18,0.84-0.54,0.84s-0.541-0.281-0.541-0.84V0.447
		C132.221-0.112,132.401-0.393,132.762-0.393z"/>
	<path fill="#FFFFFF" d="M147.055,1.035c0.36,0,0.54,0.251,0.54,0.755v4.785c0,4.365-1.001,7.948-3.002,10.746
		c-0.201,0.279-0.441,0.307-0.721,0.084c-0.201-0.336-0.201-0.672,0-1.008c1.761-2.63,2.643-5.876,2.643-9.738V1.79
		C146.515,1.286,146.694,1.035,147.055,1.035z M150.478,1.37c0-0.559,0.181-0.839,0.541-0.839s0.54,0.281,0.54,0.839v13.432
		c0,0.616,0.22,0.923,0.661,0.923c0.64,0,1.4-0.615,2.282-1.846c0.96-1.344,1.641-3.078,2.041-5.206
		c0.08-0.391,0.28-0.559,0.601-0.503c0.32,0.113,0.44,0.42,0.36,0.923c-0.4,2.35-1.181,4.338-2.342,5.959
		c-1.201,1.68-2.342,2.52-3.423,2.52c-0.841,0-1.262-0.672-1.262-2.016V1.37z"/>
	<path fill="#FFFFFF" d="M171.316,3.721c1.001,1.567,1.502,3.526,1.502,5.876c0,2.35-0.48,4.226-1.441,5.624
		c-1.081,1.455-2.563,2.238-4.444,2.352c-0.32,0-0.48-0.225-0.48-0.672s0.16-0.672,0.48-0.672c1.48,0,2.723-0.672,3.724-2.015
		c0.681-1.175,1.021-2.687,1.021-4.533c0-2.126-0.42-3.833-1.261-5.121c-1.001-1.343-2.263-1.986-3.783-1.931
		c-0.281,2.799-0.601,5.121-0.961,6.968c-0.441,2.407-0.981,4.226-1.622,5.456c-0.521,1.008-1.161,1.512-1.921,1.512
		c-0.682,0-1.302-0.42-1.862-1.26c-0.681-1.175-1.021-2.545-1.021-4.113c0-2.854,0.78-5.288,2.342-7.303
		c1.48-1.734,3.183-2.603,5.104-2.603S170.155,2.098,171.316,3.721z M161.889,5.316c-1.081,1.735-1.622,3.722-1.622,5.959
		c0,1.064,0.181,2.016,0.541,2.854c0.36,0.728,0.8,1.091,1.321,1.091c0.439,0,0.84-0.307,1.2-0.923
		c0.44-0.839,0.841-2.153,1.201-3.945c0.521-2.687,0.881-5.26,1.081-7.723C164.13,2.965,162.889,3.861,161.889,5.316z"/>
	<path fill="#FFFFFF" d="M185.73,0.615c0.239,0,0.459,0.14,0.66,0.42c0.2,0.28,0.3,0.587,0.3,0.923v14.187
		c0,0.336-0.1,0.643-0.3,0.924c-0.201,0.279-0.421,0.42-0.66,0.42h-8.948c-0.24,0-0.461-0.141-0.661-0.42
		c-0.201-0.281-0.3-0.588-0.3-0.924V1.958c0-0.336,0.099-0.643,0.3-0.923c0.2-0.28,0.421-0.42,0.661-0.42H185.73z M176.902,2.461
		v5.96h8.708v-5.96c0-0.447-0.161-0.671-0.48-0.671h-7.747C177.062,1.79,176.902,2.014,176.902,2.461z M176.902,15.641
		c0,0.449,0.159,0.672,0.48,0.672h7.747c0.319,0,0.48-0.223,0.48-0.672V9.597h-8.708V15.641z"/>
</g>
<g enable-background="new    ">
	<path fill="#FFFFFF" d="M189.933,18.579c-0.081-0.28-0.021-0.503,0.181-0.671c0.68-0.449,1.4-1.205,2.162-2.268
		c1.32-1.846,1.98-4.084,1.98-6.715c0-2.63-0.66-4.869-1.98-6.716c-0.762-1.062-1.482-1.818-2.162-2.266
		c-0.201-0.168-0.262-0.391-0.181-0.672c0.12-0.223,0.3-0.252,0.54-0.084c0.921,0.56,1.803,1.427,2.643,2.603
		c1.361,1.903,2.042,4.281,2.042,7.135s-0.681,5.233-2.042,7.135c-0.84,1.176-1.722,2.043-2.643,2.603
		C190.232,18.831,190.053,18.803,189.933,18.579z"/>
</g>
</svg>
