<?xml version="1.0" encoding="utf-8"?>
<!-- Generator: Adobe Illustrator 15.1.0, SVG Export Plug-In . SVG Version: 6.00 Build 0)  -->
<!DOCTYPE svg PUBLIC "-//W3C//DTD SVG 1.1//EN" "http://www.w3.org/Graphics/SVG/1.1/DTD/svg11.dtd">
<svg version="1.1" xmlns="http://www.w3.org/2000/svg" xmlns:xlink="http://www.w3.org/1999/xlink" x="0px" y="0px" width="200px"
	 height="27px" viewBox="0 0 200 27" enable-background="new 0 0 200 27" xml:space="preserve">
<g id="レイヤー_1">
	<g>
		<path fill="#FFFFFF" d="M12.105,7.497c0.282,0.425,0.248,0.816-0.106,1.169c-1.56,1.276-3.014,2.127-4.359,2.552
			c-0.568,0.143-0.957,0-1.17-0.425c-0.143-0.495,0.035-0.886,0.532-1.17c1.133-0.425,2.446-1.133,3.934-2.126
			C11.431,7.214,11.821,7.214,12.105,7.497z M14.657,23.021c0.141,0.566-0.037,0.991-0.532,1.275
			c-2.482,0.992-4.644,1.595-6.486,1.808c-0.638,0.07-0.994-0.143-1.063-0.638c0-0.426,0.283-0.675,0.851-0.744
			c2.552-0.568,4.501-1.239,5.848-2.021C13.913,22.42,14.373,22.526,14.657,23.021z M7.321,2.605
			c0.212-0.354,0.566-0.46,1.063-0.319c1.133,0.355,2.233,0.887,3.296,1.595c0.638,0.425,0.779,0.922,0.425,1.489
			c-0.355,0.355-0.781,0.39-1.276,0.106c-0.851-0.638-1.844-1.24-2.978-1.808C7.355,3.386,7.178,3.031,7.321,2.605z M26.566,12.388
			c0.425,0,0.814,0.178,1.17,0.531c0.354,0.355,0.532,0.744,0.532,1.17v6.379c0,0.426-0.178,0.816-0.532,1.17
			c-0.355,0.355-0.745,0.532-1.17,0.532H10.298c-0.425,0-0.816-0.177-1.17-0.532c-0.355-0.354-0.531-0.744-0.531-1.17V14.09
			c0-0.426,0.176-0.815,0.531-1.17c0.354-0.354,0.745-0.531,1.17-0.531H26.566z M10.085,14.515v0.638h16.694v-0.638
			c0-0.567-0.284-0.851-0.851-0.851H10.936C10.368,13.664,10.085,13.948,10.085,14.515z M10.085,17.917h16.694v-1.488H10.085V17.917
			z M10.085,20.044c0,0.568,0.283,0.851,0.851,0.851h14.993c0.566,0,0.851-0.282,0.851-0.851v-0.851H10.085V20.044z M16.89,1.436
			c0.425,0.143,0.566,0.497,0.425,1.063L16.89,3.35h11.803c0.495,0,0.851,0.143,1.063,0.425c0.213,0.355,0.248,0.781,0.106,1.276
			c-0.781,1.419-1.879,2.552-3.296,3.403c-0.638,0.284-1.063,0.249-1.276-0.106c-0.212-0.354-0.106-0.673,0.319-0.957
			c1.346-0.92,2.233-1.842,2.658-2.765h-7.443v1.808c0.992,1.135,2.162,2.021,3.509,2.658c1.702,0.709,3.544,1.17,5.529,1.382
			c0.638,0.072,0.957,0.355,0.957,0.851c-0.071,0.497-0.425,0.745-1.063,0.745c-1.206,0-2.836-0.389-4.891-1.17
			c-1.772-0.708-3.261-1.701-4.466-2.977c-1.135,1.985-3.793,3.155-7.975,3.509c-0.568,0-0.851-0.176-0.851-0.532
			c0-0.354,0.213-0.566,0.638-0.638c4.748-0.495,7.124-1.984,7.124-4.466v-1.17h-3.083c-0.851,1.135-1.632,1.951-2.339,2.446
			c-0.425,0.284-0.781,0.284-1.063,0c-0.212-0.282-0.178-0.602,0.106-0.957c1.276-1.205,2.233-2.587,2.871-4.147
			C16.04,1.472,16.394,1.294,16.89,1.436z M21.569,23.021c0.069-0.426,0.354-0.602,0.851-0.532c2.622,0.355,4.926,0.922,6.911,1.701
			c0.566,0.282,0.779,0.673,0.638,1.17c-0.213,0.495-0.638,0.638-1.276,0.425c-2.198-0.922-4.36-1.631-6.486-2.126
			C21.781,23.588,21.569,23.377,21.569,23.021z"/>
		<path fill="#FFFFFF" d="M34.115,8.985c0.283-0.142,0.567-0.142,0.851,0c1.558,1.276,2.552,2.375,2.977,3.296
			c0.282,0.496,0.212,0.887-0.213,1.169c-0.425,0.284-0.815,0.25-1.169-0.106c-0.994-1.346-1.879-2.445-2.658-3.296
			C33.69,9.623,33.76,9.269,34.115,8.985z M37.305,16.535c0.495,0.071,0.708,0.425,0.638,1.063c-0.425,2.41-1.241,4.644-2.446,6.698
			c-0.355,0.566-0.781,0.744-1.276,0.532c-0.355-0.284-0.462-0.639-0.319-1.063c0.92-1.559,1.771-3.757,2.552-6.593
			C36.596,16.678,36.88,16.465,37.305,16.535z M34.435,2.605c0.282-0.282,0.601-0.319,0.957-0.106
			c1.204,0.851,2.196,1.951,2.977,3.296c0.354,0.497,0.319,0.922-0.106,1.276c-0.425,0.284-0.851,0.212-1.276-0.213
			c-0.922-1.204-1.808-2.302-2.658-3.296C34.115,3.137,34.15,2.818,34.435,2.605z M57.189,2.499c0.566,0,0.851,0.25,0.851,0.745
			c0,0.497-0.284,0.744-0.851,0.744h-6.167c-0.143,1.135-0.497,2.163-1.063,3.083h5.316c0.92,0,1.382,0.462,1.382,1.382v7.337
			c0,0.922-0.462,1.382-1.382,1.382h-3.934v7.018c0,1.134-0.816,1.701-2.446,1.701c-0.922,0-1.844-0.178-2.764-0.531
			c-0.356-0.213-0.497-0.497-0.426-0.851c0.142-0.355,0.426-0.497,0.851-0.426c0.851,0.283,1.488,0.426,1.914,0.426
			c0.92,0,1.382-0.391,1.382-1.17v-6.167h-4.466c-0.922,0-1.382-0.46-1.382-1.382V8.454c0-0.92,0.46-1.382,1.382-1.382h3.083
			c0.495-1.133,0.779-2.162,0.851-3.083h-6.911c-0.355,0-0.532,0.178-0.532,0.532v9.676c0,3.972-0.922,7.337-2.765,10.102
			c-0.284,0.354-0.603,0.46-0.957,0.319c-0.355-0.213-0.425-0.532-0.212-0.957c1.63-2.906,2.445-6.061,2.445-9.464V4.2
			c0-0.425,0.176-0.814,0.532-1.169c0.354-0.354,0.745-0.532,1.17-0.532H57.189z M46.131,18.874
			c0.495,0.213,0.638,0.568,0.425,1.063c-0.922,2.339-2.163,3.897-3.722,4.679c-0.568,0.282-0.957,0.247-1.169-0.106
			c-0.213-0.355-0.143-0.675,0.212-0.957c1.133-0.92,2.162-2.339,3.083-4.253C45.244,18.805,45.634,18.661,46.131,18.874z
			 M45.493,9.091v2.233h9.676V9.091c0-0.354-0.178-0.531-0.532-0.531h-8.612C45.669,8.56,45.493,8.738,45.493,9.091z M45.493,15.152
			c0,0.355,0.176,0.532,0.532,0.532h8.612c0.354,0,0.532-0.177,0.532-0.532v-2.339h-9.676V15.152z M53.786,18.98
			c0.354-0.354,0.708-0.354,1.063,0c1.063,1.135,2.02,2.518,2.871,4.146c0.282,0.567,0.212,0.992-0.213,1.276
			c-0.568,0.354-1.028,0.213-1.382-0.425c-0.781-1.489-1.595-2.871-2.445-4.147C53.537,19.478,53.574,19.193,53.786,18.98z"/>
		<path fill="#FFFFFF" d="M65.057,2.393c0-0.566,0.248-0.851,0.745-0.851c0.495,0,0.744,0.284,0.744,0.851V6.54h2.232
			c0.567,0,0.851,0.25,0.851,0.744c0,0.497-0.283,0.745-0.851,0.745h-2.232v8.188c0.708-0.282,1.523-0.638,2.445-1.063
			c0.495-0.282,0.886-0.282,1.17,0c0.354,0.497,0.141,0.957-0.638,1.383c-0.851,0.497-1.845,0.957-2.978,1.382v7.23
			c0,0.566-0.249,0.851-0.744,0.851c-0.497,0-0.745-0.284-0.745-0.851v-6.698c-0.851,0.355-1.772,0.674-2.765,0.957
			c-0.922,0.284-1.454,0.106-1.595-0.532c-0.143-0.638,0.248-1.026,1.169-1.169c0.992-0.213,2.055-0.532,3.19-0.957v-8.72h-2.02
			c-0.213,1.56-0.497,2.907-0.851,4.041c-0.213,0.638-0.568,0.922-1.063,0.851c-0.425-0.07-0.532-0.531-0.319-1.383
			c0.425-1.914,0.708-4.146,0.851-6.698c0-0.851,0.282-1.276,0.851-1.276c0.638,0,0.92,0.462,0.851,1.382L63.143,6.54h1.914V2.393z
			 M73.032,1.648c0.566,0.071,0.813,0.497,0.744,1.276c-0.144,0.922-0.355,1.879-0.638,2.871h9.782c0.425,0,0.813,0.178,1.169,0.532
			c0.354,0.355,0.532,0.744,0.532,1.169v12.972c0,3.403-1.241,5.104-3.722,5.104c-1.276,0-2.376-0.106-3.296-0.319
			c-0.568-0.143-0.852-0.391-0.852-0.744c0-0.638,0.426-0.888,1.276-0.744c0.921,0.213,1.736,0.318,2.445,0.318
			c1.771,0,2.658-1.275,2.658-3.827V8.135c0-0.567-0.284-0.851-0.851-0.851h-1.595c-0.497,6.451-2.27,11.91-5.316,16.375
			c-0.426,0.638-0.851,0.813-1.276,0.531c-0.355-0.284-0.318-0.707,0.106-1.275c2.978-5.032,4.607-10.244,4.892-15.631h-2.871
			c-0.568,5.46-2.376,10.421-5.423,14.887c-0.425,0.567-0.851,0.709-1.275,0.425c-0.356-0.282-0.356-0.673,0-1.17
			c2.834-4.606,4.535-9.321,5.104-14.142h-1.914c-0.497,1.489-1.241,2.871-2.233,4.147c-0.355,0.425-0.709,0.568-1.063,0.425
			c-0.426-0.213-0.426-0.638,0-1.276c1.275-2.055,2.126-4.678,2.552-7.868C72.109,1.933,72.464,1.579,73.032,1.648z"/>
	</g>
</g>
<g id="レイヤー_2">
	<g>
		<path fill="#FFFFFF" d="M91.761,1.523c0.086,0.354,0.021,0.635-0.195,0.846c-0.736,0.565-1.516,1.517-2.337,2.855
			c-1.428,2.327-2.143,5.148-2.143,8.461c0,3.315,0.714,6.134,2.143,8.46c0.821,1.339,1.601,2.291,2.337,2.856
			c0.216,0.211,0.281,0.492,0.195,0.846c-0.13,0.281-0.325,0.317-0.584,0.105c-0.996-0.705-1.947-1.798-2.856-3.278
			c-1.472-2.396-2.207-5.394-2.207-8.99s0.735-6.592,2.207-8.99c0.909-1.48,1.86-2.573,2.856-3.278
			C91.436,1.206,91.631,1.242,91.761,1.523z"/>
		<path fill="#FFFFFF" d="M99.551,4.696c0.562,0,1.125,0.706,1.688,2.115c1.169,2.681,2.424,5.289,3.766,7.827
			c1.081,2.046,2.143,3.949,3.181,5.711c0.26,0.635,0.26,1.164,0,1.587c-0.303,0.423-0.628,0.423-0.974,0
			c-0.736-1.339-1.71-3.208-2.921-5.605c-1.472-2.961-2.835-5.817-4.09-8.567c-0.174-0.352-0.347-0.529-0.52-0.529
			c-0.173,0-0.347,0.211-0.52,0.634c-0.736,2.469-1.363,4.373-1.882,5.711c-0.649,1.692-1.342,3.209-2.078,4.548
			c-0.347,0.494-0.671,0.528-0.974,0.105c-0.26-0.423-0.282-0.915-0.065-1.48c0.865-1.692,1.558-3.208,2.078-4.548
			c0.691-1.833,1.298-3.596,1.817-5.288C98.49,5.437,98.988,4.696,99.551,4.696z M107.536,8.186
			c-0.348,0.565-0.779,0.846-1.299,0.846s-0.952-0.281-1.298-0.846c-0.348-0.563-0.52-1.269-0.52-2.115s0.172-1.55,0.52-2.115
			c0.346-0.563,0.778-0.846,1.298-0.846s0.951,0.283,1.299,0.846c0.346,0.565,0.519,1.269,0.519,2.115S107.882,7.623,107.536,8.186z
			 M107.211,4.484c-0.26-0.423-0.584-0.635-0.974-0.635s-0.714,0.212-0.974,0.635c-0.26,0.423-0.39,0.952-0.39,1.586
			c0,0.635,0.13,1.164,0.39,1.586c0.26,0.423,0.584,0.635,0.974,0.635s0.714-0.211,0.974-0.635c0.26-0.423,0.39-0.952,0.39-1.586
			C107.601,5.437,107.471,4.908,107.211,4.484z"/>
		<path fill="#FFFFFF" d="M112.859,9.878c0.302-0.141,0.54,0,0.714,0.423c0.52,1.412,0.951,3.067,1.299,4.971
			c0.086,0.635-0.022,1.058-0.325,1.269c-0.39,0.143-0.628-0.069-0.714-0.634c-0.26-1.41-0.649-3.031-1.169-4.866
			C112.534,10.549,112.6,10.161,112.859,9.878z M122.597,9.032c0.346,0.071,0.497,0.423,0.455,1.058
			c-0.39,5.219-1.256,8.921-2.597,11.105c-1.429,2.326-3.571,3.736-6.428,4.23c-0.347,0-0.541-0.212-0.584-0.635
			c-0.044-0.494,0.065-0.812,0.324-0.952c2.684-0.563,4.631-1.832,5.843-3.808c1.212-1.973,1.99-5.357,2.337-10.153
			C121.99,9.244,122.207,8.963,122.597,9.032z M116.56,8.821c0.26-0.141,0.476-0.035,0.649,0.317
			c0.778,1.692,1.319,3.42,1.623,5.182c0.086,0.635-0.022,1.058-0.325,1.27c-0.347,0.07-0.584-0.106-0.714-0.529
			c-0.39-1.903-0.866-3.63-1.429-5.182C116.235,9.386,116.3,9.032,116.56,8.821z"/>
		<path fill="#FFFFFF" d="M131.815,1.946c0.39,0,0.584,0.354,0.584,1.058v6.98c2.077,0.635,3.743,1.27,4.999,1.904
			c1.081,0.494,2.077,1.058,2.986,1.692c0.39,0.354,0.52,0.883,0.39,1.586c-0.174,0.565-0.478,0.741-0.909,0.529
			c-2.424-1.762-4.912-3.067-7.466-3.913v12.586c0,0.704-0.194,1.058-0.584,1.058s-0.584-0.354-0.584-1.058V3.004
			C131.231,2.3,131.426,1.946,131.815,1.946z"/>
		<path fill="#FFFFFF" d="M147.331,10.619c0.432,0.142,0.605,0.565,0.52,1.269c-0.607,3.879-1.516,7.369-2.727,10.471
			c-0.218,0.565-0.52,0.776-0.909,0.635c-0.26-0.281-0.324-0.704-0.194-1.27c1.168-3.313,2.012-6.732,2.531-10.259
			C146.682,10.83,146.941,10.549,147.331,10.619z M150.512,6.071V3.004c0-0.704,0.195-1.058,0.584-1.058
			c0.39,0,0.585,0.354,0.585,1.058v3.067h5.907c0.433,0,0.649,0.317,0.649,0.952c0,0.634-0.217,0.952-0.649,0.952h-5.907v16.182
			c0,0.704-0.195,1.058-0.585,1.058c-0.389,0-0.584-0.354-0.584-1.058V7.975h-5.843c-0.433,0-0.648-0.317-0.648-0.952
			c0-0.635,0.216-0.952,0.648-0.952H150.512z M154.407,10.619c0.26-0.211,0.52-0.069,0.778,0.423
			c1.255,2.821,2.272,6.241,3.052,10.259c0.086,0.776-0.087,1.27-0.52,1.48c-0.433,0.143-0.736-0.141-0.909-0.846
			c-0.736-4.02-1.602-7.438-2.597-10.259C154.082,11.184,154.147,10.83,154.407,10.619z M154.731,1.946
			c-0.087-0.281-0.064-0.563,0.065-0.846c0.216-0.141,0.389-0.106,0.519,0.105c0.433,0.846,0.822,1.869,1.169,3.067
			c0.13,0.423,0.086,0.777-0.13,1.058c-0.26,0.142-0.454,0-0.584-0.423C155.511,3.992,155.164,3.004,154.731,1.946z M156.549,1.523
			c-0.087-0.352-0.064-0.598,0.065-0.74c0.216-0.211,0.411-0.175,0.584,0.106c0.476,1.058,0.844,2.046,1.104,2.961
			c0.13,0.423,0.087,0.777-0.13,1.058c-0.26,0.142-0.454,0-0.584-0.423C157.285,3.498,156.938,2.511,156.549,1.523z"/>
		<path fill="#FFFFFF" d="M165.054,1.946c0.39,0,0.584,0.354,0.584,1.058v6.98c2.077,0.635,3.743,1.27,4.999,1.904
			c1.081,0.494,2.077,1.058,2.986,1.692c0.39,0.354,0.52,0.883,0.39,1.586c-0.174,0.565-0.478,0.741-0.909,0.529
			c-2.424-1.762-4.912-3.067-7.466-3.913v12.586c0,0.704-0.194,1.058-0.584,1.058s-0.584-0.354-0.584-1.058V3.004
			C164.47,2.3,164.664,1.946,165.054,1.946z"/>
		<path fill="#FFFFFF" d="M180.504,3.744c0.39,0,0.585,0.317,0.585,0.952v6.029c0,5.5-1.083,10.013-3.246,13.537
			c-0.217,0.353-0.477,0.387-0.779,0.106c-0.217-0.423-0.217-0.847,0-1.27c1.904-3.313,2.856-7.403,2.856-12.269V4.696
			C179.92,4.062,180.114,3.744,180.504,3.744z M184.205,4.167c0-0.704,0.194-1.058,0.584-1.058s0.584,0.354,0.584,1.058v16.922
			c0,0.777,0.237,1.164,0.714,1.164c0.692,0,1.515-0.775,2.467-2.327c1.039-1.692,1.774-3.877,2.208-6.557
			c0.086-0.493,0.302-0.704,0.648-0.635c0.347,0.142,0.477,0.529,0.39,1.164c-0.433,2.961-1.276,5.465-2.531,7.509
			c-1.299,2.115-2.532,3.173-3.7,3.173c-0.909,0-1.363-0.846-1.363-2.538V4.167z"/>
		<path fill="#FFFFFF" d="M193.618,25.849c-0.088-0.354-0.022-0.635,0.194-0.846c0.735-0.565,1.515-1.518,2.337-2.856
			c1.429-2.326,2.143-5.146,2.143-8.46c0-3.313-0.714-6.134-2.143-8.461c-0.822-1.338-1.602-2.29-2.337-2.855
			c-0.217-0.211-0.282-0.493-0.194-0.846c0.13-0.281,0.324-0.317,0.584-0.105c0.995,0.706,1.947,1.798,2.856,3.278
			c1.471,2.398,2.207,5.394,2.207,8.99s-0.736,6.593-2.207,8.99c-0.909,1.48-1.861,2.573-2.856,3.278
			C193.942,26.166,193.748,26.13,193.618,25.849z"/>
	</g>
</g>
</svg>
