<?xml version="1.0" encoding="utf-8"?>
<!-- Generator: Adobe Illustrator 15.1.0, SVG Export Plug-In . SVG Version: 6.00 Build 0)  -->
<!DOCTYPE svg PUBLIC "-//W3C//DTD SVG 1.1//EN" "http://www.w3.org/Graphics/SVG/1.1/DTD/svg11.dtd">
<svg version="1.1" id="レイヤー_1" xmlns="http://www.w3.org/2000/svg" xmlns:xlink="http://www.w3.org/1999/xlink" x="0px"
	 y="0px" width="200px" height="27px" viewBox="0 0 200 27" enable-background="new 0 0 200 27" xml:space="preserve">
<g>
	<path d="M4.83,6.913C5.028,7.34,5.004,7.732,4.755,8.087c-1.096,1.281-2.118,2.134-3.063,2.561c-0.399,0.144-0.672,0-0.822-0.427
		C0.77,9.725,0.895,9.333,1.244,9.047C2.04,8.621,2.962,7.91,4.008,6.913C4.356,6.63,4.63,6.63,4.83,6.913z M6.623,22.493
		c0.099,0.568-0.026,0.995-0.374,1.28c-1.744,0.995-3.263,1.601-4.557,1.813c-0.448,0.07-0.698-0.143-0.747-0.64
		c0-0.427,0.198-0.677,0.598-0.747c1.793-0.57,3.162-1.244,4.109-2.027C6.1,21.89,6.423,21.996,6.623,22.493z M1.468,2.004
		c0.149-0.355,0.398-0.461,0.747-0.32c0.796,0.357,1.569,0.89,2.316,1.601C4.979,3.712,5.079,4.21,4.83,4.779
		C4.58,5.136,4.281,5.171,3.934,4.886c-0.598-0.64-1.296-1.244-2.092-1.814C1.493,2.788,1.368,2.432,1.468,2.004z M14.99,11.822
		c0.298,0,0.572,0.179,0.821,0.534c0.249,0.357,0.374,0.747,0.374,1.174v6.402c0,0.427-0.125,0.818-0.374,1.174
		c-0.25,0.357-0.523,0.533-0.821,0.533H3.56c-0.299,0-0.573-0.176-0.822-0.533c-0.25-0.355-0.374-0.747-0.374-1.174v-6.402
		c0-0.427,0.124-0.817,0.374-1.174C2.987,12,3.261,11.822,3.56,11.822H14.99z M3.411,13.956v0.641h11.729v-0.641
		c0-0.568-0.199-0.854-0.597-0.854H4.008C3.609,13.103,3.411,13.388,3.411,13.956z M3.411,17.371h11.729v-1.494H3.411V17.371z
		 M3.411,19.505c0,0.57,0.198,0.854,0.598,0.854h10.534c0.398,0,0.597-0.283,0.597-0.854v-0.854H3.411V19.505z M8.192,0.831
		C8.491,0.974,8.59,1.329,8.491,1.898L8.192,2.751h8.292c0.348,0,0.598,0.144,0.747,0.427c0.149,0.357,0.174,0.784,0.075,1.281
		c-0.548,1.424-1.32,2.561-2.315,3.415c-0.448,0.285-0.747,0.25-0.896-0.106c-0.149-0.355-0.075-0.675,0.224-0.96
		c0.945-0.924,1.568-1.849,1.867-2.774h-5.229v1.814c0.697,1.139,1.519,2.027,2.465,2.667c1.195,0.712,2.49,1.174,3.884,1.387
		c0.448,0.072,0.672,0.357,0.672,0.854c-0.05,0.499-0.299,0.747-0.747,0.747c-0.847,0-1.992-0.39-3.436-1.174
		c-1.246-0.71-2.292-1.708-3.138-2.988c-0.797,1.993-2.665,3.167-5.603,3.521c-0.399,0-0.598-0.177-0.598-0.533
		c0-0.355,0.149-0.569,0.448-0.641C8.241,9.191,9.91,7.697,9.91,5.206V4.032H7.744C7.146,5.171,6.597,5.99,6.1,6.486
		c-0.299,0.285-0.549,0.285-0.747,0c-0.149-0.283-0.125-0.604,0.075-0.96C6.324,4.317,6.997,2.93,7.445,1.364
		C7.594,0.868,7.843,0.689,8.192,0.831z M11.479,22.493c0.049-0.427,0.249-0.604,0.598-0.534c1.842,0.357,3.461,0.926,4.855,1.708
		c0.398,0.283,0.548,0.675,0.448,1.174c-0.149,0.496-0.448,0.64-0.896,0.427c-1.544-0.926-3.063-1.638-4.557-2.135
		C11.628,23.062,11.479,22.85,11.479,22.493z"/>
	<path d="M20.294,8.407c0.198-0.142,0.398-0.142,0.598,0c1.095,1.28,1.793,2.384,2.092,3.308c0.198,0.499,0.149,0.89-0.149,1.174
		c-0.299,0.285-0.573,0.25-0.822-0.107c-0.698-1.351-1.32-2.454-1.868-3.308C19.995,9.047,20.044,8.692,20.294,8.407z
		 M22.535,15.983c0.348,0.072,0.497,0.427,0.448,1.067c-0.299,2.419-0.872,4.66-1.718,6.723c-0.25,0.568-0.549,0.747-0.896,0.533
		c-0.25-0.285-0.325-0.64-0.224-1.066c0.646-1.564,1.244-3.771,1.793-6.616C22.037,16.127,22.236,15.913,22.535,15.983z
		 M20.518,2.004c0.198-0.283,0.422-0.32,0.672-0.106c0.846,0.854,1.543,1.958,2.092,3.308c0.249,0.499,0.224,0.925-0.075,1.28
		C22.909,6.771,22.61,6.7,22.311,6.273c-0.648-1.209-1.27-2.311-1.868-3.308C20.294,2.538,20.318,2.218,20.518,2.004z M36.505,1.898
		c0.398,0,0.598,0.25,0.598,0.747c0,0.499-0.199,0.747-0.598,0.747h-4.333c-0.101,1.139-0.349,2.171-0.747,3.095h3.735
		c0.647,0,0.971,0.463,0.971,1.387v7.363c0,0.926-0.324,1.388-0.971,1.388h-2.764v7.043c0,1.137-0.573,1.707-1.718,1.707
		c-0.648,0-1.296-0.179-1.942-0.533c-0.25-0.214-0.349-0.499-0.299-0.854c0.099-0.356,0.299-0.498,0.598-0.427
		c0.598,0.284,1.046,0.427,1.345,0.427c0.646,0,0.971-0.392,0.971-1.174v-6.188h-3.138c-0.648,0-0.971-0.462-0.971-1.388V7.874
		c0-0.924,0.323-1.387,0.971-1.387h2.167c0.348-1.137,0.547-2.169,0.598-3.095h-4.856c-0.25,0-0.374,0.179-0.374,0.534v9.71
		c0,3.985-0.648,7.363-1.942,10.138c-0.2,0.355-0.424,0.462-0.672,0.32c-0.25-0.214-0.299-0.534-0.149-0.961
		c1.145-2.916,1.718-6.082,1.718-9.497V3.605c0-0.427,0.124-0.817,0.374-1.174c0.249-0.355,0.523-0.534,0.822-0.534H36.505z
		 M28.736,18.331c0.348,0.214,0.448,0.57,0.299,1.067c-0.648,2.348-1.52,3.911-2.615,4.695c-0.399,0.283-0.672,0.248-0.822-0.107
		c-0.149-0.356-0.101-0.677,0.149-0.96c0.796-0.924,1.519-2.348,2.167-4.269C28.112,18.261,28.387,18.118,28.736,18.331z
		 M28.288,8.514v2.241h6.798V8.514c0-0.355-0.125-0.533-0.374-0.533h-6.051C28.411,7.98,28.288,8.159,28.288,8.514z M28.288,14.597
		c0,0.356,0.124,0.533,0.374,0.533h6.051c0.249,0,0.374-0.177,0.374-0.533v-2.348h-6.798V14.597z M34.115,18.438
		c0.249-0.354,0.497-0.354,0.747,0c0.747,1.139,1.419,2.526,2.017,4.162c0.199,0.568,0.149,0.995-0.149,1.28
		c-0.399,0.355-0.722,0.214-0.971-0.427c-0.548-1.494-1.121-2.881-1.718-4.161C33.939,18.937,33.965,18.651,34.115,18.438z"/>
	<path d="M42.033,1.791c0-0.568,0.174-0.854,0.523-0.854c0.348,0,0.523,0.285,0.523,0.854v4.162h1.569
		c0.398,0,0.598,0.25,0.598,0.747c0,0.499-0.2,0.747-0.598,0.747h-1.569v8.216c0.497-0.283,1.07-0.64,1.718-1.066
		c0.348-0.284,0.622-0.284,0.822,0c0.249,0.498,0.099,0.96-0.448,1.387c-0.598,0.499-1.296,0.961-2.092,1.388v7.256
		c0,0.568-0.175,0.854-0.523,0.854c-0.349,0-0.523-0.285-0.523-0.854v-6.723c-0.598,0.356-1.246,0.677-1.942,0.96
		c-0.648,0.285-1.021,0.107-1.121-0.533c-0.101-0.641,0.174-1.03,0.822-1.174c0.697-0.213,1.444-0.533,2.241-0.96v-8.75h-1.419
		c-0.149,1.565-0.349,2.918-0.598,4.055c-0.149,0.64-0.399,0.925-0.747,0.854c-0.299-0.07-0.374-0.534-0.224-1.387
		c0.299-1.921,0.497-4.162,0.598-6.723c0-0.854,0.198-1.281,0.598-1.281c0.448,0,0.646,0.464,0.598,1.387l-0.149,1.601h1.345V1.791z
		 M47.636,1.044c0.398,0.071,0.572,0.499,0.523,1.28c-0.101,0.925-0.25,1.886-0.448,2.881h6.873c0.299,0,0.572,0.178,0.822,0.533
		c0.249,0.357,0.374,0.747,0.374,1.174v13.019c0,3.415-0.872,5.122-2.614,5.122c-0.896,0-1.669-0.106-2.316-0.32
		c-0.399-0.144-0.598-0.392-0.598-0.747c0-0.64,0.299-0.89,0.896-0.746c0.646,0.213,1.22,0.319,1.718,0.319
		c1.244,0,1.867-1.28,1.867-3.841V7.554c0-0.569-0.199-0.854-0.598-0.854h-1.12c-0.349,6.475-1.595,11.952-3.735,16.433
		c-0.299,0.641-0.598,0.817-0.896,0.534c-0.25-0.285-0.224-0.711,0.075-1.281c2.092-5.05,3.237-10.279,3.437-15.686h-2.017
		c-0.399,5.479-1.669,10.458-3.81,14.939c-0.299,0.57-0.598,0.713-0.896,0.428c-0.25-0.284-0.25-0.676,0-1.174
		c1.991-4.624,3.187-9.354,3.586-14.193h-1.345c-0.349,1.494-0.872,2.881-1.569,4.162c-0.25,0.427-0.499,0.57-0.747,0.427
		c-0.299-0.213-0.299-0.64,0-1.28c0.896-2.063,1.494-4.695,1.793-7.896C46.988,1.329,47.237,0.974,47.636,1.044z"/>
	<path d="M74.978,0.938c0.1,0.357,0.025,0.64-0.224,0.854c-0.847,0.57-1.744,1.531-2.689,2.881C70.421,7.02,69.6,9.866,69.6,13.209
		c0,3.345,0.822,6.189,2.465,8.537c0.945,1.351,1.842,2.311,2.689,2.881c0.249,0.214,0.324,0.497,0.224,0.854
		c-0.149,0.283-0.374,0.32-0.672,0.106c-1.146-0.712-2.241-1.813-3.287-3.308c-1.694-2.418-2.54-5.442-2.54-9.07
		s0.846-6.651,2.54-9.07c1.046-1.494,2.141-2.596,3.287-3.308C74.604,0.617,74.829,0.654,74.978,0.938z"/>
	<path d="M83.943,4.139c0.646,0,1.294,0.712,1.942,2.134c1.345,2.705,2.789,5.335,4.333,7.897c1.244,2.063,2.465,3.984,3.66,5.762
		c0.299,0.641,0.299,1.174,0,1.601c-0.349,0.427-0.722,0.427-1.121,0c-0.847-1.351-1.968-3.236-3.361-5.655
		c-1.694-2.988-3.263-5.869-4.707-8.644C84.49,6.878,84.291,6.7,84.092,6.7c-0.2,0-0.399,0.213-0.598,0.64
		c-0.848,2.491-1.569,4.412-2.167,5.763c-0.747,1.707-1.544,3.238-2.391,4.588c-0.399,0.499-0.773,0.534-1.121,0.107
		c-0.299-0.427-0.325-0.924-0.075-1.494c0.996-1.707,1.793-3.236,2.391-4.588c0.796-1.849,1.494-3.628,2.092-5.335
		C82.722,4.886,83.295,4.139,83.943,4.139z M93.131,7.66c-0.399,0.57-0.896,0.854-1.494,0.854c-0.597,0-1.096-0.283-1.494-0.854
		c-0.399-0.568-0.598-1.28-0.598-2.134c0-0.854,0.198-1.564,0.598-2.134c0.398-0.568,0.896-0.854,1.494-0.854
		c0.598,0,1.095,0.285,1.494,0.854c0.398,0.57,0.598,1.281,0.598,2.134C93.729,6.38,93.53,7.092,93.131,7.66z M92.758,3.925
		c-0.299-0.427-0.672-0.64-1.121-0.64c-0.448,0-0.821,0.213-1.12,0.64s-0.448,0.96-0.448,1.601c0,0.641,0.149,1.174,0.448,1.601
		c0.299,0.427,0.672,0.641,1.12,0.641c0.448,0,0.822-0.213,1.121-0.641c0.299-0.427,0.448-0.96,0.448-1.601
		C93.206,4.886,93.057,4.352,92.758,3.925z"/>
	<path d="M99.257,9.368c0.348-0.142,0.622,0,0.822,0.427c0.598,1.424,1.095,3.095,1.494,5.015c0.099,0.641-0.025,1.067-0.374,1.28
		c-0.448,0.144-0.722-0.069-0.821-0.64c-0.299-1.423-0.747-3.058-1.345-4.909C98.884,10.044,98.958,9.653,99.257,9.368z
		 M110.463,8.514c0.398,0.072,0.572,0.427,0.523,1.067c-0.448,5.266-1.445,9-2.988,11.204c-1.644,2.348-4.109,3.771-7.396,4.269
		c-0.399,0-0.624-0.213-0.672-0.64c-0.05-0.499,0.075-0.819,0.374-0.961c3.087-0.568,5.329-1.849,6.723-3.842
		c1.394-1.99,2.29-5.405,2.689-10.244C109.765,8.728,110.015,8.444,110.463,8.514z M103.516,8.3c0.299-0.142,0.547-0.035,0.747,0.32
		c0.896,1.708,1.519,3.451,1.867,5.229c0.1,0.64-0.025,1.067-0.373,1.281c-0.399,0.071-0.673-0.106-0.822-0.533
		c-0.448-1.921-0.996-3.664-1.644-5.229C103.142,8.871,103.217,8.514,103.516,8.3z"/>
	<path d="M121.071,1.364c0.448,0,0.672,0.357,0.672,1.067v7.042c2.391,0.641,4.308,1.281,5.753,1.921
		c1.244,0.499,2.391,1.067,3.437,1.708c0.448,0.356,0.598,0.89,0.448,1.601c-0.2,0.57-0.549,0.747-1.046,0.533
		c-2.79-1.777-5.653-3.094-8.592-3.948v12.698c0,0.711-0.224,1.067-0.672,1.067s-0.673-0.356-0.673-1.067V2.432
		C120.398,1.721,120.623,1.364,121.071,1.364z"/>
	<path d="M138.926,10.115c0.498,0.143,0.697,0.57,0.598,1.28c-0.697,3.914-1.743,7.435-3.138,10.564
		c-0.249,0.57-0.598,0.784-1.046,0.641c-0.299-0.283-0.373-0.71-0.224-1.28c1.345-3.344,2.315-6.793,2.913-10.351
		C138.179,10.328,138.478,10.044,138.926,10.115z M142.587,5.526V2.432c0-0.71,0.224-1.067,0.672-1.067s0.673,0.357,0.673,1.067
		v3.094h6.798c0.497,0,0.747,0.32,0.747,0.96s-0.25,0.96-0.747,0.96h-6.798v16.327c0,0.71-0.225,1.067-0.673,1.067
		s-0.672-0.357-0.672-1.067V7.447h-6.724c-0.498,0-0.747-0.32-0.747-0.96s0.249-0.96,0.747-0.96H142.587z M147.069,10.115
		c0.299-0.214,0.598-0.07,0.896,0.427c1.443,2.846,2.614,6.295,3.511,10.351c0.1,0.783-0.101,1.28-0.598,1.493
		c-0.498,0.144-0.848-0.142-1.046-0.854c-0.848-4.055-1.843-7.505-2.988-10.351C146.695,10.685,146.771,10.328,147.069,10.115z
		 M147.442,1.364c-0.101-0.283-0.074-0.568,0.075-0.854c0.248-0.142,0.448-0.107,0.598,0.106c0.497,0.854,0.945,1.886,1.345,3.095
		c0.149,0.427,0.099,0.784-0.149,1.067c-0.299,0.144-0.523,0-0.673-0.427C148.339,3.429,147.939,2.432,147.442,1.364z
		 M149.534,0.938c-0.101-0.355-0.074-0.604,0.075-0.747c0.248-0.213,0.473-0.177,0.672,0.107c0.548,1.067,0.972,2.064,1.271,2.988
		c0.149,0.427,0.099,0.784-0.149,1.067c-0.299,0.144-0.523,0-0.673-0.427C150.381,2.93,149.982,1.935,149.534,0.938z"/>
	<path d="M159.321,1.364c0.448,0,0.672,0.357,0.672,1.067v7.042c2.391,0.641,4.308,1.281,5.753,1.921
		c1.244,0.499,2.391,1.067,3.437,1.708c0.448,0.356,0.598,0.89,0.448,1.601c-0.2,0.57-0.549,0.747-1.046,0.533
		c-2.79-1.777-5.653-3.094-8.592-3.948v12.698c0,0.711-0.224,1.067-0.672,1.067s-0.673-0.356-0.673-1.067V2.432
		C158.648,1.721,158.873,1.364,159.321,1.364z"/>
	<path d="M177.102,3.178c0.448,0,0.672,0.32,0.672,0.96v6.083c0,5.549-1.245,10.102-3.735,13.659
		c-0.249,0.355-0.548,0.391-0.896,0.106c-0.249-0.427-0.249-0.854,0-1.28c2.191-3.343,3.287-7.47,3.287-12.378V4.139
		C176.429,3.499,176.653,3.178,177.102,3.178z M181.359,3.605c0-0.71,0.225-1.067,0.673-1.067s0.672,0.357,0.672,1.067v17.073
		c0,0.784,0.273,1.174,0.822,1.174c0.796,0,1.742-0.782,2.839-2.348c1.195-1.707,2.041-3.911,2.54-6.616
		c0.099-0.497,0.348-0.71,0.747-0.641c0.397,0.144,0.547,0.534,0.448,1.174c-0.499,2.988-1.47,5.514-2.914,7.577
		c-1.494,2.134-2.913,3.201-4.258,3.201c-1.046,0-1.569-0.854-1.569-2.562V3.605z"/>
	<path d="M192.192,25.48c-0.101-0.356-0.025-0.64,0.224-0.854c0.847-0.57,1.743-1.53,2.689-2.881
		c1.644-2.348,2.466-5.192,2.466-8.537c0-3.343-0.822-6.189-2.466-8.537c-0.946-1.351-1.843-2.311-2.689-2.881
		c-0.249-0.213-0.324-0.497-0.224-0.854c0.149-0.283,0.373-0.32,0.672-0.107c1.146,0.712,2.241,1.814,3.287,3.308
		c1.693,2.419,2.54,5.442,2.54,9.07s-0.847,6.652-2.54,9.07c-1.046,1.494-2.142,2.596-3.287,3.308
		C192.565,25.801,192.342,25.764,192.192,25.48z"/>
</g>
<g>
</g>
</svg>
