<?xml version="1.0" encoding="utf-8"?>
<!-- Generator: Adobe Illustrator 15.1.0, SVG Export Plug-In . SVG Version: 6.00 Build 0)  -->
<!DOCTYPE svg PUBLIC "-//W3C//DTD SVG 1.1//EN" "http://www.w3.org/Graphics/SVG/1.1/DTD/svg11.dtd">
<svg version="1.1" id="レイヤー_1" xmlns="http://www.w3.org/2000/svg" xmlns:xlink="http://www.w3.org/1999/xlink" x="0px"
	 y="0px" width="200px" height="20px" viewBox="0 0 200 20" enable-background="new 0 0 200 20" xml:space="preserve">
<g enable-background="new    ">
	<path fill="#FFFFFF" d="M62.9,1.822c0-0.433,0.193-0.65,0.582-0.65c0.387,0,0.582,0.217,0.582,0.65v6.91h3.322
		c0.387,0,0.581,0.163,0.581,0.488s-0.194,0.488-0.581,0.488h-3.322v1.626c1.549,1.029,2.685,2.061,3.405,3.089
		c0.332,0.597,0.332,1.03,0,1.301c-0.444,0.325-0.859,0.19-1.246-0.406c-0.554-0.976-1.274-1.951-2.159-2.927v6.991
		c0,0.433-0.195,0.65-0.582,0.65c-0.388,0-0.582-0.218-0.582-0.65v-6.097c-0.61,1.41-1.468,2.764-2.575,4.064
		c-0.388,0.38-0.72,0.435-0.997,0.162c-0.222-0.27-0.195-0.568,0.083-0.894c1.661-1.951,2.824-4.255,3.488-6.91h-3.073
		c-0.388,0-0.581-0.163-0.581-0.488s0.193-0.488,0.581-0.488H62.9V1.822z M60.16,2.31c0.387-0.053,0.636,0.109,0.748,0.488
		c0.442,1.463,0.748,2.819,0.914,4.065c0,0.488-0.195,0.731-0.582,0.731c-0.332,0-0.527-0.216-0.582-0.65
		c-0.222-1.246-0.498-2.465-0.831-3.658C59.661,2.745,59.771,2.419,60.16,2.31z M67.053,1.985c0.443,0.055,0.636,0.325,0.582,0.813
		c-0.278,1.463-0.665,2.927-1.163,4.39c-0.167,0.434-0.444,0.597-0.831,0.488c-0.278-0.108-0.361-0.352-0.25-0.732
		c0.499-1.626,0.831-3.061,0.997-4.309C66.443,2.202,66.666,1.985,67.053,1.985z M75.525,2.066c0.332,0,0.636,0.136,0.914,0.406
		c0.276,0.272,0.416,0.569,0.416,0.895v14.877h0.914c0.442,0,0.665,0.189,0.665,0.568s-0.222,0.569-0.665,0.569h-10.05
		c-0.444,0-0.665-0.19-0.665-0.569s0.221-0.568,0.665-0.568h1.495V3.367c0-0.325,0.138-0.623,0.416-0.895
		c0.276-0.271,0.581-0.406,0.914-0.406H75.525z M70.376,3.855v3.496h5.315V3.855c0-0.434-0.222-0.65-0.665-0.65H71.04
		C70.596,3.205,70.376,3.421,70.376,3.855z M70.376,12.716h5.315V8.489h-5.315V12.716z M70.376,18.244h5.315v-4.391h-5.315V18.244z"
		/>
	<path fill="#FFFFFF" d="M89.064,2.147c0-0.541,0.25-0.813,0.748-0.813c0.499,0,0.748,0.272,0.748,0.813v3.089h8.306
		c0.442,0,0.664,0.19,0.664,0.569c0,0.38-0.222,0.569-0.664,0.569h-8.223c1.605,4.877,4.457,8.779,8.555,11.706
		c0.332,0.271,0.415,0.597,0.249,0.976c-0.332,0.434-0.831,0.46-1.495,0.082c-3.212-2.114-5.842-5.529-7.89-10.244
		c-0.997,4.119-3.821,7.56-8.472,10.324c-0.61,0.326-0.997,0.298-1.163-0.08c-0.111-0.326,0-0.598,0.333-0.813
		c5.204-3.415,7.945-7.397,8.223-11.95h-7.974c-0.444,0-0.665-0.189-0.665-0.569c0-0.378,0.221-0.569,0.665-0.569h8.057V2.147z"/>
	<path fill="#FFFFFF" d="M106.091,9.789c0.332,0.272,0.387,0.569,0.166,0.895c-0.942,1.41-1.412,2.52-1.412,3.333
		c0,1.138,0.526,2.006,1.578,2.602c1.107,0.542,2.935,0.813,5.481,0.813c2.271,0,4.596-0.271,6.978-0.813
		c0.553-0.108,0.913,0.081,1.079,0.569c0.111,0.542-0.166,0.894-0.83,1.057c-1.993,0.379-4.402,0.568-7.227,0.568
		c-3.434,0-5.73-0.461-6.893-1.381c-1.109-0.922-1.662-2.005-1.662-3.252c0-1.246,0.553-2.655,1.662-4.228
		C105.287,9.626,105.646,9.573,106.091,9.789z M116.805,3.286c0.499,0.109,0.72,0.407,0.665,0.894
		c-0.111,0.435-0.415,0.624-0.913,0.569c-1.109-0.216-2.465-0.325-4.07-0.325c-2.714,0-5.262,0.217-7.642,0.65
		c-0.444,0.055-0.72-0.135-0.831-0.569c0-0.378,0.193-0.622,0.582-0.731c2.768-0.541,5.426-0.813,7.974-0.813
		C114.285,2.96,115.697,3.07,116.805,3.286z M117.138,1.334c0.276-0.108,0.525-0.053,0.747,0.163
		c0.609,0.705,1.163,1.491,1.662,2.358c0.166,0.379,0.082,0.65-0.25,0.813c-0.332,0.109-0.581,0.028-0.747-0.244
		c-0.388-0.704-0.914-1.49-1.578-2.357C116.805,1.796,116.859,1.552,117.138,1.334z M119.131,0.603
		c0.276-0.108,0.525-0.053,0.748,0.163c0.608,0.705,1.162,1.491,1.66,2.357c0.111,0.38,0.027,0.65-0.248,0.813
		c-0.332,0.109-0.582,0.028-0.748-0.244c-0.389-0.704-0.914-1.49-1.578-2.358C118.799,1.009,118.854,0.766,119.131,0.603z"/>
	<path fill="#FFFFFF" d="M130.51,1.985c0.443-0.053,0.803-0.053,1.08,0c0.498,0.163,0.83,0.461,0.997,0.895
		c0.11,0.217,0.166,0.542,0.166,0.976c-0.056,0.759-0.306,2.005-0.747,3.739l-0.416,1.301c1.882,0.272,3.875,0.841,5.98,1.707
		c0.166-2.004,0.249-3.603,0.249-4.796c0-0.541,0.249-0.813,0.747-0.813c0.499,0,0.748,0.272,0.748,0.813
		c0,1.573-0.111,3.361-0.332,5.366c1.439,0.65,2.38,1.138,2.824,1.463c0.332,0.325,0.415,0.705,0.248,1.138
		c-0.332,0.38-0.775,0.407-1.328,0.081c-0.609-0.378-1.246-0.758-1.91-1.138c-0.277,2.276-0.942,3.902-1.994,4.878
		c-0.996,0.921-2.547,1.707-4.65,2.357c-0.389,0.053-0.638-0.082-0.748-0.406c-0.111-0.326,0.027-0.569,0.416-0.732
		c1.771-0.542,3.1-1.246,3.986-2.113c0.885-0.921,1.412-2.439,1.578-4.553c-1.883-0.975-3.933-1.679-6.146-2.113
		c-0.555,1.626-1.108,3.008-1.661,4.146c-0.665,1.355-1.357,2.412-2.077,3.17c-0.609,0.543-1.273,0.813-1.992,0.813
		c-0.831,0-1.469-0.297-1.911-0.894c-0.444-0.596-0.665-1.354-0.665-2.276c0-1.301,0.526-2.574,1.578-3.82
		c1.273-1.354,3.184-2.141,5.732-2.358c0.664-2.438,0.996-4.01,0.996-4.715c0-0.378-0.083-0.623-0.249-0.731
		c-0.167-0.108-0.472-0.108-0.914,0c-0.831,0.163-2.437,0.353-4.817,0.569c-0.443,0-0.721-0.216-0.83-0.65
		c0-0.488,0.249-0.758,0.747-0.813l1.578-0.081l1.827-0.163L130.51,1.985z M125.693,11.659c-0.997,1.138-1.496,2.249-1.496,3.333
		c0.055,1.301,0.471,1.951,1.246,1.951c0.719,0.055,1.467-0.541,2.242-1.789c0.443-0.813,0.831-1.57,1.164-2.275
		c0.387-0.922,0.719-1.896,0.996-2.927C128.019,10.114,126.634,10.684,125.693,11.659z"/>
</g>
</svg>
