<?xml version="1.0" encoding="utf-8"?>
<!-- Generator: Adobe Illustrator 15.1.0, SVG Export Plug-In . SVG Version: 6.00 Build 0)  -->
<!DOCTYPE svg PUBLIC "-//W3C//DTD SVG 1.1//EN" "http://www.w3.org/Graphics/SVG/1.1/DTD/svg11.dtd">
<svg version="1.1" id="レイヤー_1" xmlns="http://www.w3.org/2000/svg" xmlns:xlink="http://www.w3.org/1999/xlink" x="0px"
	 y="0px" width="200px" height="27px" viewBox="0 0 200 27" enable-background="new 0 0 200 27" xml:space="preserve">
<g>
	<path fill="#FFFFFF" d="M11.148,2.393c0-0.566,0.248-0.851,0.744-0.851c0.495,0,0.745,0.284,0.745,0.851v9.038h4.253
		c0.495,0,0.744,0.212,0.744,0.638c0,0.425-0.249,0.638-0.744,0.638h-4.253v2.127c1.983,1.347,3.437,2.694,4.359,4.04
		c0.425,0.781,0.425,1.348,0,1.701c-0.568,0.426-1.1,0.25-1.595-0.531c-0.709-1.276-1.631-2.552-2.764-3.828v9.145
		c0,0.566-0.25,0.851-0.745,0.851c-0.497,0-0.744-0.284-0.744-0.851v-7.975c-0.781,1.844-1.879,3.615-3.296,5.316
		c-0.497,0.497-0.922,0.568-1.276,0.213c-0.284-0.354-0.249-0.744,0.106-1.17c2.126-2.552,3.615-5.564,4.466-9.039H7.214
		c-0.497,0-0.745-0.213-0.745-0.638c0-0.426,0.248-0.638,0.745-0.638h3.934V2.393z M7.64,3.031c0.495-0.07,0.814,0.143,0.957,0.638
		c0.566,1.914,0.957,3.687,1.169,5.316c0,0.638-0.249,0.957-0.744,0.957c-0.425,0-0.675-0.282-0.745-0.851
		C7.994,7.462,7.64,5.867,7.214,4.307C7.001,3.599,7.143,3.174,7.64,3.031z M16.465,2.605c0.566,0.071,0.814,0.425,0.744,1.063
		c-0.355,1.914-0.851,3.828-1.488,5.742c-0.213,0.568-0.568,0.781-1.063,0.638c-0.355-0.141-0.462-0.46-0.319-0.957
		c0.638-2.126,1.063-4.004,1.276-5.635C15.684,2.89,15.968,2.605,16.465,2.605z M27.311,2.712c0.425,0,0.814,0.178,1.169,0.532
		c0.354,0.355,0.532,0.744,0.532,1.169v19.459h1.169c0.567,0,0.851,0.247,0.851,0.744c0,0.495-0.284,0.744-0.851,0.744H17.315
		c-0.568,0-0.851-0.249-0.851-0.744c0-0.497,0.282-0.744,0.851-0.744h1.914V4.413c0-0.425,0.176-0.814,0.532-1.169
		c0.354-0.354,0.744-0.532,1.169-0.532H27.311z M20.718,5.051v4.572h6.805V5.051c0-0.566-0.284-0.851-0.851-0.851h-5.104
		C21,4.2,20.718,4.484,20.718,5.051z M20.718,16.642h6.805v-5.53h-6.805V16.642z M20.718,23.872h6.805V18.13h-6.805V23.872z"/>
	<path fill="#FFFFFF" d="M71.862,2.818c0-0.708,0.319-1.063,0.957-1.063s0.957,0.355,0.957,1.063v4.041h10.633
		c0.566,0,0.851,0.25,0.851,0.745c0,0.497-0.284,0.744-0.851,0.744H73.883c2.055,6.38,5.705,11.484,10.951,15.312
		c0.426,0.354,0.532,0.779,0.319,1.275c-0.425,0.567-1.063,0.602-1.914,0.106c-4.111-2.765-7.479-7.23-10.101-13.398
		c-1.276,5.389-4.892,9.889-10.846,13.504c-0.781,0.426-1.276,0.389-1.488-0.106c-0.143-0.425,0-0.78,0.425-1.063
		c6.662-4.466,10.171-9.677,10.526-15.631H61.548c-0.568,0-0.851-0.248-0.851-0.744c0-0.495,0.282-0.745,0.851-0.745h10.314V2.818z"
		/>
	<path fill="#FFFFFF" d="M120.88,12.813c0.426,0.355,0.495,0.744,0.213,1.17c-1.206,1.844-1.808,3.296-1.808,4.36
		c0,1.488,0.673,2.623,2.021,3.402c1.417,0.709,3.756,1.063,7.018,1.063c2.905,0,5.883-0.354,8.932-1.063
		c0.707-0.142,1.169,0.106,1.382,0.744c0.142,0.71-0.213,1.17-1.063,1.383c-2.552,0.495-5.635,0.744-9.25,0.744
		c-4.396,0-7.337-0.604-8.825-1.808c-1.419-1.205-2.127-2.622-2.127-4.253c0-1.63,0.708-3.473,2.127-5.53
		C119.852,12.6,120.312,12.531,120.88,12.813z M134.597,4.307c0.638,0.143,0.92,0.532,0.851,1.17
		c-0.144,0.568-0.532,0.815-1.17,0.744c-1.419-0.283-3.155-0.425-5.21-0.425c-3.474,0-6.735,0.284-9.782,0.851
		c-0.568,0.071-0.922-0.176-1.063-0.744c0-0.495,0.247-0.814,0.744-0.957c3.544-0.708,6.946-1.063,10.208-1.063
		C131.37,3.881,133.178,4.024,134.597,4.307z M135.021,1.755c0.354-0.141,0.673-0.07,0.957,0.212
		c0.779,0.922,1.488,1.951,2.127,3.083c0.212,0.497,0.106,0.851-0.319,1.063c-0.425,0.143-0.744,0.037-0.957-0.319
		c-0.497-0.92-1.17-1.949-2.021-3.083C134.597,2.358,134.666,2.039,135.021,1.755z M137.573,0.798
		c0.354-0.141,0.673-0.07,0.957,0.213c0.779,0.922,1.489,1.95,2.127,3.083c0.141,0.497,0.035,0.851-0.319,1.063
		c-0.425,0.143-0.744,0.037-0.957-0.319c-0.496-0.92-1.169-1.949-2.02-3.083C137.148,1.33,137.218,1.011,137.573,0.798z"/>
	<path fill="#FFFFFF" d="M179.361,2.605c0.567-0.07,1.027-0.07,1.383,0c0.638,0.212,1.063,0.603,1.276,1.169
		c0.141,0.284,0.212,0.709,0.212,1.276c-0.071,0.994-0.391,2.624-0.957,4.891l-0.531,1.701c2.409,0.355,4.961,1.101,7.655,2.233
		c0.213-2.622,0.319-4.713,0.319-6.273c0-0.708,0.319-1.063,0.957-1.063s0.957,0.355,0.957,1.063c0,2.057-0.143,4.396-0.426,7.018
		c1.843,0.851,3.047,1.488,3.615,1.914c0.426,0.425,0.532,0.922,0.319,1.488c-0.426,0.497-0.993,0.532-1.701,0.106
		c-0.781-0.495-1.595-0.992-2.445-1.488c-0.355,2.977-1.207,5.104-2.553,6.38c-1.275,1.204-3.261,2.232-5.954,3.083
		c-0.497,0.07-0.815-0.106-0.957-0.531c-0.143-0.426,0.035-0.744,0.532-0.957c2.268-0.71,3.969-1.63,5.104-2.765
		c1.133-1.205,1.808-3.19,2.021-5.954c-2.411-1.276-5.034-2.197-7.869-2.765c-0.709,2.126-1.418,3.934-2.126,5.423
		c-0.851,1.772-1.738,3.154-2.658,4.146c-0.781,0.709-1.632,1.063-2.552,1.063c-1.063,0-1.879-0.389-2.446-1.17
		c-0.567-0.779-0.851-1.771-0.851-2.978c0-1.701,0.673-3.365,2.021-4.997c1.63-1.772,4.075-2.8,7.337-3.084
		c0.851-3.189,1.275-5.245,1.275-6.167c0-0.495-0.105-0.814-0.318-0.957c-0.213-0.141-0.604-0.141-1.17,0
		c-1.063,0.212-3.12,0.462-6.167,0.744c-0.568,0-0.922-0.282-1.063-0.851c0-0.638,0.319-0.992,0.957-1.063l2.021-0.106l2.339-0.213
		L179.361,2.605z M173.194,15.259c-1.275,1.489-1.913,2.942-1.913,4.359c0.069,1.702,0.601,2.553,1.595,2.553
		c0.92,0.071,1.877-0.708,2.871-2.34c0.566-1.063,1.063-2.055,1.488-2.977c0.495-1.205,0.92-2.48,1.275-3.829
		C176.172,13.239,174.399,13.983,173.194,15.259z"/>
</g>
</svg>
