<?xml version="1.0" encoding="utf-8"?>
<!-- Generator: Adobe Illustrator 15.1.0, SVG Export Plug-In . SVG Version: 6.00 Build 0)  -->
<!DOCTYPE svg PUBLIC "-//W3C//DTD SVG 1.1//EN" "http://www.w3.org/Graphics/SVG/1.1/DTD/svg11.dtd">
<svg version="1.1" id="レイヤー_1" xmlns="http://www.w3.org/2000/svg" xmlns:xlink="http://www.w3.org/1999/xlink" x="0px"
	 y="0px" width="200px" height="27px" viewBox="0 0 200 27" enable-background="new 0 0 200 27" xml:space="preserve">
<g>
	<path d="M14.08,2.542c0-0.544,0.238-0.818,0.716-0.818c0.476,0,0.715,0.273,0.715,0.818v8.689H19.6
		c0.476,0,0.716,0.205,0.716,0.614c0,0.409-0.24,0.613-0.716,0.613h-4.089v2.043c1.907,1.297,3.305,2.592,4.191,3.885
		c0.409,0.752,0.409,1.297,0,1.637c-0.546,0.408-1.058,0.238-1.534-0.512c-0.682-1.227-1.568-2.453-2.658-3.68v8.791
		c0,0.545-0.24,0.818-0.715,0.818c-0.478,0-0.716-0.273-0.716-0.818v-7.666c-0.75,1.771-1.807,3.475-3.169,5.111
		c-0.478,0.477-0.887,0.545-1.227,0.203c-0.273-0.34-0.24-0.715,0.102-1.125c2.044-2.453,3.476-5.348,4.293-8.688h-3.782
		c-0.478,0-0.716-0.205-0.716-0.613c0-0.409,0.238-0.614,0.716-0.614h3.782V2.542z M10.707,3.156
		c0.476-0.067,0.783,0.138,0.92,0.613c0.545,1.84,0.92,3.544,1.125,5.111c0,0.613-0.239,0.92-0.715,0.92
		c-0.409,0-0.648-0.271-0.716-0.817c-0.273-1.567-0.613-3.101-1.022-4.6C10.093,3.702,10.229,3.293,10.707,3.156z M19.191,2.747
		c0.544,0.068,0.783,0.409,0.715,1.022c-0.342,1.84-0.818,3.68-1.431,5.521c-0.204,0.546-0.546,0.75-1.022,0.613
		c-0.342-0.136-0.444-0.442-0.307-0.92c0.613-2.045,1.022-3.85,1.227-5.418C18.44,3.02,18.714,2.747,19.191,2.747z M29.618,2.849
		c0.409,0,0.783,0.171,1.125,0.511c0.34,0.342,0.511,0.715,0.511,1.125v18.707h1.125c0.544,0,0.818,0.238,0.818,0.717
		c0,0.475-0.273,0.715-0.818,0.715H20.009c-0.546,0-0.818-0.24-0.818-0.715c0-0.479,0.271-0.717,0.818-0.717h1.84V4.485
		c0-0.409,0.169-0.783,0.511-1.125c0.34-0.34,0.715-0.511,1.125-0.511H29.618z M23.28,5.098v4.396h6.542V5.098
		c0-0.544-0.273-0.818-0.818-0.818h-4.907C23.552,4.28,23.28,4.554,23.28,5.098z M23.28,16.24h6.542v-5.315H23.28V16.24z
		 M23.28,23.191h6.542v-5.52H23.28V23.191z"/>
	<path d="M72.45,2.952c0-0.681,0.307-1.022,0.92-1.022s0.92,0.342,0.92,1.022v3.884h10.223c0.545,0,0.818,0.24,0.818,0.716
		c0,0.478-0.273,0.715-0.818,0.715h-10.12c1.976,6.133,5.485,11.04,10.529,14.721c0.409,0.34,0.511,0.748,0.307,1.227
		c-0.409,0.545-1.022,0.578-1.84,0.102c-3.953-2.658-7.191-6.951-9.711-12.88c-1.227,5.179-4.702,9.507-10.427,12.982
		c-0.75,0.41-1.227,0.375-1.431-0.102c-0.137-0.408,0-0.75,0.409-1.021C68.633,19,72.006,13.992,72.348,8.267h-9.814
		c-0.546,0-0.817-0.238-0.817-0.715c0-0.476,0.271-0.716,0.817-0.716h9.916V2.952z"/>
	<path d="M119.575,12.561c0.409,0.342,0.477,0.715,0.205,1.125c-1.16,1.772-1.738,3.168-1.738,4.192c0,1.43,0.647,2.521,1.942,3.27
		c1.362,0.684,3.611,1.023,6.747,1.023c2.794,0,5.656-0.34,8.587-1.023c0.681-0.135,1.124,0.104,1.329,0.717
		c0.136,0.682-0.205,1.125-1.022,1.328c-2.453,0.477-5.418,0.717-8.894,0.717c-4.227,0-7.054-0.58-8.484-1.738
		c-1.364-1.158-2.045-2.521-2.045-4.09c0-1.566,0.681-3.338,2.045-5.315C118.587,12.356,119.029,12.289,119.575,12.561z
		 M132.763,4.383c0.613,0.137,0.885,0.511,0.817,1.124c-0.137,0.546-0.511,0.785-1.124,0.716c-1.364-0.271-3.033-0.409-5.009-0.409
		c-3.34,0-6.476,0.273-9.405,0.817c-0.546,0.069-0.886-0.169-1.022-0.715c0-0.476,0.238-0.783,0.716-0.92
		c3.407-0.681,6.679-1.022,9.813-1.022C129.661,3.974,131.398,4.111,132.763,4.383z M133.172,1.929
		c0.34-0.136,0.646-0.067,0.92,0.205c0.749,0.886,1.431,1.875,2.044,2.964c0.205,0.478,0.103,0.818-0.307,1.022
		c-0.408,0.137-0.715,0.035-0.92-0.307c-0.478-0.885-1.124-1.874-1.942-2.965C132.763,2.509,132.83,2.202,133.172,1.929z
		 M135.625,1.009c0.34-0.136,0.646-0.067,0.92,0.204c0.749,0.887,1.432,1.875,2.045,2.965c0.136,0.478,0.033,0.818-0.307,1.022
		c-0.409,0.138-0.716,0.035-0.921-0.307c-0.478-0.885-1.124-1.874-1.941-2.964C135.216,1.521,135.283,1.213,135.625,1.009z"/>
	<path d="M175.8,2.747c0.545-0.067,0.987-0.067,1.329,0c0.613,0.205,1.022,0.58,1.227,1.125c0.136,0.273,0.205,0.682,0.205,1.227
		c-0.069,0.955-0.376,2.522-0.921,4.702l-0.511,1.636c2.316,0.342,4.77,1.058,7.36,2.146c0.204-2.52,0.307-4.531,0.307-6.031
		c0-0.681,0.307-1.022,0.92-1.022s0.92,0.342,0.92,1.022c0,1.977-0.138,4.226-0.409,6.747c1.771,0.816,2.93,1.432,3.476,1.84
		c0.409,0.408,0.512,0.887,0.307,1.432c-0.408,0.477-0.955,0.51-1.635,0.102c-0.751-0.477-1.534-0.953-2.352-1.432
		c-0.342,2.863-1.159,4.906-2.453,6.135c-1.227,1.156-3.136,2.146-5.725,2.963c-0.478,0.068-0.784-0.102-0.92-0.51
		c-0.138-0.41,0.033-0.717,0.511-0.92c2.181-0.684,3.815-1.568,4.907-2.658c1.089-1.158,1.737-3.066,1.941-5.725
		c-2.317-1.227-4.839-2.112-7.564-2.658c-0.682,2.045-1.363,3.783-2.044,5.213c-0.818,1.705-1.671,3.033-2.556,3.988
		c-0.751,0.682-1.568,1.021-2.453,1.021c-1.022,0-1.807-0.373-2.352-1.125c-0.546-0.748-0.818-1.703-0.818-2.861
		c0-1.637,0.647-3.236,1.942-4.805c1.567-1.703,3.918-2.692,7.054-2.965c0.818-3.067,1.227-5.042,1.227-5.929
		c0-0.476-0.102-0.783-0.307-0.92c-0.204-0.136-0.579-0.136-1.124,0c-1.022,0.205-3,0.444-5.93,0.715
		c-0.546,0-0.886-0.271-1.021-0.817c0-0.614,0.307-0.954,0.92-1.022l1.942-0.102l2.249-0.205L175.8,2.747z M169.871,14.912
		c-1.227,1.432-1.84,2.828-1.84,4.191c0.066,1.635,0.578,2.453,1.533,2.453c0.885,0.068,1.805-0.682,2.76-2.25
		c0.545-1.021,1.022-1.975,1.432-2.861c0.476-1.158,0.885-2.385,1.227-3.68C172.733,12.969,171.029,13.685,169.871,14.912z"/>
</g>
</svg>
