<?xml version="1.0" encoding="utf-8"?>
<!-- Generator: Adobe Illustrator 16.0.4, SVG Export Plug-In . SVG Version: 6.00 Build 0)  -->
<!DOCTYPE svg PUBLIC "-//W3C//DTD SVG 1.1//EN" "http://www.w3.org/Graphics/SVG/1.1/DTD/svg11.dtd">
<svg version="1.1" id="レイヤー_1" xmlns="http://www.w3.org/2000/svg" xmlns:xlink="http://www.w3.org/1999/xlink" x="0px"
	 y="0px" width="595.28px" height="841.89px" viewBox="0 0 595.28 841.89" enable-background="new 0 0 595.28 841.89"
	 xml:space="preserve">
<path fill="#F7F8F8" d="M283.206,413.82l0.72,0.624c-3.48,3.48-5.497,8.232-5.497,11.233c0,3.744,2.352,5.544,5.521,5.544
	c4.056,0,6.625-2.761,6.625-8.856c0-2.376-0.432-5.449-1.368-9.025l0.84-0.24c1.224,3.336,3.36,6.097,6.433,7.465l-0.456,0.888
	c-2.736-1.32-4.44-3.456-5.305-5.208c0.528,2.329,0.792,4.464,0.792,6.361c0,6.096-2.568,9.576-7.632,9.576
	c-3.721,0-6.361-2.232-6.361-6.457c0-2.88,1.872-7.152,3.96-9.744c-1.32,0.648-4.008,1.104-6.433,1.248l-0.12-0.984
	c2.521-0.048,5.521-0.576,7.033-1.416C282.39,414.588,282.846,414.252,283.206,413.82z M291.798,411.492
	c0.984,1.056,1.944,2.28,2.712,3.528l-0.624,0.408c-0.696-1.2-1.68-2.52-2.64-3.48L291.798,411.492z M294.438,410.484
	c1.008,1.032,1.944,2.256,2.688,3.504l-0.6,0.408c-0.696-1.224-1.656-2.52-2.616-3.504L294.438,410.484z"/>
<path fill="#F7F8F8" d="M308.525,412.644c-1.271,3.576-2.928,8.137-4.056,10.993c1.296-1.464,2.521-2.232,3.912-2.232
	c1.824,0,2.736,1.369,2.736,5.4c0,3.673,1.2,4.656,2.88,4.656c2.448,0,4.369-2.231,5.232-7.656l0.961,0.217
	c-1.033,5.977-3.265,8.377-6.241,8.377c-2.28,0-3.769-1.537-3.769-5.473c0-3.433-0.695-4.561-2.088-4.561
	c-1.008,0-2.16,0.623-3.432,2.16c-0.336,0.408-0.793,1.056-1.057,1.656c-0.672,1.439-1.801,4.296-2.592,6.24l-0.984-0.385
	c2.232-4.752,6.145-15.241,7.488-19.681L308.525,412.644z"/>
</svg>
