<?xml version="1.0" encoding="utf-8"?>
<!-- Generator: Adobe Illustrator 15.0.2, SVG Export Plug-In . SVG Version: 6.00 Build 0)  -->
<!DOCTYPE svg PUBLIC "-//W3C//DTD SVG 1.1//EN" "http://www.w3.org/Graphics/SVG/1.1/DTD/svg11.dtd">
<svg version="1.1" id="レイヤー_1" xmlns="http://www.w3.org/2000/svg" xmlns:xlink="http://www.w3.org/1999/xlink" x="0px"
	 y="0px" width="330px" height="283.46px" viewBox="-22.77 0 330 283.46" enable-background="new -22.77 0 330 283.46"
	 xml:space="preserve">
<g id="レイヤー_1_1_">
	<g enable-background="new    ">
		<path fill="#FFFFFF" d="M11.487,142.277l-1.175,1.635c-1.914-1.824-3.391-3.661-4.433-5.511l-0.182,0.17
			c0.194,0.952,0.291,1.958,0.291,3.016c0,6.741-3.003,10.112-9.01,10.112c-2.358,0-4.231-0.63-5.62-1.89
			c-1.389-1.259-2.079-2.999-2.071-5.22c-0.008-1.832,0.555-3.72,1.689-5.661c1.134-1.942,2.545-3.498,4.233-4.669l-0.073-0.17
			c-1.671,0.388-4.029,0.751-7.073,1.09l-0.242-1.768c4.36-0.396,7.533-0.815,9.519-1.26l0.993,1.441
			c-1.89,1.162-3.561,2.793-5.014,4.893c-1.453,2.1-2.18,4.224-2.18,6.37c0,1.542,0.555,2.788,1.665,3.736
			c1.11,0.949,2.501,1.423,4.172,1.423c2.446,0,4.265-0.71,5.456-2.132c1.191-1.42,1.786-3.697,1.786-6.83
			c0-3.181-0.367-5.676-1.102-7.484l1.889-0.618C6.138,136.592,8.298,139.701,11.487,142.277z M8.229,133.69l-1.381,0.617
			c-0.581-1.308-1.17-2.441-1.768-3.402l1.344-0.618C7.046,131.255,7.648,132.39,8.229,133.69z M11.512,132.963l-1.393,0.569
			c-0.541-1.252-1.118-2.37-1.732-3.354l1.26-0.617C10.268,130.521,10.89,131.655,11.512,132.963z"/>
		<path fill="#FFFFFF" d="M27.955,132.08c-1.033,2.066-2.531,5.183-4.493,9.35c1.09-0.719,2.095-1.078,3.016-1.078
			c0.864,0.008,1.542,0.263,2.035,0.763c0.493,0.501,0.832,1.438,1.018,2.811c0.177,1.953,0.343,3.252,0.497,3.894
			c0.153,0.644,0.458,1.138,0.914,1.484s1.096,0.521,1.92,0.521c2.559,0,4.255-2.441,5.086-7.326l1.732,0.545
			c-0.662,3.438-1.552,5.719-2.67,6.836c-1.119,1.119-2.566,1.678-4.342,1.678c-1.785,0.008-2.985-0.477-3.603-1.453
			s-0.995-2.305-1.132-3.984l-0.218-2.217c-0.057-0.572-0.23-1.049-0.521-1.429c-0.291-0.379-0.678-0.569-1.163-0.569
			c-0.808,0-1.635,0.355-2.483,1.066c-0.848,0.71-1.476,1.531-1.883,2.464c-0.407,0.933-1.33,2.981-2.767,6.146L17.214,151
			l3.815-8.672l5.062-10.84L27.955,132.08z"/>
		<path fill="#FFFFFF" d="M54.79,141.876c0-0.613,0.218-1.138,0.654-1.574c0.436-0.437,0.96-0.653,1.574-0.653
			c0.614,0,1.139,0.218,1.574,0.653c0.436,0.437,0.654,0.961,0.654,1.574c0,0.614-0.218,1.139-0.654,1.575
			c-0.436,0.437-0.96,0.653-1.574,0.653c-0.614,0-1.138-0.218-1.574-0.653S54.79,142.491,54.79,141.876z"/>
		<path fill="#FFFFFF" d="M76.102,152.085v-8.369h1.901v5.813h6.77v-7.69H74.709v-1.465h10.064v-5.414h-5.571
			c-1.114,1.816-2.116,3.141-3.004,3.973l-1.284-0.86c0.88-0.993,1.772-2.261,2.677-3.803c0.904-1.542,1.594-2.963,2.071-4.263
			l1.829,0.448c-0.331,0.888-0.803,1.894-1.417,3.016H95.83v1.489h-9.131v5.414h10.197v1.465H86.699v7.69h7.109v-5.812h1.901v8.368
			h-1.901v-1.139H78.003v1.139H76.102z"/>
		<path fill="#FFFFFF" d="M112.382,141.876c0-0.613,0.218-1.138,0.654-1.574c0.436-0.437,0.96-0.653,1.574-0.653
			c0.614,0,1.139,0.218,1.574,0.653c0.436,0.437,0.654,0.961,0.654,1.574c0,0.614-0.218,1.139-0.654,1.575
			c-0.436,0.437-0.96,0.653-1.574,0.653c-0.614,0-1.138-0.218-1.574-0.653C112.601,143.015,112.382,142.491,112.382,141.876z"/>
		<path fill="#FFFFFF" d="M155.64,148.126l-1.225,1.815c-2.244-2.364-4.623-4.81-7.14-7.327c-2.515-2.52-4.147-4.118-4.897-4.796
			c-0.751-0.679-1.175-1.04-1.272-1.084s-0.194-0.066-0.291-0.066c-0.072,0-0.178,0.028-0.314,0.085
			c-0.138,0.056-0.404,0.333-0.8,0.829c-0.396,0.497-1.688,2.178-3.875,5.043l-3.331,4.336l-1.393-1.367
			c0.573-0.654,1.316-1.588,2.229-2.799l5.11-6.793c0.533-0.687,1.272-1.029,2.217-1.029c0.412,0,0.833,0.076,1.266,0.229
			c0.432,0.153,0.963,0.525,1.593,1.114l3.656,3.464C148.975,141.494,151.796,144.275,155.64,148.126z M147.453,134.829v-0.037
			c0-0.727,0.27-1.336,0.807-1.828c0.537-0.492,1.16-0.739,1.871-0.739c0.791,0,1.438,0.257,1.942,0.77
			c0.505,0.513,0.757,1.108,0.757,1.786c0,0.775-0.271,1.407-0.811,1.896c-0.541,0.488-1.155,0.732-1.841,0.732
			c-0.792,0-1.443-0.26-1.956-0.781C147.708,136.106,147.453,135.506,147.453,134.829z M150.128,136.548
			c0.478,0,0.891-0.168,1.242-0.503c0.351-0.335,0.526-0.736,0.526-1.205c0-0.484-0.174-0.9-0.521-1.247
			c-0.348-0.348-0.764-0.521-1.248-0.521c-0.451,0-0.854,0.172-1.205,0.516c-0.352,0.343-0.525,0.748-0.525,1.217
			c0,0.468,0.173,0.876,0.521,1.223C149.265,136.375,149.669,136.548,150.128,136.548z"/>
		<path fill="#FFFFFF" d="M167.759,143.837l-1.9,0.619c-0.688-2.245-1.664-4.551-2.932-6.916l1.684-0.63
			c0.694,1.211,1.188,2.136,1.479,2.773C166.378,140.323,166.936,141.708,167.759,143.837z M180.489,136.5
			c-0.604,5.038-2.108,8.751-4.512,11.143c-2.401,2.39-5.71,3.875-9.925,4.456l-0.545-1.61c4.603-0.661,7.848-2.248,9.736-4.76
			c1.889-2.511,2.976-5.647,3.258-9.41L180.489,136.5z M173.646,142.676l-1.914,0.642c-0.557-1.97-1.534-4.279-2.932-6.927
			l1.695-0.667c0.914,1.688,1.481,2.824,1.709,3.409C172.43,139.719,172.912,140.9,173.646,142.676z"/>
		<path fill="#FFFFFF" d="M212.119,143.197l-1.271,1.684c-1.681-1.121-3.687-2.225-6.021-3.307
			c-2.332-1.081-4.412-1.896-6.236-2.446v12.85h-2.155v-21.206h2.181v6.491C203.403,138.7,207.904,140.678,212.119,143.197z"/>
		<path fill="#FFFFFF" d="M225.414,139.891c-1.252,4.214-3.388,7.63-6.406,10.245l-1.465-1.162c1.574-1.485,2.848-3.119,3.819-4.898
			c0.974-1.781,1.609-3.301,1.908-4.561L225.414,139.891z M230.863,151.794h-2.131v-14.883h-9.992v-1.732h9.992v-4.069h2.131v4.069
			h9.75v1.732h-9.75V151.794z M241.957,148.853l-1.646,1.309c-1.31-1.229-2.526-2.854-3.658-4.882
			c-1.13-2.026-1.934-3.847-2.409-5.462l1.975-0.424C237.332,142.833,239.244,145.987,241.957,148.853z M237.56,133.569
			l-1.393,0.617c-0.582-1.315-1.168-2.446-1.756-3.391l1.319-0.605C236.417,131.248,237.028,132.374,237.56,133.569z
			 M241.083,132.83l-1.393,0.569c-0.549-1.283-1.126-2.401-1.73-3.354l1.259-0.594C239.875,130.46,240.496,131.586,241.083,132.83z"
			/>
		<path fill="#FFFFFF" d="M269.712,143.197l-1.271,1.684c-1.68-1.121-3.688-2.225-6.02-3.307c-2.334-1.081-4.412-1.896-6.237-2.446
			v12.85h-2.155v-21.206h2.18v6.491C260.998,138.7,265.498,140.678,269.712,143.197z"/>
		<path fill="#FFFFFF" d="M282.509,138.038c0,1.905-0.086,3.458-0.254,4.657c-0.17,1.198-0.557,2.373-1.157,3.523
			c-0.603,1.15-1.358,2.203-2.271,3.154c-0.912,0.953-1.895,1.703-2.942,2.254l-0.896-1.539c1.009-0.621,1.941-1.44,2.798-2.459
			c0.855-1.018,1.515-2.219,1.975-3.607s0.689-3.517,0.689-6.383v-5.111h2.06L282.509,138.038L282.509,138.038z M299.744,142.349
			c-1.033,2.204-2.631,4.124-4.789,5.759c-2.16,1.636-4.295,2.743-6.4,3.324l-0.885-0.823v-18.856h2.035v17.101
			c1.332-0.396,2.778-1.215,4.342-2.459c1.562-1.243,2.957-2.946,4.184-5.11L299.744,142.349z"/>
	</g>
</g>
</svg>
