<?xml version="1.0" encoding="utf-8"?>
<!-- Generator: Adobe Illustrator 15.0.2, SVG Export Plug-In . SVG Version: 6.00 Build 0)  -->
<!DOCTYPE svg PUBLIC "-//W3C//DTD SVG 1.1//EN" "http://www.w3.org/Graphics/SVG/1.1/DTD/svg11.dtd">
<svg version="1.1" id="レイヤー_1" xmlns="http://www.w3.org/2000/svg" xmlns:xlink="http://www.w3.org/1999/xlink" x="0px"
	 y="0px" width="283.46px" height="283.46px" viewBox="0 0 283.46 283.46" enable-background="new 0 0 283.46 283.46"
	 xml:space="preserve">
<g>
	<path fill="#FFFFFF" d="M67.156,150.015l-1.465-0.351c0.629-2.342,1.001-4.36,1.114-6.056l1.696,0.182
		c-0.113,1.05-0.307,2.225-0.582,3.524S67.39,149.515,67.156,150.015z M69.808,152.317v-10.501
		c-1.728,0.138-3.016,0.223-3.864,0.255l-0.182-1.466l1.587-0.036c0.654-0.775,1.344-1.639,2.071-2.592
		c-0.113-0.121-1.308-1.32-3.585-3.597l1.114-1.065l0.533,0.484c1.042-1.373,1.853-2.665,2.435-3.876l1.671,0.666
		c-0.816,1.3-1.837,2.705-3.064,4.215c0.678,0.654,1.296,1.283,1.853,1.89c1.26-1.729,2.152-3.089,2.677-4.082l1.647,0.654
		c-1.615,2.397-3.48,4.812-5.595,7.242c1.655-0.072,3.028-0.165,4.118-0.278c-0.274-0.84-0.484-1.441-0.63-1.805l1.49-0.352
		l1.344,3.973l-1.514,0.352c-0.065-0.242-0.162-0.562-0.291-0.957c-0.549,0.081-1.219,0.157-2.011,0.23v10.646H69.808z
		 M73.478,147.945c-0.032-0.17-0.21-1.579-0.533-4.228l1.501-0.157c0.121,1.01,0.315,2.41,0.582,4.203L73.478,147.945z
		 M74.241,152.062l-0.352-1.562c0.582-0.064,1.417-0.173,2.507-0.326v-18.167c1.469-0.129,3.338-0.381,5.607-0.757
		c2.269-0.375,4.009-0.749,5.22-1.12l0.908,1.441c-0.848,0.258-2.233,0.549-4.154,0.872c-0.016,0.848-0.024,1.453-0.024,1.816
		c0,0.646,0.02,2.111,0.061,4.396h4.869v1.489h-4.845c0.121,3.367,0.561,5.866,1.32,7.497c0.759,1.631,1.393,2.446,1.901,2.446
		c0.234,0,0.422-0.189,0.563-0.569s0.285-1.555,0.43-3.524l1.441,0.327c0,2.01-0.151,3.486-0.454,4.427s-0.846,1.41-1.629,1.41
		c-0.541,0-1.047-0.178-1.52-0.532c-0.472-0.355-1.001-0.979-1.586-1.871c-0.585-0.893-1.092-2.06-1.52-3.5
		c-0.428-1.441-0.686-3.479-0.775-6.11h-3.948v9.749c2.14-0.331,3.702-0.613,4.687-0.848l0.146,1.453
		C81.398,150.927,78.447,151.449,74.241,152.062z M78.261,133.217v5.438h3.888c-0.032-1.122-0.048-2.624-0.048-4.506v-1.417
		C80.518,132.967,79.238,133.128,78.261,133.217z"/>
	<path fill="#FFFFFF" d="M95.938,140.726l-0.763-1.138c1.914-0.881,3.633-2.12,5.159-3.719h-4.299v-1.368h4.905v-4.069h1.78v4.069
		h4.554v1.368h-4.154c1.203,1.01,2.652,1.962,4.348,2.858l-0.981,1.163c-1.138-0.573-2.402-1.462-3.791-2.665v3.318h-1.72v-3.209
		C99.482,138.764,97.803,139.895,95.938,140.726z M102.018,146.455c-0.468,1.22-1.229,2.34-2.283,3.361
		c-1.053,1.021-2.279,1.826-3.675,2.416l-0.812-1.235c1.324-0.613,2.477-1.451,3.458-2.513c0.981-1.062,1.601-2.154,1.859-3.276
		h-4.602v-1.478h4.881v-2.144h1.877v2.144h4.421v1.478h-4.069c0.734,1.364,1.921,2.62,3.561,3.767l-1.26,1.26
		C103.798,149.087,102.68,147.828,102.018,146.455z M97.803,133.847l-0.981-2.435l1.465-0.424l1.018,2.374L97.803,133.847z
		 M105.651,133.739l-1.32-0.279l1.042-2.531l1.465,0.303L105.651,133.739z M106.741,152.232l-0.812-1.26
		c1.897-0.734,3.476-1.647,4.736-2.737l1.187,1.224c-0.654,0.517-1.498,1.052-2.531,1.604
		C108.287,151.616,107.427,152.005,106.741,152.232z M108.558,147.835v-13.188h3.027l0.654-2.277h-4.493v-1.381h11.105v1.381h-4.675
		l-0.957,2.277h4.833v13.188H108.558z M110.386,138.522h5.838v-2.556h-5.838V138.522z M110.386,142.422h5.838v-2.629h-5.838V142.422
		z M116.224,143.681h-5.838v2.786h5.838V143.681z M118.574,152.135c-0.646-0.251-1.428-0.658-2.344-1.224s-1.633-1.069-2.149-1.514
		l1.029-1.235c1.26,1.05,2.753,1.918,4.481,2.604L118.574,152.135z"/>
	<path fill="#FFFFFF" d="M134.955,141.876c0-0.613,0.218-1.138,0.654-1.574c0.436-0.436,0.961-0.653,1.574-0.653
		s1.139,0.218,1.574,0.653c0.437,0.437,0.654,0.961,0.654,1.574c0,0.614-0.218,1.139-0.654,1.575
		c-0.436,0.436-0.961,0.653-1.574,0.653s-1.139-0.218-1.574-0.653C135.172,143.015,134.955,142.491,134.955,141.876z"/>
	<path fill="#FFFFFF" d="M158.239,152.183l-0.327-1.72c0.856-0.089,2.047-0.25,3.573-0.484v-7.496
		c-1.865,1.921-3.831,3.528-5.898,4.819l-0.933-1.308c2.043-1.34,3.952-2.967,5.729-4.881c1.776-1.913,3.117-3.738,4.021-5.474
		h-8.538v-1.538h10.245v-3.948h1.95v3.948h10.318v1.538h-9.325c0.589,2.632,1.36,4.849,2.313,6.648
		c1.953-1.372,3.572-2.761,4.856-4.166l1.622,1.284c-1.76,1.525-3.637,2.959-5.631,4.299c1.953,2.979,4.263,5.284,6.927,6.915
		l-1.417,1.466c-2.535-1.574-4.8-3.89-6.794-6.945c-1.994-3.057-3.218-6.224-3.67-9.501h-0.714
		c-0.864,1.606-1.914,3.169-3.149,4.687v9.35c4.19-0.67,6.892-1.167,8.103-1.489l0.024,1.646
		C170.161,150.318,165.732,151.101,158.239,152.183z"/>
	<path fill="#FFFFFF" d="M185.229,140.726l-0.763-1.138c1.913-0.881,3.633-2.12,5.159-3.719h-4.299v-1.368h4.904v-4.069h1.78v4.069
		h4.554v1.368h-4.154c1.203,1.01,2.652,1.962,4.349,2.858l-0.981,1.163c-1.139-0.573-2.402-1.462-3.791-2.665v3.318h-1.72v-3.209
		C188.774,138.764,187.094,139.895,185.229,140.726z M191.309,146.455c-0.469,1.22-1.229,2.34-2.283,3.361
		c-1.054,1.021-2.278,1.826-3.676,2.416l-0.812-1.235c1.324-0.613,2.478-1.451,3.458-2.513c0.981-1.062,1.601-2.154,1.859-3.276
		h-4.603v-1.478h4.881v-2.144h1.877v2.144h4.421v1.478h-4.069c0.734,1.364,1.921,2.62,3.561,3.767l-1.26,1.26
		C193.089,149.087,191.971,147.828,191.309,146.455z M187.094,133.847l-0.98-2.435l1.465-0.424l1.018,2.374L187.094,133.847z
		 M194.942,133.739l-1.319-0.279l1.041-2.531l1.466,0.303L194.942,133.739z M196.033,152.232l-0.812-1.26
		c1.896-0.734,3.476-1.647,4.735-2.737l1.187,1.224c-0.654,0.517-1.498,1.052-2.531,1.604S196.718,152.005,196.033,152.232z
		 M197.849,147.835v-13.188h3.027l0.654-2.277h-4.493v-1.381h11.105v1.381h-4.675l-0.957,2.277h4.833v13.188H197.849z
		 M199.677,138.522h5.838v-2.556h-5.838V138.522z M199.677,142.422h5.838v-2.629h-5.838V142.422z M205.515,143.681h-5.838v2.786
		h5.838V143.681z M207.865,152.135c-0.646-0.251-1.428-0.658-2.344-1.224s-1.633-1.069-2.149-1.514l1.029-1.235
		c1.26,1.05,2.753,1.918,4.481,2.604L207.865,152.135z"/>
</g>
</svg>
