<?xml version="1.0" encoding="UTF-8" standalone="no"?>
<!-- Generator: Adobe Illustrator 16.0.4, SVG Export Plug-In . SVG Version: 6.00 Build 0)  -->

<svg
   xmlns:dc="http://purl.org/dc/elements/1.1/"
   xmlns:cc="http://creativecommons.org/ns#"
   xmlns:rdf="http://www.w3.org/1999/02/22-rdf-syntax-ns#"
   xmlns:svg="http://www.w3.org/2000/svg"
   xmlns="http://www.w3.org/2000/svg"
   xmlns:sodipodi="http://sodipodi.sourceforge.net/DTD/sodipodi-0.dtd"
   xmlns:inkscape="http://www.inkscape.org/namespaces/inkscape"
   version="1.1"
   id="レイヤー_1"
   x="0px"
   y="0px"
   width="87"
   height="23"
   viewBox="0 0 87 23"
   enable-background="new 0 0 46 23"
   xml:space="preserve"
   inkscape:version="0.48.5 r10040"
   sodipodi:docname="moeru.svg"><metadata
   id="metadata3103"><rdf:RDF><cc:Work
       rdf:about=""><dc:format>image/svg+xml</dc:format><dc:type
         rdf:resource="http://purl.org/dc/dcmitype/StillImage" /><dc:title></dc:title></cc:Work></rdf:RDF></metadata><defs
   id="defs3101" /><sodipodi:namedview
   pagecolor="#ffffff"
   bordercolor="#666666"
   borderopacity="1"
   objecttolerance="10"
   gridtolerance="10"
   guidetolerance="10"
   inkscape:pageopacity="0"
   inkscape:pageshadow="2"
   inkscape:window-width="1247"
   inkscape:window-height="654"
   id="namedview3099"
   showgrid="false"
   inkscape:zoom="5.1304348"
   inkscape:cx="60.274684"
   inkscape:cy="6.3869974"
   inkscape:window-x="0"
   inkscape:window-y="0"
   inkscape:window-maximized="0"
   inkscape:current-layer="text3105" />


<g
   style="font-size:40px;font-style:normal;font-weight:normal;line-height:125%;letter-spacing:0px;word-spacing:0px;fill:#000000;fill-opacity:1;stroke:none;font-family:Sans"
   id="text3105"><path
     d="m 1.0542902,3.1110954 c 0.615884,0.1718901 1.4466123,0.2578275 2.4921875,0.2578125 l 14.8671873,0 1.095703,-1.3105468 c 0.572897,0.4297033 1.117167,0.8593904 1.632813,1.2890625 0.114562,0.071629 0.171854,0.1575669 0.171875,0.2578125 -2.1e-5,0.243504 -0.107443,0.3652487 -0.322266,0.3652343 l -3.115234,0 0,15.7265626 c -1.8e-5,0.486977 -0.121763,0.852211 -0.365235,1.095703 -0.21486,0.229164 -0.50848,0.415362 -0.880859,0.558594 -0.343766,0.157549 -0.637385,0.236325 -0.880859,0.236328 l -0.02149,-0.279297 c -0.05731,-0.200524 -0.157567,-0.350914 -0.300781,-0.451172 -0.214859,-0.171877 -0.601577,-0.329429 -1.160156,-0.472656 -0.601576,-0.143231 -1.289075,-0.23633 -2.0625,-0.279297 l 0,-0.494141 c 1.24608,0.229166 2.370428,0.343749 3.373047,0.34375 0.515609,-10e-7 0.852197,-0.05013 1.009765,-0.15039 0.171859,-0.08594 0.257796,-0.300783 0.257813,-0.644531 l 0,-15.1894536 -13.2988283,0 c -1.0169294,0.014337 -1.7115902,0.042983 -2.0839844,0.085937 z m 3.4375,3.609375 1.2675781,0.9453125 5.1777347,0 0.666015,-0.9453125 c 0.515613,0.3007926 0.89517,0.6015735 1.138672,0.9023438 0.114571,0.1145939 0.171863,0.2148542 0.171875,0.3007812 -1.2e-5,0.1289165 -0.286471,0.358083 -0.859375,0.6875 l 0,5.1562496 c 0.229155,0.200526 0.443998,0.3724 0.644531,0.515625 0.08592,0.0573 0.128894,0.114588 0.128907,0.171875 -1.3e-5,0.214848 -0.05731,0.32227 -0.171875,0.322266 l -7.0468753,0 0,1.138672 c -5.4e-6,0.171877 -0.1503959,0.257815 -0.4511719,0.257812 -0.1145881,3e-6 -0.2649786,-0.04297 -0.4511718,-0.128906 -0.1432336,-0.114581 -0.2148481,-0.279294 -0.2148438,-0.49414 -4.3e-6,-0.243487 0.014319,-0.572914 0.042969,-0.988282 0.085933,-0.329423 0.1289018,-1.024083 0.1289062,-2.083984 l 0,-4.3183594 C 4.6636608,7.6013405 4.6063691,7.1215233 4.4917902,6.7204704 z m 1.1171875,7.4765626 5.5000003,0 0,-5.9511719 -5.5000003,0 z"
     style="font-size:22px;fill:#f9f9f9"
     id="path3110" /><path
     d="m 23.204681,6.8064079 c 0.286457,0.3867299 0.537108,0.7949326 0.751953,1.2246094 0.229165,0.3724058 0.422524,0.7376398 0.580078,1.0957031 0.15755,0.3580818 0.264971,0.6731856 0.322266,0.9453126 0.05729,0.25782 0.08593,0.508471 0.08594,0.751953 -3e-6,0.25782 -0.03581,0.465502 -0.107422,0.623047 -0.114586,0.171882 -0.257815,0.257819 -0.429687,0.257812 -0.07162,7e-6 -0.128908,-0.05012 -0.171875,-0.15039 -0.05729,-0.07161 -0.107424,-0.293613 -0.150391,-0.666016 C 24.028247,10.430114 23.942309,9.9861038 23.827728,9.5564079 23.713143,9.1267296 23.577075,8.7113655 23.419525,8.3103142 23.290617,7.9379287 23.111581,7.5225646 22.882415,7.0642204 z m 5.585937,0 C 28.547122,7.0499088 28.267826,7.2933981 27.952728,7.5368767 27.69491,7.751731 27.422775,7.9450902 27.136321,8.1169548 26.964442,8.2315482 26.80689,8.3246471 26.663665,8.3962517 l 0,0.021484 c -4e-6,1.5898519 -0.07878,3.0507879 -0.236328,4.3828129 -0.0573,0.601567 -0.136072,1.138676 -0.236328,1.611328 0.630204,0.386722 1.131505,0.77344 1.503906,1.160156 0.37239,0.358075 0.651687,0.708986 0.837891,1.052734 0.114577,0.257814 0.171868,0.501304 0.171875,0.730469 -7e-6,0.472657 -0.16472,0.708985 -0.494141,0.708984 -0.114589,1e-6 -0.222011,-0.03581 -0.322265,-0.107421 -0.07162,-0.07162 -0.157558,-0.250651 -0.257813,-0.53711 -0.243495,-0.615884 -0.501307,-1.117185 -0.773437,-1.503906 -0.200526,-0.315102 -0.458338,-0.630205 -0.773438,-0.945313 -0.08594,0.401045 -0.171879,0.773441 -0.257812,1.117188 -0.257816,0.916668 -0.608727,1.811849 -1.052735,2.685547 -0.458335,0.845051 -1.031251,1.63281 -1.71875,2.363281 L 22.71054,20.81422 c 0.615885,-0.845053 1.08854,-1.654297 1.417969,-2.427734 0.329425,-0.802083 0.60156,-1.639972 0.816406,-2.513672 0.186195,-0.773434 0.350909,-1.804683 0.494141,-3.09375 0.128903,-1.346347 0.193356,-2.8001217 0.193359,-4.3613279 l 0,-3.6738282 c -3e-6,-1.3320163 -0.0573,-2.2844893 -0.171875,-2.8574218 0.716142,0.085954 1.360673,0.2148599 1.933594,0.3867187 0.143224,0.028662 0.214838,0.1074378 0.214844,0.2363281 -6e-6,0.128922 -0.08594,0.2363437 -0.257813,0.3222657 -0.214848,0.1289216 -0.444015,0.2220204 -0.6875,0.2792968 l 0,4.7480469 c 0.08593,-0.071604 0.157548,-0.1432186 0.214844,-0.2148437 0.214839,-0.2148329 0.415359,-0.4439993 0.601562,-0.6875 0.17187,-0.243478 0.32226,-0.4869674 0.451172,-0.7304688 0.157547,-0.2434772 0.279291,-0.4869666 0.365235,-0.7304687 1.01692,0.6302205 1.525383,1.0384232 1.52539,1.2246093 -7e-6,0.1145948 -0.107429,0.1718865 -0.322265,0.171875 -0.171882,1.15e-5 -0.40821,-0.028634 -0.708985,-0.085937 z M 31.30429,1.8864861 c 0.658845,0.1002767 1.167308,0.2291828 1.525391,0.3867187 0.186187,0.057308 0.279286,0.1360836 0.279297,0.2363281 -1.1e-5,0.085953 -0.107433,0.1718907 -0.322266,0.2578125 -0.2435,0.07163 -0.451182,0.1217603 -0.623047,0.1503907 -0.10027,0.486994 -0.20053,0.9238426 -0.300781,1.3105468 l 2.792969,0 0.580078,-0.7734375 c 0.401028,0.2578271 0.730455,0.5228008 0.988281,0.7949219 0.08592,0.071629 0.128892,0.1432431 0.128906,0.2148438 -0.02866,0.1002741 -0.107436,0.193373 -0.236328,0.2792968 -0.12892,0.1145968 -0.272149,0.2005342 -0.429687,0.2578125 -0.214857,1.2031371 -0.515638,2.3418079 -0.902344,3.4160157 -0.372408,0.9309985 -0.830741,1.8476639 -1.375,2.7499999 -0.558604,0.973965 -1.167328,1.804693 -1.826172,2.492188 -0.701832,0.802087 -1.604174,1.582685 -2.707031,2.341796 L 28.55429,15.722424 c 0.91666,-0.687497 1.690096,-1.396481 2.320313,-2.126954 0.673167,-0.730463 1.246084,-1.539707 1.71875,-2.427734 0.486968,-0.830721 0.952462,-1.8691315 1.396484,-3.1152343 0.429675,-1.1458219 0.680326,-2.2272011 0.751953,-3.2441406 l -3.050781,0 c -0.0573,0.214857 -0.114593,0.4082162 -0.171875,0.5800781 -0.114593,0.3580855 -0.236337,0.6875122 -0.365234,0.9882812 0.658844,0.2005326 1.174469,0.3938918 1.546875,0.5800782 0.358062,0.1432403 0.623035,0.2936308 0.794921,0.4511718 0.143218,0.1002713 0.214833,0.2148545 0.214844,0.34375 -1.1e-5,0.4440206 -0.171886,0.6660256 -0.515625,0.6660157 -0.100271,9.9e-6 -0.200531,-0.014313 -0.300781,-0.042969 C 32.822509,8.3318085 32.736571,8.2458711 32.636321,8.1169548 32.392822,7.8018612 32.149332,7.5440489 31.905853,7.3435173 31.648031,7.1716535 31.340088,6.9926172 30.982025,6.8064079 30.85311,7.0642317 30.724204,7.3148825 30.595306,7.5583611 30.251548,8.260194 29.893475,8.8331101 29.521087,9.2771111 29.148684,9.735453 28.676029,10.251077 28.103118,10.823986 l -0.257812,-0.408203 c 0.458327,-0.5442625 0.823561,-1.0384026 1.095703,-1.4824219 0.286451,-0.4010319 0.544264,-0.8665262 0.773437,-1.3964844 0.243482,-0.4869679 0.486972,-1.059884 0.730469,-1.71875 0.200513,-0.6158723 0.38671,-1.3033716 0.558594,-2.0625 0.14322,-0.6731619 0.243481,-1.2962081 0.300781,-1.8691406 z m 1.632813,7.7558593 0,0.3222657 c -0.444021,0.4010499 -0.830739,0.7018309 -1.160157,0.9023439 -0.343759,0.272142 -0.680347,0.501309 -1.009765,0.6875 -0.286467,0.186204 -0.601571,0.343756 -0.945313,0.472656 -0.114591,0.401048 -0.200528,0.601568 -0.257812,0.601563 -0.08595,5e-6 -0.372403,-0.451166 -0.859375,-1.353516 0.515618,-0.114576 0.981112,-0.243482 1.396484,-0.386719 0.372388,-0.100253 0.787752,-0.257805 1.246094,-0.472656 0.458324,-0.200513 0.988271,-0.458325 1.589844,-0.7734376 z m 2.470703,-2.2558593 c 0.630194,0.1862086 1.460923,0.2793075 2.492187,0.2792968 0.02863,-0.1718641 0.05011,-0.3294161 0.06445,-0.4726562 0.114568,-1.1028524 0.17186,-2.1699086 0.171875,-3.2011719 -1.5e-5,-0.8736827 -0.0215,-1.5182133 -0.06445,-1.9335937 0.630192,0.057308 1.224593,0.1360838 1.783203,0.2363281 0.200503,0.042985 0.300764,0.1145992 0.300782,0.2148437 -1.8e-5,0.1145991 -0.100279,0.2220208 -0.300782,0.3222657 -0.186215,0.085953 -0.372413,0.1790517 -0.558593,0.2792968 -0.02866,1.4466284 -0.100278,2.6712365 -0.214844,3.6738282 -0.04299,0.3007924 -0.08595,0.5944119 -0.128906,0.8808593 l 1.86914,0 0.945313,-1.0527343 c 0.515605,0.3580842 1.002583,0.7161568 1.460937,1.0742187 0.114563,0.071625 0.171854,0.1504011 0.171875,0.2363281 -2.1e-5,0.214854 -0.0788,0.3222757 -0.236328,0.3222657 l -4.296875,0 c -0.05731,0.4010513 -0.121761,0.7734468 -0.193359,1.1171875 0.630191,0.5299563 1.195946,1.0599034 1.697265,1.5898434 0.587221,0.572924 1.045554,1.067064 1.375,1.482422 0.343731,0.386724 0.594381,0.723313 0.751954,1.009766 0.114563,0.257817 0.207661,0.508468 0.279296,0.751953 0.08592,0.200525 0.128886,0.42253 0.128907,0.666016 -0.01434,0.401044 -0.164734,0.601565 -0.451172,0.601562 -0.114604,3e-6 -0.222025,-0.04297 -0.322266,-0.128906 -0.114603,-0.128903 -0.365254,-0.608721 -0.751953,-1.439453 -0.40106,-0.830724 -0.84507,-1.568354 -1.332031,-2.212891 -0.386736,-0.558586 -0.880877,-1.160148 -1.482422,-1.8046874 -0.200537,0.7734454 -0.436865,1.4681054 -0.708984,2.0839844 -0.300797,0.75912 -0.680354,1.425135 -1.138672,1.998047 -0.515639,0.716149 -1.203139,1.453779 -2.0625,2.21289 l -0.279297,-0.451171 c 0.544258,-0.558591 1.009752,-1.102861 1.396484,-1.632813 0.329413,-0.529943 0.644517,-1.117182 0.945313,-1.761719 0.286443,-0.630201 0.537094,-1.396477 0.751953,-2.298828 0.143214,-0.5299389 0.264958,-1.1243394 0.365234,-1.7832029 -0.988296,0.014333 -1.647149,0.042979 -1.976562,0.085937 z m 4.748047,-4.0175782 c 0.529929,0.2578272 0.959616,0.5299624 1.289062,0.8164063 0.272116,0.2291806 0.479798,0.458347 0.623047,0.6875 0.100241,0.1575654 0.150371,0.3079558 0.150391,0.4511719 -2e-5,0.4726687 -0.150411,0.7089966 -0.451172,0.7089843 -0.07163,1.23e-5 -0.143249,-0.028633 -0.214844,-0.085937 C 41.480703,5.9040766 41.41625,5.7894934 41.358978,5.6032829 41.172761,5.1879315 40.97224,4.8441818 40.757415,4.5720329 40.556876,4.2999115 40.263257,4.006292 39.876556,3.6911736 z m -9.47461,13.6640621 0.279297,0.08594 c -0.143238,0.859375 -0.293628,1.539713 -0.451172,2.041016 -0.143237,0.486977 -0.322273,0.888019 -0.537109,1.203125 -0.171883,0.343747 -0.365242,0.608721 -0.580078,0.794921 -0.229174,0.200518 -0.422533,0.336586 -0.580078,0.408204 -0.157559,0.07161 -0.300788,0.107418 -0.429688,0.107421 -0.300787,-3e-6 -0.451177,-0.150393 -0.451172,-0.451171 -5e-6,-0.128909 0.02864,-0.250654 0.08594,-0.365235 0.07161,-0.100263 0.322259,-0.329429 0.751953,-0.6875 0.529941,-0.472657 0.866529,-0.816407 1.009766,-1.03125 0.18619,-0.24349 0.358065,-0.544271 0.515625,-0.902344 0.157543,-0.343749 0.28645,-0.74479 0.386718,-1.203125 z m 2.921875,0 c 0.214832,0.315106 0.386707,0.68034 0.515625,1.095704 0.171863,0.429687 0.286446,0.823567 0.34375,1.18164 0.05728,0.40104 0.08592,0.751952 0.08594,1.052735 -1.3e-5,0.25781 -0.03582,0.486976 -0.107422,0.6875 -0.07163,0.157549 -0.171887,0.279293 -0.300781,0.365234 -0.100273,0.05729 -0.18621,0.08593 -0.257813,0.08594 -0.300792,-3e-6 -0.451183,-0.150393 -0.451172,-0.451171 -0.01433,-0.114586 0.0072,-0.2793 0.06445,-0.494141 0.05728,-0.329429 0.05728,-0.737632 0,-1.224609 -0.01433,-0.572918 -0.114594,-1.310547 -0.300781,-2.212891 z m 3.115235,0 c 0.51561,0.515626 0.930974,1.045574 1.246093,1.589844 0.257797,0.358072 0.465479,0.751952 0.623047,1.181641 0.114567,0.300779 0.171859,0.580076 0.171875,0.83789 -1.6e-5,0.171873 -0.04299,0.358071 -0.128906,0.558594 -0.157568,0.200518 -0.31512,0.300778 -0.472656,0.300781 -0.114599,-3e-6 -0.229183,-0.03581 -0.34375,-0.107421 -0.100276,-0.143233 -0.150406,-0.315107 -0.150391,-0.515625 -0.100276,-0.8737 -0.243505,-1.546876 -0.429687,-2.019532 -0.143244,-0.458333 -0.401057,-1.009765 -0.773438,-1.654297 z m 3.24414,-0.171875 c 0.515607,0.372397 0.97394,0.759116 1.375,1.160157 0.443991,0.358073 0.794902,0.708984 1.052735,1.052734 0.315083,0.343749 0.522765,0.64453 0.623047,0.902344 0.100239,0.243487 0.150369,0.494138 0.15039,0.751953 -2.1e-5,0.214841 -0.03583,0.393877 -0.107422,0.537109 -0.114604,0.157549 -0.257833,0.236325 -0.429687,0.236328 -0.14325,-3e-6 -0.250671,-0.05013 -0.322266,-0.15039 -0.114603,-0.07162 -0.207702,-0.2793 -0.279297,-0.623047 -0.114603,-0.42969 -0.286478,-0.852215 -0.515625,-1.267578 -0.214863,-0.401043 -0.458352,-0.787761 -0.730468,-1.160156 -0.257831,-0.358073 -0.615904,-0.751953 -1.074219,-1.181641 z"
     style="font-size:22px;fill:#f9f9f9"
     id="path3112" /><path
     d="m 50.017181,3.3474236 c 0.658848,0.6302226 1.697258,0.9453265 3.115234,0.9453125 2.005198,1.4e-5 3.437488,-0.1503765 4.296875,-0.4511719 0.343737,-0.1002459 0.565742,-0.150376 0.666016,-0.1503906 0.272121,1.46e-5 0.587225,0.1145978 0.945312,0.34375 0.41535,0.2435036 0.623032,0.5013158 0.623047,0.7734375 -1.5e-5,0.2578257 -0.444025,0.5442838 -1.332031,0.859375 -2.191418,0.7734493 -4.239593,1.8619899 -6.144531,3.265625 L 52.101165,8.6970329 C 53.461833,7.4366271 54.801024,6.3409251 56.118743,5.4099236 53.898682,5.4099365 52.351808,5.2881918 51.478118,5.0446892 50.690351,4.7582444 50.146081,4.2784272 49.845306,3.6052361 z m -0.945313,8.7656254 0.19336,0.279296 c -0.358078,0.85938 -0.537114,1.59701 -0.53711,2.212891 -4e-6,1.21745 0.444006,2.112632 1.332032,2.685547 1.031243,0.673177 2.735668,1.009766 5.113281,1.009766 1.317696,0 2.613919,-0.121745 3.888672,-0.365235 1.217432,-0.272135 2.019514,-0.408202 2.40625,-0.408203 0.63019,10e-7 0.945294,0.179037 0.945312,0.537109 -1.8e-5,0.200521 -0.171893,0.408203 -0.515625,0.623047 -0.372413,0.243489 -1.14585,0.451171 -2.320312,0.623047 -1.016942,0.20052 -2.198581,0.30078 -3.544922,0.300781 -2.835947,-10e-7 -4.92709,-0.436849 -6.273438,-1.310546 -1.088546,-0.744791 -1.632816,-1.768879 -1.632812,-3.072266 -4e-6,-0.973954 0.3151,-2.012365 0.945312,-3.115234 z M 61.618743,1.7146111 c 0.830711,0.1002769 1.625632,0.3938964 2.384766,0.8808593 0.601542,0.4440257 0.902323,0.8665513 0.902344,1.2675782 -2.1e-5,0.1862121 -0.05731,0.3437641 -0.171875,0.4726562 -0.100281,0.143243 -0.24351,0.2148575 -0.429688,0.2148438 C 64.103749,4.5505623 63.917552,4.3930104 63.745696,4.0778923 63.201407,3.1469179 62.470939,2.4164499 61.55429,1.8864861 z m -2.041015,0.6015625 c 0.802067,0.1289221 1.561181,0.4655103 2.277343,1.0097656 0.587222,0.4869937 0.880841,0.952488 0.88086,1.3964844 -1.9e-5,0.1862113 -0.05015,0.3437632 -0.150391,0.4726562 -0.08596,0.1432422 -0.229185,0.2148567 -0.429687,0.2148438 -0.214862,1.29e-5 -0.393898,-0.171862 -0.53711,-0.515625 -0.529964,-1.0169127 -1.238948,-1.8189952 -2.126953,-2.40625 z"
     style="font-size:22px;fill:#f9f9f9"
     id="path3114" /><path
     d="m 72.704681,3.2614861 c 0.401035,0.4010563 0.923821,0.6015769 1.568359,0.6015625 0.358065,1.44e-5 1.296215,-0.2363135 2.814453,-0.7089844 1.059884,-0.3867032 1.718738,-0.5800624 1.976563,-0.5800781 0.157539,1.57e-5 0.379544,0.1289218 0.666015,0.3867187 0.358059,0.3294421 0.537096,0.6015773 0.53711,0.8164063 -1.4e-5,0.1575664 -0.136082,0.4010558 -0.408203,0.7304687 -0.486993,0.5872528 -1.439466,2.3131625 -2.857422,5.1777344 -0.272146,0.5013098 -0.53712,0.9811278 -0.794922,1.4394528 0.859364,0.143237 1.761707,0.365242 2.707031,0.666016 0.816393,0.286465 1.711574,0.666021 2.685547,1.138672 0.501286,-1.074212 0.751937,-2.033847 0.751953,-2.878906 -1.6e-5,-0.5442625 -0.179052,-0.8880121 -0.537109,-1.0312504 l 0.08594,-0.2363282 c 1.203108,0.229176 1.80467,0.6517016 1.804688,1.2675786 -1.8e-5,0.873705 -0.350929,2.019537 -1.052735,3.4375 0.802067,0.429691 1.661441,0.930993 2.578125,1.503906 0.544252,0.358076 0.816387,0.72331 0.816407,1.095703 -2e-5,0.386721 -0.150411,0.58008 -0.451172,0.580078 -0.229186,2e-6 -0.64455,-0.214842 -1.246094,-0.644531 -0.759132,-0.558591 -1.518246,-1.059893 -2.277344,-1.503906 -0.658869,1.131513 -1.417983,2.10547 -2.277343,2.921875 -1.217461,1.174478 -2.771496,2.298826 -4.66211,3.373046 L 74.96054,20.556408 c 1.532542,-1.016928 2.778635,-2.083985 3.738281,-3.201172 0.9453,-1.002602 1.740221,-2.134111 2.384766,-3.394531 -0.81642,-0.41536 -1.618503,-0.773433 -2.40625,-1.074219 -1.160167,-0.415359 -2.169932,-0.694655 -3.029297,-0.837891 -0.988289,1.64714 -2.055346,3.122399 -3.201172,4.425782 -0.902349,1.059896 -1.790369,1.589844 -2.664062,1.589843 -0.486982,1e-6 -0.880862,-0.20052 -1.181641,-0.601562 -0.300783,-0.372395 -0.451174,-0.888019 -0.451172,-1.546875 -2e-6,-1.303382 0.594399,-2.463537 1.783203,-3.480469 1.217443,-0.959628 2.742833,-1.439446 4.576172,-1.439453 0.157544,7e-6 0.329419,0.0072 0.515625,0.02148 0.615876,-1.1028557 1.267568,-2.3346253 1.955078,-3.6953121 1.045562,-2.048164 1.568347,-3.1367046 1.56836,-3.265625 -1.3e-5,-0.1861834 -0.0573,-0.2792823 -0.171875,-0.2792968 -0.229179,1.45e-5 -0.802095,0.2076966 -1.71875,0.6230468 -1.274749,0.5013155 -2.06967,0.7519663 -2.384766,0.7519532 -0.687507,1.31e-5 -1.296231,-0.6015488 -1.826172,-1.8046875 z m 1.783203,8.6796879 c -1.661465,0.01433 -3.000656,0.436854 -4.017578,1.267578 -1.031253,0.830733 -1.546878,1.733076 -1.546875,2.707031 -3e-6,0.386721 0.07877,0.708986 0.236328,0.966797 0.200518,0.200522 0.4082,0.300782 0.623047,0.300781 0.601558,10e-7 1.339188,-0.544269 2.21289,-1.632812 0.759108,-0.859372 1.589837,-2.062496 2.492188,-3.609375 z"
     style="font-size:22px;fill:#f9f9f9"
     id="path3116" /></g></svg>