<?xml version="1.0" encoding="utf-8"?>
<!-- Generator: Adobe Illustrator 15.0.2, SVG Export Plug-In . SVG Version: 6.00 Build 0)  -->
<!DOCTYPE svg PUBLIC "-//W3C//DTD SVG 1.1//EN" "http://www.w3.org/Graphics/SVG/1.1/DTD/svg11.dtd">
<svg version="1.1" id="レイヤー_1" xmlns="http://www.w3.org/2000/svg" xmlns:xlink="http://www.w3.org/1999/xlink" x="0px"
	 y="0px" width="388px" height="283.46px" viewBox="-54.77 0 388 283.46" enable-background="new -54.77 0 388 283.46"
	 xml:space="preserve">
<g id="レイヤー_1_1_">
	<g enable-background="new    ">
		<path fill="#FFFFFF" d="M-27.738,150.064c0.468-0.888,1.163-2.557,2.083-5.002l1.998,0.484c-0.508,1.058-1.255,2.562-2.24,4.518
			h4.796v1.479h-21.146v-1.479h4.542c-0.719-2.156-1.292-3.661-1.72-4.518l1.853-0.484l1.865,5.002h2.967v-6.491h-8.55v-1.502h8.55
			v-3.585h-4.833v-1.393c-1.744,1.219-3.463,2.221-5.159,3.003l-0.884-1.283c1.574-0.653,3.54-1.89,5.898-3.706
			c2.357-1.816,3.956-3.447,4.796-4.893h2.555c1.034,1.445,2.549,2.94,4.548,4.486c1.999,1.547,4.091,2.765,6.279,3.652
			l-1.029,1.465c-1.833-0.751-3.845-1.956-6.037-3.615c-2.192-1.659-3.833-3.219-4.923-4.681c-1.518,1.946-3.52,3.795-6.007,5.547
			h11.905v1.417h-5.232v3.585h8.926v1.502h-8.926v6.491L-27.738,150.064L-27.738,150.064z"/>
		<path fill="#FFFFFF" d="M7.029,134.95h-18.094v4.25c0,2.567-0.263,5.064-0.788,7.49c-0.525,2.428-1.106,4.111-1.744,5.057
			l-1.308-0.836c0.557-1.041,1.042-2.533,1.453-4.475c0.412-1.941,0.618-3.891,0.618-5.844v-9.688H7.029V134.95z M5.358,133.787
			v-1.671h-16.422v1.671H5.358z M7.659,150.355c0,0.557-0.193,1.001-0.581,1.332c-0.388,0.331-0.884,0.496-1.49,0.496H2.706
			l-0.23-1.417h2.422c0.694,0,1.042-0.278,1.042-0.836v-4.045h-6.576v2.302c1.179-0.113,2.079-0.214,2.701-0.303
			c-0.121-0.331-0.287-0.747-0.497-1.248l1.333-0.399c0.315,0.769,0.779,1.853,1.393,3.259l-1.441,0.411
			c-0.049-0.112-0.158-0.388-0.327-0.823c-1.962,0.299-4.929,0.604-8.901,0.92l-0.303-1.367c1.13-0.057,2.588-0.158,4.372-0.305
			v-2.445H-8.18v6.395h-1.744v-7.568h7.618v-1.515h-6.346v-4.094h6.346v-1.465c-3.084,0.097-5.394,0.129-6.927,0.097l-0.157-1.211
			h0.557c2.842,0,5.767-0.077,8.774-0.23c3.008-0.153,5.024-0.347,6.05-0.581l0.69,1.284c-1.348,0.266-3.762,0.46-7.242,0.582v1.524
			H6.1v4.094h-6.661v1.515h8.223v5.643H7.659z M-2.309,142.107v-1.891H-7.02v1.891H-2.309z M4.45,142.107v-1.891h-5.014v1.891H4.45z
			"/>
		<path fill="#FFFFFF" d="M19.367,150.658v-2.52c-1.607,0.558-3.149,0.984-4.626,1.283l-0.484-1.26
			c2.931-0.572,5.854-1.595,8.769-3.063H15.02v-1.441h9.907v-1.562h1.901v1.562h10.27v1.441h-9.277
			c0.791,1.019,1.78,1.942,2.967,2.772c1.816-0.951,3.096-1.699,3.839-2.24l1.308,1.019c-1.009,0.67-2.289,1.36-3.839,2.07
			c1.655,0.952,3.468,1.659,5.438,2.12l-1.042,1.416c-2.212-0.483-4.261-1.379-6.146-2.683c-1.885-1.304-3.381-2.796-4.487-4.476
			h-0.146c-1.26,0.863-2.761,1.645-4.505,2.338v3.052c3.722-0.347,6.205-0.642,7.448-0.884l-0.036,1.439
			c-1.405,0.283-5.264,0.688-11.578,1.213l-0.23-1.418C17.603,150.791,18.455,150.73,19.367,150.658z M26.246,141.405h-2.022
			l-0.157-1.26h1.417c0.541,0,0.812-0.229,0.812-0.69v-1.139h-3.464v3.997h-1.817v-3.997h-3.391v3.246h-1.671v-4.408h5.062v-1.417
			h-5.85v-1.188h5.85v-1.465H17.43c-0.453,0.549-0.82,0.937-1.102,1.162l-1.114-0.629c0.839-0.815,1.615-1.894,2.325-3.234
			l1.599,0.303c-0.21,0.355-0.464,0.743-0.763,1.163h2.64v-1.502h1.817v1.502h4.953v1.235h-4.953v1.465h5.716v1.188h-5.716v1.417
			h5.159v2.688c0,0.47-0.172,0.847-0.515,1.134C27.132,141.261,26.723,141.405,26.246,141.405z M29.758,138.705v-7.569h1.78v7.569
			H29.758z M33.913,142.192h-2.737l-0.194-1.562h2.144c0.605,0,0.908-0.278,0.908-0.836v-9.41h1.926v10.039
			c0,0.51-0.198,0.932-0.594,1.267S34.486,142.192,33.913,142.192z"/>
		<path fill="#FFFFFF" d="M44.143,146.721l-1.514-1.005c1.243-1.494,2.275-3.318,3.094-5.476c0.819-2.155,1.322-4.017,1.508-5.583
			l1.999,0.303c-0.339,2.092-0.967,4.221-1.883,6.389C46.43,143.518,45.362,145.308,44.143,146.721z M52.947,152.014H49.35
			l-0.194-1.806h3.185c0.775,0,1.163-0.303,1.163-0.907v-18.869h2.047v19.632c0,0.598-0.244,1.071-0.733,1.423
			C54.33,151.837,53.706,152.014,52.947,152.014z M64.562,146.576c-0.953-1.484-1.926-3.468-2.919-5.945
			c-0.993-2.479-1.691-4.404-2.095-5.776l1.901-0.497c0.582,2.003,1.353,4.064,2.313,6.188c0.96,2.125,1.816,3.779,2.567,4.967
			L64.562,146.576z"/>
		<path fill="#FFFFFF" d="M72.2,151.71v-1.489h10.15v-2.968h-8.635v-1.489h8.635v-1.599h1.938v1.599h9.12v1.489h-9.12v2.968H94.97
			v1.489H72.2z M73.617,143.887l-0.957-1.054c1.816-1.211,2.786-2.843,2.907-4.894h-2.713v-1.356h2.761v-3.924h-2.204v-1.369h11.518
			v1.369h-2.023v3.924h2.253v1.356h-2.253v5.244h-1.804v-5.244h-3.754C77.073,140.548,75.83,142.531,73.617,143.887z
			 M77.408,132.661v3.924h3.694v-3.924H77.408z M86.516,139.055v-7.412h1.805v7.412H86.516z M91.275,143.112h-2.834l-0.254-1.671
			h2.228c0.678,0,1.018-0.314,1.018-0.943v-10.064h1.865v10.777c0,0.551-0.216,1.004-0.648,1.363S91.76,143.112,91.275,143.112z"/>
		<path fill="#FFFFFF" d="M120.992,150.476c-2.414,0.371-5.131,0.557-8.151,0.557h-1.429c-3.827,0-6.417-0.388-7.77-1.162
			c-1.352-0.774-2.028-1.886-2.028-3.33c0-1.761,0.828-3.362,2.483-4.809l1.319,0.98c-1.308,1.283-1.962,2.516-1.962,3.693
			c0,1.025,0.588,1.764,1.763,2.217c1.175,0.451,3.57,0.679,7.188,0.679c2.81,0,5.571-0.202,8.284-0.605L120.992,150.476z
			 M119.272,135.083c-2.156,0.84-4.227,1.837-6.213,2.991l-0.872-1.211c0.815-0.436,2.047-1.073,3.693-1.913l-0.048-0.242
			c-2.81,0.048-7.028,0.182-12.656,0.399l-0.097-1.695c3.73-0.153,8.065-0.23,13.007-0.23c1.163,0,1.982,0.012,2.459,0.036
			L119.272,135.083z M121.161,133.412l-1.38,0.617c-0.582-1.3-1.171-2.43-1.769-3.391l1.32-0.594
			C120.035,131.134,120.645,132.256,121.161,133.412z M124.54,132.915l-1.393,0.569c-0.532-1.251-1.11-2.369-1.731-3.354l1.26-0.594
			C123.329,130.545,123.951,131.671,124.54,132.915z"/>
		<path fill="#FFFFFF" d="M153.072,142.712l-0.594,1.793c-1.082-0.42-2.086-0.793-3.016-1.114c-0.412,1.954-1.086,3.601-2.021,4.94
			c-0.938,1.34-2.232,2.52-3.889,3.537l-1.114-1.261c2.874-1.944,4.618-4.554,5.231-7.823c-2.551-0.8-4.93-1.32-7.133-1.562
			c-2.262,6.039-4.781,9.06-7.559,9.06c-0.888,0-1.627-0.334-2.216-1c-0.59-0.666-0.884-1.472-0.884-2.416
			c0-1.033,0.296-2.113,0.89-3.24c0.594-1.125,1.536-2.103,2.828-2.931c1.292-0.827,2.757-1.245,4.396-1.253
			c0.371,0,0.756,0.008,1.15,0.024c0.605-1.857,1.009-3.702,1.211-5.535h-7.69v-1.538h9.495l0.375,0.399
			c-0.307,2.503-0.787,4.785-1.441,6.843c2.125,0.25,4.396,0.734,6.82,1.453c0.047-0.59,0.072-2.038,0.072-4.348h1.889l0.012,2.107
			c0,1.122-0.045,2.06-0.133,2.81C150.496,141.885,151.603,142.236,153.072,142.712z M138.599,141.078
			c-0.372-0.017-0.671-0.023-0.896-0.023c-1.26,0-2.363,0.341-3.312,1.023c-0.948,0.683-1.643,1.5-2.083,2.451
			c-0.44,0.953-0.66,1.748-0.66,2.387c0,0.443,0.149,0.828,0.448,1.15c0.299,0.322,0.662,0.484,1.09,0.484
			c0.848,0,1.809-0.789,2.883-2.368C137.141,144.604,137.984,142.902,138.599,141.078z"/>
		<path fill="#FFFFFF" d="M167.771,141.876c0-0.613,0.217-1.139,0.652-1.574c0.438-0.437,0.963-0.653,1.574-0.653
			c0.613,0,1.141,0.218,1.574,0.653c0.438,0.437,0.654,0.961,0.654,1.574s-0.219,1.139-0.654,1.574
			c-0.436,0.437-0.961,0.653-1.574,0.653c-0.611,0-1.139-0.218-1.574-0.653S167.771,142.491,167.771,141.876z"/>
		<path fill="#FFFFFF" d="M192.607,137.723v3.366c0,4.756-1.385,8.474-4.154,11.154l-1.162-0.994
			c1.146-1.227,2.029-2.729,2.646-4.511c0.619-1.78,0.928-3.646,0.928-5.602v-4.105c-1.002,0.855-2.064,1.651-3.186,2.386
			l-0.945-1.113c1.518-1.018,3.002-2.278,4.451-3.785c1.449-1.505,2.572-3.069,3.373-4.692l1.9,0.436
			c-0.291,0.541-0.582,1.038-0.871,1.49h7.75l0.631,0.509c-0.654,1.13-1.611,2.454-2.871,3.972h8.744v1.49L192.607,137.723
			L192.607,137.723z M191.771,136.233h7.438c0.709-0.937,1.393-1.986,2.047-3.148h-6.625
			C193.75,134.239,192.796,135.289,191.771,136.233z M195.32,139.975h12.014v5.159c0,1.316-0.766,1.975-2.301,1.975h-2.713
			l-0.23-1.574h2.41c0.688,0,1.029-0.295,1.029-0.885v-3.281h-8.367v8.041c0,0.541,0.344,0.877,1.035,1.006
			c0.689,0.129,2.117,0.193,4.281,0.193c1.291,0,2.371-0.029,3.24-0.091c0.865-0.062,1.438-0.151,1.713-0.272
			c0.273-0.121,0.484-0.332,0.635-0.636c0.15-0.303,0.225-1.137,0.225-2.501l1.648,0.193v2.641c0,0.605-0.176,1.08-0.527,1.423
			s-0.914,0.558-1.689,0.642c-0.775,0.086-2.463,0.129-5.062,0.129c-1.541,0-2.84-0.024-3.893-0.073
			c-1.055-0.048-1.779-0.133-2.174-0.254c-0.396-0.121-0.707-0.343-0.934-0.66c-0.227-0.319-0.34-0.729-0.34-1.229V139.975
			L195.32,139.975z"/>
		<path fill="#FFFFFF" d="M221.49,138.062c0.232,0.323,0.561,0.857,0.986,1.604c0.424,0.748,0.707,1.431,0.848,2.047
			c0.141,0.617,0.213,1.162,0.213,1.629v0.062c0,1.001-0.137,1.839-0.406,2.513c-0.271,0.676-0.66,1.164-1.17,1.467
			c-0.508,0.303-1.215,0.453-2.119,0.453h-0.482l-0.303-1.573c0.516,0,0.984-0.019,1.402-0.056c0.42-0.035,0.748-0.281,0.982-0.737
			c0.232-0.456,0.352-1.13,0.352-2.017c0-1.736-0.635-3.425-1.9-5.062v-0.024c0-0.024-0.014-0.089-0.037-0.192
			c-0.023-0.098-0.037-0.158-0.037-0.183c0.299-0.711,0.664-1.755,1.098-3.131c0.432-1.377,0.646-2.223,0.646-2.537h-2.932v19.982
			h-1.719v-21.327h6.441l0.352,0.484c-0.186,0.808-0.535,1.996-1.047,3.566C222.144,136.598,221.753,137.61,221.49,138.062z
			 M230.16,139.503v-2.423h-2.93v-1.259c-1.074,0.904-2.137,1.636-3.188,2.191l-0.895-1.162c2.994-1.744,5.215-3.952,6.66-6.625
			h2.229c0.654,1.122,1.666,2.265,3.033,3.428c1.369,1.162,2.836,2.083,4.402,2.761l-0.992,1.345
			c-3.312-1.606-5.781-3.666-7.412-6.177c-0.969,1.478-2.227,2.87-3.768,4.179h7.689v1.319h-3.002v2.423h5.256v6.104h-4.76
			c0.604,1.105,1.525,2.134,2.762,3.082c1.234,0.949,2.566,1.657,3.996,2.126l-0.908,1.394c-1.574-0.518-3.004-1.297-4.287-2.338
			s-2.262-2.221-2.932-3.537c-1.324,2.955-3.92,4.953-7.787,5.996l-0.629-1.309c1.809-0.509,3.301-1.26,4.479-2.253
			c1.18-0.993,2.012-2.047,2.496-3.161h-4.396v-6.104H230.16z M230.16,140.798h-3.209v3.513h3.209V140.798z M235.453,140.798h-3.463
			v3.513h3.463V140.798z"/>
		<path fill="#FFFFFF" d="M252.173,131.461c-0.057,1.268-0.156,2.45-0.303,3.549h5.391v1.61h-5.633
			c-0.832,4.844-2.543,8.961-5.135,12.354l-1.418-1.042c2.293-3.101,3.84-6.871,4.639-11.312h-3.961v-1.61h4.217
			c0.16-1.179,0.258-2.37,0.289-3.573L252.173,131.461z M267.675,148.696l-0.969,1.538c-1.695-1.373-3.197-2.378-4.506-3.016v1.15
			c0,2.372-1.744,3.561-5.23,3.561c-1.438,0-2.662-0.309-3.678-0.922c-1.012-0.612-1.52-1.461-1.52-2.543
			c0-1.187,0.516-2.123,1.545-2.81s2.287-1.028,3.771-1.028c1.154,0,2.221,0.097,3.197,0.289v-6.562h1.914v7.133
			C263.808,146.1,265.632,147.169,267.675,148.696z M260.335,146.515c-1.072-0.282-2.154-0.424-3.246-0.424
			c-0.943,0-1.771,0.195-2.48,0.588c-0.711,0.392-1.066,0.931-1.066,1.615c0,1.373,1.225,2.061,3.67,2.061
			c2.082,0,3.125-0.679,3.125-2.035v-1.805H260.335z M267.724,138.208l-1.488,1.187c-1.494-1.89-3.562-3.831-6.201-5.825l1.09-1.199
			C263.392,133.694,265.591,135.64,267.724,138.208z"/>
		<path fill="#FFFFFF" d="M290.126,142.398h-8.43c-0.387,2.285-0.582,3.799-0.582,4.541c0,2.083,1.895,3.125,5.68,3.125
			c4.637,0,6.953-1.199,6.953-3.598c0-1.769-0.465-3.487-1.393-5.158l1.537-0.521c1.146,1.994,1.721,3.961,1.721,5.898
			c0,3.357-2.939,5.038-8.818,5.038c-5.02,0-7.531-1.627-7.531-4.882c0-0.928,0.156-2.409,0.473-4.443h-4.869v-1.611h5.148
			c0.176-1.033,0.471-2.498,0.883-4.396h-5.873v-1.636h6.236c0.17-0.774,0.451-1.941,0.848-3.5l1.938,0.121l-0.799,3.379h10.949
			v1.636h-11.324c-0.34,1.519-0.639,2.983-0.896,4.396h8.15V142.398L290.126,142.398z"/>
		<path fill="#FFFFFF" d="M314.492,151.226l-0.473-1.635c2.6-0.233,4.82-0.988,6.666-2.266c1.846-1.274,2.768-3.181,2.768-5.716
			c0-2.261-0.744-4.009-2.232-5.244c-1.49-1.235-3.566-1.89-6.232-1.962c-0.088,4.344-0.867,7.969-2.336,10.875
			c-1.471,2.907-3.312,4.36-5.523,4.36c-1.373,0-2.453-0.583-3.238-1.75c-0.787-1.167-1.182-2.591-1.182-4.271
			c0-2.769,1.195-5.258,3.584-7.466c2.391-2.208,5.221-3.312,8.49-3.312c3.076,0,5.611,0.769,7.605,2.307s2.99,3.641,2.99,6.305
			c0,3.035-1.004,5.356-3.016,6.963C320.353,150.024,317.728,150.96,314.492,151.226z M313.085,134.562
			c-2.342,0.355-4.355,1.415-6.043,3.179c-1.688,1.765-2.531,3.757-2.531,5.978c0,1.18,0.246,2.179,0.738,2.998
			c0.492,0.818,1.18,1.229,2.061,1.229c1.51,0,2.824-1.41,3.947-4.232C312.378,140.89,312.99,137.839,313.085,134.562z"/>
	</g>
</g>
</svg>
