<?xml version="1.0" encoding="utf-8"?>
<!-- Generator: Adobe Illustrator 18.1.1, SVG Export Plug-In . SVG Version: 6.00 Build 0)  -->
<svg version="1.1" id="レイヤー_1" xmlns="http://www.w3.org/2000/svg" xmlns:xlink="http://www.w3.org/1999/xlink" x="0px"
	 y="0px" viewBox="0 0 123.6 127.4" enable-background="new 0 0 123.6 127.4" xml:space="preserve">
<g>
	<path fill="#FFFFFF" stroke="#231815" d="M59.7,10.7c0,0-15.1-4.9-40,17.4C6.5,39.9,4.4,82.7,4.4,82.7s-4.5,12.2-3.8,17.7
		C1.3,106,6.1,114,20.7,123c14.6,9,82.1,0.3,93.9-7.3c11.8-7.7,9.4-42.8,3.5-61.2c-5.9-18.4-26.4-40.7-42.4-42.8
		C59.7,9.7,59.7,10.7,59.7,10.7z"/>
	<path fill="#FFFFFF" stroke="#231815" d="M63.9,10.3c0,0,4.5-15,12.9-8c8.3,7-8.3,2.4-10.1,8.3"/>
	<path fill="#FFFFFF" stroke="#231815" d="M63.2,10.3c0,0-7-10.8-12.2-7.7c-5.2,3.1,5.9,6.6,8.7,8"/>
</g>
<g>
	<path fill="#009844" d="M32.9,82.2c1.1,0,1.6,0.5,1.6,1.6v11c0,1.1-0.5,1.6-1.6,1.6H22.7c-1.1,0-1.6-0.5-1.6-1.6v-11
		c0-1.1,0.5-1.6,1.6-1.6H32.9z M33.3,94.8V83.9c0-0.3-0.2-0.5-0.5-0.5h-9.9c-0.3,0-0.5,0.2-0.5,0.5v10.9c0,0.3,0.2,0.5,0.5,0.5h9.9
		C33.1,95.3,33.3,95.1,33.3,94.8z M32.2,86.3c0,0.4-0.2,0.5-0.6,0.6h-3.2v2.1h2c0.8,0,1.2,0.4,1.2,1.3v2.7c0,0.8-0.4,1.3-1.2,1.3
		h-5.2c-0.8,0-1.3-0.4-1.3-1.3v-2.7c0-0.8,0.4-1.3,1.3-1.3h2v-2.1H24c-0.4,0-0.5-0.2-0.6-0.6c0-0.4,0.2-0.6,0.6-0.6h3.2v-1.2
		c0-0.4,0.2-0.6,0.6-0.6c0.4,0,0.6,0.2,0.6,0.6v1.2h3.2C32,85.7,32.1,85.9,32.2,86.3z M30.4,92.6v-2.1c0-0.2-0.1-0.4-0.4-0.4h-4.5
		c-0.3,0-0.4,0.1-0.4,0.4v2.1c0,0.3,0.1,0.4,0.4,0.4H30C30.3,93,30.4,92.9,30.4,92.6z"/>
	<path fill="#009844" d="M44.7,83.2c0,0.4-0.2,0.5-0.6,0.6h-1v4.4h1.3c0.4,0,0.5,0.2,0.6,0.6c0,0.4-0.2,0.5-0.6,0.6h-1.3V96
		c0,0.4-0.2,0.6-0.6,0.6c-0.4,0-0.6-0.2-0.6-0.6v-6.6h-2.2c0,1-0.1,1.9-0.2,2.7c-0.2,1.2-0.4,2.1-0.8,2.9c-0.3,0.5-0.6,1.1-0.9,1.5
		c-0.2,0.1-0.4,0.2-0.6,0.2c-0.4-0.1-0.6-0.3-0.7-0.7c0-0.2,0.1-0.4,0.3-0.6c0.3-0.4,0.5-0.8,0.7-1.2c0.3-0.6,0.5-1.4,0.7-2.3
		c0.1-0.8,0.2-1.7,0.2-2.5h-1.2c-0.4,0-0.5-0.2-0.6-0.6c0-0.4,0.2-0.6,0.6-0.6h1.3v-4.4c0,0,0,0,0-0.1h-0.9c-0.4,0-0.6-0.2-0.6-0.6
		c0-0.4,0.2-0.6,0.6-0.6h6.6C44.5,82.6,44.6,82.8,44.7,83.2z M41.9,83.7h-2.2c0,0,0,0,0,0.1v4.4h2.2V83.7z M51.1,91.7
		c0,0.1,0,0.3-0.1,0.4c-0.9,1.4-1.7,2.4-2.5,2.9c-1,0.8-2,1.3-3,1.6c-0.3,0.1-0.4,0.1-0.4,0.1c-0.4,0-0.7-0.2-0.7-0.6
		c0-0.3,0.2-0.6,0.5-0.7c1.2-0.5,2.1-1,2.7-1.5c0.7-0.5,1.4-1.4,2.1-2.7c0.2-0.2,0.4-0.3,0.6-0.3C50.8,91.1,51,91.4,51.1,91.7z
		 M50.5,87.2c0,0.2-0.1,0.4-0.1,0.5c-0.4,0.5-0.9,1-1.4,1.4c-0.4,0.4-0.9,0.8-1.4,1.2c-0.6,0.4-1.3,0.9-2.2,1.3l-0.1,0
		c-0.4,0-0.6-0.2-0.7-0.6c0-0.3,0.2-0.6,0.6-0.8c0.7-0.4,1.3-0.8,1.7-1.1c0.4-0.3,0.8-0.6,1.1-0.9c0.5-0.5,1-1,1.4-1.5
		c0.2-0.1,0.4-0.2,0.5-0.2C50.2,86.7,50.4,86.9,50.5,87.2z M50.2,83c0,0.2,0,0.4-0.1,0.5c-0.4,0.4-0.8,0.8-1.3,1.2
		c-0.4,0.3-0.8,0.6-1.3,1c-0.6,0.4-1.3,0.7-2,1.1l-0.1,0c-0.4,0-0.7-0.2-0.7-0.6c0-0.3,0.2-0.6,0.6-0.8c0.7-0.3,1.2-0.6,1.6-0.9
		c0.4-0.2,0.7-0.4,1-0.7c0.5-0.4,0.9-0.8,1.3-1.2c0.2-0.1,0.4-0.2,0.5-0.2C49.9,82.6,50.2,82.7,50.2,83z"/>
	<path fill="#009844" d="M55.6,82.6v2.4c0,0,0-0.1,0.1-0.1c0.2-0.3,0.5-0.7,0.8-1.2c0.1-0.3,0.3-0.4,0.6-0.4c0.4,0,0.6,0.2,0.6,0.6
		c0,0,0,0,0,0.1c-0.2,0.5-0.5,0.9-0.7,1.2c-0.3,0.4-0.6,0.8-1.1,1.2c-0.1,0.1-0.1,0.2-0.2,0.2v2.1c0,0.3,0,0.6,0,0.9
		c0,0,0,0.1,0.1,0.1c0.6,1.2,1.1,2.3,1.5,3.3c0,0.2,0,0.4,0,0.6c0,0.4-0.2,0.6-0.4,0.6c-0.4,0-0.7-0.2-0.8-0.6
		c-0.1-0.5-0.3-1-0.6-1.7c-0.2,1.1-0.4,2-0.8,2.8c-0.3,0.5-0.6,1.1-0.9,1.5c-0.2,0.1-0.4,0.2-0.6,0.2c-0.4-0.1-0.6-0.3-0.6-0.6
		c0-0.2,0.1-0.4,0.3-0.5c0.3-0.4,0.6-0.8,0.8-1.2c0.3-0.6,0.6-1.4,0.7-2.4c0.1-1,0.2-2.1,0.2-3.1v-6.1c0-0.4,0.2-0.5,0.6-0.6
		C55.4,82.1,55.6,82.3,55.6,82.6z M53.6,84.6c0.2,1.1,0.4,2.3,0.5,3.5c0,0.7,0.1,1.2,0.1,1.4c0,0.4-0.2,0.6-0.6,0.6
		c-0.4,0-0.6-0.3-0.6-0.6c-0.1-1-0.1-1.9-0.2-2.5c-0.1-0.6-0.2-1.2-0.3-2v-0.3c0-0.3,0.2-0.5,0.6-0.6C53.3,84.2,53.5,84.4,53.6,84.6
		z M60.8,82.7c0.8,0,1.2,0.3,1.2,0.9c0,0.4,0,0.8-0.1,1.2h1.3v-2.2c0-0.4,0.2-0.5,0.6-0.6c0.4,0,0.6,0.2,0.6,0.6v2.2h1.9
		c0.3,0,0.5,0.2,0.5,0.6c0,0.3-0.2,0.5-0.5,0.5h-1.8c0,0.3,0.1,0.7,0.2,1.1c0.1,0.6,0.4,1.2,0.6,1.7c0.4,0.8,0.9,1.5,1.6,2.3
		c0.2,0.1,0.3,0.3,0.3,0.5c0,0.4-0.2,0.6-0.6,0.6c-0.1,0-0.1,0-0.1-0.1c-0.5-0.4-0.8-0.8-1.1-1.2c-0.4-0.5-0.8-1.1-1-1.6
		c-0.3-0.5-0.4-1.1-0.5-1.8c-0.1,0.6-0.3,1.2-0.6,1.8c-0.2,0.5-0.5,1-0.8,1.4c-0.4,0.5-0.9,1-1.5,1.4c0,0-0.1,0.1-0.1,0.1
		c-0.4,0-0.6-0.2-0.6-0.5c0-0.2,0.2-0.4,0.4-0.6c0.7-0.7,1.2-1.4,1.6-2.1c0.4-0.7,0.6-1.4,0.8-2.2c0.1-0.3,0.2-0.6,0.2-0.9h-1.4
		c-0.1,0.7-0.3,1.4-0.6,2c-0.3,0.9-0.7,1.7-1.2,2.4c-0.5,0.6-0.9,1.1-1.4,1.5C58.3,92,58.1,92,58,92c-0.3-0.1-0.5-0.3-0.6-0.6
		c0-0.3,0.1-0.5,0.4-0.6c0.5-0.4,1-0.9,1.3-1.3c0,0,0-0.1,0-0.1c-0.4-0.6-0.8-1.2-1.3-1.6c-0.1,0.2-0.2,0.3-0.4,0.5
		c-0.2,0.2-0.4,0.3-0.7,0.3c-0.3-0.1-0.5-0.2-0.5-0.6c0-0.1,0-0.2,0.1-0.4c0.5-0.5,0.9-1.1,1.2-1.8c0.4-0.7,0.6-1.5,0.7-2.4
		c0.1-0.4,0.4-0.7,0.9-0.7H60.8z M59.2,93.3c0,0,0,0.1,0,0.1c-0.2,0.6-0.4,1.1-0.6,1.4c-0.2,0.4-0.6,0.8-1.2,1.4
		c-0.2,0.2-0.4,0.3-0.6,0.3c-0.4,0-0.6-0.2-0.6-0.6c0-0.1,0-0.3,0.1-0.4c0.5-0.4,0.8-0.7,1.1-1.1c0.3-0.3,0.5-0.7,0.6-1.2
		c0-0.4,0.2-0.5,0.6-0.6C59,92.8,59.2,93,59.2,93.3z M58.4,86.9c0.4,0.4,0.8,0.8,1.3,1.4c0.1-0.2,0.2-0.5,0.3-0.8
		c0-0.1,0.1-0.2,0.1-0.3C60.1,87.2,60,87.1,60,87c-0.4-0.5-0.8-1-1.2-1.4c-0.1,0.2-0.2,0.4-0.2,0.6c-0.1,0.2-0.2,0.4-0.3,0.6
		C58.3,86.8,58.4,86.9,58.4,86.9z M59.4,84.7c0.4,0.3,0.8,0.7,1.2,1.2c0-0.2,0.1-0.3,0.1-0.5c0.1-0.6,0.2-1.1,0.2-1.6h-1.2
		c-0.2,0-0.4,0.1-0.4,0.3c0,0.2,0,0.3-0.1,0.5C59.2,84.6,59.3,84.7,59.4,84.7z M61.3,93.2c0.1,0.6,0.1,1.2,0.2,1.8
		c0,0.4,0,0.6,0,0.7c0,0.4-0.2,0.6-0.6,0.6c-0.4,0-0.6-0.3-0.6-0.6c0-0.5,0-0.9,0-1.2c0-0.3,0-0.6-0.1-0.9v-0.2
		c0-0.4,0.2-0.5,0.6-0.6C61,92.9,61.2,93,61.3,93.2z M63.7,93.2c0.2,0.6,0.3,1.2,0.4,1.8c0,0.4,0.1,0.6,0.1,0.7
		c0,0.4-0.2,0.6-0.6,0.6c-0.4,0-0.6-0.3-0.6-0.6c0-0.5-0.1-0.9-0.1-1.2c-0.1-0.3-0.1-0.6-0.2-0.9v-0.2c0-0.4,0.2-0.5,0.6-0.6
		C63.4,92.9,63.6,93,63.7,93.2z M65.9,82.5c0.4,0.3,0.7,0.7,1.1,1.2v0.3c0,0.4-0.2,0.6-0.7,0.6c-0.3,0-0.4-0.1-0.6-0.4
		c-0.3-0.4-0.7-0.8-1-1v-0.4c0-0.3,0.2-0.4,0.6-0.5C65.6,82.2,65.8,82.3,65.9,82.5z M66.1,92.8c0.3,0.5,0.7,1.5,1.1,2.8v0.5
		c-0.1,0.3-0.3,0.5-0.7,0.5c-0.2,0-0.4-0.1-0.5-0.3c-0.4-1.2-0.7-2.1-1-2.7c-0.1-0.2-0.1-0.4-0.1-0.5c0-0.4,0.2-0.6,0.6-0.6
		C65.7,92.5,65.9,92.6,66.1,92.8z"/>
	<path fill="#009844" d="M74.9,88.4c0,0.4-0.2,0.5-0.6,0.6h-1.9V89c0.9,1.3,1.6,2.6,2.2,3.9c0.1,0.2,0.1,0.3,0.1,0.5
		c0,0.3-0.2,0.5-0.4,0.6c-0.4,0-0.7-0.2-0.8-0.6c-0.3-0.7-0.7-1.5-1.2-2.5v5.2c0,0.4-0.2,0.5-0.6,0.6c-0.4,0-0.6-0.2-0.6-0.6v-4.4
		c-0.4,0.9-0.9,1.9-1.6,2.8c-0.2,0.2-0.4,0.3-0.6,0.3c-0.4,0-0.7-0.3-0.7-0.6c0-0.1,0-0.2,0.1-0.4c0.6-0.8,1.2-1.6,1.7-2.5
		c0.4-0.7,0.7-1.5,1-2.4h-2.1c-0.4,0-0.6-0.2-0.6-0.6c0-0.4,0.2-0.6,0.6-0.6h2.1v-5.1c0-0.4,0.2-0.5,0.6-0.6c0.4,0,0.5,0.2,0.6,0.6
		v5.1h1.9C74.7,87.8,74.8,88,74.9,88.4z M69.7,83.6c0.3,0.5,0.7,1.4,1.1,2.7v0.5c-0.1,0.3-0.3,0.5-0.7,0.5c-0.2,0-0.4-0.1-0.5-0.3
		c-0.4-1.1-0.7-2-1-2.6c-0.1-0.2-0.1-0.4-0.1-0.5c0-0.4,0.2-0.6,0.6-0.6C69.4,83.3,69.6,83.4,69.7,83.6z M74.9,84.1c0,0,0,0.1,0,0.1
		c-0.1,0.6-0.2,1-0.4,1.4c-0.1,0.4-0.3,0.8-0.6,1.4c-0.2,0.2-0.4,0.3-0.6,0.3c-0.4,0-0.6-0.2-0.6-0.6c0-0.1,0-0.3,0.1-0.4
		c0.2-0.4,0.4-0.7,0.6-1.1c0.1-0.3,0.2-0.7,0.3-1.1c0-0.4,0.2-0.5,0.6-0.6C74.7,83.5,74.9,83.7,74.9,84.1z M83.2,92.2
		c-0.1,0.4-0.3,0.6-0.7,0.7c-0.4,0.1-0.7,0.1-1.1,0.2v3.1c0,0.4-0.2,0.6-0.6,0.6c-0.4,0-0.6-0.2-0.6-0.6v-2.9
		c-1.4,0.2-2.9,0.4-4.5,0.4c-0.4,0-0.7-0.2-0.8-0.6c0-0.4,0.3-0.6,0.7-0.7c1.5-0.1,3.1-0.2,4.6-0.4v-9c0-0.4,0.2-0.6,0.6-0.6
		c0.4,0,0.6,0.2,0.6,0.6v8.8c0.3-0.1,0.7-0.1,1-0.2C82.9,91.6,83.2,91.8,83.2,92.2z M76.4,87.5c0.6,0.4,1,0.7,1.4,1
		c0.4,0.3,0.8,0.7,1.2,1.1c0,0.2,0.1,0.3,0.1,0.4c0,0.3-0.2,0.5-0.6,0.5c-0.2,0-0.4,0-0.5-0.1c-0.4-0.4-0.8-0.8-1.2-1.1
		c-0.4-0.3-0.8-0.6-1.4-1c-0.1-0.2-0.1-0.4-0.1-0.5c0.1-0.3,0.2-0.4,0.5-0.5C76,87.4,76.2,87.4,76.4,87.5z M77.2,83.2
		c0.5,0.3,0.9,0.6,1.2,0.9c0.3,0.3,0.7,0.6,1,1c0,0.2,0.1,0.3,0.1,0.5c0,0.4-0.3,0.5-0.6,0.6c-0.2,0-0.4-0.1-0.5-0.2
		c-0.4-0.4-0.7-0.7-1-0.9c-0.3-0.3-0.7-0.5-1.2-0.9c-0.1-0.2-0.2-0.4-0.2-0.6c0.1-0.3,0.3-0.4,0.6-0.5C76.8,83,77,83.1,77.2,83.2z"
		/>
	<path fill="#009844" d="M88.9,82.9c-0.3,1.4-0.6,2.6-1,3.6c-0.1,0.3-0.2,0.5-0.3,0.7v8.9c0,0.4-0.2,0.6-0.6,0.6
		c-0.4,0-0.6-0.2-0.6-0.6v-6.9c-0.2,0.3-0.4,0.5-0.6,0.8c-0.2,0.2-0.4,0.3-0.6,0.3c-0.4-0.1-0.6-0.3-0.6-0.6c0-0.1,0-0.3,0.2-0.6
		c0.8-0.8,1.5-1.7,2-2.8c0.4-0.8,0.8-2,1-3.6c0-0.3,0.2-0.5,0.6-0.5C88.6,82.3,88.8,82.5,88.9,82.9z M98.1,85c0,0.3-0.1,0.5-0.2,0.6
		c-0.8,0.7-1.7,1.3-2.4,1.9c-0.8,0.6-1.8,1.2-3,1.8c0,0-0.1,0-0.1,0v5.1c0,0.6,0.2,0.9,0.5,0.9h3c0.6,0,1.1-0.2,1.5-0.5
		c0.3-0.2,0.4-1.1,0.5-2.7c0-0.4,0.2-0.6,0.6-0.6c0.4,0,0.6,0.3,0.6,0.8c0,0.6-0.1,1.3-0.2,2c-0.1,0.8-0.4,1.3-0.9,1.6
		c-0.5,0.4-1.3,0.6-2.2,0.6h-3c-1.2,0-1.8-0.6-1.8-1.8V82.9c0-0.4,0.2-0.6,0.6-0.6c0.4,0,0.6,0.2,0.6,0.6V88
		c0.8-0.4,1.6-0.9,2.3-1.4c0.5-0.4,1.3-1,2.4-1.9c0.1-0.1,0.2-0.2,0.5-0.2C97.9,84.6,98.1,84.8,98.1,85z"/>
	<path fill="#009844" d="M29.6,104v-1.8c0-0.5,0.2-0.8,0.7-0.8c0.4,0,0.7,0.3,0.7,0.8v1.8h2.7c0.5,0,0.7,0.2,0.8,0.7
		c0,0.4-0.3,0.7-0.8,0.7h-2.7v2.7c0,0,0,0.3,0,0.6c0.3,0.7,0.4,1.4,0.4,2.1c0,1.6-0.7,2.8-2,3.6c-0.5,0.3-1.1,0.6-1.7,0.8
		c-0.8,0.3-1.5,0.4-2,0.5c-0.6,0-0.9-0.3-0.9-0.8c0-0.2,0.1-0.3,0.3-0.4c1.9-0.3,3.2-0.8,3.9-1.5c0.5-0.4,0.8-1,0.9-1.8
		c-0.1,0.1-0.2,0.3-0.4,0.4c-0.9,0.8-1.9,1.2-3,1.2c-1.3,0-2.3-0.3-3.1-0.9c-0.8-0.6-1.2-1.4-1.2-2.2c0-1.1,0.4-2,1.2-2.5
		c0.8-0.6,1.8-0.9,3-0.9c1.2,0,2.3,0.3,3.1,0.9v-1.6h-7.8c-0.5,0-0.8-0.2-0.8-0.7c0-0.4,0.3-0.7,0.8-0.7H29.6z M29.1,108.3
		c-0.6-0.6-1.5-0.9-2.6-0.9c-1.9,0-2.8,0.7-2.8,2.1c0,0.7,0.3,1.2,1,1.5c0.5,0.3,1.2,0.4,1.9,0.4c0.9,0,1.6-0.3,2.1-0.9
		c0.4-0.4,0.7-1,0.8-1.6C29.5,108.7,29.3,108.5,29.1,108.3z"/>
	<path fill="#009844" d="M46.5,102.3c0.9,0,1.3,0.4,1.3,1c0,0.3-0.6,0.8-1.8,1.5c-1,0.7-2.6,1.6-4.6,2.9c1.3-0.4,2.7-0.6,4-0.6
		c1.6,0,2.8,0.3,3.6,1c0.8,0.7,1.2,1.6,1.2,2.8c0,0.9-0.3,1.7-1,2.4c-0.8,0.8-1.9,1.4-3.3,1.9c-1.2,0.3-2.3,0.5-3.6,0.5
		c-1.1,0-1.9-0.3-2.6-0.8c-0.5-0.4-0.8-0.9-0.8-1.6c0-0.7,0.3-1.2,0.8-1.5c0.4-0.3,1-0.5,1.7-0.5c0.9,0,1.7,0.3,2.4,0.8
		c0.5,0.4,0.9,1.1,1.3,2c0.1,0,0.3-0.1,0.6-0.1c1.1-0.4,2-0.8,2.5-1.5c0.4-0.5,0.7-1,0.7-1.6c0-1.6-1.4-2.4-4-2.4
		c-1.2,0-2.3,0.2-3.3,0.5c-0.8,0.2-1.8,0.7-3.1,1.3c-0.2,0.1-0.3,0.1-0.3,0.1c-0.6,0-1-0.3-1-0.7c0-0.2,0.1-0.4,0.3-0.5l7.9-5.4
		h-6.7c-0.5,0-0.8-0.2-0.8-0.7c0-0.4,0.3-0.7,0.8-0.7H46.5z M43,113c-0.5-0.3-1-0.5-1.6-0.5c-0.7,0-1.1,0.2-1.1,0.7
		c0,0.2,0.1,0.4,0.4,0.6c0.5,0.3,1.2,0.4,2.1,0.5c0.2,0,0.5,0,0.8-0.1C43.5,113.7,43.3,113.3,43,113z"/>
	<path fill="#009844" d="M57.2,110.2c0,0.1-0.1,0.2-0.3,0.3c-1.5,0.7-2.3,1.4-2.3,1.9c0,0.2,0.1,0.3,0.3,0.4c0.4,0.2,1,0.4,2,0.6
		c1,0.2,2.2,0.3,3.5,0.3c2.1,0,3.7-0.3,4.9-0.8c0.2-0.1,0.3-0.1,0.4-0.1c0.6,0,0.9,0.3,0.9,0.9c0,0.2-0.2,0.3-0.4,0.4
		c-1.7,0.6-3.5,0.9-5.4,1c-1.5,0-3-0.2-4.7-0.6c-1.4-0.3-2.3-0.7-2.6-1.2c-0.2-0.3-0.3-0.6-0.3-0.8c0-0.9,0.9-1.8,2.8-2.8
		c0.2-0.1,0.4-0.2,0.5-0.2C56.9,109.4,57.1,109.7,57.2,110.2z M63.8,103.2c0.8,0.3,1.2,0.7,1.2,1.3c0,0.2-0.1,0.4-0.3,0.5
		c-0.6,0.6-1.3,1.1-2.1,1.6c-0.1,0.1-0.2,0.1-0.3,0.2c-0.5,0-0.7-0.2-0.7-0.6c0-0.2,0-0.3,0.1-0.3c0.4-0.3,0.8-0.7,1.3-1
		c0.1-0.1,0.2-0.1,0.2-0.2c0-0.1-0.2-0.2-0.4-0.3c-1-0.2-2-0.3-3.2-0.3c-1.7,0-3.2,0.2-4.4,0.7c-0.1,0-0.2,0.1-0.3,0.1
		c-0.6,0-0.8-0.4-0.8-0.9c0-0.2,0.2-0.4,0.5-0.5c1.6-0.5,3.3-0.7,5.1-0.7C61.4,102.6,62.8,102.8,63.8,103.2z M65.5,102
		c0.3,0.4,0.5,0.7,0.6,0.9c0,0.4-0.2,0.6-0.6,0.6c-0.2,0-0.3-0.1-0.3-0.2c-0.3-0.5-0.7-0.9-1.2-1.3c-0.1,0-0.2-0.1-0.2-0.2
		c0-0.4,0.2-0.6,0.6-0.6C64.6,101.1,65,101.4,65.5,102z M67.1,101.4c0.3,0.4,0.5,0.7,0.5,0.9c0,0.4-0.2,0.6-0.6,0.6
		c-0.1,0-0.2-0.1-0.3-0.2c-0.3-0.5-0.7-0.9-1.1-1.3c-0.1-0.1-0.1-0.1-0.1-0.3c0-0.4,0.2-0.6,0.6-0.6
		C66.3,100.5,66.6,100.8,67.1,101.4z"/>
	<path fill="#009844" d="M75.4,101.9c0.6,0,1.1,0.2,1.3,0.4c0.2,0.2,0.3,0.5,0.4,0.9c0,0.1-0.1,0.3-0.1,0.6c-0.4,1.5-0.8,2.6-1,3.5
		c0.9,0.1,1.8,0.2,2.8,0.4c0.2,0.1,0.5,0.1,1,0.2c0-0.5,0.1-1.2,0.1-2.2c0-0.3,0.2-0.4,0.5-0.4c0.5,0,0.8,0.3,0.8,0.8
		c-0.1,0.5-0.1,1.2-0.3,2.2c0.7,0.3,1.2,0.4,1.6,0.6c0.3,0.1,0.5,0.3,0.5,0.5c0,0.6-0.3,0.9-0.8,0.9c-0.1,0-0.3,0-0.5-0.1
		c-0.2-0.1-0.6-0.2-1.1-0.4c-0.2,1-0.4,1.8-0.6,2.3c-0.5,1-1.1,1.7-1.9,2.1c-0.8,0.4-1.5,0.6-2.3,0.7c-0.5,0-0.7-0.3-0.7-0.8
		c0-0.2,0.1-0.3,0.4-0.3c1.2-0.2,2.1-0.6,2.6-1.1c0.5-0.5,0.9-1.2,1.2-2.4c0-0.2,0.1-0.5,0.2-0.9c-0.4-0.1-0.9-0.2-1.6-0.4
		c-0.7-0.2-1.6-0.3-2.4-0.4c-0.4,1.2-0.8,2.1-1,2.6c-0.7,1.2-1.4,2.1-2.1,2.6c-0.6,0.4-1.2,0.6-1.8,0.7c-0.7,0-1.3-0.3-1.7-0.7
		c-0.4-0.4-0.6-1-0.6-1.7c0-0.9,0.3-1.7,0.8-2.5c0.6-0.9,1.3-1.5,2.1-1.8c0.8-0.3,1.9-0.5,3.4-0.5c0.3-0.8,0.6-1.9,1-3.3
		c0-0.1,0-0.2,0.1-0.3c0-0.3-0.2-0.5-0.5-0.5h-3.1c-0.5,0-0.8-0.2-0.8-0.7c0-0.4,0.3-0.6,0.8-0.6H75.4z M72.1,108.9
		c-0.8,0.3-1.3,0.8-1.7,1.5c-0.4,0.6-0.6,1.3-0.6,2c0,0.3,0.1,0.4,0.3,0.6c0.2,0.2,0.4,0.2,0.7,0.2c1,0,1.9-0.8,2.8-2.4
		c0.2-0.5,0.5-1.2,0.9-2.2C73.4,108.6,72.6,108.7,72.1,108.9z"/>
	<path fill="#009844" d="M89.5,101.9c0,0.1,0,0.2-0.1,0.4c-0.6,1-1.1,1.8-1.6,2.2v2.8c0,0.4-0.3,0.6-0.6,0.6c-0.4,0-0.6-0.2-0.6-0.6
		v-1.8c-0.3,0.2-0.7,0.4-1,0.5c-0.2,0.1-0.3,0.1-0.3,0.1c-0.4,0-0.6-0.2-0.6-0.6c0-0.3,0.2-0.5,0.4-0.6c0.8-0.4,1.4-0.8,1.8-1.2
		c0.4-0.4,0.9-1.1,1.4-2.1c0.1-0.2,0.3-0.3,0.6-0.3C89.2,101.3,89.4,101.5,89.5,101.9z M92.5,107.9v0.4h5.9c0.4,0,0.5,0.2,0.6,0.6
		c0,0.4-0.2,0.5-0.6,0.6h-5.5c0.3,0.9,0.7,1.7,1.3,2.4c0,0,0.1,0.1,0.1,0.1c0,0,0,0,0-0.1c0.9-0.4,1.7-0.9,2.4-1.4
		c0.2-0.1,0.4-0.2,0.6-0.2c0.4,0.1,0.6,0.2,0.6,0.6c0,0.3-0.1,0.5-0.2,0.7c-0.7,0.5-1.5,1-2.4,1.4c0.2,0.2,0.4,0.3,0.7,0.4
		c0.7,0.4,1.5,0.8,2.5,1c0.4,0.1,0.6,0.3,0.6,0.8c-0.1,0.3-0.3,0.4-0.7,0.5c-0.1,0-0.2,0-0.4-0.1c-0.6-0.2-1.3-0.4-2.1-0.8
		c-1-0.5-1.9-1.1-2.7-1.9c-0.7-0.7-1.2-1.6-1.6-2.7c-0.9,0.8-1.7,1.3-2.4,1.7v2.3c0.2,0,0.4-0.1,0.6-0.1c0.6-0.1,1.2-0.3,1.9-0.6
		c0.1-0.1,0.3-0.1,0.4-0.1c0.4,0.1,0.6,0.3,0.7,0.6c0,0.2-0.1,0.4-0.3,0.6c-0.6,0.3-1.2,0.5-1.8,0.7c-0.7,0.2-1.4,0.3-2.2,0.4
		c-0.7,0.1-1.4,0.2-2.2,0.2c-0.4,0-0.7-0.2-0.7-0.6c0-0.4,0.2-0.6,0.6-0.7c0.7,0,1.3-0.1,1.9-0.2v-1.9c-0.8,0.3-1.6,0.5-2.3,0.6
		c-0.3,0.1-0.5,0.1-0.5,0.1c-0.4,0-0.6-0.2-0.6-0.6c0-0.3,0.2-0.5,0.4-0.6c1.5-0.3,2.6-0.6,3.4-1c0.7-0.3,1.4-0.8,2.2-1.4h-5.4
		c-0.4,0-0.5-0.2-0.6-0.6c0-0.4,0.2-0.6,0.6-0.6h6v-0.4c0-0.4,0.2-0.7,0.7-0.7C92.2,107.3,92.5,107.5,92.5,107.9z M99.1,103.7
		c0,0.4-0.2,0.5-0.6,0.6l-3.6,0.3c0.4,0.7,0.9,1.2,1.3,1.6c0.4,0.3,0.7,0.4,0.9,0.4c0.3,0,0.4-0.1,0.5-0.2c0.1-0.1,0.3-0.3,0.4-0.7
		c0.1-0.3,0.3-0.4,0.5-0.4c0.4,0,0.7,0.3,0.7,0.7c0,0.1,0,0.1,0,0.1c-0.3,0.7-0.6,1.2-0.8,1.4c-0.3,0.3-0.7,0.4-1.2,0.4
		c-0.3,0-0.7-0.1-1.1-0.4c-0.6-0.4-1.2-1-1.8-1.9c-0.2-0.2-0.4-0.5-0.6-0.8l-4.5,0.4c-0.4,0-0.6-0.2-0.6-0.6c0-0.4,0.2-0.6,0.6-0.6
		l3.9-0.4c-0.2-0.4-0.4-0.8-0.6-1.2c-0.1-0.2-0.2-0.4-0.2-0.5c0-0.3,0.2-0.5,0.6-0.6c0.3,0,0.5,0.1,0.6,0.2c0.3,0.8,0.6,1.5,0.9,2.1
		l4.2-0.4C98.8,103.1,99,103.3,99.1,103.7z M95.6,101.1c0.6,0.2,1.1,0.4,1.5,0.8c0.1,0.1,0.2,0.3,0.2,0.4c0,0.4-0.2,0.7-0.6,0.7
		c-0.2,0-0.3-0.1-0.4-0.1c-0.4-0.3-0.9-0.6-1.4-0.8c-0.2,0-0.4-0.2-0.4-0.6c0-0.3,0.2-0.5,0.6-0.6C95.1,101,95.3,101,95.6,101.1z"/>
</g>
<path fill="none" stroke="#86C685" stroke-width="2.8346" stroke-linecap="round" stroke-linejoin="round" d="M43.4,71.5
	c0,0,10.2,3.6,30.9,1.4"/>
<path fill="none" stroke="#86C685" stroke-width="2.8346" stroke-linecap="round" stroke-linejoin="round" d="M38.2,72.2
	c0,0-10.1,3.2,5.6,4.8s31.4,1.6,35,0.4s2.9-3.8,1.4-4s-1.5-0.2-1.5-0.2"/>
<path fill="#D0E7CC" d="M40.7,50.1c0,0,6-3.1,7.9-0.8l0.9-6.6c0,0-0.2,0.2,0.5-0.2s3.6-0.5,3.8,0.9s1.1,5.6,1.1,5.6l2.8,0.2l4.9-0.6
	l1.5-6.2c0,0-0.4,0.1,0.5-0.4s3.6-0.9,3.6,2s0,2.9,0,2.9L68,49.7l1.8,0.5c0,0,1-2,3.5-1.2s2.5,0.8,2.5,0.8h1.1l-0.4-6.9l-1.2-2.4
	L71.4,39l-2.5-2.4l-6.1,3l-5,0.1L54,37.1l-4.1,1.2l-5.1,0.8l-1.9-0.6l-1.5,2.8l-0.5,3.5L40.7,50.1z"/>
<g>
	<path fill="#009744" d="M82.7,38c-0.3,1.5-0.9,2.4-2.4,2.6c-0.1,0-0.2,0.1-0.2,0.2c-0.6,0.7-1.4,1-2.4,0.8c-0.2,0-0.4-0.1-0.5,0.2
		c-0.1,0.2,0,0.4,0.3,0.4c0.5,0,0.3,0.4,0.3,0.6c0,0.8,0,1.6,0,2.5c0,0.4-0.3,0.9,0.5,1.1c0.3,0.1,0.2,0.8,0.1,1.2
		c-0.1,0.6,0.5,1.5-0.5,1.9c-0.1,0-0.1,0.4-0.1,0.6c0.1,1.1-0.7,1.9-1.1,2.9c-0.4,1-1.2,1.5-1.8,2.3c-0.8,1-1.7,2.1-3.2,2.1
		c-0.6,0-0.7,1-1.4,0.7c-0.3,1-1.1,0.4-1.7,0.5c-0.3,0.1-0.8-0.2-0.8,0.3c0,0.5-0.4,1.2,0.2,1.6c0.3,0.2,0.3,0.4,0.3,0.6
		c0,0.5,0.1,0.8,0.5,1.3c0.7,0.7,1,1.9,1.4,2.8c0.6,1.1,0.1,2.3,0.6,3.2c0.5,0.8,1.1,1.5,1.1,2.6c0,0,0.6,0.1,0.4,0.5
		c-0.1,0.3-0.5,0.1-0.8,0.1c-0.9,0-1.4-0.6-1.5-1.4c0-0.4,0.3-1-0.5-1.1c0,0-0.1-0.1-0.1-0.2c0.4-1.2-0.6-2.1-0.6-3.2
		c0-0.7-0.8-1-0.9-1.7c0-0.1-0.4-0.3-0.3-0.6c0.3-1-0.7-1.5-0.8-2.3c0-0.1-0.2-0.1-0.2-0.2c0.2-1.5-0.9-1.1-1.6-1.1
		c-1.5,0-2.9,0-4.4,0c-0.5,0-1.1-0.3-1.3,0.5c-0.1,0.2-0.7,0.1-0.7,0.1c-0.4-1.1-1.3-0.4-2-0.6c-0.5-0.1-1,0-1.5,0
		c-0.5,0-0.9,0.1-0.8,0.7c0,0.3,0,0.4-0.4,0.6c-0.5,0.2-0.9,0.5-0.9,1.3c0,0.6-0.7,1.2-1.1,1.4c-0.9,0.5-1,1.5-1.7,2.1
		c-0.4,0.3-0.6,0.7-1,1C49.1,67,49,67,49,67.2c0,1.4-1.3,1.7-1.9,2.6c-0.1,0.2-0.3,0.3-0.3,0.6c0,0.3,0.2,0.7-0.3,0.7
		c-0.3,0-0.8,0.3-0.9-0.3c0,0,0-1.1,0-1.1c0.6-0.8,1.1-1.8,1.9-2.4c0.6-0.5,0.7-1.4,1.5-1.5c-0.1-1,0.8-1.3,1.3-1.9
		c0.7-0.8,1-2,2.1-2.6c0.4-0.2,0.3-0.9,0.1-1c-0.4-0.2-0.2-1-0.9-0.8c-1.2,0.2-2.1-1-3.3-0.6c-0.4-0.9-1.5-0.3-1.8-0.7
		c-0.6-0.8-2-0.3-2.3-1.5c-1.3-0.1-2-1.2-2.4-2c-0.5-0.8-1.5-1.3-1.4-2.4c0.1-1.1,0-2.2,0-3.3c0-1.6,0-3.3,0-4.9
		c0-0.4-0.2-0.8,0.3-1.1c0.2-0.1,0.1-0.5-0.1-0.5c-1.5,0.3-2-1.1-3-1.7c-0.7-0.5-1.7-1.1-1.4-2.2c0.3-0.9-0.1-2,0.9-2.6
		c-0.4-1.4,1.2-1,1.6-1.7c0.3-0.5,0.6-0.8-0.1-1.1c-0.3-0.1-0.3-0.5-0.2-0.5c0.8-0.1,0.7-1.4,1.6-1.4c0.4,0,0.3-0.4,0.2-0.6
		c0-0.2,0.2-0.6-0.3-0.6c-0.8,0-0.5-0.5-0.5-0.9c0-0.3-0.2-0.8,0.5-0.8c0.5,0,0.3-0.4,0.3-0.7c0.1-0.7-0.1-1.4,0.4-2.1
		c0.4-0.6,1.1-0.1,1.6-0.7c0.9-1.2,2.3-0.4,3.5-0.6c0.1,0,0.2,0.1,0.3,0.2c0.7,0.9,2.1,0.9,2.9,0c0.4-0.5,0.9-0.1,1.4-0.2
		c0.3-0.1,0.8,0.2,1-0.1c0.3-0.5-0.5-0.4-0.5-0.6c-0.1-0.7-0.2-1.5,0-2.2c0.1-0.6,0.5-1.1,1.3-1.1c0.5,0,0.4-0.5,0.8-0.7
		c1.1-0.8,2.9-0.8,3.6,0.4c0.2,0.4,0.9,0.3,0.8,0.9c0,0.1,0.5,0.2,0.5-0.2c-0.1-1,0.3-1.6,1.1-2.3c0.4-0.4,0.9-1.1,1.2-1.7
		c0.1-0.1,0-0.4,0.2-0.4c0.5,0,1,0.1,1.1-0.6c1,0.4,1.7-0.7,2.7-0.7c1.4,0,2.8-0.1,4.2,0c0.7,0,1.6-0.5,2,0.6c0,0.1,0.3,0,0.4,0
		c1.2-0.1,2.1,0.8,3.1,1c1,0.2,1.4,1.2,2.5,1.4c0.8,0.1,2,0.8,2.5,1.9c0.1,0.3,0.4,0.3,0.5,0.5c0.3,0.5,1,0.8,0.8,1.7
		c-0.1,0.6,0.5,1.1,1.1,1.1c0.7,0,0.7,0.3,0.8,0.8c0.1,0.5,0.5,1,1.2,1.1c0.7,0,1.4,0,2.1,0c0.6,0,1.3,0.3,1.9,0.9
		c0,0,0.1,0.1,0.2,0.1c0.3,0.1,0.9-0.2,1,0.2c0.1,0.6,0.1,1.3,0,1.9c0,0.4-0.6,0.7-0.7,0.8c-1.3,0.8-1.9,2.3-3.2,3
		c-0.1,0-0.1,0.2-0.1,0.4c0,0.2,0.2,0.2,0.4,0.2c0.8-0.1,1.2,0.8,2,0.8c0.5,0,0.5,2.1,0.3,2.7c-0.4,1.2-1.4,1.8-2.1,2.7
		C84.4,39,83,38.7,82.7,38z M38.5,38.7c-0.3,1.1,0.7,1.5,1.1,2.2c0.1,0.2,0.7,0.1,1,0.1c0.3-0.1,0.1-0.4,0.2-0.6
		c0-0.3-0.1-0.4-0.4-0.4c-0.8,0.2-1.1-0.4-1.2-0.9C39,38.7,38.8,38.7,38.5,38.7c0-0.7,0-1.3,0-2c0-0.3,0.2-0.7-0.2-0.8
		c-0.5-0.2-0.4,0.4-0.5,0.5c-1,0.2-0.6,1.1-0.5,1.4C37.5,38.1,37.8,38.8,38.5,38.7z M74.9,44.8c0.2-1-0.3-2,0.4-2.8
		c0.1-0.1,0.4-1-0.4-0.9c-0.9,0.1-1.7-0.7-2.7-0.4c-0.2,0-0.3-0.1-0.4-0.2c-0.5-0.7-1.1-1.5-1.7-2.1c-0.4-0.4-1-0.8-1.6-0.5
		c-0.8,0.3-1.6,0.6-2.2,1.1c-0.9,0.6-1.7,1.2-2.8,1.2c-0.1,0-0.2,0-0.2,0.1c-0.1,0.8-0.7,0.5-1.2,0.5c-0.2,0-0.5,0-0.7,0.1
		c-0.8,0.5-1.6,0.4-2.4,0c-0.7-0.3-1.5-0.5-2.3-0.6c-1.1-0.2-1.7-0.8-2.4-1.5c-0.3-0.3-1.5-0.7-1.8-0.3c-0.7,0.8-1.4,1.3-2.5,1.1
		c-0.1,0-0.3,0-0.3,0c-0.3,1-1.1,0.5-1.7,0.6c-1,0.1-1.9,0-2.9,0c-0.4,0-0.8,0.3-1-0.5c-0.1-0.3-1-0.3-1.1,0
		c-0.3,0.9-1.2,1.6-1.1,2.7c0.1,0.6,0.2,1.6-0.1,1.8c-0.9,0.5-0.4,1.2-0.5,1.7c-0.1,0.7-0.1,1.5,0,2.3c0.2,1.4-0.5,2.8,0.5,4.2
		c0.5,0.7,1,1.5,1.3,2.3c0.2,0.5,0.8-0.1,1.1,0.5c0.6,1.1,1.7,1.7,2.8,2.1c1,0.4,2.1,0.2,3.2,0.4c0.9,0.2,1.6,1.1,2.7,0.7
		c0,0,0.1,0.1,0.1,0.1c0,0.7,0.6,0.5,0.9,0.5c1.7,0,3.5,0,5.2,0c0.7,0,1.2,0.5,2.1,0.1c1.4-0.6,3.1,0.4,4.5-0.7
		c0.5-0.4,1.4-0.1,2.2-0.6c0.9-0.5,2.1-0.4,3.1-1c0.3-0.2,0.6-0.8,1.1-0.7c0.8,0.1,1.1-0.5,1.4-0.9c0.7-0.7,1.3-1.6,1.9-2.4
		c0.5-0.8,0.8-1.7,0.9-2.4c0.3-1.6,0.1-3.3,0.1-4.9c0-0.4-0.3-0.8-0.7-1C75.3,43.9,75.4,44.6,74.9,44.8z M67.2,15.9
		c-0.8,0.1-1.8-0.2-2.7,0.6c-0.6,0.5-1.1,0.8-0.6,1.6c0.2,0.4,2,1.4,2.4,1.4c0.6,0,1.7-0.2,1.9,0.1c0.5,0.8,1.2,0.4,1.8,0.5
		c0.2,0.1,0.6-0.1,0.7,0.1c0.8,1,1.8,1.2,3,1.2c0.4,0,0.9,0.2,1.2,0.5c0.8,1,1.9,1.2,3.1,1.1c0.2,0,0.4,0,0.5-0.2
		c0.5-1-0.3-2.4-1.5-2.7c-0.2,0-0.3,0-0.4-0.2c-0.4-0.6-0.9-1.2-1.8-1c-0.2,0-0.3,0-0.5-0.2c-0.4-0.5-0.8-1-1.5-1.1
		c-0.5-0.1-1.2-0.1-1.5-0.5c-0.7-0.8-1.7-0.6-2.5-1C68.4,15.7,67.8,15.9,67.2,15.9z M64.2,30.8c-0.1-0.7,0.1-1.5-0.4-2.3
		c-0.5-0.8-1.6-0.7-2.1-1.5c-0.2-0.2-0.8,0.1-1.1-0.5c-0.3-0.7-1.2-1.1-1.8-1.3c-1.3-0.3-2.8-0.8-4.2-0.1c-0.4,0.2-0.3,0.4-0.3,0.7
		c0,0.2-0.1,0.6,0.3,0.6c1.1,0,2.1-0.1,3.1,0.6c0.5,0.3,1.3,0.6,1.6,0.9c0.7,0.8,1.7,1.3,2.3,2.1c0.6,0.7,1.8,1.2,1.5,2.6
		c-0.1,0.4,0.2,0.5,0.5,0.5c0.4,0,0.5-0.2,0.5-0.6C64.2,31.9,64.2,31.4,64.2,30.8z M45.5,31.2c-0.1,1.2,0.3,2.4,1.2,3.6
		c1,1.3,2.1,2.1,3.7,2.1c0.3,0,0.5,0.1,0.5,0.5c0,0.5,0.4,0.4,0.7,0.3c0.3,0,0.8,0.2,0.9-0.2c0.1-0.3,0.2-0.9-0.1-1
		c-0.6-0.2-0.6-0.9-1-1.1c-0.3-0.2-0.5-0.7-0.8-0.8c-0.9-0.2-1.7-0.6-2.5-1.2c-0.8-0.7-1.6-1.3-1.4-2.5c0.1-0.7,0-1.4,0-2.2
		c0-0.3-0.3-0.6-0.4-0.4c-0.2,0.5-1,0.5-0.9,1.2C45.6,30,45.5,30.5,45.5,31.2z M70.7,35.8c-0.1,0-0.3,0-0.4,0
		c-0.2,0-0.6-0.2-0.7,0.2c-0.2,0.5,0.4,0.4,0.5,0.5c0.3,0.4,0.9,0.5,0.7,1.2C70.7,38,71,38,71.1,38.1c0.3,0.5,1.1,0.5,1.2,0.7
		c0.5,1,1.6,0.3,2.3,1c0.6,0.6,2.1-0.3,3,0.7c0.4,0.4,0.8-0.5,1-0.5c1.3-0.2,1.6-1.6,2.6-2c0.1-0.1,0.1-0.6,0.1-0.9
		c0-0.4-0.4-0.2-0.6-0.2c-0.6,0-0.9,0.1-1.5,0.7c-0.6,0.7-1.7,1.4-3,1.2c-0.5-0.1-1-0.1-1.4,0c-0.8,0.1-1-0.9-1.7-0.7
		c0-0.1,0-0.2-0.1-0.3C72.9,36.8,71.7,35.8,70.7,35.8z M55.6,37.6c0.4,2,2.1,1.7,3.2,2.3c1.3,0.7,2.7-0.7,4.2-0.6c0,0,0.1,0,0.1-0.1
		c0-0.9,0.9-0.6,1.4-1c0.7-0.7,2.2-0.1,2.8-1.3c0,0,0.2,0,0.3,0c0.6,0,1.1-0.3,1.3-0.7c0.4-0.8-0.2-1.5-0.7-2.1
		c-0.1-0.1-0.5-0.1-0.5,0.1c-0.1,0.7-0.7,1.1-1.1,1.5c-0.5,0.5-1,1.4-2,1.2c-0.3-0.1-0.4,0.1-0.3,0.4c0,0.2,0,0.3-0.3,0.5
		c-1.1,0.7-2.6,0-3.6,1c-0.4,0.4-0.8-0.5-1-0.5C58.1,38.1,56.8,38.1,55.6,37.6z M49,37.9c-0.6-0.2-1.4,0-1.4-1c0,0-0.3,0-0.5-0.1
		c-0.4-0.1-0.7-0.4-1-0.7c-0.5-0.4-0.4-1.1-0.7-1.4c-0.8-1-1.2-2-1.2-3.2c0-1.1-0.3-1.4-1.3-1c-0.4,0.2-1,0.5-1,1.2
		c0,0.7,0,1.3,0.6,2c0.9,1,1.5,2.3,2.3,3.4c0.7,1,1.4,1.7,2.8,1.7C48.4,38.8,48.4,38,49,37.9z M57.2,36.7c0.2,0.3,0.4,0.2,0.6,0.2
		c0.5,0.1,1.3-0.4,1.3,0.7c0,0.2,2.2,0.2,2.2-0.1c0-0.9,0.7-0.6,1.1-0.6c0.7,0,1.5,0.1,1.9-0.8c0.1-0.2,0.3-0.2,0.4-0.2
		c0.8,0.1,1-0.6,1.4-0.9c0.6-0.5,0.5-1.3,0.8-1.9c0.1-0.2,0.3-0.4,0.1-0.6c-0.2-0.2-0.7-0.2-0.8-0.1c-0.4,0.8-1.3,0.7-1.8,1.1
		c-0.7,0.6-1.5,0.9-2.3,1.3c-0.7,0.3-1.2,0.4-1.8,0.4c-0.5,0-0.8,0.1-1,0.6c-0.2,0.5-0.6,0.7-1.2,0.6C57.8,36.4,57.5,36.3,57.2,36.7
		z M70.2,28.2c0.7,0.2,0.7-0.7,1.2-0.9c0,0,0-0.4-0.2-0.4c-1.4,0.4-0.8-1.2-1.6-1.6c-0.4-0.2,0.4-0.6,0.5-1c0.4-0.8,1.4-0.9,2-1.6
		c0.1-0.1,0.7-0.2,0.9,0.1c0.1,0.2,0.1,0.6,0.5,0.4c0.3-0.1,0.1-0.5,0.2-0.7c0.1-0.4-0.1-0.5-0.5-0.5c-0.7,0.2-1.5-0.3-2.2,0.5
		c-0.6,0.6-1.6-0.1-2-0.8c-0.3-0.6-0.7-0.3-1-0.3c-0.4,0-0.2,0.5-0.2,0.8c0,0.2,0,0.4,0.2,0.4c0.8,0.1,0.4,0.7,0.4,1
		c-0.1,0.4-0.6,0.3-0.9,0.2c-0.7-0.1-0.9,0.4-0.9,0.8c0,0.3,0,0.9,0.6,0.9c1.1-0.1,1.6,0.4,1.8,1.5C69.1,27.6,69.5,28.3,70.2,28.2z
		 M73.3,35.2c1,0.5,1.6-0.6,2.5-0.6c0.2,0,0.2-0.5,0-0.5c-0.5-0.1-1-1.7-1.7-0.1c0,0.1-0.3,0.1-0.5,0.1c-0.8,0-1.5-0.1-2.3-0.5
		c-1.1-0.6-1.8-1.1-1.8-2.4c0-0.6,0.2-1.4-0.9-1.2c-0.3,0.1-0.3-0.2-0.4-0.4c-0.1-0.4-0.4-0.2-0.7-0.2c-0.3,0-0.3,0.2-0.3,0.4
		c0.1,0.9,0.6,1.7,0.4,2.6c0.8,0,0.4,0.9,0.8,1.1c0.9,0.6,1.7,1.3,2.9,1.3c0.1,0,0.3,0,0.3,0C72,35.7,72.8,35,73.3,35.2z M61.9,32.9
		c0.4-0.9-0.4-1.6-0.8-2.2c-0.6-1.1-1.8-1.9-3-2.3c-0.7-0.3-1.3-1.1-2.2-0.7c-0.2,0.1-0.3-0.2-0.4-0.3c-0.5-0.6-1.1-0.3-1.7-0.2
		c-0.4,0.1-0.2,0.9-0.1,1c0.5,0.2,0.7,0.9,1.5,0.9c1.2,0,2.6,0,3.6,1c0.6,0.6,1.2,1.1,1.4,2.1c0.1,0.6,0.6,1.2,0.6,1.9
		c0,0,0.2,0.1,0.3,0.2C62.1,34.2,62,33.5,61.9,32.9z M50.9,33.1c-0.5-0.1-0.6-0.5-0.7-0.9c-0.2-0.8,0.6-1.1,0.7-1.7
		c0.1-0.7,0.5-1.1,1.2-1.3c0.4-0.1,0.5-0.2,0.5-0.6c0-0.5-0.2-0.4-0.6-0.5c-1.1-0.2-2,0.4-2.9,0.9c-1,0.5-1.4,2.1-1,3
		C48.3,32.9,49.8,33.5,50.9,33.1z M51.5,31.9c-0.2,1,0.6,1.8,0.9,2.8c0.3,0.9,0.5,1.3,1.4,1.2c0.2,0,0.5,0.1,0.6-0.3
		c0-0.3-0.3-0.3-0.3-0.4c-0.2-0.5-0.8-0.5-0.9-1c-0.4-1.2,0.6-2,0.7-3.1c0,0,0.1,0,0.2-0.1c0.5-0.3,0.7-0.8,0.9-1.3
		c0.2-0.5,0-0.6-0.4-0.6c-0.6,0-1.1,0.3-1.6,0.5C51.7,30.2,51.4,30.8,51.5,31.9z M40.6,29.1c0.3,0.1,0.7,0.2,0.7,0.3
		c0.1,0.7,0.6,0.6,1,0.5c0.4-0.1,0.6-0.6,0.7-1c0.4-1.7,0.6-1.9,2.4-1.9c0.7,0,0.8-0.3,0.7-0.8c-0.1-0.7-1.6-1.3-2.1-1
		c-0.2,0.1,0,0.7-0.4,0.6c-0.8-0.2-1,0.6-1.5,0.8c-0.7,0.4-0.8,1-0.6,1.7C41.5,28.9,41,28.8,40.6,29.1z M74.9,24.9
		c-0.1,0.4-0.5,0.1-0.6,0.5c-0.2,1.1-0.8,1.9-2.1,1.6c-0.2,0-0.3,0-0.4,0.2c0,0.2,0.1,0.2,0.2,0.4c0.4,0.4,1,0.6,1,1.4
		c0,0.5,0.4,0.4,0.6,0c0.3-0.6,1.1-0.7,1.3-1.3c0.1-0.2,0.3-0.1,0.3,0.1c0,0.5,0.4,0.3,0.7,0.4c0.7,0.3,0.5-0.6,0.9-0.6
		c0.3,0,0.3-0.2,0.3-0.4c0-0.2-0.3-0.2-0.4-0.2c-0.7,0.3-0.9-0.5-1.3-0.7c-0.3-0.2-0.3-1,0-1.5c0.1-0.1,0.6-0.1,0.4-0.5
		c-0.3-0.4-0.8-0.1-1.2-0.2c-0.2,0-0.3,0-0.4,0.2C74.2,24.9,74.7,24.6,74.9,24.9z M84.6,28.2c0.6,0,1,0,1.4,0c0.9,0.1,0.8-0.8,0.6-1
		c-0.4-0.3-0.5-1-1.3-0.9c-0.5,0.1-1.4,0.2-1.6-0.1c-0.8-1.1-1.8-0.3-2.7-0.5c-0.4-0.1-0.4,0.4-0.2,0.5C82,27.2,82.9,28.6,84.6,28.2
		z M44,38.8c0.3-0.4,0.3-0.7,0.2-1c-0.3-1-1.6-1.2-1.8-2.5c-0.1-0.8-1.1-1.4-1-2.4c0-0.3,0-0.6-0.4-0.5c-0.3,0-0.5-0.1-0.7,0.4
		c-0.5,1.3,0,2.9,1.3,3.7c0.6,0.4,0.9,0.9,1.3,1.4C43.3,38.2,44.1,38,44,38.8z M59.3,34c0.1-0.3,0.3-0.6,0.3-0.9
		c0.1-0.6-0.5-2-0.9-2c-0.9,0.1-1.1-0.6-1.6-1c-0.4-0.3-0.8-0.5-1.2,0.1c-0.3,0.3-0.3,0.9-0.9,1c-0.2,0-0.3,0.5,0.2,0.5
		c0.8,0.1,1.5,0.1,2.3,0.5C58.4,32.7,59,33,59.3,34z M76.3,37.7c1.1,0.5,1.5-0.6,2.2-1.2c0.2-0.2,0.4-0.3,0.3-0.5
		c-0.2-0.3-0.8-0.2-0.8-0.1c-0.4,1-1.2,0.5-1.8,0.6c-0.5,0-1.1,0.3-1.4-0.5c-0.1-0.2-0.7-0.2-1,0c-0.3,0.1-0.2,0.7-0.1,0.7
		c0.6,0.3,0.7,1.5,1.7,1.1C75.6,37.6,75.9,37.7,76.3,37.7z M51.2,25.8c-0.8,0-1.4-0.1-1.9,0.6c-0.4,0.7-1.2,1.1-1.4,1.9
		c-0.1,0.2-0.1,0.4,0.1,0.5c0.1,0.1,0.3,0,0.4-0.1c0.8-1.2,2-1.8,3.4-1.7c0.8,0,0.8-0.4,0.7-0.9C52.3,25.3,51.5,26,51.2,25.8z
		 M80.4,30.5c-0.5,0-0.9,0-1.2,0c-0.3,0-0.7-0.2-0.8,0.2c-0.1,0.5,0.4,0.4,0.6,0.4c0.2,0,0.3,0.2,0.4,0.3c0.5,0.8,1.9,1.2,2.8,0.9
		c0.4-0.1,0.3-0.7,0.7-0.9c0,0,0-0.3-0.1-0.3C81.9,31.1,81.3,30,80.4,30.5z M55.2,32.3c-0.3,0-0.5,0-0.5,0c-0.3,0.3-0.6,0.6-1,0.9
		c0.6,0.1,0.4,0.8,0.7,1.1c0.2,0.3,0.5,1.2,1.1,0.8c0.4-0.3,0.5-1,1.1-1.3c0.1-0.1,0-0.4,0-0.7C55.9,33.1,55.6,32.5,55.2,32.3z
		 M72.4,24.1c-0.6-0.4-0.5,0.7-1.1,0.6c-0.3-0.1-0.6,0-0.6,0.5c0,0.6,0.7,0.7,0.9,1.2c0,0,0.5,0.2,0.7-0.2c0.2-0.4,0.5-0.8,1-1
		c0.1-0.1,0.2-0.2,0.2-0.2C73.1,24.9,73.1,24,72.4,24.1z M39.1,37.2c0.2,0.5,0.3,1.3,0.7,1.5c0.9,0.4,0.3-0.7,0.7-0.9
		c0.1-0.1,0.2-0.1,0.2-0.1c0-0.3,0-0.5-0.2-0.8c-0.4-0.5-0.8-0.3-1.2-0.3C39,36.5,39.2,36.9,39.1,37.2z M72.2,33
		c0.3-0.1,0.6,0.1,0.8-0.1c0.1-0.1,0-0.3,0-0.4c-0.5-0.6-1.4-0.7-1.8-1.3c-0.1-0.1-0.3,0-0.4,0.3C70.7,32.1,71.4,32.9,72.2,33z
		 M77.8,25.6c0-0.4,0.2-0.9-0.6-0.9c-0.6,0-1,0.3-1,0.8c0,0.3,0.2,0.9,0.9,0.9C77.8,26.4,77.8,26.1,77.8,25.6z M42.6,38.7
		c0.3-0.7-0.6-0.5-0.8-1c0,0-0.4-0.1-0.4,0.2c0,0.6,0,1.3,0,1.9c0,0.2,0.3,0.2,0.3,0.1C41.9,39.4,42.7,39.4,42.6,38.7z M77.7,28.9
		c-0.1-0.1,0.3-0.6-0.2-0.7c-0.1,0-1.4,1.2-1.4,1.3c0.1,0.6,0.5,0.2,0.8,0.3C77.6,30,77.9,29.8,77.7,28.9z M83.6,29.3
		c-0.3,0.1-0.9-0.3-1.1,0.2c-0.1,0.7,0.5,0.2,0.8,0.4c0.1,0,0.2,0.1,0.2,0.2c0,0.3,0.4,0.5,0.4,0.3c0.2-0.4,0.7-0.5,0.8-0.9
		c0-0.2-0.2-0.3-0.3-0.3C84.2,29.3,84,29.3,83.6,29.3z M57.8,34.6c0-0.2,0.1-0.4-0.2-0.5c-0.1,0-0.4,0-0.4,0.1
		c-0.1,0.3-0.3,0.5-0.6,0.6c-0.3,0.2-0.1,0.6-0.1,1c0,0.2,0.3,0.2,0.3,0.1C57.1,35.3,58,35.3,57.8,34.6z M64.8,29.1
		c0.5,0.2,0.7,0.4,0.7,0.9c0,0.2-0.1,0.5,0.3,0.5c0.4,0,0.3-0.3,0.3-0.5C66.2,28.8,66.1,28.7,64.8,29.1z M44.8,29.2
		c0.2,0,0.1-0.4,0.1-0.6c0-0.2,0-0.4-0.3-0.4c-0.4,0.1-0.2,0.4-0.3,0.6C44.2,29.1,44.3,29.3,44.8,29.2z"/>
	<path fill="#009744" d="M66.1,68.2c0-0.9,0-1.7,0-2.5c0-0.2-0.1-0.6,0.3-0.6c0.3,0,0.6-0.1,0.8,0.4c0.2,0.7,0.1,1.3,0.1,1.9
		c0,1,0,1.9,0,2.9c0,0.3-0.1,0.6,0.2,0.8c0.3,0.2,0.2,0.7,0.1,1c0,0.2-0.4,0.1-0.5,0.1c-0.6,0.1-0.4-0.4-0.6-0.7
		C65.8,70.5,66.2,69.2,66.1,68.2z"/>
	<path fill="#009744" d="M49.6,71.3c0.1-0.3-0.3-0.9,0.5-0.9c0,0,0.1-0.2,0.1-0.3c-0.2-1,0.4-1.9,0.6-2.8c0.1-0.4,0.3-0.4,0.6-0.4
		c0.4,0,0.5,0.2,0.4,0.5c-0.4,0.9-0.1,2-0.5,2.7c-0.4,0.6-0.5,1.2-0.5,1.8c0,0.6-0.5,0.3-0.8,0.3C49.6,72.2,49.6,72.2,49.6,71.3z"/>
	<path fill="#FEFEFE" d="M74.9,44.8c0.6-0.2,0.4-0.9,0.9-0.7c0.4,0.2,0.7,0.6,0.7,1c0.1,1.6,0.2,3.3-0.1,4.9
		c-0.1,0.7-0.4,1.6-0.9,2.4c-0.6,0.9-1.2,1.7-1.9,2.4c-0.4,0.4-0.7,1.1-1.4,0.9c-0.5-0.1-0.7,0.5-1.1,0.7c-1,0.6-2.2,0.6-3.1,1
		c-0.8,0.4-1.7,0.2-2.2,0.6c-1.5,1.1-3.2,0.1-4.5,0.7c-0.9,0.4-1.4-0.1-2.1-0.1c-1.7,0-3.5,0-5.2,0c-0.3,0-0.9,0.3-0.9-0.5
		c0,0-0.1-0.1-0.1-0.1c-1,0.4-1.7-0.6-2.7-0.7c-1.1-0.2-2.2,0-3.2-0.4c-1.1-0.4-2.2-1-2.8-2.1c-0.3-0.6-0.9,0-1.1-0.5
		c-0.4-0.8-0.9-1.6-1.3-2.3c-1-1.4-0.3-2.8-0.5-4.2c-0.1-0.7-0.1-1.5,0-2.3c0.1-0.6-0.4-1.3,0.5-1.7c0.3-0.1,0.1-1.2,0.1-1.8
		c-0.1-1.1,0.8-1.7,1.1-2.7c0.1-0.2,1-0.3,1.1,0c0.2,0.7,0.7,0.5,1,0.5c1,0,1.9,0.1,2.9,0c0.6,0,1.4,0.4,1.7-0.6c0,0,0.2-0.1,0.3,0
		c1.1,0.1,1.8-0.4,2.5-1.1c0.3-0.3,1.5,0,1.8,0.3c0.6,0.7,1.3,1.3,2.4,1.5c0.7,0.2,1.6,0.3,2.3,0.6c0.9,0.4,1.6,0.5,2.4,0
		c0.2-0.1,0.5-0.1,0.7-0.1c0.4-0.1,1.1,0.3,1.2-0.5c0,0,0.1-0.1,0.2-0.1c1.1,0,1.9-0.6,2.8-1.2c0.7-0.4,1.5-0.7,2.2-1.1
		c0.6-0.3,1.2,0.1,1.6,0.5c0.7,0.6,1.2,1.4,1.7,2.1c0.1,0.2,0.2,0.3,0.4,0.2c1-0.3,1.7,0.5,2.7,0.4c0.8-0.1,0.5,0.8,0.4,0.9
		C74.5,42.8,75.1,43.7,74.9,44.8z M51.7,41.7c-1.3-0.6-1.7,0.7-2.5,1.2c-0.5,0.3-0.1,0.9-0.2,1.3c0,0.1,0,0.4-0.1,0.4
		c-1,0.3-0.6,1.2-0.5,1.7c0.3,0.7,0.1,1.3,0,2c-0.3,1.2,0.7,2,1.4,2.8c0.3,0.4,0.6,0.8,1.3,0.7c0.7-0.1,1.2-0.3,1.8-0.6
		c0.7-0.3,2-1.3,2-2.1c0-1.5,0.2-3-0.2-4.5c-0.1-0.2-0.1-0.5,0.3-0.5c1.5,0.1,0.9-1,0.9-1.6c0-0.3-0.3-0.9-1-0.9
		c-0.8,0-0.6,0.4-0.6,0.9c0,0.2,0,0.4-0.2,0.4c-0.2,0-0.3,0-0.4-0.2C53.3,41.9,52.7,41.4,51.7,41.7z M62.6,46.6
		c0.2,0.9-0.3,2.1,0.5,3.2c0.7,0.9,1.1,1.8,2.3,1.8c0.3,0,0.7-0.1,0.7,0.5c0,0,0.1,0.1,0.2,0.1c-0.1-0.8,0.7-0.5,1-0.9
		c0.3-0.5,0.2-1,0.5-1.5c0.4-0.6,0.9-1.3,1-1.9c0.2-1,0.1-2.1,0-3.2c0-0.2,0-0.6-0.1-0.6c-0.8-0.1-0.6-0.7-0.5-1.1
		c0.2-1.2-0.5-1.8-1.3-2.4c-0.3-0.2-0.7-0.3-1,0C65.9,41,65.7,41,65.5,41c-0.7,0-1.3,0.5-1.6,0.9c-0.9,0.9-1.5,2-1.3,3.3
		C62.6,45.6,62.6,46,62.6,46.6z M62.7,52.8c-1.1,0.4-1.8-0.1-2.6-0.4c-0.9-0.3-1.5-1.2-0.8-1.9c0.7-0.8-0.3-1.1-0.3-1.6
		c0-0.4-0.4-0.2-0.7-0.2c-0.4,0-0.8,0-1.1,0c-0.2,0-0.5-0.1-0.6,0.2c-0.1,0.3-0.1,1,0.1,1c0.6-0.1,0.4,0.7,0.9,0.7
		c0.3,0,0.3,0.5,0,0.5c-0.5,0.1-0.4,0.4-0.4,0.7c-0.2,0.7-0.5,1.2-1.3,1.2c-0.3,0-0.7-0.1-0.9,0.1c0.3,0.9,1.3,0.8,1.8,1.5
		c0.4,0.6,3,1,3.2,0.6C60.5,53.9,61.9,54.1,62.7,52.8z M61.3,43.4c0.5,0.1,0.6-0.2,0.8-0.5c0.1-0.2,0.8-0.2,0.4-0.6
		c-0.2-0.2-0.9-0.4-1.1,0.3c-0.1,0.1-0.1,0.2-0.3,0.2c-0.3,0-0.4,0.1-0.3,0.4C60.8,43.6,61.1,43.4,61.3,43.4z"/>
	<path fill="#FEFEFE" d="M67.2,15.9c0.6,0,1.2-0.2,1.6,0c0.8,0.5,1.8,0.3,2.5,1c0.3,0.4,1,0.4,1.5,0.5c0.8,0.2,1.2,0.6,1.5,1.1
		c0.2,0.2,0.3,0.2,0.5,0.2c0.9-0.2,1.4,0.4,1.8,1c0.1,0.2,0.2,0.2,0.4,0.2c1.2,0.2,1.9,1.6,1.5,2.7c-0.1,0.3-0.3,0.2-0.5,0.2
		c-1.2,0.1-2.2-0.1-3.1-1.1c-0.2-0.3-0.8-0.5-1.2-0.5c-1.2,0-2.2-0.2-3-1.2c-0.1-0.1-0.5,0-0.7-0.1c-0.6-0.1-1.3,0.3-1.8-0.5
		c-0.2-0.3-1.2-0.1-1.9-0.1c-0.5,0-2.2-1-2.4-1.4c-0.5-0.8-0.1-1,0.6-1.6C65.4,15.7,66.3,16,67.2,15.9z"/>
	<path fill="#FEFEFE" d="M64.2,30.8c0,0.6,0,1.1,0,1.6c0,0.4-0.1,0.6-0.5,0.6c-0.4,0-0.6-0.1-0.5-0.5c0.3-1.3-0.8-1.8-1.5-2.6
		c-0.7-0.8-1.6-1.3-2.3-2.1c-0.3-0.3-1.1-0.6-1.6-0.9c-1-0.7-2.1-0.5-3.1-0.6c-0.4,0-0.3-0.3-0.3-0.6c0-0.2-0.1-0.5,0.3-0.7
		c1.4-0.7,2.9-0.2,4.2,0.1c0.6,0.1,1.5,0.6,1.8,1.3c0.3,0.7,0.9,0.3,1.1,0.5c0.6,0.8,1.6,0.7,2.1,1.5C64.3,29.3,64.1,30.1,64.2,30.8
		z"/>
	<path fill="#FEFEFE" d="M45.5,31.2c0-0.7,0.1-1.2,0-1.7c-0.1-0.7,0.6-0.8,0.9-1.2c0.1-0.2,0.4,0.1,0.4,0.4c0,0.7,0.1,1.5,0,2.2
		c-0.2,1.2,0.6,1.9,1.4,2.5c0.7,0.6,1.5,1,2.5,1.2c0.4,0.1,0.5,0.5,0.8,0.8c0.4,0.3,0.4,0.9,1,1.1c0.2,0.1,0.2,0.7,0.1,1
		c-0.2,0.4-0.6,0.2-0.9,0.2c-0.3,0-0.7,0.2-0.7-0.3c0-0.4-0.1-0.5-0.5-0.5c-1.6,0-2.7-0.7-3.7-2.1C45.8,33.6,45.4,32.5,45.5,31.2z"
		/>
	<path fill="#FEFEFE" d="M70.7,35.8c1,0,2.1,0.9,2.3,1.9c0,0.1,0,0.2,0.1,0.3c0.8-0.2,1,0.9,1.7,0.7c0.5-0.1,1-0.1,1.4,0
		c1.3,0.2,2.3-0.5,3-1.2c0.5-0.6,0.9-0.7,1.5-0.7c0.2,0,0.5-0.1,0.6,0.2c0,0.3,0.1,0.8-0.1,0.9c-1,0.4-1.3,1.9-2.6,2
		c-0.3,0-0.7,0.9-1,0.5c-1-0.9-2.5-0.1-3-0.7c-0.7-0.7-1.8,0-2.3-1c-0.1-0.2-0.9-0.3-1.2-0.7C71,38,70.7,38,70.8,37.7
		c0.2-0.7-0.4-0.8-0.7-1.2c-0.2-0.2-0.7-0.1-0.5-0.5c0.1-0.3,0.5-0.1,0.7-0.2C70.5,35.8,70.6,35.8,70.7,35.8z"/>
	<path fill="#FEFEFE" d="M55.6,37.6c1.2,0.6,2.4,0.5,3.7,0.6c0.2,0,0.6,0.9,1,0.5c1.1-1,2.5-0.3,3.6-1c0.2-0.1,0.3-0.3,0.3-0.5
		c0-0.2,0.1-0.4,0.3-0.4c1,0.2,1.5-0.7,2-1.2c0.4-0.4,1.1-0.7,1.1-1.5c0-0.3,0.4-0.3,0.5-0.1c0.5,0.6,1,1.3,0.7,2.1
		c-0.2,0.5-0.7,0.8-1.3,0.7c-0.1,0-0.3,0-0.3,0c-0.6,1.2-2.1,0.6-2.8,1.3c-0.4,0.4-1.4,0.2-1.4,1c0,0-0.1,0.1-0.1,0.1
		c-1.5-0.1-2.8,1.3-4.2,0.6C57.8,39.3,56,39.6,55.6,37.6z"/>
	<path fill="#FEFEFE" d="M49,37.9c-0.6,0.1-0.6,0.9-1.4,0.9c-1.3,0-2.1-0.7-2.8-1.7c-0.8-1.1-1.4-2.4-2.3-3.4C42,33,42,32.4,42,31.7
		c0-0.7,0.6-1,1-1.2c1-0.4,1.3,0,1.3,1c-0.1,1.3,0.4,2.3,1.2,3.2c0.3,0.3,0.2,1,0.7,1.4c0.3,0.2,0.6,0.6,1,0.7c0.2,0,0.5,0,0.5,0.1
		C47.6,37.9,48.4,37.6,49,37.9z"/>
	<path fill="#FEFEFE" d="M57.2,36.7c0.3-0.3,0.6-0.2,0.9-0.2c0.6,0.1,1-0.1,1.2-0.6c0.2-0.5,0.5-0.6,1-0.6c0.6,0,1.2-0.1,1.8-0.4
		c0.8-0.4,1.5-0.7,2.3-1.3c0.5-0.4,1.4-0.3,1.8-1.1c0.1-0.1,0.6-0.1,0.8,0.1c0.2,0.2,0,0.3-0.1,0.6c-0.3,0.6-0.2,1.4-0.8,1.9
		c-0.4,0.4-0.6,1.1-1.4,0.9c-0.1,0-0.3,0-0.4,0.2c-0.3,0.9-1.1,0.8-1.9,0.8c-0.4,0-1.1-0.3-1.1,0.6c0,0.2-2.2,0.3-2.2,0.1
		c0-1.1-0.8-0.6-1.3-0.7C57.6,36.8,57.4,36.9,57.2,36.7z"/>
	<path fill="#FEFEFE" d="M70.2,28.2c-0.7,0.1-1.1-0.6-1.2-0.9c-0.2-1.1-0.7-1.6-1.8-1.5c-0.7,0.1-0.7-0.6-0.6-0.9
		c0-0.4,0.2-0.9,0.9-0.8c0.3,0.1,0.8,0.2,0.9-0.2c0.1-0.3,0.4-0.9-0.4-1c-0.2,0-0.2-0.3-0.2-0.4c0.1-0.3-0.2-0.7,0.2-0.8
		c0.3,0,0.7-0.3,1,0.3c0.4,0.7,1.4,1.4,2,0.8c0.8-0.8,1.5-0.4,2.2-0.5c0.3-0.1,0.5,0.1,0.5,0.5c0,0.3,0.2,0.6-0.2,0.7
		c-0.4,0.2-0.4-0.2-0.5-0.4c-0.2-0.3-0.8-0.3-0.9-0.1c-0.5,0.7-1.5,0.7-2,1.6c-0.2,0.3-1,0.8-0.5,1c0.8,0.4,0.2,2,1.6,1.6
		c0.2-0.1,0.2,0.3,0.2,0.4C70.9,27.5,70.9,28.4,70.2,28.2z"/>
	<path fill="#FEFEFE" d="M73.3,35.2c-0.5-0.2-1.4,0.5-1.7-0.5c0,0-0.2-0.1-0.3,0c-1.2,0-2-0.7-2.9-1.3c-0.4-0.3,0-1.1-0.8-1.1
		c0.1-0.9-0.3-1.7-0.4-2.6c0-0.2,0-0.4,0.3-0.4c0.2,0,0.6-0.2,0.7,0.2c0.1,0.2,0.1,0.4,0.4,0.4c1.1-0.2,0.9,0.5,0.9,1.2
		c0,1.3,0.7,1.8,1.8,2.4c0.8,0.4,1.5,0.5,2.3,0.5c0.2,0,0.5,0,0.5-0.1c0.7-1.5,1.1,0.1,1.7,0.1c0.1,0,0.2,0.5,0,0.5
		C74.9,34.6,74.4,35.7,73.3,35.2z"/>
	<path fill="#FEFEFE" d="M61.9,32.9c0.1,0.7,0.1,1.3-0.9,1.1c-0.1,0-0.3-0.1-0.3-0.2c0.1-0.7-0.5-1.3-0.6-1.9
		c-0.2-1-0.8-1.5-1.4-2.1c-1-1-2.3-1-3.6-1c-0.8,0-0.9-0.7-1.5-0.9c-0.1,0-0.2-0.9,0.1-1c0.5-0.1,1.2-0.4,1.7,0.2
		c0.1,0.2,0.2,0.4,0.4,0.3c0.9-0.3,1.5,0.5,2.2,0.7c1.2,0.4,2.4,1.2,3,2.3C61.5,31.2,62.3,31.9,61.9,32.9z"/>
	<path fill="#FEFEFE" d="M50.9,33.1c-1.1,0.3-2.6-0.3-2.9-1c-0.4-1,0-2.5,1-3c0.9-0.5,1.8-1.1,2.9-0.9c0.3,0.1,0.6,0,0.6,0.5
		c0,0.3-0.1,0.5-0.5,0.6c-0.6,0.1-1.1,0.5-1.2,1.3c-0.1,0.6-0.9,0.9-0.7,1.7C50.3,32.7,50.3,33,50.9,33.1z"/>
	<path fill="#FEFEFE" d="M51.5,31.9c-0.1-1.1,0.3-1.7,1.4-2.1c0.5-0.2,1-0.5,1.6-0.5c0.5,0,0.6,0.1,0.4,0.6c-0.2,0.5-0.4,1-0.9,1.3
		c-0.1,0-0.2,0-0.2,0.1c-0.1,1.1-1.1,1.9-0.7,3.1c0.2,0.5,0.7,0.5,0.9,1c0,0.1,0.4,0.1,0.3,0.4c0,0.4-0.3,0.2-0.6,0.3
		c-1,0.2-1.2-0.2-1.4-1.2C52.1,33.7,51.3,33,51.5,31.9z"/>
	<path fill="#FEFEFE" d="M40.6,29.1c0.4-0.3,0.9-0.2,0.8-0.8c-0.1-0.7,0-1.4,0.6-1.7c0.5-0.3,0.7-1.1,1.5-0.8
		c0.4,0.1,0.2-0.4,0.4-0.6c0.6-0.3,2,0.3,2.1,1c0.1,0.6,0,0.8-0.7,0.8c-1.8,0-1.9,0.2-2.4,1.9c-0.1,0.4-0.3,0.9-0.7,1
		c-0.4,0.1-0.9,0.2-1-0.5C41.3,29.3,41,29.2,40.6,29.1z"/>
	<path fill="#FEFEFE" d="M74.9,24.9c-0.2-0.2-0.7,0-0.6-0.5c0-0.2,0.2-0.2,0.4-0.2c0.4,0.1,0.9-0.2,1.2,0.2c0.2,0.3-0.3,0.3-0.4,0.5
		c-0.3,0.5-0.3,1.3,0,1.5c0.4,0.2,0.6,1.1,1.3,0.7c0.1-0.1,0.4-0.1,0.4,0.2c0,0.2,0,0.4-0.3,0.4c-0.4,0-0.3,0.9-0.9,0.6
		c-0.2-0.1-0.6,0.1-0.7-0.4c0-0.2-0.2-0.4-0.3-0.1c-0.3,0.6-1,0.7-1.3,1.3c-0.2,0.4-0.6,0.4-0.6,0c0-0.8-0.6-1-1-1.4
		c-0.1-0.1-0.2-0.2-0.2-0.4c0-0.2,0.2-0.3,0.4-0.2c1.3,0.2,1.9-0.5,2.1-1.6C74.4,25,74.8,25.3,74.9,24.9z"/>
	<path fill="#FEFEFE" d="M84.6,28.2c-1.7,0.4-2.6-1-3.8-1.9c-0.2-0.2-0.2-0.6,0.2-0.5c0.9,0.2,1.9-0.6,2.7,0.5
		c0.2,0.3,1,0.1,1.6,0.1c0.7-0.1,0.9,0.6,1.3,0.9c0.2,0.1,0.3,1.1-0.6,1C85.6,28.2,85.2,28.2,84.6,28.2z"/>
	<path fill="#FEFEFE" d="M44,38.8c0-0.8-0.8-0.5-1.1-0.9c-0.4-0.5-0.7-1.1-1.3-1.4c-1.4-0.8-1.8-2.4-1.3-3.7
		c0.2-0.4,0.4-0.4,0.7-0.4c0.4,0,0.4,0.3,0.4,0.5c0,1,0.9,1.6,1,2.4c0.2,1.3,1.5,1.5,1.8,2.5C44.3,38.1,44.3,38.4,44,38.8z"/>
	<path fill="#FEFEFE" d="M59.3,34c-0.3-1-0.9-1.3-1.8-1.8c-0.8-0.4-1.5-0.4-2.3-0.5c-0.4-0.1-0.4-0.5-0.2-0.5c0.6-0.1,0.6-0.6,0.9-1
		c0.4-0.5,0.8-0.4,1.2-0.1c0.5,0.4,0.7,1.1,1.6,1c0.4,0,1,1.4,0.9,2C59.6,33.4,59.5,33.7,59.3,34z"/>
	<path fill="#FEFEFE" d="M76.3,37.7c-0.4,0-0.7-0.1-0.9,0c-1,0.4-1.1-0.7-1.7-1.1c-0.1-0.1-0.2-0.6,0.1-0.7c0.3-0.1,0.9-0.2,1,0
		c0.3,0.8,0.9,0.5,1.4,0.5c0.6,0,1.4,0.4,1.8-0.6c0-0.1,0.6-0.2,0.8,0.1c0.1,0.2-0.1,0.4-0.3,0.5C77.8,37.1,77.4,38.2,76.3,37.7z"/>
	<path fill="#FEFEFE" d="M51.2,25.8c0.4,0.2,1.1-0.5,1.3,0.4c0.1,0.5,0.1,0.9-0.7,0.9c-1.4-0.1-2.6,0.5-3.4,1.7
		c-0.1,0.2-0.3,0.2-0.4,0.1c-0.2-0.1-0.2-0.3-0.1-0.5c0.3-0.8,1-1.3,1.4-1.9C49.7,25.6,50.4,25.8,51.2,25.8z"/>
	<path fill="#FEFEFE" d="M80.4,30.5c0.9-0.5,1.5,0.6,2.4,0.7c0.2,0,0.2,0.3,0.1,0.3c-0.4,0.2-0.2,0.7-0.7,0.9
		c-0.9,0.3-2.3-0.1-2.8-0.9c-0.1-0.2-0.2-0.3-0.4-0.3c-0.3,0-0.7,0.2-0.6-0.4c0.1-0.4,0.5-0.2,0.8-0.2
		C79.5,30.5,79.9,30.5,80.4,30.5z"/>
	<path fill="#FEFEFE" d="M55.2,32.3c0.3,0.1,0.7,0.8,1.3,0.8c0,0.2,0.1,0.6,0,0.7c-0.6,0.3-0.7,1-1.1,1.3c-0.5,0.4-0.8-0.5-1.1-0.8
		c-0.2-0.3,0-0.9-0.7-1.1c0.3-0.3,0.6-0.6,1-0.9C54.8,32.3,54.9,32.3,55.2,32.3z"/>
	<path fill="#FEFEFE" d="M72.4,24.1c0.7-0.2,0.7,0.8,1.2,0.8c0,0-0.1,0.2-0.2,0.2c-0.4,0.2-0.8,0.6-1,1c-0.2,0.4-0.7,0.3-0.7,0.2
		c-0.2-0.5-0.9-0.5-0.9-1.2c0-0.5,0.2-0.5,0.6-0.5C71.9,24.9,71.8,23.8,72.4,24.1z"/>
	<path fill="#FEFEFE" d="M38.5,38.7c-0.7,0.1-1-0.6-1.2-0.9c-0.2-0.3-0.5-1.2,0.5-1.4c0.2,0,0.1-0.7,0.5-0.5
		c0.3,0.2,0.2,0.5,0.2,0.8C38.5,37.4,38.5,38.1,38.5,38.7L38.5,38.7z"/>
	<path fill="#FEFEFE" d="M39.1,37.2c0.1-0.3-0.1-0.7,0.2-0.7c0.4,0,0.8-0.2,1.2,0.3c0.2,0.3,0.3,0.5,0.2,0.8c0,0.1-0.2,0.1-0.2,0.1
		c-0.3,0.3,0.2,1.3-0.7,0.9C39.4,38.5,39.3,37.7,39.1,37.2z"/>
	<path fill="#FEFEFE" d="M38.5,38.7c0.3,0,0.5-0.1,0.7,0.4c0.2,0.5,0.5,1.1,1.2,0.9c0.2-0.1,0.4,0.1,0.4,0.4c0,0.2,0.1,0.6-0.2,0.6
		c-0.3,0.1-0.9,0.1-1-0.1C39.2,40.2,38.2,39.8,38.5,38.7C38.5,38.7,38.5,38.7,38.5,38.7z"/>
	<path fill="#FEFEFE" d="M72.2,33c-0.8,0-1.5-0.8-1.4-1.5c0-0.3,0.3-0.4,0.4-0.3c0.5,0.7,1.3,0.7,1.8,1.3c0.1,0.1,0.1,0.3,0,0.4
		C72.8,33.1,72.4,32.9,72.2,33z"/>
	<path fill="#FEFEFE" d="M77.8,25.6c0.1,0.5,0.1,0.8-0.6,0.8c-0.7,0-0.9-0.6-0.9-0.9c0-0.4,0.4-0.7,1-0.8
		C78,24.7,77.7,25.2,77.8,25.6z"/>
	<path fill="#FEFEFE" d="M42.6,38.7c0.1,0.7-0.7,0.7-0.9,1.2c0,0-0.3,0-0.3-0.1c0-0.6,0-1.3,0-1.9c0-0.2,0.4-0.2,0.4-0.2
		C42,38.2,42.9,38,42.6,38.7z"/>
	<path fill="#FEFEFE" d="M77.7,28.9c0.2,0.9-0.1,1.1-0.8,1c-0.3-0.1-0.7,0.3-0.8-0.3c0-0.1,1.2-1.4,1.4-1.3
		C78,28.4,77.7,28.8,77.7,28.9z"/>
	<path fill="#FEFEFE" d="M83.6,29.3c0.3,0,0.6,0,0.8,0c0.2,0,0.4,0,0.3,0.3C84.7,30,84.1,30,84,30.5c0,0.1-0.4,0-0.4-0.3
		c0-0.1-0.1-0.2-0.2-0.2c-0.3-0.2-0.9,0.3-0.8-0.4C82.7,29,83.3,29.4,83.6,29.3z"/>
	<path fill="#FEFEFE" d="M57.8,34.6c0.1,0.7-0.7,0.8-0.9,1.3c0,0.1-0.3,0-0.3-0.1c0-0.3-0.2-0.8,0.1-1c0.3-0.2,0.5-0.3,0.6-0.6
		c0,0,0.3-0.1,0.4-0.1C57.9,34.1,57.8,34.4,57.8,34.6z"/>
	<path fill="#FEFEFE" d="M64.8,29.1c1.3-0.3,1.4-0.3,1.3,0.9c0,0.2,0.1,0.5-0.3,0.5c-0.4,0-0.4-0.3-0.3-0.5
		C65.5,29.5,65.3,29.2,64.8,29.1z"/>
	<path fill="#FEFEFE" d="M44.8,29.2c-0.5,0.1-0.6-0.1-0.5-0.4c0-0.2-0.2-0.6,0.3-0.6c0.3,0,0.4,0.2,0.3,0.4
		C44.8,28.9,45,29.2,44.8,29.2z"/>
	<path fill="#009744" d="M51.7,41.7c1-0.3,1.6,0.2,2,1c0.1,0.2,0.2,0.2,0.4,0.2c0.2,0,0.2-0.2,0.2-0.4c0-0.4-0.1-0.9,0.6-0.9
		c0.7,0,1,0.6,1,0.9c0,0.6,0.6,1.7-0.9,1.6c-0.4,0-0.3,0.3-0.3,0.5c0.4,1.5,0.1,3,0.2,4.5c0,0.8-1.3,1.7-2,2.1
		c-0.6,0.3-1.1,0.5-1.8,0.6c-0.7,0.1-1-0.3-1.3-0.7c-0.7-0.8-1.7-1.6-1.4-2.8c0.2-0.7,0.3-1.3,0-2c-0.2-0.4-0.5-1.4,0.5-1.7
		c0.1,0,0-0.2,0.1-0.4c0.1-0.4-0.3-1,0.2-1.3C50,42.3,50.4,41.1,51.7,41.7z M49.6,47.5c0,0.8-0.1,1.6,0.6,2.5
		c0.3,0.3,0.8,0.6,0.9,1.1c0,0.1,0.7,0.2,0.9-0.1c0.2-0.3,0.2-0.8,0-1.1c-0.7-0.7-1.2-1.6-1.1-2.6c0-0.6,0.1-1.3,0-1.8
		c-0.2-0.9,0.3-1.4,0.8-1.9c0.2-0.2,0.7-0.2,0.4-0.6c-0.2-0.2-0.7-0.2-1.1,0.1c-1,0.7-0.3,2.1-1.2,2.8
		C49.4,46.1,49.6,46.8,49.6,47.5z"/>
	<path fill="#009744" d="M62.6,46.6c0-0.6,0-1,0-1.5c-0.2-1.4,0.5-2.5,1.3-3.3c0.3-0.3,0.9-0.9,1.6-0.9c0.2,0,0.4,0.1,0.6-0.2
		c0.2-0.3,0.7-0.3,1,0c0.8,0.6,1.5,1.2,1.3,2.4c-0.1,0.4-0.3,1,0.5,1.1c0.1,0,0.1,0.4,0.1,0.6c0,1.1,0.1,2.1,0,3.2
		c-0.1,0.7-0.6,1.3-1,1.9c-0.3,0.5-0.2,1-0.5,1.5c-0.3,0.4-1.2,0.1-1,0.9c-0.1,0-0.2-0.1-0.2-0.1c0-0.5-0.4-0.5-0.7-0.5
		c-1.1,0-1.6-0.9-2.3-1.8C62.3,48.7,62.8,47.5,62.6,46.6z M66.1,41.2c0.2,1.1-0.4,1-0.8,1c-0.2,0-0.4,0-0.4,0.2
		c0,0.2,0.1,0.3,0.3,0.4c0.7,0.6,1.4,1.2,1.4,2.3c0,1.1-0.2,2.1-0.1,3.2c0.1,0.6,0,1.3-0.8,1.5c-0.5,0.1-0.2,0.6-0.2,0.9
		c0,0.2,0.1,0.3,0.3,0.3c0.2,0,0.5,0.1,0.7-0.2c0.9-0.8,1.1-1.9,1.2-2.9C67.9,45.8,67.7,43.6,66.1,41.2z"/>
	<path fill="#009744" d="M62.7,52.8c-0.8,1.3-2.3,1.2-2.8,2.3c-0.2,0.4-2.8,0-3.2-0.6c-0.5-0.7-1.4-0.6-1.8-1.5
		c0.2-0.2,0.6-0.1,0.9-0.1c0.8,0,1.2-0.5,1.3-1.2c0.1-0.3-0.1-0.6,0.4-0.7c0.3,0,0.3-0.5,0-0.5c-0.5,0-0.3-0.9-0.9-0.7
		c-0.1,0-0.1-0.6-0.1-1c0.1-0.3,0.4-0.2,0.6-0.2c0.4,0,0.8,0,1.1,0c0.2,0,0.6-0.2,0.7,0.2c0,0.6,1,0.9,0.3,1.6
		c-0.7,0.7-0.1,1.6,0.8,1.9C60.9,52.6,61.6,53.2,62.7,52.8z M58.8,54c0.2-0.3,0.8,0.4,0.9-0.3c0-0.6-0.4-0.8-0.9-0.7
		c-0.3,0.1-0.8-0.3-0.9,0.5C57.8,54.2,58.3,53.9,58.8,54z"/>
	<path fill="#009744" d="M61.3,43.4c-0.2,0-0.5,0.1-0.5-0.2c0-0.3,0.1-0.4,0.3-0.4c0.2,0,0.2-0.1,0.3-0.2c0.2-0.7,0.9-0.5,1.1-0.3
		c0.4,0.4-0.3,0.4-0.4,0.6C61.9,43.3,61.8,43.6,61.3,43.4z"/>
	<path fill="#FEFEFE" d="M49.6,47.5c0-0.6-0.2-1.4,0-1.6c0.9-0.8,0.2-2.2,1.2-2.8c0.4-0.3,0.9-0.3,1.1-0.1c0.4,0.4-0.2,0.4-0.4,0.6
		c-0.5,0.5-1,1-0.8,1.9c0.1,0.6,0,1.2,0,1.8c0,1.1,0.4,1.9,1.1,2.6c0.3,0.3,0.2,0.8,0,1.1c-0.2,0.3-0.9,0.2-0.9,0.1
		c-0.1-0.5-0.6-0.7-0.9-1.1C49.5,49.1,49.7,48.2,49.6,47.5z"/>
	<path fill="#FEFEFE" d="M66.1,41.2c1.6,2.3,1.8,4.6,1.6,6.8c-0.1,1-0.3,2.1-1.2,2.9c-0.3,0.2-0.5,0.1-0.7,0.2
		c-0.2,0-0.3-0.1-0.3-0.3c0.1-0.3-0.2-0.7,0.2-0.9c0.8-0.2,0.9-0.8,0.8-1.5c-0.1-1.1,0.1-2.1,0.1-3.2c0-1.1-0.7-1.7-1.4-2.3
		c-0.2-0.2-0.3-0.2-0.3-0.4c0-0.2,0.3-0.2,0.4-0.2C65.7,42.2,66.2,42.4,66.1,41.2z"/>
	<path fill="#FEFEFE" d="M58.8,54c-0.5-0.1-1,0.2-1-0.6c0-0.7,0.6-0.4,0.9-0.5c0.6-0.1,1,0.1,0.9,0.7C59.6,54.3,59,53.7,58.8,54z"/>
</g>
</svg>
