<?xml version="1.0" encoding="utf-8"?>
<!-- Generator: Adobe Illustrator 16.0.4, SVG Export Plug-In . SVG Version: 6.00 Build 0)  -->
<!DOCTYPE svg PUBLIC "-//W3C//DTD SVG 1.1//EN" "http://www.w3.org/Graphics/SVG/1.1/DTD/svg11.dtd">
<svg version="1.1" id="レイヤー_1" xmlns="http://www.w3.org/2000/svg" xmlns:xlink="http://www.w3.org/1999/xlink" x="0px"
	 y="0px" width="71px" height="22px" viewBox="0 0 71 22" enable-background="new 0 0 71 22" xml:space="preserve">
<path fill="#F7F9F9" d="M7.887,18.607L7.143,19.16c-0.528-1.104-1.417-2.832-2.304-4.369c-0.48,2.666-1.584,5.064-3.697,7.082
	l-0.648-0.625c2.952-2.783,3.816-6.359,3.816-10.44V0.127h0.864v10.681c0,0.96-0.048,1.896-0.144,2.786
	C6.087,15.297,7.239,17.385,7.887,18.607z M2.751,4.711c-0.216,2.304-0.648,4.896-1.368,6.336l-0.768-0.24
	c0.792-1.464,1.248-3.984,1.392-6.192L2.751,4.711z M8.415,4.015c-0.504,1.56-1.32,3.792-2.184,5.737l-0.6-0.288
	c0.864-1.969,1.632-4.226,2.04-5.737L8.415,4.015z M10.359,16.447c-0.432,1.992-1.368,4.152-2.592,5.377l-0.768-0.432
	c1.272-1.201,2.184-3.264,2.568-5.16L10.359,16.447z M9.183,7.64c-0.168,0.312-0.384,0.6-0.576,0.864l-0.72-0.433
	c1.752-2.329,2.809-4.944,3.36-7.921l0.816,0.096c-0.144,0.792-0.336,1.536-0.552,2.28h2.856h0.144h0.12l0.576,0.096
	c-0.696,5.544-2.952,9.603-6.48,11.931l-0.624-0.625c1.656-1.031,3-2.448,4.056-4.201C11.368,9.031,10.384,8.334,9.183,7.64z
	 M12.495,9.104c0.36-0.672,0.672-1.392,0.912-2.16c-0.744-0.624-1.704-1.2-2.88-1.776c-0.288,0.648-0.625,1.297-0.984,1.921
	C10.72,7.76,11.703,8.432,12.495,9.104z M13.648,6.224c0.264-0.912,0.48-1.896,0.648-2.929h-3.024
	c-0.144,0.432-0.312,0.863-0.48,1.271C11.92,5.118,12.88,5.671,13.648,6.224z M13,16.52c0.528,1.752,0.816,3.312,0.888,4.656
	L13,21.344c-0.024-1.344-0.264-2.904-0.768-4.584L13,16.52z M22.721,14l-0.648,0.721c-1.656-1.271-2.856-3.625-3.552-7.489
	c-0.576,3.24-1.752,5.665-4.321,7.345l-0.648-0.625c2.809-1.799,3.913-4.487,4.345-8.256h-2.641V4.88h2.736
	c0.12-1.44,0.192-3.024,0.216-4.753l0.84,0.024c-0.024,1.704-0.096,3.288-0.216,4.729h3.528v0.815h-3.265
	C19.672,10.111,20.92,12.752,22.721,14z M16.36,16.473c0.816,1.727,1.32,3.264,1.56,4.607l-0.816,0.24
	c-0.216-1.344-0.696-2.904-1.44-4.584L16.36,16.473z M19.696,15.92c1.368,2.016,2.328,3.936,2.904,5.592l-0.84,0.312
	c-0.528-1.68-1.464-3.576-2.784-5.568L19.696,15.92z M20.44,0.486c0.912,1.032,1.56,2.017,1.944,2.952l-0.672,0.288
	c-0.384-0.912-0.984-1.872-1.824-2.904L20.44,0.486z"/>
<path fill="#F7F9F9" d="M31.287,8.168c-0.72-2.16-1.464-4.152-2.232-5.81l0.96-0.408c0.768,1.729,1.512,3.744,2.208,5.88
	c2.4-0.792,4.777-1.535,6.576-1.896c-0.646-1.44-1.967-3.577-2.928-4.705l0.84-0.456c1.033,1.224,2.4,3.6,3.049,4.993
	c0.385-0.048,0.721-0.072,1.031-0.072c3.648,0,5.521,1.584,5.521,4.92c0,2.737-1.848,4.562-5.209,4.562
	c-0.959,0-2.184-0.145-3.385-0.504l0.072-0.938c1.201,0.385,2.354,0.529,3.266,0.529c2.783,0,4.295-1.439,4.295-3.673
	c0-2.712-1.486-3.96-4.654-3.96c-1.656,0-4.873,0.936-8.186,2.088c1.368,4.176,2.544,8.689,3.215,12.312l-1.007,0.217
	c-0.624-3.576-1.8-8.088-3.12-12.218c-1.944,0.696-3.889,1.416-5.545,2.04l-0.336-0.96C27.375,9.535,29.343,8.84,31.287,8.168z"/>
<path fill="#F7F9F9" d="M62.945,4.015c0-1.152-0.025-2.256-0.025-3.168h1.008v3.168h6.578v0.888h-6.578v6.192v0.143
	C63.977,11.503,64,11.791,64,12.08c0,4.607-0.936,7.729-7.152,9.385l-0.432-0.912c4.824-1.225,6.145-3.168,6.48-6.266
	c-0.793,1.033-1.969,1.633-3.338,1.633c-2.711,0-4.199-1.775-4.199-4.249c0-2.257,1.656-4.273,4.176-4.273
	c1.488,0,2.666,0.528,3.434,1.464c-0.023-1.224-0.023-2.616-0.023-3.96H51.256V4.015H62.945L62.945,4.015z M59.559,8.287
	c-1.848,0-3.264,1.584-3.264,3.408c0,2.065,1.32,3.362,3.361,3.362c1.941,0,3.311-1.92,3.311-3.481v-0.145
	C62.752,9.392,61.457,8.287,59.559,8.287z"/>
</svg>
