<?xml version="1.0" encoding="utf-8"?>
<!-- Generator: Adobe Illustrator 15.0.2, SVG Export Plug-In . SVG Version: 6.00 Build 0)  -->
<!DOCTYPE svg PUBLIC "-//W3C//DTD SVG 1.1//EN" "http://www.w3.org/Graphics/SVG/1.1/DTD/svg11.dtd">
<svg version="1.1" id="レイヤー_1" xmlns="http://www.w3.org/2000/svg" xmlns:xlink="http://www.w3.org/1999/xlink" x="0px"
	 y="0px" width="283.46px" height="283.46px" viewBox="0 0 283.46 283.46" enable-background="new 0 0 283.46 283.46"
	 xml:space="preserve">
<g id="レイヤー_1_1_">
	<g enable-background="new    ">
		<path fill="#FFFFFF" d="M72.194,148.163c-0.743-0.944-1.336-1.861-1.78-2.749c-0.646,2.373-1.801,4.59-3.464,6.648l-1.163-0.884
			c2.446-3.044,3.669-6.839,3.669-11.385v-9.519h1.72v4.541c0.363-0.443,0.819-1.037,1.369-1.78l1.042,0.885
			c-0.484,0.598-1.288,1.417-2.41,2.458v2.374c0,1.703-0.109,3.237-0.327,4.602c0.718,1.381,1.554,2.633,2.507,3.755L72.194,148.163
			z M67.386,140.629l-1.441-0.23c0.307-1.17,0.517-3.076,0.63-5.716l1.465,0.048C67.999,137.186,67.781,139.152,67.386,140.629z
			 M76.796,141.32l-2.604-1.877l0.727-1.042l2.64,1.78c0.419-0.742,0.771-1.502,1.054-2.276l-2.604-1.405l0.63-1.09l2.349,1.235
			c0.21-0.855,0.355-1.833,0.436-2.931h-3.016c-0.928,2.285-2.075,4.134-3.439,5.547l-1.078-0.885
			c0.904-1.017,1.702-2.267,2.392-3.748c0.69-1.481,1.165-2.949,1.423-4.402l1.671,0.157c-0.129,0.719-0.299,1.409-0.509,2.071
			h4.227c0.008,0.089,0.012,0.186,0.012,0.291c0,0.807-0.085,1.764-0.254,2.87h2.313v-5.316h1.78v5.316h3.791v1.417h-3.609
			c0.71,3.06,2.216,5.6,4.517,7.617l-1.32,1.212c-1.986-1.971-3.347-4.126-4.082-6.468c-0.872,2.826-2.588,4.958-5.147,6.395
			l-0.909-1.09c2.834-1.865,4.473-4.421,4.917-7.666h-2.52c-0.428,1.913-1.25,3.615-2.464,5.104
			c-1.215,1.489-2.687,2.683-4.415,3.579l-0.787-1.114C74.543,143.649,75.835,142.555,76.796,141.32z M73.635,152.135l-1.55-0.703
			c0.718-1.13,1.36-2.664,1.925-4.602l1.623,0.351C75.238,148.885,74.571,150.537,73.635,152.135z M77.837,151.99
			c-0.347-2.35-0.61-3.928-0.787-4.735l1.623-0.327c0.412,1.801,0.714,3.358,0.908,4.675L77.837,151.99z M82.416,151.905
			c-0.347-1.284-0.804-2.866-1.369-4.747l1.586-0.412c0.444,1.122,0.945,2.717,1.502,4.784L82.416,151.905z M87.393,152.014
			c-0.985-2.527-1.728-4.231-2.229-5.111l1.55-0.605c0.823,1.429,1.615,3.141,2.374,5.135L87.393,152.014z M87.248,134.755
			c-0.444-1.09-0.924-2.042-1.441-2.857l1.332-0.533c0.589,0.977,1.098,1.922,1.526,2.834L87.248,134.755z"/>
		<path fill="#FFFFFF" d="M104.599,151.396l-1.914,0.376c-0.614-2.722-1.695-7.094-3.246-13.116
			c-1.542,0.428-3.024,0.855-4.445,1.283l-0.327-1.659l4.348-1.247c-0.582-2.204-1.102-4.062-1.562-5.571l1.938-0.424l1.478,5.498
			c2.277-0.605,4.267-1.09,5.971-1.453c-0.743-1.105-1.434-2.075-2.071-2.906l1.514-0.8c0.5,0.59,1.308,1.704,2.422,3.343
			c1.454-0.258,2.588-0.388,3.403-0.388c1.696,0,3.064,0.48,4.105,1.441c1.042,0.961,1.562,2.245,1.562,3.852
			c0,1.639-0.585,2.971-1.756,3.996c-1.171,1.025-2.806,1.538-4.905,1.538c-1.138,0-2.22-0.101-3.246-0.303l0.048-1.562
			c0.832,0.146,1.736,0.219,2.713,0.219c0.759,0,1.427-0.051,2.004-0.151c0.577-0.102,1.118-0.317,1.623-0.648
			c0.504-0.331,0.894-0.755,1.168-1.271s0.412-1.098,0.412-1.744c0-1.179-0.329-2.107-0.987-2.785
			c-0.658-0.679-1.577-1.021-2.755-1.029c-0.565,0-1.373,0.093-2.422,0.278c0.524,0.832,1.005,1.671,1.441,2.519l-1.756,0.739
			c-0.267-0.654-0.795-1.615-1.586-2.883c-1.809,0.396-3.973,0.933-6.492,1.611L104.599,151.396z"/>
		<path fill="#FFFFFF" d="M146.512,135.446h-7.642v4.663c0.533,0.937,0.799,2.221,0.799,3.852c-0.008,2.131-0.797,3.922-2.368,5.371
			s-3.51,2.246-5.819,2.392l-0.497-1.514c1.938-0.138,3.567-0.804,4.887-1.999c1.32-1.194,1.98-2.676,1.98-4.444
			c0-0.299-0.017-0.569-0.048-0.812c-0.202,0.937-0.674,1.674-1.417,2.21c-0.743,0.537-1.635,0.806-2.677,0.806
			c-1.179,0-2.176-0.373-2.991-1.12c-0.816-0.747-1.223-1.686-1.223-2.815c0-1.3,0.458-2.384,1.375-3.252
			c0.916-0.868,2.041-1.302,3.373-1.302c1.001,0,1.894,0.295,2.677,0.884v-2.919h-12.135v-1.586h12.135v-2.895h1.95v2.895h7.642
			V135.446z M136.945,140.363c-0.46-0.912-1.421-1.368-2.883-1.368c-0.71,0.008-1.344,0.303-1.901,0.884s-0.832,1.231-0.823,1.95
			c0,0.783,0.218,1.413,0.654,1.889c0.436,0.477,1.029,0.715,1.78,0.715c0.953,0,1.714-0.311,2.283-0.933
			c0.569-0.621,0.866-1.437,0.891-2.446V140.363z"/>
		<path fill="#FFFFFF" d="M172.632,150.476c-2.414,0.371-5.131,0.557-8.15,0.557h-1.43c-3.827,0-6.417-0.388-7.77-1.163
			c-1.352-0.774-2.028-1.885-2.028-3.33c0-1.76,0.827-3.362,2.483-4.808l1.32,0.98c-1.309,1.284-1.963,2.516-1.963,3.694
			c0,1.025,0.588,1.764,1.762,2.216c1.176,0.452,3.571,0.679,7.188,0.679c2.81,0,5.571-0.202,8.284-0.605L172.632,150.476z
			 M170.912,135.083c-2.154,0.84-4.227,1.837-6.213,2.991l-0.871-1.211c0.815-0.436,2.047-1.073,3.693-1.913l-0.049-0.242
			c-2.809,0.048-7.027,0.182-12.655,0.399l-0.097-1.695c3.73-0.153,8.066-0.23,13.007-0.23c1.163,0,1.981,0.012,2.458,0.036
			L170.912,135.083z M172.802,133.412l-1.381,0.617c-0.582-1.3-1.172-2.43-1.769-3.391l1.32-0.594
			C171.675,131.134,172.285,132.256,172.802,133.412z M176.181,132.915l-1.393,0.569c-0.533-1.251-1.111-2.369-1.732-3.354
			l1.26-0.594C174.97,130.545,175.591,131.671,176.181,132.915z"/>
		<path fill="#FFFFFF" d="M204.71,142.712l-0.594,1.793c-1.082-0.42-2.087-0.792-3.016-1.114c-0.411,1.954-1.086,3.601-2.021,4.94
			c-0.938,1.341-2.233,2.52-3.889,3.537l-1.113-1.26c2.874-1.945,4.617-4.554,5.231-7.823c-2.552-0.8-4.929-1.32-7.134-1.562
			c-2.26,6.039-4.779,9.059-7.557,9.059c-0.889,0-1.627-0.333-2.217-0.999c-0.589-0.666-0.884-1.472-0.884-2.416
			c0-1.033,0.297-2.113,0.89-3.24c0.594-1.126,1.537-2.103,2.828-2.931c1.292-0.827,2.758-1.245,4.396-1.253
			c0.371,0,0.755,0.008,1.15,0.024c0.605-1.857,1.01-3.702,1.211-5.535h-7.689v-1.538h9.494l0.375,0.399
			c-0.307,2.503-0.787,4.784-1.44,6.843c2.124,0.25,4.396,0.735,6.818,1.453c0.048-0.589,0.073-2.038,0.073-4.348h1.889l0.012,2.107
			c0,1.122-0.044,2.059-0.133,2.81C202.134,141.885,203.242,142.236,204.71,142.712z M190.238,141.078
			c-0.371-0.017-0.67-0.024-0.896-0.024c-1.26,0-2.363,0.341-3.312,1.023c-0.948,0.683-1.643,1.5-2.082,2.452
			c-0.44,0.953-0.66,1.748-0.66,2.386c0,0.444,0.148,0.828,0.447,1.151c0.299,0.322,0.662,0.484,1.09,0.484
			c0.849,0,1.809-0.789,2.883-2.368C188.781,144.604,189.625,142.902,190.238,141.078z"/>
	</g>
</g>
</svg>
