<?xml version="1.0" encoding="utf-8"?>
<!-- Generator: Adobe Illustrator 16.0.4, SVG Export Plug-In . SVG Version: 6.00 Build 0)  -->
<!DOCTYPE svg PUBLIC "-//W3C//DTD SVG 1.1//EN" "http://www.w3.org/Graphics/SVG/1.1/DTD/svg11.dtd">
<svg version="1.1" id="レイヤー_1" xmlns="http://www.w3.org/2000/svg" xmlns:xlink="http://www.w3.org/1999/xlink" x="0px"
	 y="0px" width="595.28px" height="841.89px" viewBox="0 0 595.28 841.89" enable-background="new 0 0 595.28 841.89"
	 xml:space="preserve">
<path fill="#F7F8F8" d="M270.393,428.877l-0.744,0.553c-0.528-1.104-1.417-2.832-2.304-4.369c-0.48,2.665-1.584,5.064-3.697,7.081
	L263,431.518c2.952-2.784,3.816-6.36,3.816-10.441v-10.681h0.864v10.681c0,0.96-0.048,1.896-0.144,2.785
	C268.593,425.565,269.745,427.653,270.393,428.877z M265.257,414.98c-0.216,2.304-0.648,4.896-1.368,6.336l-0.768-0.24
	c0.792-1.464,1.248-3.984,1.392-6.192L265.257,414.98z M270.921,414.284c-0.504,1.56-1.32,3.792-2.184,5.737l-0.6-0.288
	c0.864-1.968,1.632-4.225,2.04-5.737L270.921,414.284z M272.865,426.717c-0.432,1.992-1.368,4.152-2.592,5.377l-0.768-0.432
	c1.272-1.201,2.184-3.265,2.568-5.16L272.865,426.717z M271.689,417.909c-0.168,0.312-0.384,0.6-0.576,0.864l-0.72-0.432
	c1.752-2.329,2.809-4.945,3.36-7.921l0.816,0.096c-0.144,0.792-0.336,1.536-0.552,2.28h2.856h0.144h0.12l0.576,0.096
	c-0.696,5.544-2.952,9.601-6.48,11.929l-0.624-0.624c1.656-1.032,3-2.448,4.056-4.201
	C273.874,419.301,272.89,418.604,271.689,417.909z M275.001,419.373c0.36-0.672,0.672-1.392,0.912-2.16
	c-0.744-0.624-1.704-1.2-2.88-1.776c-0.288,0.648-0.625,1.296-0.984,1.92C273.226,418.029,274.209,418.701,275.001,419.373z
	 M276.154,416.493c0.264-0.912,0.48-1.896,0.648-2.929h-3.024c-0.144,0.432-0.312,0.864-0.48,1.272
	C274.426,415.388,275.386,415.94,276.154,416.493z M275.506,426.789c0.528,1.752,0.816,3.312,0.888,4.656l-0.888,0.168
	c-0.024-1.344-0.264-2.904-0.768-4.584L275.506,426.789z M285.227,424.27l-0.648,0.72c-1.656-1.272-2.856-3.625-3.552-7.489
	c-0.576,3.24-1.752,5.665-4.321,7.345l-0.648-0.625c2.809-1.8,3.913-4.488,4.345-8.256h-2.641v-0.816h2.736
	c0.12-1.44,0.192-3.024,0.216-4.752l0.84,0.024c-0.024,1.704-0.096,3.288-0.216,4.729h3.528v0.816h-3.265
	C282.178,420.381,283.426,423.021,285.227,424.27z M278.866,426.741c0.816,1.728,1.32,3.265,1.56,4.608l-0.816,0.24
	c-0.216-1.344-0.696-2.904-1.44-4.584L278.866,426.741z M282.202,426.189c1.368,2.016,2.328,3.936,2.904,5.592l-0.84,0.312
	c-0.528-1.68-1.464-3.576-2.784-5.568L282.202,426.189z M282.946,410.756c0.912,1.032,1.56,2.016,1.944,2.952l-0.672,0.288
	c-0.384-0.912-0.984-1.872-1.824-2.904L282.946,410.756z"/>
<path fill="#F7F8F8" d="M293.793,418.437c-0.72-2.16-1.464-4.152-2.232-5.809l0.96-0.408c0.768,1.728,1.512,3.744,2.208,5.88
	c2.4-0.792,4.776-1.536,6.576-1.896c-0.647-1.44-1.968-3.577-2.928-4.705l0.84-0.456c1.032,1.224,2.4,3.6,3.048,4.993
	c0.385-0.048,0.721-0.072,1.032-0.072c3.648,0,5.521,1.584,5.521,4.92c0,2.736-1.848,4.561-5.209,4.561
	c-0.959,0-2.184-0.145-3.384-0.504l0.072-0.937c1.2,0.384,2.353,0.528,3.265,0.528c2.783,0,4.296-1.439,4.296-3.672
	c0-2.712-1.488-3.96-4.656-3.96c-1.656,0-4.873,0.936-8.185,2.088c1.368,4.176,2.544,8.689,3.216,12.313l-1.008,0.216
	c-0.624-3.576-1.8-8.088-3.12-12.217c-1.944,0.696-3.889,1.416-5.545,2.04l-0.336-0.96
	C289.881,419.805,291.849,419.109,293.793,418.437z"/>
<path fill="#F7F8F8" d="M325.45,414.284c0-1.152-0.024-2.256-0.024-3.168h1.008v3.168h6.577v0.888h-6.577v6.192v0.144
	c0.049,0.264,0.072,0.552,0.072,0.841c0,4.607-0.936,7.729-7.152,9.385l-0.432-0.912c4.824-1.225,6.145-3.169,6.48-6.266
	c-0.793,1.033-1.969,1.633-3.337,1.633c-2.712,0-4.2-1.776-4.2-4.249c0-2.256,1.656-4.272,4.176-4.272
	c1.488,0,2.665,0.528,3.434,1.464c-0.024-1.224-0.024-2.616-0.024-3.96h-11.689v-0.888H325.45z M322.065,418.557
	c-1.849,0-3.265,1.584-3.265,3.408c0,2.064,1.32,3.36,3.361,3.36c1.943,0,3.312-1.92,3.312-3.48v-0.144
	C325.258,419.661,323.962,418.557,322.065,418.557z"/>
</svg>
