<?xml version="1.0" encoding="utf-8"?>
<!-- Generator: Adobe Illustrator 16.0.4, SVG Export Plug-In . SVG Version: 6.00 Build 0)  -->
<!DOCTYPE svg PUBLIC "-//W3C//DTD SVG 1.1//EN" "http://www.w3.org/Graphics/SVG/1.1/DTD/svg11.dtd">
<svg version="1.1" id="レイヤー_1" xmlns="http://www.w3.org/2000/svg" xmlns:xlink="http://www.w3.org/1999/xlink" x="0px"
	 y="0px" width="595.28px" height="841.89px" viewBox="0 0 595.28 841.89" enable-background="new 0 0 595.28 841.89"
	 xml:space="preserve">
<path fill="#F7F8F8" d="M245.793,428.877l-0.744,0.553c-0.528-1.104-1.417-2.832-2.304-4.369c-0.48,2.665-1.584,5.064-3.697,7.081
	l-0.648-0.624c2.952-2.784,3.816-6.36,3.816-10.441v-10.681h0.864v10.681c0,0.96-0.048,1.896-0.144,2.785
	C243.993,425.565,245.145,427.653,245.793,428.877z M240.657,414.98c-0.216,2.304-0.648,4.896-1.368,6.336l-0.768-0.24
	c0.792-1.464,1.248-3.984,1.392-6.192L240.657,414.98z M246.321,414.284c-0.504,1.56-1.32,3.792-2.184,5.737l-0.6-0.288
	c0.864-1.968,1.632-4.225,2.04-5.737L246.321,414.284z M248.265,426.717c-0.432,1.992-1.368,4.152-2.592,5.377l-0.768-0.432
	c1.272-1.201,2.184-3.265,2.568-5.16L248.265,426.717z M247.089,417.909c-0.168,0.312-0.384,0.6-0.576,0.864l-0.72-0.432
	c1.752-2.329,2.809-4.945,3.36-7.921l0.816,0.096c-0.144,0.792-0.336,1.536-0.552,2.28h2.856h0.144h0.12l0.576,0.096
	c-0.696,5.544-2.952,9.601-6.48,11.929l-0.624-0.624c1.656-1.032,3-2.448,4.056-4.201
	C249.273,419.301,248.29,418.604,247.089,417.909z M250.401,419.373c0.36-0.672,0.672-1.392,0.912-2.16
	c-0.744-0.624-1.704-1.2-2.88-1.776c-0.288,0.648-0.624,1.296-0.984,1.92C248.625,418.029,249.609,418.701,250.401,419.373z
	 M251.554,416.493c0.264-0.912,0.48-1.896,0.648-2.929h-3.024c-0.144,0.432-0.312,0.864-0.48,1.272
	C249.826,415.388,250.786,415.94,251.554,416.493z M250.906,426.789c0.528,1.752,0.816,3.312,0.888,4.656l-0.888,0.168
	c-0.024-1.344-0.264-2.904-0.768-4.584L250.906,426.789z M260.626,424.27l-0.648,0.72c-1.656-1.272-2.856-3.625-3.552-7.489
	c-0.576,3.24-1.752,5.665-4.321,7.345l-0.648-0.625c2.809-1.8,3.913-4.488,4.345-8.256h-2.641v-0.816h2.736
	c0.12-1.44,0.192-3.024,0.216-4.752l0.84,0.024c-0.024,1.704-0.096,3.288-0.216,4.729h3.528v0.816h-3.265
	C257.578,420.381,258.826,423.021,260.626,424.27z M254.266,426.741c0.816,1.728,1.32,3.265,1.56,4.608l-0.816,0.24
	c-0.216-1.344-0.696-2.904-1.44-4.584L254.266,426.741z M257.602,426.189c1.368,2.016,2.328,3.936,2.904,5.592l-0.84,0.312
	c-0.528-1.68-1.464-3.576-2.784-5.568L257.602,426.189z M258.346,410.756c0.912,1.032,1.56,2.016,1.944,2.952l-0.672,0.288
	c-0.384-0.912-0.984-1.872-1.824-2.904L258.346,410.756z"/>
<path fill="#F7F8F8" d="M269.193,418.437c-0.72-2.16-1.464-4.152-2.232-5.809l0.96-0.408c0.768,1.728,1.512,3.744,2.208,5.88
	c2.4-0.792,4.776-1.536,6.576-1.896c-0.648-1.44-1.968-3.577-2.928-4.705l0.84-0.456c1.032,1.224,2.4,3.6,3.048,4.993
	c0.384-0.048,0.72-0.072,1.032-0.072c3.648,0,5.521,1.584,5.521,4.92c0,2.736-1.848,4.561-5.208,4.561
	c-0.96,0-2.184-0.145-3.384-0.504l0.072-0.937c1.2,0.384,2.352,0.528,3.264,0.528c2.784,0,4.296-1.439,4.296-3.672
	c0-2.712-1.488-3.96-4.656-3.96c-1.656,0-4.873,0.936-8.185,2.088c1.368,4.176,2.544,8.689,3.216,12.313l-1.008,0.216
	c-0.624-3.576-1.8-8.088-3.12-12.217c-1.944,0.696-3.889,1.416-5.544,2.04l-0.336-0.96
	C265.281,419.805,267.249,419.109,269.193,418.437z"/>
<path fill="#F7F8F8" d="M289.425,416.108c0.792,0.024,1.632,0.048,2.568,0.048c2.52,0,5.424-0.096,8.208-0.312
	c-0.527-1.536-0.936-3.144-1.151-4.656l1.008-0.12c0.192,1.512,0.576,3.121,1.128,4.705c2.545-0.192,4.945-0.48,6.745-0.864
	l0.192,0.912c-1.801,0.36-4.129,0.624-6.625,0.84c1.08,2.88,2.616,5.544,4.344,7.201l-0.744,0.84
	c-2.904-1.176-5.688-1.824-8.544-1.824c-3.072,0-4.777,1.416-4.777,3.528c0,2.808,2.856,4.128,8.497,4.128
	c0.961,0,2.017-0.047,3.145-0.119l-0.023,0.936c-1.08,0.096-2.137,0.12-3.072,0.12c-6.361,0-9.529-1.752-9.529-5.136
	c0-2.617,2.28-4.321,5.617-4.321c2.76,0,5.401,0.552,7.873,1.44c-1.368-1.44-2.761-3.96-3.769-6.721
	c-2.928,0.216-6,0.312-8.712,0.312c-0.816,0-1.632,0-2.376-0.024V416.108z"/>
<path fill="#F7F8F8" d="M318.369,414.788c0.384-1.416,0.672-2.736,0.863-3.84l1.009,0.12c-0.192,1.08-0.48,2.353-0.864,3.72h4.705
	v0.912h-4.969c-1.152,3.913-2.929,8.377-4.873,11.185l-0.888-0.527c1.92-2.664,3.624-6.889,4.729-10.657h-4.2v-0.912H318.369z
	 M328.186,418.269c-0.023,0.504-0.023,1.368-0.023,2.328c0,1.585,0,3.577,0.023,5.064c1.656,0.673,3.289,1.656,4.584,2.688
	l-0.623,0.72c-1.152-0.983-2.545-1.849-3.961-2.472v0.936c0,2.496-1.32,3.865-4.176,3.865c-2.713,0-4.537-1.537-4.537-3.289
	c0-2.016,1.729-3.336,4.537-3.336c1.031,0,2.136,0.191,3.216,0.552c0-1.44,0-3.24,0-4.729c0-0.96,0-1.824,0-2.328H328.186z
	 M324.01,425.613c-2.305,0-3.673,0.96-3.673,2.496c0,1.32,1.632,2.424,3.601,2.424c2.28,0,3.312-0.983,3.312-3
	c0-0.312,0-0.768,0-1.32C326.146,425.829,325.041,425.613,324.01,425.613z M332.746,417.909c-1.368-1.008-4.104-2.568-5.977-3.312
	l0.48-0.792c1.992,0.864,4.512,2.28,6,3.312L332.746,417.909z"/>
<path fill="#F7F8F8" d="M340.041,414.116c-0.145,1.848-0.217,3.696-0.217,5.208c0,5.953,2.328,9.914,4.177,9.914
	c1.224,0,2.208-1.992,2.929-4.753l0.863,0.36c-0.936,3.336-2.064,5.447-3.744,5.447c-2.4,0-5.208-4.344-5.208-10.92
	c0-1.56,0.048-3.432,0.168-5.328L340.041,414.116z M353.074,413.708c3.384,3.265,4.632,7.153,4.775,12.386l-1.056,0.096
	c-0.071-5.064-1.319-8.905-4.513-11.881L353.074,413.708z"/>
</svg>
