<?xml version="1.0" encoding="utf-8"?>
<!-- Generator: Adobe Illustrator 16.0.4, SVG Export Plug-In . SVG Version: 6.00 Build 0)  -->
<!DOCTYPE svg PUBLIC "-//W3C//DTD SVG 1.1//EN" "http://www.w3.org/Graphics/SVG/1.1/DTD/svg11.dtd">
<svg version="1.1" id="レイヤー_1" xmlns="http://www.w3.org/2000/svg" xmlns:xlink="http://www.w3.org/1999/xlink" x="0px"
	 y="0px" width="120px" height="23px" viewBox="0 0 120 23" enable-background="new 0 0 120 23" xml:space="preserve">
<path fill="#F7F9F9" d="M7.669,19.107L6.925,19.66c-0.528-1.104-1.417-2.832-2.304-4.369c-0.48,2.666-1.584,5.064-3.697,7.082
	l-0.648-0.625c2.952-2.783,3.816-6.359,3.816-10.44V0.627h0.864v10.681c0,0.959-0.049,1.895-0.145,2.786
	C5.869,15.797,7.021,17.885,7.669,19.107z M2.533,5.211c-0.217,2.304-0.648,4.896-1.368,6.336l-0.769-0.24
	c0.792-1.464,1.248-3.984,1.393-6.192L2.533,5.211z M8.196,4.515c-0.504,1.56-1.319,3.792-2.184,5.737l-0.6-0.288
	c0.863-1.968,1.632-4.225,2.04-5.737L8.196,4.515z M10.141,16.947c-0.432,1.992-1.368,4.152-2.592,5.377L6.78,21.893
	c1.272-1.201,2.185-3.264,2.568-5.16L10.141,16.947z M8.965,8.14c-0.168,0.312-0.384,0.6-0.576,0.864l-0.72-0.432
	c1.752-2.329,2.809-4.945,3.359-7.921l0.816,0.096c-0.144,0.792-0.336,1.536-0.552,2.28h2.855h0.145h0.12l0.575,0.096
	c-0.695,5.544-2.951,9.602-6.479,11.93l-0.624-0.625c1.656-1.031,3-2.447,4.056-4.201C11.148,9.532,10.166,8.835,8.965,8.14z
	 M12.276,9.604c0.36-0.672,0.672-1.392,0.912-2.16c-0.744-0.624-1.704-1.2-2.88-1.776c-0.288,0.648-0.624,1.296-0.983,1.92
	C10.501,8.26,11.484,8.932,12.276,9.604z M13.43,6.724c0.264-0.912,0.48-1.896,0.648-2.929h-3.024
	c-0.144,0.432-0.312,0.864-0.48,1.272C11.702,5.619,12.662,6.171,13.43,6.724z M12.781,17.02c0.528,1.752,0.816,3.312,0.889,4.656
	l-0.889,0.168c-0.023-1.344-0.264-2.904-0.768-4.584L12.781,17.02z M22.502,14.5l-0.648,0.721c-1.656-1.271-2.855-3.625-3.552-7.489
	c-0.576,3.24-1.752,5.665-4.321,7.344l-0.647-0.625c2.809-1.799,3.913-4.487,4.345-8.255h-2.641V5.38h2.735
	c0.12-1.44,0.192-3.024,0.216-4.752l0.841,0.024c-0.024,1.704-0.097,3.288-0.217,4.729h3.528v0.816h-3.265
	C19.454,10.612,20.702,13.252,22.502,14.5z M16.142,16.973c0.816,1.727,1.32,3.264,1.561,4.607l-0.816,0.24
	c-0.216-1.344-0.696-2.904-1.44-4.584L16.142,16.973z M19.478,16.42c1.368,2.016,2.328,3.936,2.904,5.592l-0.84,0.312
	c-0.528-1.68-1.464-3.576-2.784-5.568L19.478,16.42z M20.222,0.987c0.912,1.032,1.56,2.016,1.944,2.952l-0.672,0.288
	c-0.385-0.912-0.984-1.872-1.824-2.904L20.222,0.987z"/>
<path fill="#F7F9F9" d="M31.068,8.668c-0.72-2.16-1.464-4.152-2.231-5.809l0.96-0.408c0.768,1.728,1.512,3.744,2.208,5.88
	c2.399-0.792,4.775-1.536,6.576-1.896c-0.648-1.44-1.969-3.577-2.929-4.705l0.841-0.456c1.031,1.224,2.399,3.6,3.048,4.993
	c0.384-0.048,0.72-0.072,1.031-0.072c3.648,0,5.521,1.584,5.521,4.92c0,2.736-1.848,4.561-5.208,4.561
	c-0.96,0-2.184-0.145-3.384-0.504l0.071-0.938c1.2,0.385,2.353,0.529,3.265,0.529c2.784,0,4.296-1.439,4.296-3.672
	c0-2.712-1.488-3.96-4.656-3.96c-1.656,0-4.873,0.936-8.185,2.088c1.368,4.175,2.544,8.689,3.216,12.312l-1.008,0.217
	c-0.624-3.576-1.8-8.088-3.12-12.217c-1.944,0.696-3.89,1.416-5.544,2.04l-0.336-0.96C27.156,10.036,29.125,9.34,31.068,8.668z"/>
<path fill="#F7F9F9" d="M51.301,6.339c0.792,0.024,1.632,0.048,2.568,0.048c2.52,0,5.424-0.096,8.207-0.312
	c-0.526-1.536-0.936-3.144-1.15-4.656l1.008-0.12c0.191,1.512,0.576,3.121,1.128,4.705c2.545-0.192,4.945-0.48,6.745-0.864
	l0.191,0.912c-1.801,0.36-4.129,0.624-6.625,0.84c1.08,2.88,2.616,5.543,4.345,7.202l-0.744,0.84
	c-2.904-1.176-5.688-1.824-8.544-1.824c-3.072,0-4.777,1.416-4.777,3.527c0,2.809,2.856,4.129,8.497,4.129
	c0.961,0,2.017-0.047,3.145-0.119l-0.022,0.936c-1.08,0.096-2.137,0.119-3.072,0.119c-6.36,0-9.528-1.752-9.528-5.135
	c0-2.617,2.279-4.322,5.617-4.322c2.76,0,5.4,0.553,7.872,1.441c-1.368-1.441-2.761-3.96-3.769-6.722
	c-2.928,0.216-6,0.312-8.712,0.312c-0.816,0-1.632,0-2.376-0.024V6.339H51.301z"/>
<path fill="#F7F9F9" d="M80.244,5.019c0.385-1.416,0.672-2.736,0.863-3.84l1.009,0.12c-0.191,1.08-0.479,2.353-0.863,3.72h4.704
	v0.912h-4.969c-1.151,3.913-2.929,8.377-4.873,11.184l-0.888-0.525c1.92-2.664,3.624-6.89,4.729-10.658h-4.199V5.02L80.244,5.019
	L80.244,5.019z M90.062,8.5c-0.023,0.504-0.023,1.368-0.023,2.328c0,1.584,0,3.576,0.023,5.064c1.656,0.672,3.289,1.656,4.584,2.688
	l-0.623,0.721c-1.152-0.984-2.545-1.85-3.961-2.473v0.936c0,2.496-1.32,3.865-4.176,3.865c-2.713,0-4.537-1.537-4.537-3.289
	c0-2.016,1.729-3.336,4.537-3.336c1.031,0,2.136,0.191,3.216,0.553c0-1.441,0-3.24,0-4.729c0-0.96,0-1.824,0-2.328L90.062,8.5
	L90.062,8.5z M85.886,15.844c-2.306,0-3.673,0.961-3.673,2.496c0,1.32,1.632,2.424,3.601,2.424c2.28,0,3.312-0.982,3.312-3
	c0-0.312,0-0.768,0-1.32C88.021,16.061,86.916,15.844,85.886,15.844z M94.621,8.14c-1.367-1.008-4.104-2.568-5.977-3.312
	l0.479-0.792c1.992,0.864,4.513,2.28,6,3.312L94.621,8.14z"/>
<path fill="#F7F9F9" d="M101.916,4.347c-0.145,1.848-0.217,3.696-0.217,5.208c0,5.953,2.328,9.914,4.177,9.914
	c1.225,0,2.209-1.992,2.93-4.752l0.863,0.359c-0.937,3.336-2.064,5.447-3.744,5.447c-2.4,0-5.208-4.344-5.208-10.92
	c0-1.56,0.048-3.432,0.168-5.328L101.916,4.347z M114.949,3.939c3.384,3.265,4.632,7.153,4.775,12.385l-1.056,0.098
	c-0.071-5.065-1.319-8.906-4.514-11.882L114.949,3.939z"/>
</svg>
