<?xml version="1.0" encoding="UTF-8" standalone="no"?>
<!-- Generator: Adobe Illustrator 16.0.4, SVG Export Plug-In . SVG Version: 6.00 Build 0)  -->

<svg
   xmlns:dc="http://purl.org/dc/elements/1.1/"
   xmlns:cc="http://creativecommons.org/ns#"
   xmlns:rdf="http://www.w3.org/1999/02/22-rdf-syntax-ns#"
   xmlns:svg="http://www.w3.org/2000/svg"
   xmlns="http://www.w3.org/2000/svg"
   xmlns:sodipodi="http://sodipodi.sourceforge.net/DTD/sodipodi-0.dtd"
   xmlns:inkscape="http://www.inkscape.org/namespaces/inkscape"
   version="1.1"
   id="レイヤー_1"
   x="0px"
   y="0px"
   width="87"
   height="23"
   viewBox="0 0 87 23"
   enable-background="new 0 0 46 23"
   xml:space="preserve"
   inkscape:version="0.48.5 r10040"
   sodipodi:docname="OB_bin01.svg"><metadata
   id="metadata3103"><rdf:RDF><cc:Work
       rdf:about=""><dc:format>image/svg+xml</dc:format><dc:type
         rdf:resource="http://purl.org/dc/dcmitype/StillImage" /><dc:title></dc:title></cc:Work></rdf:RDF></metadata><defs
   id="defs3101" /><sodipodi:namedview
   pagecolor="#ffffff"
   bordercolor="#666666"
   borderopacity="1"
   objecttolerance="10"
   gridtolerance="10"
   guidetolerance="10"
   inkscape:pageopacity="0"
   inkscape:pageshadow="2"
   inkscape:window-width="1247"
   inkscape:window-height="654"
   id="namedview3099"
   showgrid="false"
   inkscape:zoom="5.1304348"
   inkscape:cx="60.274684"
   inkscape:cy="6.3869974"
   inkscape:window-x="0"
   inkscape:window-y="0"
   inkscape:window-maximized="0"
   inkscape:current-layer="text3003" />


<g
   style="font-size:24px;font-style:normal;font-variant:normal;font-weight:200;font-stretch:normal;line-height:125%;letter-spacing:0px;word-spacing:0px;fill:#f2f2f2;fill-opacity:1;stroke:none;font-family:'M+ 2c light';-inkscape-font-specification:'M+ 2c light, Ultra-Light'"
   id="text3003"><path
     d="m 35.283274,3.1823158 0.936035,-0.5039062 c 0.656232,1.0083189 1.424298,2.3283859 2.304199,3.9602051 L 37.587473,7.118351 C 36.771538,5.5822344 36.003472,4.270224 35.283274,3.1823158 z m 3.168457,-0.9594726 0.936035,-0.5046387 c 0.9116,1.4082218 1.711404,2.7602713 2.399414,4.0561523 L 40.851877,6.2548256 C 39.939747,4.6225186 39.139699,3.2785258 38.451731,2.2228432 z m -14.471924,2.0397949 1.175537,0 0,7.8237309 c 4.384267,-0.768056 8.832261,-2.048084 13.343994,-3.8400883 L 38.85969,9.2548256 C 34.203425,11.110793 29.635314,12.422804 25.155344,13.190861 l 0,4.199707 c -6e-6,1.423831 0.23205,2.34778 0.696167,2.77185 0.464105,0.424074 1.488151,0.63611 3.072144,0.636109 3.423815,1e-6 6.671858,-0.152099 9.74414,-0.456299 l 0.07178,1.056152 c -3.136247,0.3042 -6.440199,0.456299 -9.911866,0.456299 -1.919929,0 -3.207892,-0.304077 -3.863891,-0.912231 -0.656011,-0.608153 -0.984014,-1.808225 -0.984009,-3.60022 z"
     style=""
     id="path3008" /><path
     d="m 47.739573,20.630802 c 4.352042,-0.400389 7.931994,-1.788571 10.739868,-4.164551 2.807843,-2.375968 4.587749,-5.531971 5.339721,-9.4680172 l 1.080323,0.2644043 C 64.115284,11.43843 62.231253,14.794383 59.247385,17.330509 56.263486,19.866644 52.467591,21.33466 47.85969,21.734562 z M 47.547678,5.7743568 48.147532,4.8383217 c 2.016106,1.2163244 4.120108,2.664321 6.312011,4.3439941 L 53.78718,10.094181 C 51.803285,8.5585498 49.723453,7.1186098 47.547678,5.7743568 z"
     style=""
     id="path3010" /></g></svg>