<?xml version="1.0" encoding="UTF-8" standalone="no"?>
<!-- Generator: Adobe Illustrator 16.0.4, SVG Export Plug-In . SVG Version: 6.00 Build 0)  -->

<svg
   xmlns:dc="http://purl.org/dc/elements/1.1/"
   xmlns:cc="http://creativecommons.org/ns#"
   xmlns:rdf="http://www.w3.org/1999/02/22-rdf-syntax-ns#"
   xmlns:svg="http://www.w3.org/2000/svg"
   xmlns="http://www.w3.org/2000/svg"
   xmlns:sodipodi="http://sodipodi.sourceforge.net/DTD/sodipodi-0.dtd"
   xmlns:inkscape="http://www.inkscape.org/namespaces/inkscape"
   version="1.1"
   id="レイヤー_1"
   x="0px"
   y="0px"
   width="46px"
   height="23px"
   viewBox="0 0 46 23"
   enable-background="new 0 0 46 23"
   xml:space="preserve"
   inkscape:version="0.48.5 r10040"
   sodipodi:docname="plastic.svg"><metadata
   id="metadata3138"><rdf:RDF><cc:Work
       rdf:about=""><dc:format>image/svg+xml</dc:format><dc:type
         rdf:resource="http://purl.org/dc/dcmitype/StillImage" /></cc:Work></rdf:RDF></metadata><defs
   id="defs3136" /><sodipodi:namedview
   pagecolor="#ffffff"
   bordercolor="#666666"
   borderopacity="1"
   objecttolerance="10"
   gridtolerance="10"
   guidetolerance="10"
   inkscape:pageopacity="0"
   inkscape:pageshadow="2"
   inkscape:window-width="1366"
   inkscape:window-height="706"
   id="namedview3134"
   showgrid="false"
   inkscape:zoom="10.26087"
   inkscape:cx="7.1631356"
   inkscape:cy="20.277193"
   inkscape:window-x="-8"
   inkscape:window-y="-8"
   inkscape:window-maximized="1"
   inkscape:current-layer="レイヤー_1" />


<text
   xml:space="preserve"
   style="font-size:14px;font-style:normal;font-weight:normal;line-height:125%;letter-spacing:0px;word-spacing:0px;fill:#000000;fill-opacity:1;stroke:none;font-family:Sans"
   x="-11.5"
   y="9.8432207"
   id="text3140"
   sodipodi:linespacing="125%"><tspan
     sodipodi:role="line"
     id="tspan3142"
     x="-11.5"
     y="9.8432207" /></text>

<g
   style="font-size:9px;font-style:normal;font-weight:normal;line-height:125%;letter-spacing:0px;word-spacing:0px;fill:#ececec;fill-opacity:1;stroke:none;font-family:'M+ 2p light';-inkscape-font-specification:'M+ 2p light'"
   id="text3144"><path
     d="m 13.126676,1.9087152 c -7e-6,-0.288018 0.103494,-0.5354848 0.310501,-0.7424011 0.206994,-0.20690164 0.454506,-0.31035612 0.742539,-0.31036374 0.288017,7.62e-6 0.535529,0.1034621 0.742538,0.31036374 0.206992,0.2069163 0.310492,0.4543831 0.310501,0.7424011 -9e-6,0.2880312 -0.103509,0.5355438 -0.310501,0.7425385 -0.207009,0.2070064 -0.454521,0.3105066 -0.742538,0.3105011 -0.120125,5.5e-6 -0.243172,-0.023981 -0.369141,-0.07196 -0.234016,3.0479762 -2.009954,4.9259956 -5.3278198,5.6340638 L 8.3836036,8.1278009 C 11.551689,7.4257756 13.216666,5.616787 13.378538,2.7008295 l -5.786774,0 0,-0.4051208 5.615936,0 C 13.153678,2.1578366 13.126669,2.0288389 13.126676,1.9087152 z M 14.67465,2.403924 c 0.138053,-0.1380553 0.207084,-0.303079 0.207092,-0.4950714 -8e-6,-0.1919793 -0.06904,-0.357003 -0.207092,-0.4950714 -0.13807,-0.1380544 -0.303093,-0.207085 -0.495072,-0.2070923 -0.191993,7.3e-6 -0.356971,0.069038 -0.494934,0.2070923 -0.137977,0.1380684 -0.206962,0.3030921 -0.206955,0.4950714 -7e-6,0.1919924 0.06898,0.3569703 0.206955,0.4949341 0.137963,0.1379759 0.302941,0.2069608 0.494934,0.2069549 0.191979,5.9e-6 0.357002,-0.068933 0.495072,-0.2068176 z"
     style="font-family:'M+ 2p light';-inkscape-font-specification:'M+ 2p light';fill:#ececec"
     id="path3012" /><path
     d="m 16.690641,4.5998163 0,-0.3869934 6.587952,0 0,0.3869934 c -0.197945,1.187991 -0.680931,2.1089648 -1.44896,2.7629242 -0.768041,0.6539617 -1.890065,1.1009674 -3.366073,1.3410187 L 18.382535,8.3167658 C 19.750695,8.0948423 20.79174,7.6853731 21.505674,7.088357 22.219595,6.4913436 22.666555,5.6618309 22.846555,4.5998163 z m 0.728943,-2.1060791 0,-0.3869934 5.220154,0 0,0.3869934 z"
     style="font-family:'M+ 2p light';-inkscape-font-specification:'M+ 2p light';fill:#ececec"
     id="path3014" /><path
     d="m 29.803648,3.1866999 -2.087952,0 0,0.5130615 1.781982,0 0,0.801178 c -5e-6,0.3418615 -0.0315,0.554813 -0.09448,0.6388549 -0.06299,0.084049 -0.229527,0.1260714 -0.499603,0.1260682 -0.15601,3.2e-6 -0.422978,-0.01199 -0.800904,-0.03598 l 0,-0.3510131 c 0.342037,0.02399 0.579067,0.035984 0.71109,0.03598 0.143917,3.5e-6 0.229381,-0.022518 0.256394,-0.067566 0.027,-0.04504 0.04051,-0.1994896 0.04051,-0.4633484 l 0,-0.3240967 -1.394989,0 0,1.6289978 -0.422974,0 0,-1.6289978 -1.287048,0 0,1.3320923 -0.405121,0 0,-1.6921692 1.692169,0 0,-0.5130615 -2.006927,0 0,-0.3510132 2.006927,0 0,-0.5847473 -1.215088,0 c -0.125978,0.2098449 -0.257997,0.392767 -0.396057,0.5487671 L 25.321775,2.6288691 C 25.65173,2.256805 25.882717,1.824768 26.014738,1.332757 l 0.404846,0.063171 c -0.04798,0.1799996 -0.104921,0.3449774 -0.170838,0.4949341 l 1.043976,0 0,-0.6031494 0.422974,0 0,0.6031494 1.853943,0 0,0.3600769 -1.853943,0 0,0.5847473 2.087952,0 z m 0.486145,1.4131164 0,-3.0421142 0.404846,0 0,3.0421142 z m 1.826751,-3.2310791 0.423249,0 0,3.2851868 c -8e-6,0.4140049 -0.04803,0.6779969 -0.144059,0.7919769 -0.09605,0.1139861 -0.324058,0.1709776 -0.684036,0.1709747 -0.264045,2.9e-6 -0.639045,-0.015012 -1.125,-0.045044 l 0,-0.3869934 c 0.461969,0.030033 0.821954,0.045047 1.079956,0.045044 0.210015,3.3e-6 0.337502,-0.027005 0.382462,-0.081024 0.04494,-0.054013 0.06742,-0.2160609 0.06743,-0.486145 z m -7.019989,6.525055 -0.10794,-0.368866 c 1.356077,-0.3061511 2.454068,-0.6961654 3.293975,-1.170044 l -3.086883,0 0,-0.3600769 3.680969,0 0,-0.5850219 0.441101,0 0,0.5850219 3.545838,0 0,0.3600769 -3.384064,0 c 0.252131,0.4140032 0.600122,0.7949538 1.043976,1.1428528 0.612115,-0.3059679 1.146141,-0.647917 1.602081,-1.0258484 l 0.324097,0.2249451 c -0.450081,0.3720717 -0.984108,0.7200633 -1.602082,1.0439758 0.617974,0.4200443 1.362023,0.7470703 2.232148,0.9810791 L 32.908659,9.0816889 C 32.01473,8.8418204 31.230261,8.4833918 30.55525,8.006402 29.880226,7.5294132 29.374718,6.9789072 29.038724,6.3548822 l -0.144195,0 C 28.498651,6.6247816 28.063684,6.864741 27.589628,7.0747614 l 0,1.3771362 c 0.791927,-0.120117 1.604915,-0.2671506 2.438965,-0.4411011 l 0.05411,0.360077 c -1.530033,0.3178708 -3.024081,0.5518794 -4.482147,0.7020263 l -0.04477,-0.3600769 c 0.359984,-0.036072 0.893919,-0.1020814 1.601806,-0.1980286 l 0,-1.2598571 c -0.629884,0.2459116 -1.316895,0.458863 -2.061035,0.638855 z"
     style="font-family:'M+ 2p light';-inkscape-font-specification:'M+ 2p light';fill:#ececec"
     id="path3016" /><path
     d="m 8.8065772,17.190698 4.4461668,0 c -0.786078,-0.52789 -1.527105,-1.121884 -2.223083,-1.781983 -0.695988,0.660099 -1.4370151,1.254093 -2.2230838,1.781983 z m 5.5621028,-3.644989 -6.6780391,0 0,1.377136 -0.4229736,0 0,-1.746002 3.5461117,0 0,-0.926972 0.431763,0 0,0.926972 3.546112,0 0,1.746002 -0.422974,0 z m -4.15805,0.468017 C 9.6166327,14.853819 8.7616226,15.588804 7.645597,16.218682 L 7.4566321,15.885797 c 1.0620098,-0.600033 1.8810397,-1.302058 2.4570923,-2.10608 z m 1.449097,0.01813 0.234008,-0.30597 c 0.984003,0.69599 1.847985,1.424932 2.59195,2.186829 l -0.269989,0.279053 C 13.43566,15.399839 12.583671,14.679869 11.659727,14.031854 z m -4.5271915,3.716949 c 1.3439922,-0.737912 2.5530364,-1.607937 3.6271365,-2.610077 l 0.539978,0 c 1.074091,1.00214 2.283135,1.872165 3.627136,2.610077 l -0.18924,0.34195 C 14.32958,17.868831 13.999624,17.676845 13.747678,17.514794 l 0,2.880066 -0.432037,0 0,-0.494934 -4.5719605,0 0,0.494934 -0.4320374,0 0,-2.880066 C 8.0596885,17.676845 7.7297327,17.868831 7.321775,18.090753 z m 6.1831055,1.791046 0,-1.980011 -4.5719605,0 0,1.980011 z"
     style="font-family:'M+ 2p light';-inkscape-font-specification:'M+ 2p light';fill:#ececec"
     id="path3018" /><path
     d="m 17.158659,14.814904 2.142059,0 0,-1.638061 -2.142059,0 z m 3.599945,0 2.142059,0 0,-1.638061 -2.142059,0 z m 0,0.34195 -0.404847,0 0,-2.340088 2.96988,0 0,2.340088 z m -4.562897,1.034912 0,-0.368866 2.844086,0 c 0.19189,-0.198116 0.36584,-0.420131 0.52185,-0.666046 l -2.402984,0 -0.422974,0 0,-2.340088 2.969879,0 0,2.142059 0.369141,0.09888 c -0.108037,0.240056 -0.273015,0.495121 -0.494934,0.765198 l 4.283844,0 0,0.368866 -2.484009,0 c 0.708062,0.587954 1.578087,1.046999 2.610077,1.377136 l -0.09915,0.386993 c -0.197945,-0.0661 -0.446877,-0.159116 -0.746796,-0.279052 l 0,2.636993 -0.40512,0 0,-0.405121 -1.989075,0 0,0.405121 -0.395783,0 0,-2.978943 2.061036,0 c -0.636115,-0.335996 -1.176184,-0.717038 -1.620209,-1.143127 l -1.565827,0 c -0.461978,0.437991 -0.996005,0.819033 -1.602081,1.143127 l 2.078888,0 0,2.978943 -0.395782,0 0,-0.405121 -1.989075,0 0,0.405121 -0.405121,0 0,-2.636993 c -0.161866,0.06592 -0.410798,0.158937 -0.746796,0.279052 l -0.09915,-0.386993 c 1.020079,-0.335996 1.875089,-0.795041 2.565033,-1.377136 z m 3.114075,3.365936 0,-1.863007 -1.989075,0 0,1.863007 z m 3.428833,0 0,-1.863007 -1.989075,0 0,1.863007 z"
     style="font-family:'M+ 2p light';-inkscape-font-specification:'M+ 2p light';fill:#ececec"
     id="path3020" /><path
     d="m 25.177579,16.137933 -0.305969,-0.29718 c 0.426086,-0.449886 0.810103,-0.986842 1.152054,-1.610871 0.341948,-0.624017 0.602918,-1.269005 0.782913,-1.934967 l 0.422974,0.07196 c -0.09595,0.342048 -0.203891,0.668982 -0.323822,0.980804 l 5.390991,0 c -0.04798,1.380071 -0.11248,2.398594 -0.193497,3.055573 -0.08103,0.656985 -0.175559,1.072496 -0.283584,1.246536 -0.10804,0.174044 -0.269996,0.261064 -0.485871,0.261062 -0.330145,2e-6 -0.771154,-0.01501 -1.323028,-0.04504 l -0.0091,-0.396058 c 0.498041,0.03003 0.888055,0.04505 1.170044,0.04504 0.137872,3e-6 0.242837,-0.07049 0.314896,-0.211486 0.07204,-0.140989 0.139565,-0.484495 0.20256,-1.030518 0.06298,-0.546017 0.118462,-1.391963 0.166443,-2.537842 l -5.111939,0 c -0.43799,0.977971 -0.960023,1.778966 -1.566101,2.402985 z m 5.526123,3.635925 c 0.173944,-0.006 0.29841,-0.01057 0.373398,-0.0136 0.07497,-0.003 0.17399,-0.01501 0.297043,-0.03598 0.12304,-0.02097 0.204064,-0.03296 0.243073,-0.03598 0.03899,-0.003 0.0975,-0.03154 0.175506,-0.08556 0.078,-0.05402 0.125969,-0.09151 0.143921,-0.112473 0.01794,-0.02096 0.04943,-0.08244 0.09448,-0.184433 0.04504,-0.101989 0.07204,-0.179992 0.08102,-0.234008 0.009,-0.05402 0.02846,-0.163513 0.0585,-0.328492 0.03002,-0.164976 0.04952,-0.29846 0.0585,-0.400451 0.009,-0.101988 0.02544,-0.273009 0.04944,-0.513062 l 0.422973,0.09009 c -0.02985,0.293886 -0.05531,0.523363 -0.07635,0.688431 -0.02107,0.165071 -0.0526,0.337601 -0.09462,0.517593 -0.04203,0.179993 -0.07801,0.311967 -0.10794,0.39592 -0.02995,0.08395 -0.08392,0.170929 -0.161911,0.260925 -0.07801,0.09 -0.151528,0.150009 -0.220551,0.180039 -0.06904,0.03003 -0.174049,0.06303 -0.315033,0.09901 -0.140998,0.03598 -0.275992,0.05846 -0.404983,0.06743 -0.129005,0.009 -0.310508,0.0195 -0.54451,0.03158 -0.689947,0.03003 -1.304906,0.04504 -1.844879,0.04504 -0.474064,0 -1.035099,-0.01502 -1.683106,-0.04504 -0.197939,-0.01209 -0.349413,-0.02261 -0.454422,-0.03158 -0.105013,-0.009 -0.207048,-0.03145 -0.306106,-0.06743 -0.09906,-0.03598 -0.166582,-0.07347 -0.202561,-0.112472 -0.03598,-0.039 -0.07045,-0.111008 -0.103409,-0.216019 -0.03296,-0.105011 -0.05095,-0.211532 -0.05397,-0.319565 -0.003,-0.108032 -0.0045,-0.264037 -0.0045,-0.468017 l 0,-2.150849 3.735077,0 0,-1.781982 -3.438171,0 0,-0.378205 3.870209,0 0,2.547181 -3.726014,0 0,1.746002 c -2e-6,0.401917 0.03149,0.638901 0.09448,0.710953 0.06299,0.07205 0.280423,0.11705 0.652313,0.134994 0.617978,0.03003 1.163998,0.04504 1.638062,0.04504 0.491999,0 1.07702,-0.01502 1.755065,-0.04504 z"
     style="font-family:'M+ 2p light';-inkscape-font-specification:'M+ 2p light';fill:#ececec"
     id="path3022" /><path
     d="m 36.130674,15.210687 c -0.708071,0.270084 -1.392061,0.507114 -2.051972,0.71109 L 33.943571,15.5617 c 0.71411,-0.215877 1.443144,-0.464809 2.187103,-0.746796 l 0,-2.232147 0.422974,0 0,3.924042 -0.422974,0 z m -2.025055,3.74414 -0.126068,-0.36914 c 1.398008,-0.359984 2.514035,-0.812987 3.348083,-1.359009 l -3.131927,0 0,-0.368866 3.635925,0 0,-0.74707 0.441101,0 0,0.74707 3.590882,0 0,0.368866 -3.384064,0 c 0.270075,0.504091 0.621088,0.954164 1.053039,1.35022 0.606073,-0.348082 1.140099,-0.744139 1.602082,-1.188172 l 0.305969,0.2612 c -0.431953,0.414003 -0.962959,0.809968 -1.593018,1.187897 0.636102,0.498047 1.38015,0.876068 2.232148,1.134064 l -0.180176,0.368866 c -0.875984,-0.257996 -1.655967,-0.661469 -2.339951,-1.210419 -0.683996,-0.548949 -1.19399,-1.183501 -1.529983,-1.903656 l -0.126068,0 c -0.383977,0.300112 -0.830937,0.576143 -1.340882,0.828094 l 0,1.611145 c 0.648007,-0.114074 1.454952,-0.288116 2.420838,-0.522125 l 0.07224,0.360077 c -1.434086,0.359985 -2.919162,0.632995 -4.455231,0.819031 l -0.05383,-0.360077 c 0.576048,-0.06592 1.104032,-0.1409 1.583954,-0.224945 l 0,-1.485077 c -0.552065,0.240052 -1.227083,0.474061 -2.025055,0.702026 z m 0.06317,-5.651916 0.269989,-0.288117 c 0.443847,0.329963 0.893828,0.713935 1.349945,1.151917 l -0.288116,0.279053 C 35.056576,14.019866 34.612637,13.638915 34.16879,13.302911 z m 7.694825,0.557831 -2.21402,0 0,1.647125 2.051971,0 0,0.360077 -4.598877,0 0,-0.360077 2.106079,0 0,-1.647125 -2.295044,0 0,-0.37793 2.295044,0 0,-0.900055 0.440827,0 0,0.900055 2.21402,0 z"
     style="font-family:'M+ 2p light';-inkscape-font-specification:'M+ 2p light';fill:#ececec"
     id="path3024" /></g>
</svg>