<?xml version="1.0" encoding="utf-8"?>
<!-- Generator: Adobe Illustrator 16.0.4, SVG Export Plug-In . SVG Version: 6.00 Build 0)  -->
<!DOCTYPE svg PUBLIC "-//W3C//DTD SVG 1.1//EN" "http://www.w3.org/Graphics/SVG/1.1/DTD/svg11.dtd">
<svg version="1.1" id="レイヤー_1" xmlns="http://www.w3.org/2000/svg" xmlns:xlink="http://www.w3.org/1999/xlink" x="0px"
	 y="0px" width="595.28px" height="841.89px" viewBox="0 0 595.28 841.89" enable-background="new 0 0 595.28 841.89"
	 xml:space="preserve">
<g>
	<path d="M248.965,432.121h-0.48v-10.44c-1.368,1.68-2.952,3.216-4.56,4.44l-0.384-0.336c3.552-2.593,6.913-6.816,8.329-10.657
		h-7.705v-0.456h4.32v-4.152h0.48v4.152h3.024h0.168l0.336,0.145c-0.72,2.016-1.896,4.08-3.336,6
		c0.504,0.528,1.032,1.057,1.56,1.608c0.984-1.08,1.92-2.256,2.448-3.097l0.408,0.265c-0.6,0.888-1.561,2.063-2.568,3.144
		c0.912,0.984,1.728,1.921,2.304,2.568l-0.36,0.336c-0.912-1.104-2.496-2.928-3.984-4.392V432.121z M251.461,432.146l-0.408-0.36
		c6.241-4.224,6.889-12.721,7.057-18.625h-5.161v-0.456h11.497h0.312h0.216c-0.336,11.881-0.672,18.025-1.392,18.865
		c-0.312,0.36-0.648,0.504-1.224,0.528c-0.744,0.023-2.353,0-3.24-0.072l-0.024-0.479c0.912,0.071,2.473,0.096,3.216,0.071
		c0.36-0.023,0.648-0.096,0.864-0.336c0.696-0.84,0.984-6.672,1.272-18.121h-5.833C258.374,419.257,257.701,427.85,251.461,432.146z
		"/>
	<path d="M275.604,425.113v-10.802h-2.376v-0.455h2.376v-3.337h0.48v3.337h6.36v-3.337h0.48v3.337h2.472v0.455h-2.472v10.802h2.472
		v0.456h-12.505v-0.456H275.604z M277.188,426.77c-0.912,1.872-2.424,3.912-3.769,5.304l-0.48-0.239
		c1.368-1.393,2.856-3.36,3.745-5.233L277.188,426.77z M282.445,417.553v-3.241h-6.36v3.241H282.445z M282.445,421.32v-3.312h-6.36
		v3.312H282.445z M282.445,425.113v-3.337h-6.36v3.337H282.445z M281.197,426.505c1.032,1.152,1.848,2.208,2.448,3.168l-0.432,0.265
		c-0.576-0.984-1.368-2.04-2.376-3.168L281.197,426.505z M286.789,423.625c-0.264,3.312-1.32,6.217-3.84,8.521l-0.336-0.384
		c2.904-2.616,3.769-6.049,3.769-9.961v-10.321h0.24h0.24h6.36h0.168h0.312v19.274c0,0.72-0.192,1.176-0.96,1.296
		c-0.48,0.071-1.656,0.071-2.64,0.023v-0.479c0.816,0.023,1.968,0.048,2.352,0.023c0.624-0.048,0.768-0.359,0.768-0.888v-7.104
		H286.789z M293.222,423.169v-5.497h-6.36v4.129c0,0.456-0.024,0.912-0.048,1.368H293.222z M293.222,417.216v-5.28h-6.36v5.28
		H293.222z"/>
	<path d="M310.885,414.696v0.456h-9.192v-0.456H310.885z M303.276,424.369h6.528v6.456h-6.528v1.248h-0.479v-7.704h0.287H303.276z
		 M309.686,417.937v0.456h-6.77v-0.456H309.686z M309.686,421.152v0.456h-6.77v-0.456H309.686z M309.421,411.527v0.456h-6.24v-0.456
		H309.421z M309.325,430.369v-5.544h-6.049v5.544H309.325z M316.91,427.777c2.016-1.801,3.504-3.961,4.296-6.433h-10.009v-0.456
		h10.104h0.144h0.049l0.384,0.144c-0.815,2.761-2.425,5.137-4.585,7.081c1.753,1.608,3.865,2.76,6.145,3.504l-0.407,0.456
		c-2.28-0.792-4.368-1.992-6.145-3.6c-1.776,1.512-3.913,2.736-6.288,3.647l-0.408-0.432c2.4-0.888,4.561-2.088,6.336-3.576
		c-1.68-1.632-3.048-3.673-3.984-6.145l0.48-0.192C313.909,424.177,315.254,426.169,316.91,427.777z M319.67,411.168h0.191v6.288
		c0,0.672,0.121,0.792,0.697,0.816c0.432,0,1.248,0,1.752,0c0.576-0.024,0.647-0.096,0.672-2.568l0.432,0.12
		c-0.096,2.736-0.191,2.928-1.032,2.952c-0.552,0-1.44,0-1.92,0c-0.792-0.024-1.08-0.312-1.08-1.32v-5.832h-5.88v3.192
		c0,1.968-0.912,3.672-2.953,5.136l-0.336-0.359c1.969-1.368,2.809-3.001,2.809-4.801v-3.624h0.24h0.24h5.88H319.67z"/>
	<path d="M340.957,430.609v-12.457h-6.984v-0.456h14.762v0.456h-7.297v5.328h8.088v0.456h-8.088v6.793
		c0.983,0.264,2.063,0.36,3.24,0.384c0.984,0.024,6.288,0.024,7.248,0l-0.023,0.48c-0.984,0.023-6.24,0.048-7.273,0.023
		c-4.104-0.048-7.08-1.344-9.336-5.353c-0.793,2.305-2.137,4.44-4.537,5.833l-0.408-0.336c3.937-2.208,5.041-6.553,5.449-10.153
		l0.527,0.024c-0.168,1.32-0.408,2.688-0.816,4.008C336.925,428.449,338.725,429.913,340.957,430.609z M340.957,413.496v-2.977h0.48
		v2.977h9.48v4.2h-0.48v-3.744h-18.217v3.744h-0.48v-4.2H340.957z"/>
</g>
</svg>
