<?xml version="1.0" encoding="utf-8"?>
<!-- Generator: Adobe Illustrator 16.0.4, SVG Export Plug-In . SVG Version: 6.00 Build 0)  -->
<!DOCTYPE svg PUBLIC "-//W3C//DTD SVG 1.1//EN" "http://www.w3.org/Graphics/SVG/1.1/DTD/svg11.dtd">
<svg version="1.1" id="レイヤー_1" xmlns="http://www.w3.org/2000/svg" xmlns:xlink="http://www.w3.org/1999/xlink" x="0px"
	 y="0px" width="109px" height="22px" viewBox="0 0 109 22" enable-background="new 0 0 109 22" xml:space="preserve">
<g>
	<path fill="#040000" d="M5.731,21.789h-0.48v-10.44c-1.368,1.681-2.952,3.218-4.56,4.44l-0.384-0.336
		c3.552-2.592,6.913-6.817,8.329-10.658H0.932V4.339h4.32V0.187h0.48v4.152h3.024h0.168L9.26,4.485c-0.72,2.016-1.896,4.079-3.336,6
		c0.504,0.527,1.032,1.057,1.56,1.609c0.984-1.082,1.92-2.257,2.448-3.098L10.34,9.26c-0.6,0.889-1.561,2.063-2.568,3.146
		c0.912,0.982,1.728,1.92,2.304,2.566l-0.36,0.336c-0.912-1.104-2.496-2.928-3.984-4.392V21.789L5.731,21.789z M8.228,21.814
		L7.82,21.455c6.241-4.225,6.889-12.722,7.057-18.626H9.716V2.373h11.497h0.312h0.216c-0.336,11.881-0.672,18.026-1.392,18.866
		c-0.312,0.359-0.648,0.504-1.224,0.527c-0.744,0.023-2.353,0-3.24-0.07l-0.024-0.48c0.912,0.072,2.473,0.096,3.216,0.072
		c0.36-0.023,0.648-0.096,0.864-0.336c0.696-0.84,0.984-6.672,1.272-18.123H15.38C15.141,8.924,14.468,17.518,8.228,21.814z"/>
	<path fill="#040000" d="M32.371,14.781V3.978h-2.376V3.524h2.376V0.186h0.48v3.338h6.36V0.186h0.48v3.338h2.472v0.454H39.69v10.803
		h2.472v0.457H29.658v-0.457H32.371z M33.955,16.438c-0.912,1.873-2.424,3.912-3.769,5.305l-0.48-0.238
		c1.368-1.393,2.856-3.361,3.745-5.234L33.955,16.438z M39.211,7.22V3.98h-6.36v3.24H39.211z M39.211,10.988V7.675h-6.36v3.312
		H39.211z M39.211,14.781v-3.337h-6.36v3.337H39.211z M37.963,16.174c1.032,1.152,1.848,2.207,2.448,3.168l-0.432,0.266
		c-0.576-0.984-1.368-2.041-2.376-3.17L37.963,16.174z M43.556,13.293c-0.264,3.312-1.32,6.217-3.84,8.521l-0.336-0.385
		c2.904-2.615,3.769-6.049,3.769-9.962V1.148h0.24h0.24h6.36h0.168h0.312v19.274c0,0.721-0.192,1.176-0.96,1.297
		c-0.48,0.07-1.656,0.07-2.64,0.023v-0.48c0.816,0.023,1.968,0.049,2.352,0.023c0.624-0.047,0.768-0.359,0.768-0.889v-7.104H43.556
		L43.556,13.293z M49.989,12.838V7.339h-6.36v4.128c0,0.458-0.024,0.913-0.048,1.37H49.989z M49.989,6.883v-5.28h-6.36v5.28H49.989z
		"/>
	<path fill="#040000" d="M67.651,4.364V4.82H58.46V4.364H67.651z M60.042,14.037h6.529v6.457h-6.529v1.248h-0.479v-7.705h0.287
		H60.042L60.042,14.037z M66.452,7.605V8.06h-6.77V7.605H66.452z M66.452,10.82v0.457h-6.77V10.82H66.452z M66.188,1.195v0.456
		h-6.24V1.195H66.188z M66.093,20.037v-5.543h-6.051v5.543H66.093z M73.677,17.445c2.016-1.801,3.504-3.961,4.297-6.434h-10.01
		v-0.456h10.104h0.145h0.049l0.385,0.145c-0.816,2.761-2.426,5.138-4.586,7.082c1.754,1.607,3.865,2.76,6.145,3.504l-0.406,0.457
		c-2.279-0.793-4.367-1.992-6.145-3.602c-1.777,1.514-3.914,2.736-6.289,3.648l-0.408-0.434c2.4-0.887,4.562-2.088,6.336-3.574
		c-1.68-1.633-3.047-3.674-3.982-6.147l0.479-0.191C70.677,13.846,72.021,15.838,73.677,17.445z M76.437,0.835h0.191v6.288
		c0,0.672,0.121,0.792,0.697,0.816c0.432,0,1.248,0,1.752,0c0.576-0.024,0.646-0.097,0.672-2.568l0.432,0.12
		c-0.096,2.735-0.191,2.928-1.031,2.952c-0.553,0-1.441,0-1.92,0c-0.793-0.024-1.08-0.312-1.08-1.32V1.292h-5.881v3.192
		c0,1.968-0.912,3.672-2.953,5.136L66.979,9.26c1.969-1.368,2.809-3.001,2.809-4.801V0.835h0.24h0.24h5.881H76.437L76.437,0.835z"/>
	<path fill="#040000" d="M97.724,20.277V7.82h-6.984V7.364h14.762V7.82h-7.297v5.329h8.088v0.455h-8.088v6.793
		c0.984,0.266,2.064,0.361,3.24,0.385c0.984,0.023,6.289,0.023,7.248,0l-0.023,0.48c-0.982,0.023-6.238,0.047-7.271,0.023
		c-4.105-0.049-7.08-1.344-9.336-5.354c-0.793,2.305-2.139,4.439-4.537,5.832l-0.408-0.336c3.938-2.207,5.041-6.553,5.449-10.153
		l0.527,0.023c-0.168,1.321-0.408,2.69-0.816,4.009C93.692,18.117,95.491,19.582,97.724,20.277z M97.724,3.164V0.186h0.48v2.978
		h9.48v4.2h-0.48V3.62H88.987v3.744h-0.48v-4.2H97.724z"/>
</g>
</svg>
