<?xml version="1.0" encoding="utf-8"?>
<!-- Generator: Adobe Illustrator 16.0.4, SVG Export Plug-In . SVG Version: 6.00 Build 0)  -->
<!DOCTYPE svg PUBLIC "-//W3C//DTD SVG 1.1//EN" "http://www.w3.org/Graphics/SVG/1.1/DTD/svg11.dtd">
<svg version="1.1" id="レイヤー_1" xmlns="http://www.w3.org/2000/svg" xmlns:xlink="http://www.w3.org/1999/xlink" x="0px"
	 y="0px" width="595.28px" height="841.89px" viewBox="0 0 595.28 841.89" enable-background="new 0 0 595.28 841.89"
	 xml:space="preserve">
<path fill="#F7F8F8" d="M282.414,429.069c-1.896,1.177-4.752,2.329-7.153,3.024l-0.96-0.576c2.472-0.672,5.281-1.729,7.177-2.928
	L282.414,429.069z M280.494,415.725l0.144,0.768c-1.68,0.768-4.201,1.896-5.665,2.496c-0.048-0.144-0.12-0.264-0.408-0.792
	C276.005,417.621,278.741,416.517,280.494,415.725z M275.813,410.66c1.944,0.648,3.552,1.368,4.729,2.16l-0.528,0.696
	c-1.176-0.792-2.76-1.512-4.632-2.16L275.813,410.66z M292.999,419.037v9.458h-15.313v-9.458H292.999z M278.621,421.965h13.394
	v-2.208h-13.394V421.965z M278.621,424.846h13.394v-2.232h-13.394V424.846z M278.621,427.773h13.394v-2.232h-13.394V427.773z
	 M296.119,417.957l-0.552,0.816c-3.433-0.36-6.168-1.368-7.849-3.936c-0.888,1.872-2.688,3.072-6.457,3.84l-0.624-0.672
	c4.8-0.864,6.288-2.496,6.769-5.112h-3.216c-0.696,0.96-1.512,1.848-2.353,2.568l-0.84-0.384c1.488-1.176,2.904-2.856,3.6-4.704
	l0.84,0.168c-0.192,0.552-0.456,1.08-0.768,1.584h9.625h0.312h0.168l0.504,0.048c-0.552,1.2-1.464,2.616-2.328,3.672l-0.864-0.216
	c0.672-0.816,1.392-1.848,1.896-2.736h-5.664c-0.048,0.312-0.12,0.6-0.192,0.888C289.566,416.636,292.495,417.741,296.119,417.957z
	 M288.99,428.59c2.784,1.008,5.16,2.016,7.201,2.951l-0.984,0.529c-1.896-0.912-4.248-1.896-7.032-2.929L288.99,428.59z"/>
<path fill="#F7F8F8" d="M299.621,417.021c1.824,1.032,3.288,2.064,4.368,3.072l-0.672,0.672c-1.032-1.032-2.472-2.088-4.225-3.072
	L299.621,417.021z M303.174,424.148l0.72,0.505c-0.912,2.376-2.425,5.64-3.456,7.368l-0.816-0.504
	C300.678,429.838,302.262,426.525,303.174,424.148z M300.51,410.54c1.728,0.96,3.119,1.92,4.128,2.904l-0.648,0.672
	c-0.983-0.96-2.353-1.968-4.009-2.904L300.51,410.54z M314.719,430.869c0,0.697-0.192,1.104-0.84,1.201
	c-0.505,0.071-1.849,0.047-2.809,0.023l-0.12-0.864c0.792,0.024,2.017,0.048,2.328,0.024c0.408-0.024,0.528-0.192,0.528-0.528
	v-7.393h-4.585v-7.969h3.696c0.408-1.104,0.769-2.28,1.008-3.216h-6.912v7.369c0,4.44-0.792,8.81-3.096,12.313l-0.744-0.528
	c2.184-3.384,2.904-7.536,2.904-11.785v-8.208h0.576h0.359h13.777v0.84h-5.856c-0.288,0.96-0.696,2.136-1.128,3.216h5.809v7.969
	h-4.896V430.869z M311.382,425.396c-0.792,2.018-2.185,4.105-3.601,5.521l-0.768-0.408c1.393-1.416,2.784-3.385,3.553-5.425
	L311.382,425.396z M310.109,418.965h8.569v-2.809h-8.569V418.965z M310.109,422.564h8.569v-2.904h-8.569V422.564z M317.863,425.085
	c1.463,1.944,2.496,3.769,3.144,5.376l-0.84,0.361c-0.601-1.584-1.632-3.434-3.024-5.354L317.863,425.085z"/>
</svg>
