<?xml version="1.0" encoding="utf-8"?>
<!-- Generator: Adobe Illustrator 16.0.4, SVG Export Plug-In . SVG Version: 6.00 Build 0)  -->
<!DOCTYPE svg PUBLIC "-//W3C//DTD SVG 1.1//EN" "http://www.w3.org/Graphics/SVG/1.1/DTD/svg11.dtd">
<svg version="1.1" id="レイヤー_1" xmlns="http://www.w3.org/2000/svg" xmlns:xlink="http://www.w3.org/1999/xlink" x="0px"
	 y="0px" width="47px" height="22px" viewBox="0 0 47 22" enable-background="new 0 0 47 22" xml:space="preserve">
<path fill="#F7F9F9" d="M8.26,18.824C6.364,20,3.508,21.152,1.106,21.848l-0.96-0.576c2.472-0.672,5.281-1.729,7.177-2.928
	L8.26,18.824z M6.34,5.479l0.144,0.769c-1.68,0.768-4.201,1.896-5.665,2.496c-0.048-0.145-0.12-0.265-0.408-0.792
	C1.851,7.375,4.587,6.271,6.34,5.479z M1.659,0.415c1.944,0.647,3.552,1.368,4.729,2.16L5.86,3.27
	C4.684,2.478,3.1,1.758,1.228,1.111L1.659,0.415z M18.845,8.792v9.458H3.532V8.792H18.845z M4.467,11.719h13.394V9.511H4.467V11.719
	z M4.467,14.6h13.394v-2.23H4.467V14.6z M4.467,17.527h13.394v-2.232H4.467V17.527z M21.965,7.711l-0.552,0.816
	c-3.433-0.36-6.168-1.368-7.849-3.937c-0.888,1.872-2.688,3.072-6.457,3.84L6.483,7.759c4.8-0.864,6.288-2.496,6.769-5.112h-3.216
	C9.34,3.607,8.524,4.496,7.683,5.215l-0.84-0.384c1.488-1.176,2.904-2.856,3.6-4.704l0.84,0.168
	c-0.192,0.552-0.456,1.08-0.768,1.584h9.625h0.312h0.168l0.504,0.048c-0.552,1.2-1.464,2.616-2.328,3.672l-0.864-0.216
	c0.672-0.816,1.392-1.848,1.896-2.736h-5.664c-0.048,0.312-0.12,0.601-0.192,0.889C15.412,6.39,18.341,7.496,21.965,7.711z
	 M14.836,18.344c2.784,1.008,5.16,2.018,7.201,2.951l-0.984,0.529c-1.896-0.912-4.248-1.896-7.032-2.93L14.836,18.344z"/>
<path fill="#F7F9F9" d="M25.467,6.776c1.824,1.031,3.289,2.063,4.369,3.071l-0.674,0.672c-1.031-1.031-2.471-2.088-4.225-3.071
	L25.467,6.776z M29.02,13.902l0.721,0.506c-0.912,2.375-2.426,5.639-3.457,7.367l-0.814-0.504
	C26.523,19.592,28.107,16.279,29.02,13.902z M26.355,0.294c1.729,0.96,3.119,1.92,4.129,2.904l-0.648,0.672
	c-0.982-0.96-2.354-1.968-4.01-2.904L26.355,0.294z M40.564,20.623c0,0.697-0.191,1.104-0.84,1.201
	c-0.504,0.07-1.85,0.047-2.809,0.023l-0.119-0.865c0.791,0.025,2.016,0.049,2.326,0.025c0.408-0.025,0.529-0.193,0.529-0.529v-7.393
	h-4.586V5.118h3.697c0.408-1.104,0.768-2.28,1.008-3.217h-6.912V9.27c0,4.441-0.793,8.81-3.096,12.314l-0.744-0.529
	c2.184-3.383,2.904-7.535,2.904-11.785V1.062h0.574h0.359h13.777v0.84h-5.855c-0.289,0.96-0.695,2.137-1.129,3.217h5.811v7.969
	h-4.896V20.623L40.564,20.623z M37.229,15.15c-0.793,2.018-2.186,4.105-3.602,5.521l-0.768-0.408
	c1.393-1.416,2.783-3.385,3.553-5.426L37.229,15.15z M35.955,8.719h8.568V5.911h-8.568V8.719z M35.955,12.318h8.568V9.415h-8.568
	V12.318z M43.709,14.84c1.463,1.943,2.496,3.768,3.145,5.375l-0.84,0.361c-0.602-1.584-1.633-3.434-3.025-5.354L43.709,14.84z"/>
</svg>
